<?xml version="1.0" encoding="utf-8"?>
<!-- Generator: Adobe Illustrator 18.0.0, SVG Export Plug-In . SVG Version: 6.00 Build 0)  -->
<!DOCTYPE svg PUBLIC "-//W3C//DTD SVG 1.1//EN" "http://www.w3.org/Graphics/SVG/1.1/DTD/svg11.dtd">
<svg version="1.1" id="Layer_1" xmlns="http://www.w3.org/2000/svg" xmlns:xlink="http://www.w3.org/1999/xlink" x="0px" y="0px"
	 viewBox="0 0 602.8 636.5" enable-background="new 0 0 602.8 636.5" xml:space="preserve">
<g>
	<path fill="#F2F2F2" d="M386.6,249.2c0,0,0.2,0.4,0.5,1c0.3,0.7,0.8,1.6,1.4,2.9c1.2,2.5,2.8,6.1,4.6,10.5c0.9,2.2,1.9,4.5,2.9,7
		c1,2.5,2.1,5.1,3.2,7.9c1.1,2.8,2.2,5.6,3.3,8.5c1.1,2.9,2.2,5.9,3.3,8.8c1.1,3,2.1,5.9,3.2,8.9c1.1,2.9,2,5.8,3,8.6
		c1,2.8,1.8,5.5,2.7,8.1c0.8,2.6,1.6,5,2.3,7.3c1.4,4.5,2.5,8.3,3.2,11c0.7,2.7,1.1,4.2,1.1,4.2s-0.7-1.4-1.9-3.9
		c-1.2-2.5-2.8-6.1-4.6-10.5c-0.9-2.2-1.9-4.5-2.9-7c-1-2.5-2.1-5.1-3.2-7.9c-1.1-2.8-2.2-5.6-3.3-8.5c-1.1-2.9-2.2-5.9-3.3-8.8
		c-1.1-3-2.1-5.9-3.1-8.9c-1.1-2.9-2-5.8-3-8.6c-1-2.8-1.8-5.5-2.7-8.1c-0.8-2.6-1.6-5-2.3-7.3c-1.4-4.5-2.5-8.3-3.2-11
		c-0.4-1.3-0.6-2.4-0.8-3.1C386.7,249.6,386.6,249.2,386.6,249.2z"/>
	<path fill="#F2F2F2" d="M434.7,209.5c0,0,0,0.5,0.1,1.6c0.1,1,0.2,2.5,0.3,4.4c0.2,3.8,0.5,9.2,0.7,15.7c0.1,3.2,0.2,6.8,0.3,10.5
		c0.1,3.7,0.2,7.6,0.2,11.7c0,4.1,0.1,8.3,0.1,12.5c0,4.3,0,8.6,0,12.9c0,4.3-0.1,8.7-0.1,12.9c0,4.3-0.2,8.5-0.2,12.5
		c-0.1,4.1-0.2,8-0.3,11.7c-0.1,3.7-0.3,7.2-0.4,10.5c-0.3,6.5-0.6,11.9-0.8,15.7c-0.2,3.8-0.4,6-0.4,6s-0.2-2.2-0.4-6
		c-0.2-3.8-0.5-9.2-0.7-15.7c-0.1-3.2-0.2-6.8-0.3-10.5c-0.1-3.7-0.2-7.6-0.2-11.7c0-4.1-0.1-8.3-0.1-12.5c0-4.3,0-8.6,0-12.9
		c0-4.3,0.1-8.7,0.1-12.9c0-4.3,0.2-8.5,0.2-12.5c0.1-4.1,0.2-8,0.3-11.7c0.1-3.7,0.3-7.2,0.4-10.5c0.3-6.5,0.6-11.9,0.8-15.7
		c0.1-1.9,0.2-3.4,0.3-4.4C434.6,210.1,434.7,209.5,434.7,209.5z"/>
	<path fill="#F2F2F2" d="M479.7,242.7c0,0-0.1,0.4-0.3,1.2c-0.2,0.8-0.4,2-0.8,3.5c-0.7,3-1.8,7.2-3.1,12.3
		c-0.7,2.5-1.4,5.3-2.2,8.1c-0.8,2.9-1.7,5.9-2.6,9.1c-0.9,3.1-1.9,6.4-2.9,9.6c-1,3.3-2.1,6.6-3.1,9.9c-1.1,3.3-2.2,6.6-3.2,9.9
		c-1,3.3-2.2,6.4-3.2,9.5c-1,3.1-2.1,6.1-3.1,8.9c-1,2.8-2,5.5-2.9,7.9c-1.8,4.9-3.4,9-4.6,11.8c-1.1,2.8-1.8,4.4-1.8,4.4
		s0.4-1.7,1.1-4.7c0.7-3,1.8-7.2,3.1-12.3c0.7-2.5,1.4-5.3,2.2-8.1c0.8-2.9,1.7-5.9,2.6-9.1c0.9-3.1,1.9-6.4,2.9-9.6
		c1-3.3,2.1-6.6,3.1-9.9c1.1-3.3,2.2-6.6,3.2-9.9c1.1-3.3,2.2-6.4,3.2-9.5c1-3.1,2.1-6.1,3.1-8.9c1-2.8,2-5.5,2.9-7.9
		c1.8-4.9,3.4-9,4.6-11.8c0.6-1.4,1-2.5,1.4-3.3C479.5,243.1,479.7,242.7,479.7,242.7z"/>
	<g opacity="0.1">
		<g>
			<g>
				<polygon points="538.9,432.3 454.4,528.6 419.5,520.1 338.1,432.3 344.4,376 523.8,385.2 				"/>
			</g>
		</g>
	</g>
	<g>
		<g>
			<g>
				<polygon fill="#FFFFFF" points="548.8,403.4 456,509.2 417.6,499.9 328.2,403.4 335.1,341.5 532.2,351.6 				"/>
			</g>
		</g>
	</g>
	<polygon fill="#F2F2F2" points="400.5,323.6 407.3,319.9 433.9,348.1 458.9,319.9 464.1,331.6 436.6,363.2 	"/>
	<g>
		<polygon fill="#00C9BC" points="382,241.6 272.6,149.3 339.2,58.4 434.3,101.9 		"/>
		<path fill="#F2F2F2" d="M383.7,248.3L267.1,150l70.8-96.5l101.5,46.3L383.7,248.3z M278,148.7l102.2,86.2l49-130.9l-88.8-40.5
			L278,148.7z"/>
	</g>
	<g>
		<polygon fill="#4D4D4D" points="382,241.6 372.9,256.9 400.3,246.3 		"/>
		<path fill="#F2F2F2" d="M382.3,242.3c0,0.3,0,0.5,0,0.7c0,0.4-0.1,0.8-0.1,1.2c-0.1,0.8-0.3,1.6-0.5,2.3c-0.4,1.5-0.9,2.9-1.4,4.3
			c-0.6,1.4-1.2,2.7-1.9,4c-0.7,1.3-1.6,2.5-2.7,3.5l-3.7-4.4c1.3-0.1,2.5-0.2,3.8-0.3c1.3-0.1,2.5-0.3,3.7-0.7
			c0.6-0.2,1.2-0.4,1.7-0.6c0.6-0.2,1.1-0.5,1.7-0.8c1.1-0.6,2.1-1.2,3.2-2c1-0.7,2-1.5,3.1-2.2c1-0.7,2.1-1.3,3.2-1.9
			c2.2-1.1,4.3-2.3,6.6-3.3l0.5,8.1c-1.5-0.3-3-0.8-4.5-1.4c-1.5-0.5-3-1.2-4.4-1.8c-1.4-0.7-2.9-1.4-4.3-2.3
			c-0.7-0.4-1.4-0.9-2.1-1.4C383.4,243.2,382.8,242.7,382.3,242.3z M382.1,241.2c0.9-0.2,1.7-0.3,2.5-0.4c0.8-0.1,1.7-0.2,2.5-0.2
			c1.6-0.1,3.3-0.1,4.9,0c1.6,0.1,3.2,0.3,4.7,0.5c1.6,0.2,3.1,0.5,4.6,1l12.8,3.8l-12.3,4.3c-2.3,0.8-4.7,1.4-7.1,2
			c-1.2,0.3-2.4,0.6-3.6,0.7c-1.2,0.2-2.5,0.3-3.8,0.4c-1.3,0.1-2.5,0.3-3.7,0.7c-0.6,0.2-1.2,0.3-1.8,0.5c-0.6,0.2-1.1,0.4-1.7,0.7
			c-1.1,0.5-2.2,1.2-3.2,2c-1,0.8-2,1.6-3,2.3l-6.3,4.6l2.6-9c0.4-1.5,1-2.8,1.8-4.1c0.8-1.2,1.6-2.5,2.6-3.6c0.9-1.2,2-2.3,3.1-3.3
			c0.6-0.5,1.2-1,1.8-1.5c0.3-0.2,0.7-0.5,1-0.7c0.3-0.2,0.7-0.5,1.1-0.7l0.2-0.1L382.1,241.2z"/>
	</g>
	<g>
		<polygon fill="#4379FF" points="483.8,235.9 462.3,112.4 558.2,89 597.5,171.7 		"/>
		<path fill="#F2F2F2" d="M480.8,242.2l-23-132.8l102.7-25.1l42.3,89L480.8,242.2z M466.9,115.4l19.8,114.2l105.6-59.6L556,93.7
			L466.9,115.4z"/>
	</g>
	<g>
		<polygon fill="#666666" points="483.8,235.9 466.1,241.3 493.2,249.5 		"/>
		<path fill="#F2F2F2" d="M483.5,236.7c-0.2,0.2-0.4,0.4-0.6,0.6c-0.3,0.3-0.6,0.6-1,0.8c-0.6,0.5-1.3,1-2,1.4
			c-0.7,0.4-1.3,0.8-2,1.2c-0.7,0.4-1.4,0.7-2.1,1c-0.7,0.3-1.4,0.6-2.1,0.9c-0.7,0.3-1.4,0.5-2.2,0.7c-1.5,0.4-3.1,0.5-4.7,0.4l0-5
			c1,0.7,2,1.4,3.1,2c1.1,0.6,2.1,1.1,3.3,1.4c1.1,0.3,2.3,0.6,3.5,0.7c1.2,0.1,2.4,0.1,3.6,0.2c1.2,0,2.4,0.1,3.6,0.2
			c1.2,0.1,2.4,0.4,3.5,0.6c1.2,0.2,2.3,0.4,3.5,0.7c1.2,0.2,2.3,0.5,3.4,0.9l-4.8,6.6c-0.8-1.1-1.5-2.3-2.1-3.6
			c-0.6-1.2-1.2-2.5-1.8-3.8c-0.5-1.3-1-2.6-1.4-4c-0.2-0.7-0.4-1.4-0.6-2.1c-0.1-0.4-0.2-0.7-0.2-1.1
			C483.6,237.1,483.5,236.9,483.5,236.7z M484.1,235.7c0.3,0.2,0.7,0.4,1,0.6c0.3,0.2,0.7,0.4,1,0.6c0.6,0.4,1.2,0.8,1.8,1.3
			c1.2,0.9,2.3,1.8,3.3,2.7c1,1,2,1.9,3,3c0.9,1,1.8,2.1,2.6,3.2l7.3,10l-12-3.4c-1.1-0.3-2.2-0.7-3.3-1.1c-1.1-0.4-2.2-0.9-3.3-1.4
			c-1.1-0.5-2.2-0.9-3.3-1.5c-1.1-0.5-2.1-1.2-3.1-1.9c-1-0.7-2.1-1.3-3.1-1.9c-1.1-0.6-2.2-1-3.3-1.4c-1.1-0.4-2.3-0.6-3.5-0.7
			c-1.2-0.1-2.5,0-3.7,0l-7.2,0l7.2-5.1c1.3-0.9,2.7-1.7,4.1-2.2c0.7-0.3,1.5-0.4,2.2-0.6c0.7-0.2,1.5-0.3,2.3-0.5
			c0.8-0.1,1.5-0.2,2.3-0.3c0.8-0.1,1.6-0.1,2.4-0.1c0.8,0,1.6,0,2.4,0.1c0.4,0,0.8,0.1,1.3,0.2c0.4,0.1,0.8,0.2,1.3,0.3l0.3,0.1
			L484.1,235.7z"/>
	</g>
	<g>
		<g>
			<polygon fill="#00A99D" points="435,204.2 356.1,74 454.2,5.1 535.3,81.3 			"/>
			<path fill="#F2F2F2" d="M434.5,211.1L350.8,72.9L454.6,0l86.1,80.9L434.5,211.1z M361.5,75.2l74,122.1l94.4-115.6l-76-71.4
				L361.5,75.2z"/>
		</g>
		<g>
			<polygon fill="#00A99D" points="435,204.2 421.1,214.9 448.3,214.9 			"/>
			<path fill="#F2F2F2" d="M459.6,218.9h-50.3l25.8-19.8L459.6,218.9z M432.9,210.9h4.1l-2-1.6L432.9,210.9z"/>
		</g>
	</g>
</g>
<g>
	<path fill="#F2F2F2" d="M119.5,296.9c0,0,0.2,0.4,0.5,1c0.3,0.7,0.8,1.6,1.4,2.9c1.2,2.5,2.8,6.1,4.6,10.5c0.9,2.2,1.9,4.5,2.9,7
		c1,2.5,2.1,5.1,3.2,7.9c1.1,2.8,2.2,5.6,3.3,8.5c1.1,2.9,2.2,5.9,3.3,8.8c1.1,3,2.1,5.9,3.2,8.9c1.1,2.9,2,5.8,3,8.6
		c1,2.8,1.8,5.5,2.7,8.1c0.8,2.6,1.6,5,2.3,7.3c1.4,4.5,2.5,8.3,3.2,11c0.7,2.7,1.1,4.2,1.1,4.2s-0.7-1.4-1.9-3.9
		c-1.2-2.5-2.8-6.1-4.6-10.5c-0.9-2.2-1.9-4.5-2.9-7c-1-2.5-2.1-5.1-3.2-7.9c-1.1-2.8-2.2-5.6-3.3-8.5c-1.1-2.9-2.2-5.9-3.3-8.8
		c-1.1-3-2.1-5.9-3.1-8.9c-1.1-2.9-2-5.8-3-8.6c-1-2.8-1.8-5.5-2.7-8.1c-0.8-2.6-1.6-5-2.3-7.3c-1.4-4.5-2.5-8.3-3.2-11
		c-0.4-1.3-0.6-2.4-0.8-3.1C119.6,297.2,119.5,296.9,119.5,296.9z"/>
	<path fill="#F2F2F2" d="M167.6,257.2c0,0,0,0.5,0.1,1.6c0.1,1,0.2,2.5,0.3,4.4c0.2,3.8,0.5,9.2,0.7,15.7c0.1,3.2,0.2,6.8,0.3,10.5
		c0.1,3.7,0.2,7.6,0.2,11.7c0,4.1,0.1,8.3,0.1,12.5c0,4.3,0,8.6,0,12.9c0,4.3-0.1,8.7-0.1,12.9c0,4.3-0.2,8.5-0.2,12.5
		c-0.1,4.1-0.2,8-0.3,11.7c-0.1,3.7-0.3,7.2-0.4,10.5c-0.3,6.5-0.6,11.9-0.8,15.7c-0.2,3.8-0.4,6-0.4,6s-0.2-2.2-0.4-6
		c-0.2-3.8-0.5-9.2-0.7-15.7c-0.1-3.2-0.2-6.8-0.3-10.5c-0.1-3.7-0.2-7.6-0.2-11.7c0-4.1-0.1-8.3-0.1-12.5c0-4.3,0-8.6,0-12.9
		c0-4.3,0.1-8.7,0.1-12.9c0-4.3,0.2-8.5,0.2-12.5c0.1-4.1,0.2-8,0.3-11.7c0.1-3.7,0.3-7.2,0.4-10.5c0.3-6.5,0.6-11.9,0.8-15.7
		c0.1-1.9,0.2-3.4,0.3-4.4C167.5,257.7,167.6,257.2,167.6,257.2z"/>
	<path fill="#F2F2F2" d="M212.5,290.3c0,0-0.1,0.4-0.3,1.2c-0.2,0.8-0.4,2-0.8,3.5c-0.7,3-1.8,7.2-3.1,12.3
		c-0.7,2.5-1.4,5.3-2.2,8.1c-0.8,2.9-1.7,5.9-2.6,9.1c-0.9,3.1-1.9,6.4-2.9,9.6c-1,3.3-2.1,6.6-3.1,9.9c-1.1,3.3-2.2,6.6-3.2,9.9
		c-1,3.3-2.2,6.4-3.2,9.5c-1,3.1-2.1,6.1-3.1,8.9c-1,2.8-2,5.5-2.9,7.9c-1.8,4.9-3.4,9-4.6,11.8c-1.1,2.8-1.8,4.4-1.8,4.4
		s0.4-1.7,1.1-4.7c0.7-3,1.8-7.2,3.1-12.3c0.7-2.5,1.4-5.3,2.2-8.1c0.8-2.9,1.7-5.9,2.6-9.1c0.9-3.1,1.9-6.4,2.9-9.6
		c1-3.3,2.1-6.6,3.1-9.9c1.1-3.3,2.2-6.6,3.2-9.9c1.1-3.3,2.2-6.4,3.2-9.5c1-3.1,2.1-6.1,3.1-8.9c1-2.8,2-5.5,2.9-7.9
		c1.8-4.9,3.4-9,4.6-11.8c0.6-1.4,1-2.5,1.4-3.3C212.4,290.7,212.5,290.3,212.5,290.3z"/>
	<g opacity="0.1">
		<g>
			<g>
				<polygon points="305.4,507.9 192.6,636.5 146,625.2 37.3,507.9 45.7,432.7 285.3,445 				"/>
			</g>
		</g>
	</g>
	<g>
		<g>
			<g>
				<polygon fill="#FFFFFF" points="317.2,471 194.5,610.8 143.7,598.5 25.5,471 34.7,389.1 295.3,402.5 				"/>
			</g>
		</g>
	</g>
	<g>
		<polygon fill="#F2F2F2" points="133.4,371.3 140.2,367.5 166.8,395.7 191.8,367.5 196.9,379.2 169.5,410.8 		"/>
		<path fill="#F2F2F2" d="M133.2,370.9c1-0.9,2-1.7,3.1-2.5c1-0.8,2.1-1.6,3.2-2.4l0.8-0.6l1.1,0.9c2.5,2.1,5,4.2,7.4,6.4
			c2.4,2.2,4.8,4.4,7.1,6.6c2.3,2.2,4.6,4.5,6.9,6.9c1.1,1.2,2.2,2.3,3.3,3.5c1.1,1.2,2.2,2.4,3.2,3.6l-5.1,0.1
			c2.2-2.2,4.5-4.4,6.8-6.5l3.5-3.2c1.2-1.1,2.3-2.2,3.4-3.2c2.3-2.2,4.5-4.4,6.6-6.7c2.1-2.3,4.2-4.7,6.1-7.1l1.3-1.6l0.9,1.9
			c0.9,1.9,1.9,3.8,2.9,5.7c1,1.9,2.1,3.8,3.1,5.6l0.6,1.1l-1,1.3c-2.1,2.8-4.1,5.7-6.2,8.5c-1,1.4-2.1,2.8-3.2,4.2l-3.3,4.1
			c-2.2,2.7-4.4,5.4-6.6,8.1l-3.3,4c-1.1,1.4-2.2,2.7-3.4,4l-3.1,3.7l-3.3-3.6c-1.5-1.7-3-3.3-4.5-5c-1.5-1.7-2.9-3.4-4.4-5.1
			c-2.9-3.4-5.7-6.8-8.5-10.4c-1.4-1.8-2.8-3.5-4.1-5.3c-1.3-1.8-2.7-3.5-4-5.4c-1.3-1.8-2.6-3.6-3.9-5.5c-1.3-1.8-2.6-3.7-3.8-5.6
			l-0.2-0.3L133.2,370.9z M134.2,371.4c1.6,1.3,3.2,2.5,4.7,3.9c1.7,1.4,3.4,2.9,5.1,4.4c1.7,1.5,3.3,3,5,4.5
			c1.7,1.5,3.3,3.1,4.9,4.6c3.3,3.1,6.4,6.2,9.5,9.4c1.6,1.6,3.1,3.2,4.6,4.8c1.5,1.6,3,3.3,4.5,4.9l-6.4,0.1
			c1.2-1.3,2.3-2.6,3.5-3.9l3.5-3.8c2.4-2.6,4.8-5.1,7.1-7.6l3.6-3.8c1.2-1.3,2.4-2.5,3.7-3.7c2.5-2.5,5-4.9,7.5-7.3l-0.4,2.4
			c-0.7-2-1.4-4.1-2.1-6.1c-0.7-2-1.4-4-2.2-6l2.2,0.3c-2.2,2.3-4.3,4.6-6.3,7c-2,2.4-4,4.8-5.9,7.4c-0.9,1.3-1.9,2.5-2.8,3.8
			l-2.7,3.9c-1.8,2.6-3.7,5.1-5.6,7.6l-2.2,2.8l-2.8-2.7c-1.2-1.1-2.3-2.3-3.4-3.4c-1.1-1.2-2.2-2.3-3.3-3.5
			c-2.2-2.4-4.3-4.8-6.4-7.3c-2.1-2.5-4.2-4.9-6.2-7.5c-2-2.5-4-5.1-5.9-7.8l2,0.3c-1.2,0.5-2.4,1-3.7,1.4
			C136.3,370.7,135.2,371.1,134.2,371.4z"/>
	</g>
	<g>
		<polygon fill="#FF9426" points="114.9,289.2 5.4,197 72.1,106.1 167.2,149.5 		"/>
		<path fill="#F2F2F2" d="M116.6,295.9L0,197.6l70.8-96.5l101.5,46.3L116.6,295.9z M10.9,196.3l102.2,86.2l49-130.9l-88.8-40.5
			L10.9,196.3z"/>
	</g>
	<g>
		<polygon fill="#4D4D4D" points="114.9,289.2 105.8,304.5 133.2,293.9 		"/>
		<path fill="#F2F2F2" d="M115.2,289.9c0,0.3,0,0.5,0,0.7c0,0.4-0.1,0.8-0.1,1.2c-0.1,0.8-0.3,1.6-0.5,2.3c-0.4,1.5-0.9,2.9-1.4,4.3
			c-0.6,1.4-1.2,2.7-1.9,4c-0.7,1.3-1.6,2.5-2.7,3.5l-3.7-4.4c1.3-0.1,2.5-0.2,3.8-0.3c1.3-0.1,2.5-0.3,3.7-0.7
			c0.6-0.2,1.2-0.4,1.7-0.6c0.6-0.2,1.1-0.5,1.7-0.8c1.1-0.6,2.1-1.2,3.2-2c1-0.7,2-1.5,3.1-2.2c1-0.7,2.1-1.3,3.2-1.9
			c2.2-1.1,4.3-2.3,6.6-3.3l0.5,8.1c-1.5-0.3-3-0.8-4.5-1.4c-1.5-0.5-3-1.2-4.4-1.8c-1.4-0.7-2.9-1.4-4.3-2.3
			c-0.7-0.4-1.4-0.9-2.1-1.4C116.2,290.8,115.7,290.4,115.2,289.9z M115,288.8c0.9-0.2,1.7-0.3,2.5-0.4c0.8-0.1,1.7-0.2,2.5-0.2
			c1.6-0.1,3.3-0.1,4.9,0c1.6,0.1,3.2,0.3,4.7,0.5c1.6,0.2,3.1,0.5,4.6,1l12.8,3.8l-12.3,4.3c-2.3,0.8-4.7,1.4-7.1,2
			c-1.2,0.3-2.4,0.6-3.6,0.7c-1.2,0.2-2.5,0.3-3.8,0.4c-1.3,0.1-2.5,0.3-3.7,0.7c-0.6,0.2-1.2,0.3-1.8,0.5c-0.6,0.2-1.1,0.4-1.7,0.7
			c-1.1,0.5-2.2,1.2-3.2,2c-1,0.8-2,1.6-3,2.3l-6.3,4.6l2.6-9c0.4-1.5,1-2.8,1.8-4.1c0.8-1.2,1.6-2.5,2.6-3.6c0.9-1.2,2-2.3,3.1-3.3
			c0.6-0.5,1.2-1,1.8-1.5c0.3-0.2,0.7-0.5,1-0.7c0.3-0.2,0.7-0.5,1.1-0.7l0.2-0.1L115,288.8z"/>
	</g>
	<g>
		<polygon fill="#C1272D" points="216.6,283.6 195.2,160.1 291.1,136.7 330.4,219.4 		"/>
		<path fill="#F2F2F2" d="M213.7,289.8l-23-132.8L293.3,132l42.3,89L213.7,289.8z M199.8,163.1l19.8,114.2l105.6-59.6l-36.3-76.4
			L199.8,163.1z"/>
	</g>
	<g>
		<polygon fill="#666666" points="216.6,283.6 199,288.9 226.1,297.1 		"/>
		<path fill="#F2F2F2" d="M216.4,284.3c-0.2,0.2-0.4,0.4-0.6,0.6c-0.3,0.3-0.6,0.6-1,0.8c-0.6,0.5-1.3,1-2,1.4
			c-0.7,0.4-1.3,0.8-2,1.2c-0.7,0.4-1.4,0.7-2.1,1c-0.7,0.3-1.4,0.6-2.1,0.9c-0.7,0.3-1.4,0.5-2.2,0.7c-1.5,0.4-3.1,0.5-4.7,0.4l0-5
			c1,0.7,2,1.4,3.1,2c1.1,0.6,2.1,1.1,3.3,1.4c1.1,0.3,2.3,0.6,3.5,0.7c1.2,0.1,2.4,0.1,3.6,0.2c1.2,0,2.4,0.1,3.6,0.2
			c1.2,0.1,2.4,0.4,3.5,0.6c1.2,0.2,2.3,0.4,3.5,0.7c1.2,0.2,2.3,0.5,3.4,0.9l-4.8,6.6c-0.8-1.1-1.5-2.3-2.1-3.6
			c-0.6-1.2-1.2-2.5-1.8-3.8c-0.5-1.3-1-2.6-1.4-4c-0.2-0.7-0.4-1.4-0.6-2.1c-0.1-0.4-0.2-0.7-0.2-1.1
			C216.4,284.7,216.4,284.5,216.4,284.3z M217,283.3c0.3,0.2,0.7,0.4,1,0.6c0.3,0.2,0.7,0.4,1,0.6c0.6,0.4,1.2,0.8,1.8,1.3
			c1.2,0.9,2.3,1.8,3.3,2.7c1,1,2,1.9,3,3c0.9,1,1.8,2.1,2.6,3.2l7.3,10l-12-3.4c-1.1-0.3-2.2-0.7-3.3-1.1c-1.1-0.4-2.2-0.9-3.3-1.4
			c-1.1-0.5-2.2-0.9-3.3-1.5c-1.1-0.5-2.1-1.2-3.1-1.9c-1-0.7-2.1-1.3-3.1-1.9c-1.1-0.6-2.2-1-3.3-1.4c-1.1-0.4-2.3-0.6-3.5-0.7
			c-1.2-0.1-2.5,0-3.7,0l-7.2,0l7.2-5.1c1.3-0.9,2.7-1.7,4.1-2.2c0.7-0.3,1.5-0.4,2.2-0.6c0.7-0.2,1.5-0.3,2.3-0.5
			c0.8-0.1,1.5-0.2,2.3-0.3c0.8-0.1,1.6-0.1,2.4-0.1c0.8,0,1.6,0,2.4,0.1c0.4,0,0.8,0.1,1.3,0.2c0.4,0.1,0.8,0.2,1.3,0.3l0.3,0.1
			L217,283.3z"/>
	</g>
	<g>
		<polygon fill="#F6E431" points="167.9,251.9 89,121.7 187.1,52.8 268.1,128.9 		"/>
		<path fill="#F2F2F2" d="M167.4,258.8L83.7,120.5l103.8-72.9l86.1,80.9L167.4,258.8z M94.4,122.8l74,122.1l94.4-115.6l-76-71.4
			L94.4,122.8z"/>
	</g>
	<g>
		<polygon fill="#666666" points="167.9,251.9 154,262.6 181.2,262.6 		"/>
		<path fill="#F2F2F2" d="M167.9,252.7c-0.1,0.2-0.2,0.4-0.3,0.6c-0.2,0.4-0.4,0.7-0.6,1.1c-0.4,0.7-0.8,1.3-1.3,2
			c-0.9,1.3-1.9,2.4-2.9,3.5c-0.5,0.5-1.1,1-1.6,1.5c-0.6,0.5-1.1,1-1.7,1.4c-1.2,0.9-2.5,1.5-4,2l-1.7-5c1.1,0.4,2.3,0.8,3.4,1.1
			c1.1,0.3,2.3,0.5,3.4,0.5c1.1,0,2.3-0.1,3.4-0.2c1.1-0.2,2.3-0.5,3.4-0.8c1.1-0.3,2.3-0.7,3.4-0.9c1.1-0.3,2.3-0.4,3.4-0.5
			l3.4-0.4c1.1-0.1,2.3-0.2,3.4-0.2l-2.7,7.6c-1.1-0.9-2.2-1.8-3.2-2.9c-1-1-2-2.1-2.9-3.2c-0.9-1.1-1.8-2.3-2.6-3.6
			c-0.4-0.6-0.8-1.3-1.2-2C168.4,253.8,168.2,253.3,167.9,252.7z M168.2,251.5c0.8,0.1,1.6,0.3,2.3,0.6c0.7,0.2,1.5,0.5,2.2,0.7
			c1.4,0.5,2.7,1.1,4,1.8c1.3,0.6,2.5,1.4,3.8,2.1c1.2,0.8,2.4,1.6,3.5,2.5l9.5,7.9l-12.3-0.3c-1.1,0-2.3-0.1-3.4-0.2l-3.4-0.4
			c-1.1-0.1-2.3-0.3-3.4-0.5c-1.1-0.2-2.3-0.6-3.4-0.9c-1.1-0.3-2.3-0.6-3.4-0.8c-1.1-0.2-2.3-0.3-3.4-0.2c-1.1,0-2.3,0.2-3.4,0.5
			c-1.1,0.3-2.3,0.7-3.4,1.1l-6.4,2l4.7-6.9c0.9-1.3,1.8-2.4,3-3.3c0.6-0.5,1.2-0.9,1.8-1.3c0.6-0.4,1.2-0.8,1.9-1.1
			c1.3-0.7,2.6-1.4,4.1-1.9c0.7-0.3,1.5-0.5,2.2-0.7c0.4-0.1,0.8-0.2,1.2-0.3c0.4-0.1,0.8-0.1,1.2-0.2l0.3,0L168.2,251.5z"/>
	</g>
</g>
</svg>
