<?xml version="1.0" encoding="utf-8"?>
<!-- Generator: Adobe Illustrator 18.0.0, SVG Export Plug-In . SVG Version: 6.00 Build 0)  -->
<!DOCTYPE svg PUBLIC "-//W3C//DTD SVG 1.1//EN" "http://www.w3.org/Graphics/SVG/1.1/DTD/svg11.dtd">
<svg version="1.1" id="Layer_1" xmlns="http://www.w3.org/2000/svg" xmlns:xlink="http://www.w3.org/1999/xlink" x="0px" y="0px"
	 viewBox="0 0 1366 300" enable-background="new 0 0 1366 300" xml:space="preserve">
<rect x="0.6" y="1982.1" fill="#FFC732" width="1366" height="22.5"/>
<polygon fill="#F2F2F2" points="0,300 0,154.2 92,14.2 370.6,37.5 446,106.2 566.2,122.2 614.8,52.6 884.1,0.2 985.1,62.2
	1080.3,70.2 1136.9,37.5 1332,109.6 1366,152.6 1366,299.8 "/>
<polygon fill="#ffc732" points="1366,299.8 1366,184.1 1332,141.1 1136.8,69 1080.3,101.7 985.1,93.7 884,31.7 614.8,84.1 
	566.2,153.7 446,137.7 370.6,69 92,45.7 0,185.7 0,300 "/>
</svg>
