<?xml version="1.0" encoding="utf-8"?>
<!-- Generator: Adobe Illustrator 18.0.0, SVG Export Plug-In . SVG Version: 6.00 Build 0)  -->
<!DOCTYPE svg PUBLIC "-//W3C//DTD SVG 1.1//EN" "http://www.w3.org/Graphics/SVG/1.1/DTD/svg11.dtd">
<svg version="1.1" id="Layer_1" xmlns="http://www.w3.org/2000/svg" xmlns:xlink="http://www.w3.org/1999/xlink" x="0px" y="0px"
	 viewBox="0 -100.1 1366 400" enable-background="new 0 -100.1 1366 400" xml:space="preserve">
<path fill="#F2F2F2" d="M1248.8,20.4c-0.6-0.4-1.4-0.9-2.2-1.3c-0.6-0.3-1.1-0.7-1.8-1c-0.3-0.2-0.6-0.4-1-0.5
	c-0.2-0.1-0.3-0.2-0.5-0.3c-0.2-0.1-0.4-0.2-0.5-0.3c-1.4-0.7-2.9-1.5-4.5-2.2c-0.8-0.3-1.6-0.7-2.5-1c-0.4-0.2-0.9-0.3-1.3-0.5
	c-0.4-0.2-0.9-0.3-1.3-0.5c-1.8-0.6-3.7-1.1-5.7-1.6c-0.5-0.1-1-0.2-1.5-0.3c-0.5-0.1-1-0.2-1.5-0.3c-0.5-0.1-1-0.2-1.5-0.3
	l-0.8-0.1l-0.8-0.1l-1.5-0.2c-0.5-0.1-1-0.1-1.5-0.1l-0.7-0.1c-0.2,0-0.5-0.1-0.8-0.1c-0.5,0-1.1-0.1-1.6-0.1c-0.3,0-0.5,0-0.8,0
	h-0.1h-0.6c-0.5,0-1,0-1.5,0c-1,0-2,0-2.9,0.1c-1.9,0.1-3.8,0.3-5.5,0.5c-1.8,0.2-3.4,0.5-5,0.8c-1.5,0.3-2.9,0.7-4.2,1
	c-1.2,0.3-2.3,0.7-3.2,0.9c-0.4,0.1-0.8,0.3-1.2,0.4c-0.4,0.1-0.6,0.2-0.9,0.3c-0.4,0.1-0.7,0.2-0.7,0.2c0.1,0,0.3-0.2,0.6-0.5
	c0.2-0.2,0.4-0.4,0.7-0.6s0.6-0.5,1-0.8c0.8-0.5,1.8-1.2,2.9-1.8c0.6-0.3,1.2-0.7,1.9-1c0.7-0.3,1.4-0.7,2.2-1
	c0.8-0.3,1.6-0.6,2.4-1c0.8-0.3,1.7-0.6,2.6-0.8c1.8-0.5,3.8-1,5.9-1.3c0.5-0.1,1-0.1,1.6-0.2c0.3,0,0.6-0.1,0.9-0.1
	c0.8-4.8,1.2-9.6,1.2-14.6c0-49.8-40.4-90.2-90.2-90.2c-49.8,0-90.2,40.4-90.2,90.2c0,0.8,0,1.6,0,2.4c0.6,0,1.1,0,1.7,0.1h0.3h0.3
	l0.6,0.1c0.4,0,0.8,0.1,1.2,0.1c0.4,0,0.8,0.1,1.1,0.2c0.4,0.1,0.7,0.1,1.1,0.2c0.7,0.2,1.5,0.3,2.2,0.5c0.7,0.2,1.4,0.4,2.1,0.6
	c0.7,0.2,1.4,0.5,2,0.7l0.5,0.2c0.2,0.1,0.3,0.1,0.5,0.2c0.3,0.1,0.6,0.3,1,0.4l1,0.4c0.3,0.1,0.6,0.3,0.9,0.5
	c0.6,0.3,1.2,0.6,1.8,1c0.6,0.4,1.1,0.7,1.7,1.1c0.6,0.3,1.1,0.7,1.6,1.1c0.3,0.2,0.5,0.4,0.8,0.6l0.4,0.3c0.1,0.1,0.2,0.2,0.4,0.3
	c0.9,0.8,1.8,1.6,2.6,2.4c0.4,0.4,0.8,0.8,1.2,1.2c0.4,0.4,0.7,0.8,1,1.2c0.7,0.8,1.2,1.6,1.8,2.3c0.1,0.2,0.3,0.4,0.4,0.5
	c0.1,0.2,0.2,0.4,0.4,0.5c0.2,0.4,0.4,0.7,0.6,1c0.2,0.3,0.4,0.6,0.6,1c0.2,0.3,0.3,0.6,0.5,0.9c0.3,0.6,0.6,1.1,0.8,1.5
	c0.2,0.5,0.4,0.9,0.5,1.2c0.2,0.6,0.4,0.9,0.4,1c0,0-0.2-0.3-0.6-0.8c-0.2-0.3-0.5-0.6-0.8-1c-0.1-0.2-0.3-0.4-0.5-0.6
	c-0.2-0.2-0.4-0.4-0.6-0.7c-0.4-0.5-0.8-1-1.4-1.6c-0.3-0.3-0.5-0.6-0.8-0.9c-0.1-0.1-0.3-0.3-0.4-0.4c-0.2-0.1-0.3-0.3-0.5-0.4
	c-0.6-0.6-1.3-1.2-2-1.8c-0.4-0.3-0.7-0.6-1.1-1c-0.4-0.3-0.8-0.6-1.2-0.9c-0.8-0.6-1.7-1.2-2.7-1.8c-0.2-0.2-0.5-0.3-0.7-0.4
	c-0.2-0.1-0.5-0.3-0.7-0.4c-0.5-0.3-1-0.6-1.5-0.8c-0.5-0.3-1.1-0.5-1.6-0.8c-0.6-0.2-1.1-0.5-1.7-0.7c-0.6-0.2-1.2-0.5-1.7-0.7
	c-0.3-0.1-0.6-0.2-0.9-0.3c-0.1-0.1-0.3-0.1-0.5-0.2l-0.5-0.1c-0.6-0.2-1.2-0.3-1.9-0.5c-0.6-0.1-1.3-0.3-1.9-0.4
	c-0.6-0.2-1.3-0.2-1.9-0.3l-1-0.2c-0.3-0.1-0.6-0.1-1-0.1c-0.3,0-0.6-0.1-1-0.1h-0.5h-0.2h-0.3c-0.7,0-1.4,0-2.2-0.1h-0.3l0,0h-0.1
	h-0.5c-0.3,0-0.7,0-1,0c-0.7,0.1-1.3,0.1-2,0.2c-2.7,0.2-5.3,0.8-7.9,1.6c-2.5,0.8-4.9,1.9-7.2,3.1c-2.2,1.2-4.3,2.6-6.1,4.1
	s-3.4,3.1-4.8,4.6c-1.4,1.6-2.6,3.1-3.5,4.5c-1,1.4-1.7,2.7-2.3,3.8c-0.4,1.1-0.8,2.3-1.2,3.5c-0.2,0-0.4,0.1-0.6,0.1
	c-23.7,5-41.4,26-41.4,51.2c0,28.9,23.4,52.3,52.3,52.3c4.7,0,9.3-0.6,13.6-1.8c17.7,29.4,50,49.1,86.8,49.1
	c42.1,0,78.2-25.7,93.5-62.3c4.9,1.5,10.1,2.3,15.4,2.3c29.3,0,53.1-23.8,53.1-53.1C1267.5,44.7,1260.3,30.2,1248.8,20.4z"/>
<path fill="#F2F2F2" d="M1248.8,20.4c-0.6-0.4-1.4-0.9-2.2-1.3c-0.6-0.3-1.1-0.7-1.8-1c-0.3-0.2-0.6-0.4-1-0.5
	c-0.2-0.1-0.3-0.2-0.5-0.3c-0.2-0.1-0.4-0.2-0.5-0.3c-1.4-0.7-2.9-1.5-4.5-2.2c-0.8-0.3-1.6-0.7-2.5-1c-0.4-0.2-0.9-0.3-1.3-0.5
	c-0.4-0.2-0.9-0.3-1.3-0.5c-1.8-0.6-3.7-1.1-5.7-1.6c-0.5-0.1-1-0.2-1.5-0.3c-0.5-0.1-1-0.2-1.5-0.3c-0.5-0.1-1-0.2-1.5-0.3
	l-0.8-0.1l-0.8-0.1l-1.5-0.2c-0.5-0.1-1-0.1-1.5-0.1l-0.7-0.1c-0.2,0-0.5-0.1-0.8-0.1c-0.5,0-1.1-0.1-1.6-0.1c-0.3,0-0.5,0-0.8,0
	h-0.1h-0.6c-0.5,0-1,0-1.5,0c-1,0-2,0-2.9,0.1c-1.9,0.1-3.8,0.3-5.5,0.5c-1.8,0.2-3.4,0.5-5,0.8c-1.5,0.3-2.9,0.7-4.2,1
	c-1.2,0.3-2.3,0.7-3.2,0.9c-0.4,0.1-0.8,0.3-1.2,0.4c-0.4,0.1-0.6,0.2-0.9,0.3c-0.4,0.1-0.7,0.2-0.7,0.2c0.1,0,0.3-0.2,0.6-0.5
	c0.2-0.2,0.4-0.4,0.7-0.6s0.6-0.5,1-0.8c0.8-0.5,1.8-1.2,2.9-1.8c0.6-0.3,1.2-0.7,1.9-1c0.7-0.3,1.4-0.7,2.2-1
	c0.8-0.3,1.6-0.6,2.4-1c0.8-0.3,1.7-0.6,2.6-0.8c1.8-0.5,3.8-1,5.9-1.3c0.5-0.1,1-0.1,1.6-0.2c0.3,0,0.6-0.1,0.9-0.1
	c0.8-4.8,1.2-9.6,1.2-14.6c0-49.8-40.4-90.2-90.2-90.2c-49.8,0-90.2,40.4-90.2,90.2c0,0.8,0,1.6,0,2.4c0.6,0,1.1,0,1.7,0.1h0.3h0.3
	l0.6,0.1c0.4,0,0.8,0.1,1.2,0.1c0.4,0,0.8,0.1,1.1,0.2c0.4,0.1,0.7,0.1,1.1,0.2c0.7,0.2,1.5,0.3,2.2,0.5c0.7,0.2,1.4,0.4,2.1,0.6
	c0.7,0.2,1.4,0.5,2,0.7l0.5,0.2c0.2,0.1,0.3,0.1,0.5,0.2c0.3,0.1,0.6,0.3,1,0.4l1,0.4c0.3,0.1,0.6,0.3,0.9,0.5
	c0.6,0.3,1.2,0.6,1.8,1c0.6,0.4,1.1,0.7,1.7,1.1c0.6,0.3,1.1,0.7,1.6,1.1c0.3,0.2,0.5,0.4,0.8,0.6l0.4,0.3c0.1,0.1,0.2,0.2,0.4,0.3
	c0.9,0.8,1.8,1.6,2.6,2.4c0.4,0.4,0.8,0.8,1.2,1.2c0.4,0.4,0.7,0.8,1,1.2c0.7,0.8,1.2,1.6,1.8,2.3c0.1,0.2,0.3,0.4,0.4,0.5
	c0.1,0.2,0.2,0.4,0.4,0.5c0.2,0.4,0.4,0.7,0.6,1c0.2,0.3,0.4,0.6,0.6,1c0.2,0.3,0.3,0.6,0.5,0.9c0.3,0.6,0.6,1.1,0.8,1.5
	c0.2,0.5,0.4,0.9,0.5,1.2c0.2,0.6,0.4,0.9,0.4,1c0,0-0.2-0.3-0.6-0.8c-0.2-0.3-0.5-0.6-0.8-1c-0.1-0.2-0.3-0.4-0.5-0.6
	c-0.2-0.2-0.4-0.4-0.6-0.7c-0.4-0.5-0.8-1-1.4-1.6c-0.3-0.3-0.5-0.6-0.8-0.9c-0.1-0.1-0.3-0.3-0.4-0.4c-0.2-0.1-0.3-0.3-0.5-0.4
	c-0.6-0.6-1.3-1.2-2-1.8c-0.4-0.3-0.7-0.6-1.1-1c-0.4-0.3-0.8-0.6-1.2-0.9c-0.8-0.6-1.7-1.2-2.7-1.8c-0.2-0.2-0.5-0.3-0.7-0.4
	c-0.2-0.1-0.5-0.3-0.7-0.4c-0.5-0.3-1-0.6-1.5-0.8c-0.5-0.3-1.1-0.5-1.6-0.8c-0.6-0.2-1.1-0.5-1.7-0.7c-0.6-0.2-1.2-0.5-1.7-0.7
	c-0.3-0.1-0.6-0.2-0.9-0.3c-0.1-0.1-0.3-0.1-0.5-0.2l-0.5-0.1c-0.6-0.2-1.2-0.3-1.9-0.5c-0.6-0.1-1.3-0.3-1.9-0.4
	c-0.6-0.2-1.3-0.2-1.9-0.3l-1-0.2c-0.3-0.1-0.6-0.1-1-0.1c-0.3,0-0.6-0.1-1-0.1h-0.5h-0.2h-0.3c-0.7,0-1.4,0-2.2-0.1h-0.3l0,0h-0.1
	h-0.5c-0.3,0-0.7,0-1,0c-0.7,0.1-1.3,0.1-2,0.2c-2.7,0.2-5.3,0.8-7.9,1.6c-2.5,0.8-4.9,1.9-7.2,3.1c-2.2,1.2-4.3,2.6-6.1,4.1
	s-3.4,3.1-4.8,4.6c-1.4,1.6-2.6,3.1-3.5,4.5c-1,1.4-1.7,2.7-2.3,3.8c-0.4,1.1-0.8,2.3-1.2,3.5c-0.2,0-0.4,0.1-0.6,0.1
	c-23.7,5-41.4,26-41.4,51.2c0,28.9,23.4,52.3,52.3,52.3c4.7,0,9.3-0.6,13.6-1.8c17.7,29.4,50,49.1,86.8,49.1
	c42.1,0,78.2-25.7,93.5-62.3c4.9,1.5,10.1,2.3,15.4,2.3c29.3,0,53.1-23.8,53.1-53.1C1267.5,44.7,1260.3,30.2,1248.8,20.4z"/>
<path fill="#F2F2F2" d="M409.8,109.2c3.9,14.2,18.7,22.6,32.9,18.6c2.6-0.7,5-1.8,7.2-3.2c12.3,15.7,33.3,23.3,53.7,17.7
	c17.9-4.9,30.9-18.8,35.5-35.5c2.3,0,4.6-0.3,6.9-1c14-3.9,22.2-18.4,18.4-32.4c-3.4-12.2-14.8-20-27-19.3c-0.1,0-0.2,0-0.3,0
	c-0.3-0.5-0.7-1-1-1.5c-0.4-0.5-1-1-1.6-1.5c-0.7-0.6-1.4-1.2-2.3-1.7c-0.9-0.6-1.9-1.1-3-1.6c-1.1-0.5-2.3-0.9-3.5-1.2
	c-1.2-0.3-2.6-0.5-3.9-0.5c-1.3,0-2.7,0-4,0.3c-0.3,0-0.7,0.1-1,0.2c-0.2,0-0.3,0.1-0.5,0.1l-0.2,0.1H516l0,0h-0.1
	c-0.3,0.1-0.7,0.2-1,0.3h-0.1h-0.1l-0.2,0.1c-0.1,0.1-0.3,0.1-0.5,0.2c-0.2,0.1-0.3,0.1-0.5,0.2l-0.5,0.2c-0.3,0.1-0.6,0.3-0.9,0.4
	c-0.3,0.2-0.6,0.3-0.9,0.5c-0.3,0.2-0.6,0.3-0.8,0.5l-0.2,0.1c-0.1,0-0.1,0.1-0.2,0.1c-0.1,0.1-0.3,0.2-0.4,0.3
	c-0.3,0.2-0.5,0.4-0.8,0.6c-0.2,0.2-0.5,0.4-0.7,0.6c-0.2,0.2-0.4,0.4-0.7,0.6c-0.2,0.2-0.4,0.4-0.6,0.6c-0.1,0.1-0.2,0.2-0.3,0.3
	c-0.1,0.1-0.2,0.2-0.3,0.3c-0.4,0.4-0.7,0.8-1,1.3c-0.2,0.2-0.3,0.4-0.5,0.6c-0.1,0.2-0.3,0.4-0.4,0.6c-0.3,0.4-0.5,0.8-0.7,1.2
	c-0.1,0.1-0.1,0.2-0.2,0.3c-0.1,0.1-0.1,0.2-0.1,0.3c-0.1,0.2-0.2,0.4-0.3,0.5c-0.2,0.3-0.3,0.7-0.5,0.9c-0.1,0.1-0.1,0.3-0.2,0.4
	c-0.1,0.1-0.1,0.2-0.2,0.4c-0.1,0.2-0.2,0.4-0.2,0.6c-0.1,0.3-0.2,0.5-0.2,0.5s0-0.2,0.1-0.5c0-0.2,0-0.4,0.1-0.6
	c0-0.3,0.1-0.5,0.2-0.9c0-0.2,0.1-0.3,0.1-0.5s0.1-0.4,0.1-0.5c0.1-0.2,0.1-0.4,0.2-0.6c0-0.1,0.1-0.2,0.1-0.3s0.1-0.2,0.1-0.3
	c0.2-0.4,0.3-0.9,0.5-1.4c0.1-0.2,0.2-0.5,0.3-0.7c0.1-0.2,0.3-0.5,0.4-0.7c0.3-0.5,0.6-1,0.9-1.5c0-0.1,0.1-0.1,0.1-0.2l0.1-0.2
	c0.1-0.1,0.2-0.2,0.3-0.4c0.2-0.3,0.4-0.5,0.6-0.8c0.2-0.2,0.4-0.5,0.7-0.7c0.2-0.2,0.5-0.5,0.7-0.7c0.1-0.1,0.2-0.2,0.4-0.4
	l0.4-0.3c0.1-0.1,0.3-0.2,0.4-0.3c0.1-0.1,0.1-0.1,0.2-0.2l0.2-0.2c0.3-0.2,0.6-0.4,0.9-0.6c0.3-0.2,0.6-0.4,1-0.6
	c0.3-0.2,0.7-0.4,1-0.5c0.2-0.1,0.3-0.2,0.5-0.3c0.2-0.1,0.4-0.2,0.5-0.2c0.2-0.1,0.4-0.1,0.5-0.2l0.3-0.1l0.1-0.1h0.1
	c0.3-0.1,0.5-0.2,0.8-0.3c-0.1-0.4-0.2-0.8-0.3-1.2c-6.7-24.2-31.7-38.3-55.9-31.7c-24.2,6.7-38.3,31.7-31.7,55.9
	c0.7,2.4,1.5,4.7,2.5,6.9c0.1,0,0.3-0.1,0.4-0.1c0.3,0,0.5-0.1,0.8-0.1c1-0.1,2.1-0.2,3-0.2c0.5,0,0.9,0,1.4,0.1
	c0.5,0,0.9,0.1,1.3,0.1c0.4,0.1,0.8,0.1,1.2,0.2c0.4,0.1,0.7,0.1,1.1,0.2c0.7,0.2,1.2,0.3,1.7,0.5c0.2,0.1,0.4,0.2,0.6,0.2
	c0.2,0.1,0.3,0.1,0.4,0.2c0.2,0.1,0.3,0.1,0.4,0.2c0,0-0.2,0-0.4,0c-0.1,0-0.3,0-0.5,0c-0.2,0-0.4,0-0.6,0c-0.5,0-1,0-1.7,0
	c-0.6,0-1.4,0-2.2,0.1c-0.8,0-1.6,0.1-2.5,0.3c-0.9,0.1-1.8,0.3-2.8,0.5c-0.5,0.1-0.9,0.2-1.4,0.4c-0.2,0.1-0.5,0.1-0.7,0.2
	l-0.3,0.1l0,0c-0.1,0-0.3,0.1-0.4,0.1c-0.2,0.1-0.5,0.2-0.8,0.2c-0.1,0-0.2,0.1-0.4,0.1l-0.4,0.1c-0.2,0.1-0.5,0.2-0.7,0.3l-0.7,0.3
	l-0.4,0.1l-0.3,0.2c-0.2,0.1-0.5,0.2-0.7,0.3c-0.2,0.1-0.5,0.2-0.7,0.4c-0.2,0.1-0.5,0.2-0.7,0.4c-0.9,0.5-1.7,1-2.5,1.6
	c-0.2,0.1-0.4,0.3-0.6,0.4c-0.2,0.1-0.4,0.3-0.6,0.4c-0.4,0.3-0.7,0.6-1.1,0.8c-0.7,0.6-1.3,1.1-1.9,1.7c-0.1,0.1-0.1,0.1-0.2,0.2
	c-0.1,0.1-0.1,0.1-0.2,0.2c-0.1,0.1-0.3,0.3-0.4,0.4c-0.3,0.2-0.5,0.5-0.7,0.7c-0.3,0.3-0.6,0.7-0.9,0.9
	C409.2,93.3,407.6,101.3,409.8,109.2z"/>
<path fill="#F2F2F2" d="M1366,103.5v126.8c0,27.3-22.2,49.5-49.5,49.5c-11.8,0-22.6-4.1-31.1-11c-8.4,18.3-26.9,31-48.4,31
	c-26.8,0-48.9-19.8-52.7-45.5c-9.9,5.4-21.3,8.5-33.4,8.5c-11.8,0-22.9-2.9-32.6-8.1c-12,20.8-34.5,34.8-60.2,34.8
	c-25.2,0-47.3-13.4-59.5-33.4c-5.8,10.2-16.8,17.1-29.4,17.1c-10.1,0-19.2-4.5-25.4-11.5c-9.1,7.2-20.6,11.5-33.1,11.5
	c-11.3,0-21.7-3.5-30.3-9.5c-11.8,21.5-34.7,36.1-61,36.1c-27.4,0-51-15.8-62.4-38.8c-11.5,8.5-25.7,13.5-41.1,13.5
	c-21.5,0-40.8-9.8-53.5-25.1c-9.6,13.9-25.7,23.1-43.9,23.1c-17.2,0-32.5-8.2-42.3-20.8c-6.2,7.1-15.3,11.7-25.5,11.7
	c-4.5,0-8.7-0.9-12.6-2.5c-6.5,22.1-26.9,38.3-51.1,38.3c-24.5,0-45.2-16.6-51.4-39.2c-10.2,5.9-22.1,9.3-34.7,9.3
	c-13.1,0-25.4-3.6-35.9-10c-12.6,17.9-33.4,29.6-57,29.6c-25.2,0-47.2-13.4-59.4-33.4c-5.8,10.2-16.8,17.1-29.4,17.1
	c-10.1,0-19.2-4.5-25.4-11.5c-9.1,7.2-20.6,11.5-33.1,11.5c-11.3,0-21.7-3.5-30.3-9.5c-11.8,21.5-34.7,36.1-61,36.1
	C31.1,299.1,0,268,0,229.5V103.3c0.7-0.1,1.3-0.2,2-0.2c25.1,0,46.5,16.2,54.2,38.8c7.9-2.3,16.3-3.3,25-2.8
	c5.5,0.3,10.9,1.1,16,2.5c3.1-8.8,7-17.1,11.8-24.9c24.9-41.2,71.1-67.6,122.5-65.1c28.7,1.4,54.9,11.7,76,28
	c11.4,8.8,21.3,19.4,29.4,31.2c6.3-0.9,12.7-1.2,19.2-0.9c15.1,0.8,29.2,4.7,41.8,11.2c3.5-4.7,7.4-9,11.6-13
	c19.6-18.5,46.3-29.2,75.4-27.8c17.4,0.9,33.5,6,47.5,14.4c10.1-6.6,21.2-11.9,32.9-15.6c14.9-4.7,30.9-6.9,47.5-6
	c24,1.2,46.2,8.6,65.2,20.5c5.9-7.5,15.2-12.1,25.4-11.6c13.8,0.7,25,10.5,28,23.2c8.2-2.4,16.9-3.6,25.9-3.1c19.5,1,37,9.1,50,21.8
	c23.7-45.3,72.2-75.1,126.6-72.4c7.8,0.4,15.4,1.4,22.8,3.1c33.1,7.3,61.3,26.7,80.3,53c19.5-18.1,46.1-28.7,74.8-27.3
	c17.4,0.9,33.5,6,47.5,14.4c23-15,50.8-23.1,80.4-21.6c8.7,0.4,17.2,1.7,25.4,3.7c14.3,3.5,27.7,9.2,39.8,16.8
	c5.9-7.5,15.2-12.1,25.4-11.6c13.8,0.7,25,10.5,28,23.2C1361,104.5,1363.3,103.9,1366,103.5z"/>
<path fill="#F2F2F2" d="M292.8,28c-1.3-1.6-2.7-3.1-4.2-4.6c0.1-0.1,0.1-0.1,0.2-0.2c12.4-10.3,14.1-28.8,3.8-41.2
	c-0.4-0.5-0.8-1-1.3-1.4c8.9-15.8,7.7-36.1-4.5-50.8C271-89.2,242.7-91.8,223.6-76c-3,2.5-5.5,5.2-7.7,8.2c-27-9.5-58.2-5-81.8,14.6
	C101.4-26,94.5,20.6,116.4,55.8c-0.2,0.2-0.4,0.3-0.6,0.5c-18.1,15.1-21.1,41.8-6.8,60.4c0.4,0.5,0.7,0.9,1.1,1.4
	c15.5,18.6,43.2,21.2,61.8,5.7c6-5,10.4-11.3,13-18.1c1.6,2.6,3.4,5.1,5.4,7.5c23.5,28.3,65.5,32.2,93.8,8.6
	c13.3-11.1,21.2-26.2,23.4-42.1C310,61.8,305.3,43,292.8,28z M169.6-17.5c0.5,0.1,0.9,0.1,1.3,0.2c0.4,0.1,0.9,0.2,1.4,0.3l1.3,0.4
	c0.9,0.3,1.8,0.6,2.6,0.9c0.9,0.4,1.7,0.7,2.5,1.2c0.8,0.4,1.6,0.9,2.4,1.4s1.6,1.1,2.3,1.7c0.6,0.5,1.3,1.1,1.9,1.7
	c0-0.1,0.1-0.1,0.1-0.2c0.6-0.9,1.2-1.7,1.8-2.6c1.3-1.6,2.7-3.2,4.3-4.7c0.7-0.8,1.6-1.4,2.4-2.1c0.8-0.7,1.7-1.3,2.6-1.9
	c0.4-0.3,0.9-0.6,1.3-0.9l1.4-0.8l1.4-0.8l1.4-0.7l1.5-0.7c0.5-0.2,1-0.4,1.5-0.6c1-0.4,2-0.8,3-1c2.1-0.6,4.2-1,6.3-1.3
	c1.1-0.1,2.1-0.3,3.2-0.3h3.2c1.1,0.1,2.1,0.1,3.2,0.2c1.1,0.2,2.1,0.3,3.2,0.5s2.1,0.5,3.1,0.7l0.8,0.2h0.1l0.2,0.1l0.2,0.1
	l0.3,0.1l1.4,0.5l0.7,0.2l0.8,0.3l1.5,0.6c1,0.4,1.9,1,2.9,1.5c0.9,0.5,1.8,1.1,2.7,1.7c0.9,0.6,1.7,1.2,2.6,1.9
	c0.8,0.7,1.6,1.4,2.4,2.1c0.7,0.8,1.5,1.5,2.2,2.2c1.4,1.6,2.7,3.2,3.8,5l0.8,1.3c0.3,0.4,0.5,0.9,0.7,1.4s0.5,0.9,0.7,1.4l0.6,1.4
	c0.8,1.9,1.5,3.8,1.9,5.8c0.3,1,0.4,2,0.6,3c0.1,1,0.2,2,0.3,3c-0.1-0.9-0.4-1.8-0.8-2.7c-0.4-0.9-0.8-1.8-1.3-2.7
	c-0.5-0.8-0.9-1.7-1.4-2.5s-1-1.7-1.6-2.4l-0.8-1.2l-0.9-1.1c-0.3-0.4-0.6-0.8-0.9-1.1l-0.9-1.1c-1.2-1.4-2.6-2.7-4-3.9
	c-0.7-0.6-1.5-1.2-2.2-1.7l-2.3-1.6c-0.8-0.5-1.6-0.9-2.4-1.4c-0.8-0.4-1.6-0.9-2.4-1.2c-0.8-0.3-1.7-0.8-2.5-1l-1.2-0.4l-0.6-0.2
	l-0.7-0.2l-1.4-0.4l-0.4-0.1h-0.3l-0.7-0.1c-0.9-0.2-1.8-0.4-2.7-0.5l-2.7-0.3c-0.9,0-1.8-0.1-2.7-0.2c-0.9,0-1.8,0-2.7,0.1
	c-0.9,0-1.8,0.2-2.7,0.2c-1.8,0.2-3.6,0.5-5.3,1c-0.9,0.2-1.7,0.5-2.6,0.8c-0.4,0.1-0.9,0.3-1.3,0.4l-1.2,0.5l-1.3,0.5l-1.2,0.6
	l-1.2,0.6c-0.4,0.2-0.8,0.5-1.2,0.7c-0.8,0.5-1.6,0.9-2.3,1.4s-1.5,1-2.2,1.6c-1.5,1.1-2.8,2.4-4.1,3.7c-0.6,0.7-1.3,1.3-1.9,2
	c-0.6,0.7-1.1,1.5-1.7,2.2l-2.1,2.6L184-4.7c-0.4-0.7-0.9-1.4-1.4-2.1s-1-1.3-1.6-2c-0.6-0.6-1.1-1.2-1.8-1.8
	c-0.6-0.6-1.3-1.1-1.9-1.7c-0.7-0.6-1.4-1.1-2.1-1.6c-0.7-0.5-1.4-1-2.2-1.4s-1.6-0.8-2.4-1.2c-0.4-0.2-0.8-0.4-1.2-0.6l-1.2-0.5
	L169.6-17.5z"/>
<g>
	<path fill="#F2F2F2" d="M139.1,229.5c0,12.1-3.1,23.5-8.6,33.5c-11.8,21.5-34.7,36.1-61,36.1C31.1,299.1,0,268,0,229.5
		C0,191.1,31.1,160,69.6,160c20.7,0,39.3,9,52,23.4C132.5,195.6,139.1,211.8,139.1,229.5z"/>
	<path fill="#F2F2F2" d="M785.6,205c0,23-11.2,43.5-28.5,56.1c-11.5,8.5-25.7,13.5-41.1,13.5c-21.5,0-40.8-9.8-53.5-25.1
		c-10-12-16-27.5-16-44.4c0-9.7,2-18.9,5.5-27.2c10.6-24.9,35.3-42.3,64-42.3c27.3,0,51,15.8,62.4,38.8
		C783,183.5,785.6,193.9,785.6,205z"/>
	<path fill="#F2F2F2" d="M470.6,199.6c0,25.8-14,48.3-34.9,60.3c-10.2,5.9-22.1,9.3-34.7,9.3c-13.1,0-25.4-3.6-35.9-10
		c-20.2-12.2-33.6-34.3-33.6-59.6c0-14.9,4.7-28.7,12.6-40c12.6-17.9,33.4-29.6,56.9-29.6c37,0,67.2,28.8,69.4,65.2
		C470.5,196.7,470.6,198.2,470.6,199.6z"/>
	<path fill="#F2F2F2" d="M377.7,219.2c0,14.9-4.7,28.7-12.6,40c-12.6,17.9-33.4,29.6-57,29.6c-25.2,0-47.2-13.4-59.4-33.4
		c-6.4-10.5-10.1-22.9-10.1-36.1c0-2.7,0.2-5.3,0.5-7.9c3.9-34.7,33.4-61.7,69.1-61.7c13.1,0,25.4,3.6,35.9,10
		C364.3,171.8,377.7,194,377.7,219.2z"/>
	<path fill="#F2F2F2" d="M214.1,219.2c0,16.9-7.9,32-20.1,41.7c-9.1,7.2-20.6,11.5-33.1,11.5c-11.3,0-21.7-3.5-30.3-9.5
		c-13.9-9.6-22.9-25.6-22.9-43.8c0-13.8,5.3-26.4,13.9-35.9c9.7-10.7,23.7-17.4,39.3-17.4c24.7,0,45.5,16.9,51.5,39.7
		C213.5,210,214.1,214.6,214.1,219.2z"/>
	<path fill="#F2F2F2" d="M671.9,219.2c0,11.2-3.5,21.6-9.4,30.2c-9.6,13.9-25.7,23.1-43.9,23.1c-17.2,0-32.5-8.2-42.3-20.8
		c-6.9-9-11-20.2-11-32.4c0-6.5,1.2-12.6,3.3-18.4c7.5-20.3,27-34.9,50-34.9c12.6,0,24.3,4.4,33.4,11.8
		C664.1,187.5,671.9,202.5,671.9,219.2z"/>
	<path fill="#F2F2F2" d="M540.3,245.9c0,5.2-0.8,10.2-2.1,15c-6.5,22.1-26.9,38.3-51.1,38.3c-24.5,0-45.2-16.6-51.4-39.2
		c-1.2-4.5-1.9-9.2-1.9-14.1c0-23.6,15.3-43.6,36.6-50.6c5.2-1.7,10.8-2.7,16.6-2.7c14.7,0,28,6,37.6,15.6
		C534.4,217.8,540.3,231.1,540.3,245.9z"/>
	<path fill="#F2F2F2" d="M253.1,238.7c0,6-1.6,11.7-4.4,16.6c-5.8,10.2-16.8,17.1-29.4,17.1c-10.1,0-19.2-4.5-25.4-11.5
		c-5.2-5.9-8.3-13.7-8.3-22.2c0-16.2,11.5-29.8,26.8-33c2.3-0.5,4.6-0.7,7-0.7c7.4,0,14.2,2.4,19.7,6.4
		C247.6,217.5,253.1,227.5,253.1,238.7z"/>
	<path fill="#F2F2F2" d="M584.6,229.5c0,8.5-3.1,16.2-8.2,22.1c-6.2,7.1-15.3,11.7-25.5,11.7c-4.5,0-8.7-0.9-12.6-2.5
		c-12.4-5-21.1-17.1-21.1-31.3c0-8.1,2.9-15.5,7.6-21.4c6.2-7.6,15.6-12.4,26.1-12.4c6.5,0,12.6,1.9,17.8,5.1
		C578.2,206.8,584.6,217.4,584.6,229.5z"/>
	<path fill="#F2F2F2" d="M889.1,230.3c0,12.1-3.1,23.5-8.6,33.5c-11.8,21.5-34.7,36.1-61,36.1c-27.4,0-51-15.8-62.4-38.8
		c-4.6-9.3-7.2-19.7-7.2-30.8c0-23,11.2-43.5,28.4-56.1c11.5-8.5,25.7-13.5,41.1-13.5c20.7,0,39.3,9,52,23.4
		C882.5,196.4,889.1,212.6,889.1,230.3z"/>
	<path fill="#F2F2F2" d="M1220.6,193.4c0,0.9,0,1.8-0.1,2.6c-0.9,25.2-15.3,47-36.1,58.4c-9.9,5.4-21.3,8.5-33.4,8.5
		c-11.8,0-22.9-2.9-32.6-8.1c-22-11.7-36.9-34.8-36.9-61.4c0-7.5,1.2-14.8,3.4-21.5c1.5-4.7,3.5-9.1,5.9-13.3
		c12-20.8,34.5-34.7,60.2-34.7c13,0,25.2,3.6,35.6,9.8C1206.9,145.8,1220.6,168,1220.6,193.4z"/>
	<path fill="#F2F2F2" d="M1127.7,220c0,12.7-3.4,24.6-9.3,34.8c-12,20.8-34.5,34.8-60.2,34.8c-25.2,0-47.3-13.4-59.5-33.4
		c-6.4-10.5-10.1-22.9-10.1-36.1c0-2.7,0.1-5.3,0.4-7.9c3.3-29.6,25.3-53.6,53.8-60c4.9-1.1,10-1.7,15.3-1.7
		c11.8,0,22.9,2.9,32.6,8.1c7.4,3.9,14,9.1,19.4,15.3C1121.1,186.2,1127.7,202.3,1127.7,220z"/>
	<path fill="#F2F2F2" d="M964.1,220c0,16.9-7.9,32-20.2,41.7c-9.1,7.2-20.6,11.5-33.1,11.5c-11.3,0-21.7-3.5-30.3-9.5
		c-13.9-9.6-22.9-25.6-22.9-43.8c0-13.8,5.3-26.4,13.9-35.9c9.7-10.7,23.7-17.4,39.3-17.4c24.7,0,45.5,16.9,51.5,39.7
		C963.5,210.8,964.1,215.3,964.1,220z"/>
	<path fill="#F2F2F2" d="M1290.3,246.6c0,7.9-1.7,15.4-4.8,22.2c-8.4,18.3-26.9,31-48.4,31c-26.8,0-48.9-19.8-52.7-45.5
		c-0.4-2.5-0.6-5.1-0.6-7.8c0-23.6,15.4-43.7,36.7-50.6c5.2-1.7,10.8-2.6,16.5-2.6c13.8,0,26.3,5.2,35.7,13.8
		C1283.6,216.9,1290.3,231,1290.3,246.6z"/>
	<path fill="#F2F2F2" d="M1003.1,239.5c0,6-1.6,11.7-4.4,16.6c-5.8,10.2-16.8,17.1-29.4,17.1c-10.1,0-19.2-4.5-25.4-11.5
		c-5.2-5.9-8.3-13.7-8.3-22.2c0-16.2,11.5-29.8,26.8-33c2.3-0.5,4.6-0.7,7-0.7c7.3,0,14.2,2.4,19.7,6.4
		C997.5,218.2,1003.1,228.2,1003.1,239.5z"/>
	<path fill="#F2F2F2" d="M1366,230.3c0,27.3-22.2,49.5-49.5,49.5c-11.8,0-22.6-4.1-31.1-11c-11.2-9.1-18.4-23-18.4-38.5
		c0-8.4,2.1-16.2,5.7-23.1c8.3-15.7,24.8-26.3,43.7-26.3C1343.8,180.8,1366,203,1366,230.3z"/>
</g>
</svg>
