<?xml version="1.0" encoding="utf-8"?>
<!-- Generator: Adobe Illustrator 18.0.0, SVG Export Plug-In . SVG Version: 6.00 Build 0)  -->
<!DOCTYPE svg PUBLIC "-//W3C//DTD SVG 1.1//EN" "http://www.w3.org/Graphics/SVG/1.1/DTD/svg11.dtd">
<svg version="1.1" id="Layer_1" xmlns="http://www.w3.org/2000/svg" xmlns:xlink="http://www.w3.org/1999/xlink" x="0px" y="0px"
	 viewBox="0 0 841.6 801.6" enable-background="new 0 0 841.6 801.6" xml:space="preserve">
<g>
	<g>
		<polygon fill="#C1272D" points="586,748.4 196.2,734.4 170.9,231.4 744,285.4 		"/>
		<path fill="#FFFFFF" d="M591.7,756.6l-403.1-14.4l-26.1-519.6l592.5,55.9L591.7,756.6z M203.8,726.7l376.6,13.4l152.8-447.7
			l-553.9-52.2L203.8,726.7z"/>
	</g>
	<polygon opacity="0.1" points="730.8,83.8 263.8,35.4 7.6,406 825.4,549 	"/>
	<g>
		<polygon fill="#A6003B" points="736.8,58.1 269.9,9.7 13.7,380.3 831.5,523.2 		"/>
		<path fill="#FFFFFF" d="M841.6,533.1L0,386L266,1.2l477.5,49.5L841.6,533.1z M27.4,374.6l793.9,138.8L730.2,65.4L273.8,18.1
			L27.4,374.6z"/>
	</g>
	<g>
		<polygon fill="#333333" points="351.8,777.1 314.9,558.1 518.8,574.4 472.1,792.7 		"/>
		<path fill="#FFFFFF" d="M478.4,801.6l-133.5-17.3l-39.5-235l223.2,17.9L478.4,801.6z M358.7,769.9l107.2,13.9l43.3-202.2
			l-184.6-14.8L358.7,769.9z"/>
	</g>
</g>
</svg>
