<?xml version="1.0" encoding="utf-8"?>
<!-- Generator: Adobe Illustrator 18.0.0, SVG Export Plug-In . SVG Version: 6.00 Build 0)  -->
<!DOCTYPE svg PUBLIC "-//W3C//DTD SVG 1.1//EN" "http://www.w3.org/Graphics/SVG/1.1/DTD/svg11.dtd">
<svg version="1.1" id="Layer_1" xmlns="http://www.w3.org/2000/svg" xmlns:xlink="http://www.w3.org/1999/xlink" x="0px" y="0px"
	 viewBox="0 68.2 300 163.5" enable-background="new 0 68.2 300 163.5" xml:space="preserve">
<polygon fill="#A0A0A0" points="137.6,143.4 181,145.9 176.8,132.9 133.6,133.6 "/>
<polygon fill="#A0A0A0" points="71.2,148.9 115.9,146.7 114,159.5 73.5,160.8 "/>
<polygon fill="#A0A0A0" points="245.4,159.5 242.5,150.2 196.2,148.3 194.5,159.9 "/>
<polygon fill="#A0A0A0" points="164.1,148.3 119.6,146.8 121.4,158.9 161.9,160.2 "/>
<polygon fill="#A0A0A0" points="71.2,118 115.9,115.7 114,128.6 73.5,129.8 "/>
<polygon fill="#A0A0A0" points="164.1,117.3 119.6,115.8 121.4,127.9 161.9,129.2 "/>
<polygon fill="#A0A0A0" points="164.1,176.9 119.4,174.6 121.4,187.5 161.9,188.8 "/>
<polygon fill="#A0A0A0" points="0,187.2 2.9,177.8 49.2,175.9 50.9,187.5 "/>
<polygon fill="#A0A0A0" points="71.2,205.4 115.4,206.5 114,216.1 73.5,217.3 "/>
<polygon fill="#A0A0A0" points="93.6,162.7 139.5,162.7 137,171.4 95.6,172.7 "/>
<polygon fill="#A0A0A0" points="225.6,163.7 271.5,163.7 268.9,172.4 227.5,173.7 "/>
<polygon fill="#A0A0A0" points="23.5,192.3 69.4,192.3 66.9,201 25.5,202.3 "/>
<polygon fill="#A0A0A0" points="93.6,191.4 139.5,191.4 137,200 95.6,201.3 "/>
<polygon fill="#A0A0A0" points="174,192.3 219.9,192.3 217.4,201 176,202.3 "/>
<polygon fill="#A0A0A0" points="119.8,74.7 164,75.7 162.6,85.3 122.1,86.6 "/>
<polygon fill="#9B9B9B" points="89.9,144.6 133.4,144.7 128.4,132 83.8,134.3 "/>
<polygon fill="#9B9B9B" points="93.8,110.8 137.3,110.9 132.3,98.2 87.6,100.5 "/>
<polygon fill="#9B9B9B" points="245.4,188.2 242.5,178.8 196.2,176.9 194.5,188.5 "/>
<polygon fill="#9B9B9B" points="71.2,175.9 115.4,177 114,186.5 73.5,187.8 "/>
<polygon fill="#9B9B9B" points="23.5,163.7 69.4,163.7 66.9,172.4 25.5,173.7 "/>
<polygon fill="#9B9B9B" points="174,163.7 219.9,163.7 217.4,172.4 176,173.7 "/>
<polygon fill="#9B9B9B" points="251.8,69.7 207.3,68.2 209.1,80.3 249.6,81.6 "/>
<polygon fill="#9B9B9B" points="300,98.3 255.3,96.1 257.2,108.9 297.7,110.2 "/>
<polygon fill="#A0A0A0" points="229.4,84.2 275.4,84.2 272.8,92.8 231.4,94.1 "/>
<polygon fill="#A0A0A0" points="229.4,112.8 275.4,112.8 272.8,121.5 231.4,122.8 "/>
</svg>
