<?xml version="1.0" encoding="utf-8"?>
<!-- Generator: Adobe Illustrator 18.0.0, SVG Export Plug-In . SVG Version: 6.00 Build 0)  -->
<!DOCTYPE svg PUBLIC "-//W3C//DTD SVG 1.1//EN" "http://www.w3.org/Graphics/SVG/1.1/DTD/svg11.dtd">
<svg version="1.1" id="Layer_1" xmlns="http://www.w3.org/2000/svg" xmlns:xlink="http://www.w3.org/1999/xlink" x="0px" y="0px"
	 viewBox="0 0 329 100" enable-background="new 0 0 329 100" xml:space="preserve">
<path fill="#4D4D4D" d="M329,46.9V100c-20.5,0-40.9-2.9-60.7-8.6l-54.8-15.8c-45.3-13-93.4-11.6-137.8,4C75.7,79.6,27,100,0,100
	V50.9l75.6-24.3c44.4-15.6,92.6-17,137.8-4l54.8,15.8C288.1,44,308.6,46.8,329,46.9z"/>
<path fill="#F2F2F2" d="M213.5,26.5l54.8,15.8c19.8,5.7,40.3,8.6,60.7,8.6V33.2c-20.5,0-40.9-2.9-60.7-8.6L213.5,8.8
	c-45.3-13-93.4-11.6-137.8,4c0,0-48.7,20.4-75.6,20.4v17.7c27,0,75.6-20.4,75.6-20.4C120.1,14.9,168.3,13.5,213.5,26.5z"/>
</svg>
