<?xml version="1.0" encoding="utf-8"?>
<!-- Generator: Adobe Illustrator 18.0.0, SVG Export Plug-In . SVG Version: 6.00 Build 0)  -->
<!DOCTYPE svg PUBLIC "-//W3C//DTD SVG 1.1//EN" "http://www.w3.org/Graphics/SVG/1.1/DTD/svg11.dtd">
<svg version="1.1" id="Layer_1" xmlns="http://www.w3.org/2000/svg" xmlns:xlink="http://www.w3.org/1999/xlink" x="0px" y="0px"
	 viewBox="0 0 981.8 333.5" enable-background="new 0 0 981.8 333.5" xml:space="preserve">
<path fill="#333333" d="M968.1,20.9C642.4,49.5,319.7,50.3,0,20.9v-5.7c325.4,26.7,648.2,27.8,968.1,0V20.9z"/>
<g>
	<g>
		<path fill="#737373" d="M840.2,144.4L732,60.7c0,0-0.1,0-0.1-0.1l4.5-10.5l-4.5-4.9l0-0.2l-3.8-0.4c-5.5-0.6-8.5-5.5-7.9-11
			c0.6-5.5,4.7-11.9,10.3-11.3c2.7,0.3,7.9,8,7.9,8l10.8-0.1c-0.6-2.8-1.6-4.4-3.3-6.6c-3-3.7-10.9-8.6-15.6-9.1
			c-9.8-1.1-18.6,6-19.6,15.8c-1,9.2,3.7,21.7,12.5,23.5l1.6,5.8c-0.2,0.1-0.5,0.1-0.7,0.2l-122.3,70.7c-3.1,1.5-6.2,6.9-5.7,10.3
			c0.6,3.4,4.9,1.7,8.3,2.1l229.8,9.6c3.4,0.4,7.3,2.9,8.6-0.3C844.1,149.1,843,146.5,840.2,144.4z M605.2,136.5l119.6-66.5
			l110,77.2L605.2,136.5z"/>
	</g>
	<polygon fill-rule="evenodd" clip-rule="evenodd" fill="#4D4D4D" points="700.2,134.3 671.6,175.3 627.8,188.3 623.6,200.7 
		634.3,210 686.6,205.7 732.1,144.8 	"/>
	<polygon fill-rule="evenodd" clip-rule="evenodd" fill="#4D4D4D" points="710,144.9 719,194.2 697.3,234.4 703.2,246.1 
		717.3,245.1 751.1,204.9 739.9,129.7 	"/>
	<polygon fill-rule="evenodd" clip-rule="evenodd" fill="#4D4D4D" points="703.1,124.1 718.7,144.8 733.5,119.2 728.2,120.1 
		720.6,136.2 705.2,121.3 	"/>
</g>
<g>
	<path fill="#666666" d="M978.1,130L861.5,58.4c0,0-0.1,0-0.1-0.1l3.3-10.9l-5-4.4v-0.2h-3.8c-5.6,0-9-4.5-9-10.1
		c0-5.6,3.4-12.3,9-12.3c2.7,0,5.6,3.5,5.6,3.5l12.8,0.1c0,0-0.9-1.9-2.9-3.9c-3.4-3.4-11.8-7.3-16.5-7.3c-9.8,0-17.8,8-17.8,17.8
		c0,9.2,6,21.1,15,22l2.2,5.6c-0.2,0.1-0.4,0.2-0.6,0.3l-113.9,83.4c-2.9,1.8-5.4,7.5-4.5,10.8c0.9,3.3,5.1,1.2,8.5,1.2L973,138.8
		c3.5,0,7.6,2.1,8.5-1.2C982.4,134.2,981,131.8,978.1,130z M743.5,147.4l111.8-79L973,133.3L743.5,147.4z"/>
	<g>
		<g>
			<g>
				<path fill="#F2F2F2" d="M901.9,171.8l1.9-38.4l-20.3-4.4c0,0,6.4,42.8-7.1,42.8c-13.5,0-22.3,0.1-33.2,0
					c-10.9-0.1-7.1-42.8-7.1-42.8l-21.1,5.3l2.7,37.5c0,0-4.3,10.8-17.4,21c11.6,44.2,15.6,91.4,14.5,140.7l87.2-14.8
					c-1.9-43.4,2.9-85.5,16.7-125.7C903.5,184.3,901.9,171.8,901.9,171.8z"/>
			</g>
		</g>
	</g>
</g>
<polygon fill-rule="evenodd" clip-rule="evenodd" fill="#666666" points="670.6,207 679.2,194.7 698.2,190.2 686.6,205.7 "/>
<polygon fill-rule="evenodd" clip-rule="evenodd" fill="#666666" points="748.6,187.9 751.1,204.9 740.9,217 737.4,198.6 "/>
</svg>
