<?xml version="1.0" encoding="utf-8"?>
<!-- Generator: Adobe Illustrator 18.0.0, SVG Export Plug-In . SVG Version: 6.00 Build 0)  -->
<!DOCTYPE svg PUBLIC "-//W3C//DTD SVG 1.1//EN" "http://www.w3.org/Graphics/SVG/1.1/DTD/svg11.dtd">
<svg version="1.1" xmlns="http://www.w3.org/2000/svg" xmlns:xlink="http://www.w3.org/1999/xlink" x="0px" y="0px"
	 viewBox="0 0 1688.5 781.2" enable-background="new 0 0 1688.5 781.2" xml:space="preserve">
<g id="wall">
	<path fill="#FFFFFF" stroke="#000000" stroke-miterlimit="10" d="M-188.5,536.4"/>
	<path opacity="0.1" d="M1688.5,586.5c-328.7,34-637.1,95.2-912.2,194.6L419,673.3L36.9,558l-4.8-1.5l1.4-0.7l14.4-7.8l240.5-130.5
		l82.2-44.6l80.8-43.9l29.3-15.9l23.9-13l149.1-80.9L997.9,32.5l17.7-9.6c79.8,12.8,143.6,39.6,198.3,75.7
		C1392.2,216.5,1472.8,433.4,1688.5,586.5z"/>
	<path fill="#93278F" d="M0,533.6L983.6,0c339.8,54.4,391,363.6,672.9,563.6c-328.7,34-637.1,95.2-912.2,194.6L0,533.6z"/>
	<g opacity="0.1">
		<path d="M1656.5,563.6c-281.8-200-333-509.1-672.9-563.6L702,152.8c535.4,206.3,450.2,390.2-119.2,556.7l161.6,48.8
			C1019.4,658.8,1327.8,597.5,1656.5,563.6z"/>
	</g>
	<g>
		<path opacity="0.5" fill="#FFFFFF" d="M550.2,665.1L550.2,665.1c-28.4,4.1-57.4,6.7-86.7,7.5c-0.2,0-452.4-132-463.4-139.7
			L983.6,0c5.2,10.9,10.1,21,14.4,31.8C1130,357.7,878,617.5,550.2,665.1z"/>
	</g>
</g>
<g id="body">
	<g>
		<path fill="#D4145A" d="M813.8,735.5l-68.5,23.7L270,615.6l-30.4-7.9l12-46.2c1.4-5.4,9.2-5.1,10.2,0.4l9.2,50.8L747,704.6
			l33.3-7.4L813.8,735.5z"/>
		<g opacity="0.1">
			<polygon points="813.8,735.5 788.5,706.5 748.7,724.6 421.1,661.4 745.3,759.2 			"/>
		</g>
		<polygon fill="#29ABE2" points="813.8,735.5 1294,615.4 1149.6,527.2 1144.8,539 1187.6,587.6 1012.8,620.4 979.6,595.5
			768.5,694.2 		"/>
		<g opacity="0.1">
			<polygon points="1294,615.4 1149.6,527.2 1144.8,539 1187.6,587.6 1012.8,620.4 998.4,609.6 962.9,635.2 778.6,703.7
				813.8,735.6 			"/>
		</g>
	</g>
</g>
<g id="head">
	<g>
		<polygon opacity="0.1" points="1180.4,385.8 1218.1,373.2 1209.3,422 1176.2,402 		"/>
		<path opacity="0.2" d="M982.5,371.8l-11.4,20.4c-3.6,6.4-3.6,14.3-0.1,20.8l5.6,10.5l-6.9,28.3L951,474.1
			c-4.9,5.9-4.6,14.6,0.8,20.1l9.6,9.8l-15,6c-3.2,1.3-4.2,5.3-2,8l6.1,7.3l-10.8,4.5c-2.4,1-3.1,4-1.4,5.9l18.2,20.9
			c10.1,11.6,23,20.4,37.5,25.5l31.4,11.1c42.1,14.9,89-0.6,113.9-37.6l7.1-10.5c9.3-13.8,15.3-29.4,17.8-45.9l13.9-93.8
			L982.5,371.8z"/>
		<path fill="#E6E6E6" d="M975.2,370l-11.4,20.4c-3.6,6.4-3.6,14.3-0.1,20.8l5.6,10.5l-6.9,28.3l-18.7,22.3
			c-4.9,5.9-4.6,14.6,0.8,20.1l9.6,9.8l-15,6c-3.2,1.3-4.2,5.3-2,8l6.1,7.3l-10.8,4.5c-2.4,1-3.1,4-1.4,5.9l18.2,20.9
			c10.1,11.6,23,20.4,37.5,25.5l31.4,11.1c42.1,14.9,89-0.6,113.9-37.6l7.1-10.5c9.3-13.8,15.3-29.4,17.8-45.9l13.9-93.8L975.2,370z
			"/>
		<g>
			<path fill="#CCCCCC" d="M1170.9,403.5L975.2,370l-8.5,15.3c21.7,5.5,38,15,48.5,28.4c13.8,25.4,14.9,53.9,2,85.9
				c35.8,31.6,46.3,63.9,47.7,96.4c26.7-3.9,51.4-18.7,67.3-42.2l7.1-10.5C1148.6,529.4,1170.9,403.5,1170.9,403.5z"/>
		</g>
		<g>
			<path fill="#333333" d="M1171.3,403.6l-195.7-33.5l-0.9,1.6l65.2,37.6c26.6,15.3,39.4,69.1,52,97.2l42.2,45l11.9-17.6
				c5.1-7.5,8.4-16.1,9.7-25.1L1171.3,403.6z"/>
		</g>
		<polygon fill="#D4145A" points="1172.4,385.8 1210.1,373.2 1201.3,422 1168.2,402 		"/>
		<path opacity="0.1" d="M1077.1,525.9l-13.4-14.6c-2.2-2.4-2.6-6.1-0.8-8.9l19.2-31.2c4.4-7.1,12.4-11.2,20.8-10.7l0,0
			c15.3,1.1,24.9,17.1,18.5,31.1l-13.4,29.4C1102.3,533.2,1086.1,535.7,1077.1,525.9z"/>
		<path fill="#FFFFFF" d="M969.3,421.6l36.9,14.5c4.2,1.7,3.5,7.9-1.1,8.4l-42.7,5.4L969.3,421.6z"/>
		<path fill="#1A1A1A" d="M968.6,421.4l9.6,9c2.8,4.6,1.6,10.6-2.6,13.8l-13.8,5.5L968.6,421.4z"/>
		<line fill="#E6E6E6" x1="1170.9" y1="403.5" x2="975.2" y2="370"/>
		<path fill="#B3B3B3" d="M977.3,543.7c-16.1,0-27-4.8-40.5-17.6l1.8-8.3c15.7,14.9,34.8,17.9,54.5,12.2l3.1,10.9
			C989.8,542.8,983.5,543.7,977.3,543.7z"/>
		<g>
			<polygon fill="#1A1A1A" points="1171.3,403.6 1089.5,389.6 1160.4,477.4 			"/>
		</g>
		<path fill="#EAB400" d="M1171,411.9c-63.4-15.4-129.9-27.1-199.3-35.6c13.8-29.1,17.9-40.5,29.4-61.7
			c63.8,22.4,128.9,39.4,195.3,50.7C1184.5,386.1,1168.3,394.2,1171,411.9z"/>
		<g opacity="0.1">
			<path d="M1196.6,365.3c-63.1-10.5-128.2-27.5-195.3-50.7c-5.3,9.9-9.1,17.6-13,26.1l192,46.7
				C1185.3,381.2,1191.4,374.5,1196.6,365.3z"/>
		</g>
		<g opacity="0.1">
			<path d="M1196.3,365.2c-51.9-8.9-103-21.2-153.2-36.8c0,0,22.4,24.1,38.1,64.5c30.6,5.6,60.5,11.9,89.7,19
				C1168.2,394.2,1184.4,386.1,1196.3,365.2z"/>
		</g>
		<path fill="#FFFFFF" d="M1070.4,525.9l-13.4-14.6c-2.2-2.4-2.6-6.1-0.8-8.9l19.2-31.2c4.4-7.1,12.4-11.2,20.8-10.7h0
			c15.3,1.1,24.9,17.1,18.5,31.1l-13.4,29.4C1095.6,533.2,1079.4,535.7,1070.4,525.9z"/>
		<g>
			<path fill="#E6E6E6" d="M1096,460.6c-4.2-0.3-8.5,0.5-12.1,2.4l4.8,3.6c10,7.4,13.7,20.6,9.1,32.1l-13.3,33.1
				c7.4-0.1,13.2-4,16.3-10.8l13.5-29.3C1120.8,477.7,1111.3,461.6,1096,460.6z"/>
		</g>
	</g>
</g>
<g id="night-me-on-flower-flower-aoe">
	<g>
		<path opacity="0.5" fill="#FFFFFF" d="M645.1,183.6c-178.3-80.4-412-342-395.5,214.5C559.5,558,739.7,549.4,645.1,183.6z"/>
	</g>
	<g>
		<g id="night-me-on-flower-flower">
			<g>
				<path fill="#FFFFFF" d="M490.9,655.2c0,0-2.3-99.5-11.5-165.9c-9-64.6-19.4-123.7-20.9-129.5c9,11.2,57,49.2,83.5,14.7
					c1.2-1.7,19.7-36.2,20.7-37.8c19.6-32.5-45-33-57.9-36.7c-0.8-0.2-1.4-0.4-1.7-0.7c4.7-4.4,72.1-36.4,47.7-64.5
					c-1.5-1.7-3.2-3.4-5.4-5c-2.7-2.1-33.4-15.3-36.4-15.2c-35.1,1.5-49.5,25.4-55.1,33.3c-5.5-5.8-62.7-74.8-88.3-41.8
					c-13.3,17.1-3.4,37.3-4.4,38.6c-28.1,36.6,34.9,52.1,42.1,57.2c-3.1,3-22.1,15.1-33.5,32c-8.1,11.9-18,46.6-2.3,58.6
					c1.9,1.5,18.9,18.7,20.8,19.8c27.6,16.3,56.3-36.1,64.7-49.3c1.2,6,14.9,60.1,21.7,122.7c8.2,75.7,10.4,100.2,10.1,168.4
					L490.9,655.2z M455.1,329.3c-1.3,0-2.5-0.1-3.8-0.2c-13.5-1.7-24.1-13-24.7-26.8c0,0,0,0,0,0c-0.1-0.4-0.1-0.9-0.1-1.3
					c0-15.7,12.7-28.5,28.4-28.6c6.3,0,12,2,16.7,5.4c7.1,5.1,11.8,13.5,11.8,23c0,4.5-1,8.7-2.8,12.4
					C476.1,322.7,466.4,329.3,455.1,329.3z"/>
			</g>
			<g>
				<path fill="#FFFFFF" d="M455,286.7c-7.7,0-14.1,6.4-14,14.1c0,7.8,6.4,14.1,14.1,14c7.8,0,14.1-6.3,14-14.1
					C469.1,293,462.8,286.7,455,286.7z"/>
			</g>
		</g>
		<g>

		</g>
	</g>
</g>
</svg>
