<!DOCTYPE svg PUBLIC "-//W3C//DTD SVG 1.1//EN" "http://www.w3.org/Graphics/SVG/1.1/DTD/svg11.dtd">
<svg version="1.1" id="or_geom" xmlns="http://www.w3.org/2000/svg" xmlns:xlink="http://www.w3.org/1999/xlink" x="0px"
	 y="0px" viewBox="0 57.2 365 174.7" enable-background="new 0 57.2 365 174.7" xml:space="preserve">
<g id="or_i">
	<rect class="hide" x="343" y="219.2" fill="#4D4D4D" width="12.7" height="12.7"/>
	<g>
		<path fill="#4D4D4D" d="M350,78.1c-0.1,0-0.3,0-0.4,0c-6.8,0.1-14.2,4.3-14.2,12.8v40.2h8.1v29.5h12.2v-29.5h9.2V91
			C365,82.5,357.3,78.1,350,78.1z M361.9,125.1h-23.4v-23.6c0-4.6,5.7-6.7,11.3-6.8c5.7-0.1,12.1,2,12.1,6.8V125.1z"/>
	</g>
	<rect class="hide slow" x="348.2" y="57.9" fill="#4D4D4D" width="3.1" height="141.6"/>
</g>
<g id="or_r">
	<path class="hide fast" fill="#4D4D4D" d="M306.1,86.3c-5.3-5.3-12.2-8-20.3-8h-97.1V231h3.1v-86.6h94c9,0,16.6-3.8,22.1-10.5
		c4.9-6,7.6-14.4,7.7-22.7C315.6,101.4,312.1,92.3,306.1,86.3z M285.7,141.4h-94V81.3h94c7.2,0,13.4,2.4,18.1,7.1
		c5.5,5.5,8.7,13.9,8.6,22.8C312.4,125.8,303.1,141.4,285.7,141.4z"/>

		<rect x="221.5" y="185.1" transform="matrix(-0.626 -0.7798 0.7798 -0.626 307.2077 520.5808)" fill="#4D4D4D" width="113.8" height="3.1"/>
	<rect x="206.2" y="79.3" fill="#4D4D4D" width="6.9" height="77.4"/>

		<rect x="198.8" y="74.9" transform="matrix(-0.6754 -0.7374 0.7374 -0.6754 270.1342 294.8161)" fill="#4D4D4D" width="2.3" height="26.2"/>

		<rect x="198.7" y="83.3" transform="matrix(-0.6754 -0.7374 0.7374 -0.6754 263.817 308.8918)" fill="#4D4D4D" width="2.3" height="26.2"/>

		<rect x="198.7" y="91.7" transform="matrix(-0.6754 -0.7374 0.7374 -0.6754 257.6765 322.9077)" fill="#4D4D4D" width="2.3" height="26.2"/>

		<rect x="198.7" y="100" transform="matrix(-0.6754 -0.7374 0.7374 -0.6754 251.536 336.9238)" fill="#4D4D4D" width="2.3" height="26.2"/>

		<rect x="198.8" y="108.4" transform="matrix(-0.6754 -0.7374 0.7374 -0.6754 245.3954 350.9394)" fill="#4D4D4D" width="2.3" height="26.2"/>

		<rect x="198.8" y="116.7" transform="matrix(-0.6754 -0.7374 0.7374 -0.6754 239.2549 364.9556)" fill="#4D4D4D" width="2.3" height="26.2"/>

		<rect x="198.7" y="125.2" transform="matrix(-0.6754 -0.7374 0.7374 -0.6754 232.9379 379.0313)" fill="#4D4D4D" width="2.3" height="26.2"/>

		<rect x="198.7" y="133.5" transform="matrix(-0.6754 -0.7374 0.7374 -0.6754 226.7973 393.0471)" fill="#4D4D4D" width="2.3" height="26.2"/>

		<rect x="198.7" y="141.9" transform="matrix(-0.6753 -0.7375 0.7375 -0.6753 220.6084 407.0672)" fill="#4D4D4D" width="2.3" height="26.2"/>

		<rect x="198.7" y="150.2" transform="matrix(-0.6753 -0.7375 0.7375 -0.6753 214.4667 421.0816)" fill="#4D4D4D" width="2.3" height="26.2"/>
	<g>
		<path fill="#4D4D4D" d="M232,138.2l-0.5-0.6c-2.4-2.8-3.8-6.3-3.8-10.1c0-8.4,6.8-15.2,15.2-15.2c4.3,0,8.5,1.8,11.3,5.1l0.5,0.6
			L232,138.2z M242.9,113.9c-7.5,0-13.7,6.1-13.7,13.7c0,3.1,1,6,3,8.5l20.4-18.1C249.9,115.3,246.4,113.9,242.9,113.9z"/>
		<g>
			<path fill="#4D4D4D" d="M242.9,142.8c-4.4,0-8.6-1.9-11.4-5.2l-0.5-0.6l22.7-20.2l0.5,0.6c2.5,2.8,3.9,6.4,3.9,10.2
				C258,136,251.2,142.8,242.9,142.8z"/>
		</g>
	</g>
	<g>
		<line fill="none" x1="242.8" y1="112.9" x2="242.8" y2="79.3"/>
		<rect x="240.7" y="79.3" fill="#4D4D4D" width="4.1" height="33.6"/>
	</g>
</g>
<g id="or_o">
	<path fill="#4D4D4D" d="M67.1,231C24.6,225-5.2,185.6,0.8,143.1s45.4-72.2,87.9-66.3s72.2,45.4,66.3,87.9
		C149,207.2,109.5,236.9,67.1,231z M88.2,79.9c-40.9-5.7-78.7,22.8-84.4,63.7s22.8,78.7,63.7,84.4s78.7-22.8,84.4-63.7
		C157.6,123.4,129,85.6,88.2,79.9z"/>
	<circle class="hide slow" fill="#4D4D4D" cx="57.6" cy="174.7" r="47.2"/>

		<rect class="hide medium" x="98" y="27.2" transform="matrix(-0.7003 -0.7138 0.7138 -0.7003 73.1927 296.6483)" fill="#4D4D4D" width="1.6" height="211.6"/>
	<path fill="#4D4D4D" d="M89.9,141.8l0.4-41.7l41.7,0.4l-0.4,41.7L89.9,141.8z M94,103.9l-0.3,34.4l34.4,0.3l0.3-34.4L94,103.9z"/>
</g>
</svg>
