<svg version="1.1" id="reeds-older-brother-dark" xmlns="http://www.w3.org/2000/svg" xmlns:xlink="http://www.w3.org/1999/xlink" x="0px" y="0px"
	 viewBox="0 0 885 657" enable-background="new 0 0 885 657" xml:space="preserve">
<g id="reed_older_brother_body">
	<path fill="#FDB757" d="M571,175.6c-0.4,0.4-8.9,5.3-9.4,5.3C754,358.7,813.2,465.4,875.2,657.4h9.8
		C826,463.4,785.6,381.5,571,175.6z"/>
	<path fill="#FFBC61" d="M379.8,66c-2.7,0.9-4,4.3-3,6.2c-29.6-24.4-209.6-33.6-258.6-26.6c0.1,0.7,0.7,0.9,0.2,2.1
		c-0.2,0.3-0.4,1.3-1,1.4C80,57.8,39.6,73.1,6.8,92.8c-7.1,0.2-8.3-3-5.1-8.6C35.8,63.7,77.6,48,117.1,39c0.8-0.2,2.1,0.2,2.8,0.7
		c1.4,1,0.1,1.6,0,2.6C149.2,38.8,305.8,41.3,379.8,66z"/>
	<path fill="#FFBD37" d="M582.9,185.4c0,0.1,0,0.2-0.1,0.2c-0.4,0.4-2,0.4-1.9,0.9c0,0.3,0.1,0.7,0.1,1c0,0.4-9.4-9.9-9.5-9.6
		c-0.1,0.3,4.3,6.7,4.2,6.9c-0.2,0.3-3-2.2-3.2-2c-0.3,0.2,3,3.7,2.9,4.1c-0.2,0.5-0.6,0.9-1,1.1c-0.5,0.2-3.5-2.5-4-2.4
		c-0.4,0.1,0.3,1.7-0.2,1.7c-38.4-33.6-84.8-64.5-129.1-87.2c0.6-0.1,8.6-6.3,8.6-6.8c35.5,18.8,77,45.2,109.4,71.5
		C564.6,169.6,577.3,180.6,582.9,185.4z"/>
	<path fill="#F8B040" d="M455.8,96.6"/>
	<path fill="#FFA10C" d="M457,97.4c0,0.4-2.9-0.9-2.9-0.5c0,0.4-2.4-1.4-2.5-1c0,0.2,0.4,1.5,0.3,1.7c-0.1,0.3-1.3-0.7-1.4-0.4
		c-0.1,0.2,0.8,1.8,0.7,2c-0.2,0.3-4.9-2.3-5.2-2c-0.3,0.3,3.8,3.4,3.4,3.6c-0.4,0.2-0.7,0.4-1.2,0.6c-0.3,0.1-2.3-1.2-2.7-1.1
		c-0.6,0.2,0.4,1.8-0.2,2c-17.1-8.8-41-19.2-58.8-26.3c0.6-0.3,7.8-7,7.5-7.8c17.1,6.7,40.7,17.5,58,26.3c1.3,0.7,2.6,1.3,3.9,2
		C456.2,96.8,456.6,97.2,457,97.4z"/>
	<path fill="#DA8C00" d="M398.8,74.1c-0.5,0.6-3.6,0.9-3.8,1.2c-0.2,0.4,0.6,1.7,0.3,2c-0.4,0.4-2.9-1-3.3-0.7
		c-0.5,0.4-2.2,0.2-2.8,0.6c-6.3-2.5-4.9-1.8-11.2-4.1c-0.9-0.3-1.7-0.6-2.6-0.9c-2.5-1.8-4.7-4.6-4.7-4.6l2.6-4.2
		c0,0,2.7-0.7,4.6-0.9c1.1,0.4,2.3,0.8,3.4,1.2c6.5,2.3,9,3.2,15.4,5.7c0.3,0.8-2.1-0.1-2,0.7c0.1,0.4,2.7,1.4,2.8,1.8
		c0,0.1-1.4,0.8-1.3,1c0.1,0.3,2.1,0.7,2.1,0.7S399,73.9,398.8,74.1z"/>
</g>
<g id="reed_older_brother_head">
	<path fill="#FDB757" d="M150,76.6l-2.1,0.9l-1.1-2.2l0.2-2.5l-1.1-3.6l-2.3-2.1l-1.6-1.3l2.7-1.2l-0.8-1.8l-2,0.9l-1.5-1.5l2.7-2.8
		l-3.1-0.5l-0.9-1.4l-2.9-0.4l0.8-1.2l-0.7-1.7L139,53l-1.1-3.9l3-1.3l-2.6-1.7l-1.7-2.4l1.5-1.5l-2.2-1l-0.3-0.8l3.1-1.4l1-8.7
		l2.5-3.1c0,0,1.2-3.8,1.5-5.4c0.3-1.6,6.6-7.8,6.6-7.8l-1.9-2.5l0.5-4.2l2.5-1.8L151,5.5c0,0-6.6-1.7-15.3,2
		c-8.7,3.7-10.5,12.9-10.5,12.9s-6-0.1-7.7,3.7c-1.7,3.8-0.9,8-0.9,8s1.1,27.8,3.6,33.5c2.5,5.7,9.7,3.9,9.7,3.9l-2.7,5.9
		c0,0,4.4,1.4,4.7,2c0.3,0.6,1,2,4.8,3.1c1.3,0.4,5.9,0.5,11.5,0.5l0.6-2.8L150,76.6z"/>
	<path fill="#F8A82C" d="M255.6,72.7l-0.8-1.9l0.9-2.2l-2.2-0.7l-3.2,0.2l-2.9-1.2l0.8-2.8l-2-3.8l-0.3-3l-3-1.6
		c0,0-3.3,0.9-3.7,0.3c-0.4-0.6,0.6-2.7,0.6-2.7l-0.6-2.8l1.6-1.9l-1.6-3.9l-2.3,0.5l0.9-2.9l-1.6-2.3l-0.3-1.2l-2-0.6
		c0,0,0-2.4-0.1-3c0-0.6,1-4.4,1-4.4l5.9-2.6l0.3-3.3l-0.3-3.2l2.1-1.6l2.7-2.9l4.8-0.5l1.3-4.8l2.4-0.5l1.2-2.7
		c0,0,0.1-2.2,0.2-4.4l-4.3-1.5l-9.8,3.1L237.5,0l-1.8,2.8l-8.9,0.1l-4.2,1.6l-10.7-3.7l-18.4,2.5l-5.1-1.5l-3.7,1.1l-11.8-0.1
		l-3.2,3.4l-1.9,5.6l0.3,2.8l-1.8,5.6l-1.9,4.3l-0.1,11.7l0,9.9l0.5,1.1l1.2,2.7L168,52l-0.1,4.5l2.8,3.5l2.3,0.9l2.5,3.1l1.6,1
		l-0.4,2.2l-0.2,6.2l-0.6,4.3c0.2-0.1,0.3-0.2,0.4-0.3c4.2-3.6,4.9,1,9.3,1.5c4.4,0.5,4.4-0.1,4.4-0.1l4.8,1.2l3.9-1.7l12.2,2.5
		l36.5-2l7.9-3.4L255.6,72.7z"/>
	<path fill="#F8A82C" d="M354.6,84.2l-1.9-3.4l-4.2,1.4l-5,0l2.4-1.2l8.9-2.1l2-4.7l-1.7-3.8l-3.1,0.6l-1.7-3.4l1.2-2.7l-0.9-3
		l-2.5,0.4l2.5-14l-4-3.7l0.4-1.9l4.3-1.9l0.4-5.8l-1-2.3l-4,1l0.3-2.5l-2.3-2.8l-2-1.4l0.8-3.9l-3.1-1.2l-7.9-6.8l-0.4,2.3
		l-6.2-1.7l-1.9,2.9l-3.8-4.8l-1.7,1.9l-4.8,0.7l-4.2-4.2l-2.4,1.8l-4.1,0.5c0,0-2.2-4.4-3.4-5.2c-1.2-0.8-5.4-2.9-5.4-2.9L293.5,9
		L284,9.6l-0.7,2.6l0.3,1.9l-0.9,4l1.6,1.9l-3.5,6.5l-0.8,5.8l-5.3,1.4l-4.9,4.2l1.3,3l0,2.5l1.4,1.4l-1.3,2.2l2,0.9l3.1,1.8l2.8,3
		l-0.6,2l4.2,2l-1.2,1.8l2,2.8l1.9,4.7l-1.4,4.7l1.9,2.5l1.8,0.8l1.2,2.7c0,0,0.2,4.6,0.7,9.3c2.3,0.7,13.8,0.5,13.8,0.5l9.2,2.3
		l-0.2,2l14,1.9c0,0,3.2,2.3,6.4,2.8c0.8,0.1,2.7,0,5.2-0.1l15.3-4.6L354.6,84.2z"/>
	<path fill="#B27C32" d="M364.2,37.9c0,0-2.3-6-7-10.3c-4.7-4.4-7.8-5.1-7.8-5.1l-1.2,1.1c0,0-7.8-5.4-10.1-6.7
		c-2.3-1.2-5.8-1.8-5.8-1.8l-0.4,2.3l-6.2-1.7l-1.9,2.9l-3.7-4.6l3.7,4.6l1.9-2.9l1.3,3.6l2.1,1.6l5.4-1.6l3.9,3.5l3.1,1.2l-0.8,3.9
		l2,1.4l2.4,2.8l-0.3,2.6l4-1l1,2.3l-1.4,5l-3.3,2.5l-0.4,2l4.1,3.9l-2.5,14l2.4-0.5l0.9,3l-1.2,2.7l1.7,3.4l3.1-0.6l1.7,3.8
		l-2.7,3.8l-9.4,1.7l0.3,2.1l3.6,0.4l3.8-1.2l2.3,3.2l-1.2,5.3l-13.6,5c7.3-0.5,19.2-2,19.2-2s5.4-2,8-6.9c0.5-0.9,1.2-2.8,2-5.3
		c1.1-3.4,4.9-6.5,6.1-11.2c1.1-4.3-0.3-10.2,0.5-14.1c1.2-5.6,1.9-10.2,1.6-11.7C374.3,39.6,364.2,37.9,364.2,37.9z"/>
	<path fill="#F8B040" d="M178.8,67.2l0.4-2.2l-1.6-1l-2.5-3.1l-2.3-0.9l-2.8-3.5l0.1-4.5l-2.1-2.2l-1.2-2.7l-0.5-1.1l0-9.9l0.9-11.2
		l1-4.8l2.2-5.1l-0.7-3.4l1.9-5.6l3.2-3.4L165.1,2l-17.3,2.8l-2.5,1.8l-0.5,4.2l1.9,2.5c0,0-6.3,6.1-6.6,7.7
		c-0.3,1.6-1.6,5.4-1.6,5.4l-2.5,3.3l-1,8.7l-3.1,1.4l0.3,0.8l2.2,1l-1.6,1.5l1.8,2.6l2.7,1.7l-3,1.3l1.1,3.9l-2.8,1.2l0.7,1.7
		l-0.8,1.2l1.7,1.9l2.1-0.2l3.1,0.4l-2.6,2.9l1.5,1.5l2-0.9l0.8,1.8l-2.7,1.2l1.5,1.3l2.4,2.2l1,3.4l-0.1,2.6l1.1,2.1l2.1-0.9
		l-1.1,1.5l-0.6,3.5c10.3-0.1,29.9-1,33.4-3.2l0.5-4.3L178.8,67.2z"/>
	<path fill="#FFBC61" d="M289.1,74.4l-1.8-0.8l-1.9-2.5l1.4-4.7l-1.9-4.7l-2-2.8l1.2-1.8l-4.2-2l0.6-2l-1.5-3.8l-4.4-1l-2-0.9
		l1.3-2.2l-1.5-1.4l0-2.5l-1.3-3l4.9-4.2l5.3-1.4L282,27l3.5-6.5l-1.6-1.9l0.9-4l-0.3-1.9l0.7-2.6l-1.1,0.1l-7.2-1
		c0,0-0.6-3.5-1.6-5.4c-1-1.9-5.5-3.3-5.5-3.3l-0.5,2.9l-14,0.8L250,4.6c-0.1,2.1-0.2,4.2-0.2,4.2l-1.2,2.7l-2.4,0.5l-1.3,4.8
		l-4.9,0.5l-2.7,2.8l-2.1,1.6l0.3,3.4l-0.3,3.3l-5.9,2.6c0,0-1,3.8-1,4.4c0,0.6,0.1,3.2,0.1,3.2l2,0.6l0.2,1.1l1.6,2.3l-0.9,2.9
		l2.3-0.5l1.6,3.9l-1.6,1.9l0.6,2.8c0,0-1,2.1-0.6,2.7c0.4,0.6,3.7-0.3,3.7-0.3l3,1.6l0.3,3l2,3.8l-0.8,2.8l3,1.2l3.2-0.3l2.2,0.7
		l-0.9,2.2l0.8,1.9l-0.2,2.3l-8,3.6l5.5-0.3l10.1-0.6l31.3,5.5c0,0,0.1,2.4,2.2,3.1c0,0,0.8,0.2,0.8,0.2c-0.5-4.7-1.5-9.5-1.5-9.5
		L289.1,74.4z"/>
</g>
</svg>
