<svg version="1.1" id="reeds-brother-dark" xmlns="http://www.w3.org/2000/svg" xmlns:xlink="http://www.w3.org/1999/xlink" x="0px" y="0px"
	 viewBox="0 0 427.8 739.3" enable-background="new 0 0 427.8 739.3" xml:space="preserve">
<g id="reed_x5F_body">
	<path fill="#FDB757" d="M410.6,409.8c-0.6,0-10.2-1-10.6-1.3c35,174.9,8.4,275.2,5.8,331.2h9.9C420.6,673.7,443,546.7,410.6,409.8z
		"/>
	<path fill="#FFBC61" d="M320.8,208.6c-2.7-0.9-5.8,1.1-6.1,3.3c-9.5-37.1-149.3-150.9-193-174.2c-0.4,0.6,0,1.2-1.1,1.8
		c-0.3,0.2-1.1,0.8-1.6,0.6C83.7,25,42.1,13.5,4,10C-1.9,5.9-1,2.7,4.9,0c39.6,3.7,82.7,15.6,119.9,31.7c0.7,0.3,1.6,1.4,1.9,2.2
		c0.6,1.6-0.8,1.4-1.6,2.1C150.8,50.5,275.7,145,320.8,208.6z"/>
	<path fill="#FFBD37" d="M414.1,424.9c0,0.1-0.1,0.1-0.2,0.1c-0.6,0.1-1.8-0.8-2.1-0.4c-0.2,0.3-0.3,0.6-0.5,0.8
		c-0.2,0.3-1.7-13.6-2-13.4c-0.3,0.2-0.4,7.9-0.7,8c-0.3,0.1-1.1-3.5-1.5-3.5c-0.3,0,0.2,4.8-0.1,5c-0.4,0.3-1,0.4-1.5,0.3
		c-0.5-0.1-1.4-4.1-1.9-4.3c-0.4-0.2-0.8,1.5-1.2,1.2c-11.2-49.8-30.3-102.1-52.6-146.6c0.6,0.3,10.7,0,10.9-0.4
		c17.5,36.2,35.4,82,46,122.3C408.8,401.3,412.5,417.7,414.1,424.9z"/>
	<path fill="#F8B040" d="M364.1,278.2"/>
	<path fill="#FFA10C" d="M364.5,279.5c-0.3,0.4-1.8-2.4-2.1-2.1c-0.3,0.3-1.2-2.5-1.4-2.3c-0.1,0.1-0.6,1.5-0.8,1.6
		c-0.3,0.2-0.6-1.3-0.9-1.2c-0.2,0.1-0.4,1.9-0.6,2c-0.4,0.1-2.6-4.7-3.1-4.7c-0.4,0,1,5,0.6,5c-0.4,0-0.8-0.1-1.3-0.2
		c-0.4-0.1-1.2-2.3-1.5-2.4c-0.6-0.2-0.7,1.7-1.3,1.5c-8.6-17.2-21.7-39.8-32-55.9c0.7,0.1,10.4-1,10.6-1.9
		c9.8,15.6,22.5,38.1,31.2,55.4c0.7,1.3,1.3,2.6,2,3.9C364.2,278.6,364.3,279.2,364.5,279.5z"/>
	<path fill="#DA8C00" d="M331.3,226.4c-0.8,0.2-3.4-1.4-3.8-1.3c-0.4,0.2-0.5,1.8-0.9,1.8c-0.5,0.1-1.7-2.5-2.2-2.6
		c-0.6,0-1.9-1.1-2.6-1.2c-3.6-5.7-2.9-4.4-6.7-9.9c-0.5-0.8-1-1.5-1.5-2.2c-0.9-2.9-1.1-6.5-1.1-6.5l4.6-1.9c0,0,2.6,1,4.2,2
		c0.7,1,1.4,2,2.1,3c3.9,5.7,5.4,7.8,9,13.7c-0.2,0.9-1.7-1.3-2-0.6c-0.2,0.3,1.4,2.7,1.2,3.2c0,0.1-1.6-0.1-1.6,0
		c-0.1,0.3,1.3,1.8,1.3,1.8S331.7,226.3,331.3,226.4z"/>
</g>
<g id="reed_x5F_head">
	<path fill="#FDB757" d="M129.1,81.4l-2.3-0.5l0.4-2.4l1.6-1.9l1.3-3.5l-0.6-3.1l-0.5-2l2.9,0.6l0.4-1.9l-2.2-0.5l-0.4-2.1l3.8-0.7
		l-2.2-2.2l0.1-1.7l-2.1-2l1.3-0.5l0.4-1.8l3,0.7l1.4-3.8l3.2,0.7l-1.1-2.9l0.1-3l2.1-0.3l-1.2-2.1l0.2-0.8l3.3,0.7l5.9-6.4l3.9-1
		c0,0,3.2-2.3,4.4-3.5c1.2-1.2,9.9-2.4,9.9-2.4l-0.1-3.1l2.9-3.1l3,0l-0.3-0.2c0,0-4.3-5.3-13.5-7.4c-9.2-2.1-16.1,4.2-16.1,4.2
		s-4.8-3.6-8.4-1.6c-3.6,2.1-5.4,5.9-5.4,5.9S112.9,48.9,111.6,55c-1.4,6.1,5.5,8.9,5.5,8.9l-5.7,3.2c0,0,2.7,3.7,2.6,4.4
		c-0.2,0.7-0.4,2.2,2.1,5.3c0.8,1.1,4.4,3.9,9,7.2l2.1-1.9L129.1,81.4z"/>
	<path fill="#F8A82C" d="M216.6,140.7l0.5-2.1l2.1-1.2l-1.4-1.9l-2.7-1.7l-1.6-2.7l2.3-1.7l0.6-4.3l1.5-2.6l-1.5-3.1
		c0,0-3.2-1.2-3.1-1.9c0-0.7,2.1-1.9,2.1-1.9l1.2-2.6l2.4-0.7l1-4.1l-2.2-1l2.4-1.8l0-2.8l0.5-1.1l-1.3-1.7c0,0,1.4-2,1.7-2.5
		c0.4-0.5,3.4-3,3.4-3l6.3,1.4l2.2-2.5l1.7-2.8l2.6-0.1l3.8-0.7l4.2,2.5l3.9-3.1l2.2,1.1l2.5-1.5c0,0,1.4-1.8,2.7-3.4l-2.6-3.7
		l-9.7-3.3l0.4-7l-3.1,1.2l-7.3-5.2l-4.3-1.2l-6.4-9.3l-16.3-8.9l-3.3-4.2l-3.6-1.3l-9.5-7.1l-4.6,0.8l-4.8,3.4l-1.4,2.5l-4.8,3.5
		l-4.1,2.3l-7,9.4l-5.8,8l-0.3,1.2l-0.7,2.9l0.4,3l-2.8,3.5l0.2,4.4l1.3,2.1l0.2,4l0.7,1.7l-1.6,1.5l-3.8,4.9l-3,3.1
		c0.2,0,0.4,0,0.5,0c5.5-0.5,3.4,3.7,6.6,6.7c3.2,3,3.6,2.5,3.6,2.5l3.2,3.8l4.2,0.9l8.4,9.3l30.7,19.9l8.4,1.9L216.6,140.7z"/>
	<path fill="#F8A82C" d="M289.7,208.4l0.5-3.8l-4.2-1.3l-4.1-3l2.6,0.4l8.4,3.6l4.4-2.6l0.9-4.1l-2.9-1.4l0.6-3.8l2.6-1.4l1-3
		l-2.2-1.1l10.3-9.8l-1.1-5.4l1.5-1.3l4.5,1l3.7-4.4l0.5-2.4l-3.8-1.6l1.7-1.9l-0.2-3.6l-0.8-2.4l3-2.6l-1.8-2.8l-2.4-10.2l-1.7,1.6
		l-4-5l-3.2,1.2l-0.3-6.1l-2.5,0.6l-4.2-2.3l-0.9-5.8l-3,0l-3.6-2c0,0,0.8-4.8,0.3-6.2c-0.5-1.4-2.7-5.5-2.7-5.5l-2.1,1.7l-8-5.1
		l-2.1,1.7l-0.9,1.7l-3.1,2.7l0.2,2.4l-6.6,3.2l-4,4.2l-5.1-2l-6.4,0.5l-0.7,3.2l-1.4,2l0.3,2l-2.3,1l1.1,1.9l1.5,3.3l0.5,4.1
		l-1.7,1.3l2.2,4.1l-2.1,0.7l-0.1,3.4l-1.2,5l-3.9,2.9l0.1,3.1l1,1.8l-0.6,2.9c0,0-2.6,3.8-5,7.9c1.5,1.9,10.8,8.5,10.8,8.5l6.1,7.3
		l-1.4,1.5l10.2,9.8c0,0,1.2,3.8,3.5,6c0.6,0.6,2.2,1.6,4.3,2.9l15,5.3L289.7,208.4z"/>
	<path fill="#B27C32" d="M324.9,176.7c0,0,1.6-6.2,0.5-12.5c-1.2-6.3-3.3-8.7-3.3-8.7l-1.6,0.1c0,0-3.1-9-4.2-11.3
		c-1.1-2.3-3.6-4.9-3.6-4.9l-1.6,1.6l-4-5l-3.2,1.2l-0.3-5.9l0.3,5.9l3.2-1.2l-1,3.6l0.7,2.5l5.3,1.9l1.1,5.1l1.8,2.8l-3,2.6
		l0.8,2.4l0.3,3.6l-1.8,1.9l3.8,1.6l-0.5,2.4l-4,3.2l-4.1,0.1l-1.5,1.4l1,5.6l-10.3,9.8l2.3,1.1l-1,3L294,192l-0.7,3.8l2.9,1.4
		l-0.9,4.1l-4.4,1.4l-8.5-4.2l-1,1.9l2.6,2.5l3.8,1.3l-0.1,3.9l-4.1,3.6l-13.9-4c6.2,3.9,16.6,9.7,16.6,9.7s5.5,1.6,10.5-0.9
		c0.9-0.5,2.6-1.6,4.7-3.1c2.9-2.1,7.8-2.3,11.6-5.5c3.4-2.8,5.8-8.4,8.7-11.1c4.3-3.8,7.5-7.1,8.1-8.5
		C331.9,184,324.9,176.7,324.9,176.7z"/>
	<path fill="#F8B040" d="M157.9,91l1.6-1.5l-0.7-1.7l-0.2-4l-1.3-2.1l-0.2-4.4l2.7-3.6l-0.4-3l0.7-2.9l0.3-1.2l5.8-8l7.4-8.5
		l3.7-3.2L182,44l1.4-3.1l4.8-3.4l4.6-0.8l-7.5-6.4l-15.6-8l-3,0l-2.9,3.1l0.1,3.1c0,0-8.7,1.2-9.9,2.3c-1.2,1.2-4.4,3.4-4.4,3.4
		l-3.9,1.2l-5.9,6.4l-3.3-0.7l-0.2,0.8l1.2,2.1l-2.1,0.2l-0.1,3.1l1.2,2.9l-3.2-0.7l-1.4,3.8l-3-0.7l-0.4,1.8l-1.3,0.5l0.2,2.5
		l1.8,1.1l2.3,2.2l-3.9,0.8l0.4,2.1l2.2,0.5l-0.4,1.9l-2.9-0.6l0.5,1.9l0.6,3.2l-1.2,3.3l-1.6,2.1l-0.4,2.3l2.3,0.5l-1.8,0.6
		l-2.6,2.4c8.4,6,24.7,16.8,28.9,17.2l3-3.2L157.9,91z"/>
	<path fill="#FFBC61" d="M242.6,161.9l-1-1.8l-0.1-3.1l3.9-2.9l1.2-5l0.1-3.4l2.1-0.7l-2.2-4.1l1.7-1.3l1-3.9l-2.9-3.4l-1.1-1.9
		l2.4-1l-0.4-2l1.4-2l0.7-3.2l6.4-0.5l5.1,2l4.1-4.2l6.7-3.1l-0.2-2.4l3.1-2.7l0.9-1.7l2.1-1.7l-0.9-0.6l-5.2-5.1
		c0,0,1.6-3.2,1.9-5.3c0.3-2.1-2.5-5.9-2.5-5.9l-2.2,2.1l-11.7-7.6l-4.6-2.9c-1.3,1.7-2.6,3.3-2.6,3.3l-2.5,1.5l-2.2-1.1l-3.9,3.1
		l-4.2-2.5l-3.8,0.7l-2.6,0l-1.7,2.9l-2.2,2.5l-6.3-1.4c0,0-3,2.4-3.4,3c-0.4,0.5-1.8,2.7-1.8,2.7l1.3,1.6l-0.5,1l0,2.8l-2.4,1.8
		l2.2,1l-1,4.1L212,110l-1.2,2.6c0,0-2,1.2-2.1,1.9c0,0.7,3.1,1.9,3.1,1.9l1.5,3.1l-1.5,2.6l-0.6,4.3l-2.3,1.8l1.6,2.7l2.7,1.7
		l1.4,1.9l-2.1,1.2l-0.5,2.1l-1.5,1.7l-8.6-1.8l4.6,3l8.5,5.4l22,22.9c0,0-1.3,2,0,3.8c0,0,0.5,0.6,0.6,0.6c2.4-4.1,4.4-8.5,4.4-8.5
		L242.6,161.9z"/>
</g>
</svg>
