<svg version="1.1" id="reeds" xmlns="http://www.w3.org/2000/svg" xmlns:xlink="http://www.w3.org/1999/xlink" x="0px" y="0px"
	 viewBox="0 0 550.1 530.9" enable-background="new 0 0 550.1 530.9" xml:space="preserve">
<g id="reed_body">
	<path fill="#FDB757" d="M488.6,328c-0.5,0.2-10.2,1-10.7,0.8c28,59.6,52.5,134.6,62.2,202.1h10C540.8,466,515.4,387.1,488.6,328z"
		/>
	<path fill="#FFBC61" d="M357.5,151.5c-2.8-0.3-5.4,2.3-5.2,4.5C334.9,121.9,173.8,41.2,126.1,27.9c-0.2,0.7,0.3,1.1-0.7,2
		c-0.3,0.2-0.9,1-1.4,0.9c-37.9-7-81-9.2-118.9-4.4c-6.6-2.7-6.4-6-1.3-9.9c39.5-5,84.1-2.7,123.9,4.9c0.8,0.1,1.9,1.1,2.3,1.7
		c0.9,1.4-0.5,1.6-1.1,2.4C157.2,34.1,299.6,99.2,357.5,151.5z"/>
	<path fill="#FFBD37" d="M495.5,342.5c0,0.1-0.1,0.2-0.2,0.2c-0.5,0.2-2-0.4-2.1,0c-0.1,0.3-0.2,0.6-0.3,0.9
		c-0.1,0.3-4.6-12.9-4.8-12.6c-0.2,0.2,1.3,7.8,1,8c-0.3,0.2-1.9-3.2-2.2-3.1c-0.3,0.1,1.2,4.6,1,4.9c-0.3,0.4-0.9,0.6-1.4,0.6
		c-0.5,0-2.2-3.7-2.7-3.8c-0.4-0.1-0.4,1.6-0.9,1.5c-21.7-46.2-51.8-93.1-83.2-131.7c0.7,0.1,10.4-2.3,10.6-2.7
		c25,31.5,52.4,72.3,71.5,109.4C485.1,320.6,492.3,335.7,495.5,342.5z"/>
	<path fill="#FFA10C" d="M414.8,210.1"/>
	<path fill="#FFA10C" d="M415.5,211.3c-0.2,0.4-2.3-2-2.5-1.6c-0.2,0.4-1.7-2.2-1.9-1.9c-0.1,0.2-0.3,1.6-0.4,1.7
		c-0.2,0.3-0.9-1.2-1.1-1c-0.2,0.1,0,2-0.1,2.1c-0.4,0.2-3.6-4-4-3.9c-0.4,0.1,2.1,4.6,1.7,4.7c-0.4,0.1-0.9,0.1-1.3,0.1
		c-0.4,0-1.6-2-2-2c-0.6,0-0.3,1.8-1,1.7c-12.2-14.9-29.8-34.1-43.3-47.6c0.7,0,9.9-3.2,10-4.2c13,13.1,30.2,32.3,42.5,47.3
		c0.9,1.2,1.9,2.3,2.8,3.4C415,210.4,415.3,211,415.5,211.3z"/>
	<path fill="#DA8C00" d="M371.6,166.6c-0.7,0.3-3.6-0.7-4-0.4c-0.4,0.3-0.1,1.8-0.5,2c-0.5,0.2-2.2-2.1-2.8-2
		c-0.6,0.1-2.1-0.7-2.8-0.6c-4.8-4.8-3.7-3.6-8.7-8.2c-0.7-0.6-1.3-1.2-2-1.9c-1.5-2.6-2.5-6.1-2.5-6.1l4.1-2.8c0,0,2.8,0.4,4.5,1
		c0.9,0.8,1.8,1.6,2.7,2.5c5,4.7,6.9,6.5,11.8,11.4c0,0.9-1.9-0.9-2.1-0.2c-0.1,0.4,2,2.4,1.9,2.8c0,0.1-1.6,0.2-1.6,0.3
		c0,0.3,1.7,1.5,1.7,1.5S371.9,166.5,371.6,166.6z"/>
</g>
<g id="reed_head">
	<path class="x-fast" fill="#FDB757" d="M142.7,68.9h-2.3l-0.1-2.3l1.2-2.2l0.5-3.7l-1.3-2.9l-0.9-1.9h3l0-2h-2.2l-0.8-1.9l3.6-1.4l-2.7-1.7
		l-0.3-1.6l-2.6-1.5l1-0.8v-2h3.4l0.6-4h3.2l-1.7-2.5l-0.6-2.9l1.8-0.8l-1.8-1.8v-1h3.7l4.4-7.5l3.6-1.8c0,0,2.7-3,3.6-4.4
		c0.9-1.4,9.1-4.5,9.1-4.5l-0.8-3.1l2.2-3.6l3-0.6l-0.3-0.1c0,0-5.4-4.2-14.8-4.3c-9.4-0.1-14.8,7.6-14.8,7.6s-5.4-2.5-8.5,0.3
		c-3.1,2.8-4,6.9-4,6.9S119.9,40.7,119.9,47c0,6.2,7.3,7.5,7.3,7.5l-4.8,4.3c0,0,3.5,3,3.5,3.7c0,0.7,0.1,2.2,3.2,4.7
		c1.1,0.9,5.2,2.9,10.4,5.1l1.6-2.4L142.7,68.9z"/>
	<path class="x-medium" fill="#F8A82C" d="M240.7,107.9v-2.1l1.9-1.6l-1.7-1.5l-3-1l-2.2-2.3l1.9-2.2l-0.3-4.3l0.9-2.9l-2.1-2.7c0,0-3.4-0.5-3.5-1.2
		c-0.1-0.7,1.6-2.3,1.6-2.3l0.6-2.8l2.2-1.2l0.1-4.2l-2.3-0.5l2-2.3l-0.6-2.8l0.2-1.2l-1.6-1.4c0,0,0.9-2.3,1.2-2.9
		c0.2-0.6,2.7-3.7,2.7-3.7h6.5l1.6-2.8l1-3l2.6-0.6l3.6-1.5l4.6,1.5l3.1-3.8l2.4,0.6l2.2-2c0,0,1-2,1.9-3.9l-3.3-3.1l-10.2-1.1
		l-1.2-6.9l-2.8,1.9l-8.2-3.5l-4.5-0.2l-8.3-7.7l-17.9-5.1l-4.1-3.4l-3.8-0.5l-10.8-4.9l-4.3,1.8l-3.9,4.4l-0.8,2.7l-3.9,4.4
		l-3.5,3.1l-4.9,10.7l-4.1,9.1v1.2v3l1.2,2.9l-1.8,4.1l1.2,4.3l1.8,1.7l1.1,3.8l1.1,1.5l-1.3,1.9l-2.7,5.6l-2.2,3.7
		c0.2,0,0.4-0.1,0.5-0.1c5.3-1.7,4.1,2.9,7.9,5.1s4.1,1.6,4.1,1.6l3.9,2.9h4.3l10.2,7.2l34.2,12.8h8.6L240.7,107.9z"/>
	<path class="x-slow" fill="#F8A82C" d="M327.1,158.1l-0.3-3.9l-4.4-0.4l-4.6-2l2.7-0.2l8.8,1.7l3.5-3.5v-4.2l-3-0.7l-0.1-3.8l2.3-2l0.4-3.1
		l-2.4-0.6l7.9-11.8l-2.2-5.1l1.2-1.7h4.6l2.4-5v-2.5l-3.8-0.7l1.4-2.2l-1-3.5l-1.2-2.1l2.3-3.2l-2.3-2.3l-4.5-9.4l-1.3,1.9l-5-4
		l-2.9,1.9l-1.6-5.9l-2.3,1.1l-4.6-1.3l-2.1-5.5l-2.9,0.7l-4-1.2c0,0-0.3-4.9-1-6.1c-0.8-1.2-3.8-4.8-3.8-4.8l-1.7,2.1l-8.9-3.3
		l-1.7,2.1l-0.5,1.9l-2.4,3.3l0.7,2.3l-5.8,4.5l-3,5l-5.6-0.8l-6.3,1.9v3.3l-0.8,2.3l0.8,1.9l-2,1.5l1.5,1.6l2.1,2.9l1.4,3.9
		l-1.4,1.6l3,3.5l-1.9,1.2l0.7,3.4l-0.1,5.1l-3.1,3.7l0.6,3l1.2,1.5v3c0,0-1.5,4.3-3,8.8c1.8,1.5,12.5,6,12.5,6l7.6,5.8l-1,1.8
		l12.1,7.3c0,0,2,3.4,4.8,5.1c0.7,0.4,2.5,1.1,4.8,1.9l15.8,2L327.1,158.1z"/>
	<path class="slow" fill="#B27C32" d="M354.5,119.6c0,0,0.3-6.4-2.3-12.3c-2.5-5.9-5.1-7.8-5.1-7.8l-1.5,0.5c0,0-5-8.1-6.6-10.1
		c-1.6-2-4.6-4-4.6-4l-1.3,1.9l-5-4l-2.9,1.9l-1.6-5.7l1.6,5.7l2.9-1.9l-0.2,3.8l1.2,2.3l5.6,0.7l2.2,4.8l2.3,2.3l-2.3,3.2l1.3,2.1
		l1,3.5l-1.5,2.2l3.8,0.7v2.5l-3.1,4l-3.9,1l-1.2,1.7l2.2,5.2l-7.9,11.8l2.4,0.5l-0.3,3.1l-2.2,2l0,3.8l3,0.7v4.2l-3.8,2.4l-9.2-2.2
		l-0.5,2l3.1,1.8l4,0.4l0.8,3.8l-3.3,4.4l-14.4-0.9c6.9,2.4,18.3,5.9,18.3,5.9s5.7,0.3,10.1-3.2c0.8-0.6,2.2-2.1,3.9-4.1
		c2.4-2.7,7.1-4,10.1-7.8c2.7-3.5,3.8-9.5,6.1-12.7c3.3-4.7,5.8-8.6,6.1-10C363,125.1,354.5,119.6,354.5,119.6z"/>
	<path class="fast" fill="#F8B040" d="M172.9,72l1.3-1.9l-1-1.5l-1-3.8l-1.7-1.7l-1.2-4.3l1.7-4.1l-1.2-2.9v-3v-1.2l4.1-9.1l5.4-9.9l2.9-3.9
		l4.1-3.8l0.7-3.4l4-4.4l4.3-1.8l-8.7-4.7l-16.9-4.4l-3,0.6l-2.2,3.6l0.8,3c0,0-8.2,3-9.1,4.4c-0.9,1.4-3.6,4.3-3.6,4.3l-3.6,1.9
		l-4.4,7.5h-3.7v1l1.8,1.7l-2,0.7l0.6,3l1.8,2.5h-3.2l-0.6,4h-3.4v2l-1,0.8l0.8,2.4l2,0.7l2.7,1.6l-3.6,1.6l0.8,1.9h2.2l0,2h-3
		l0.9,1.8l1.3,3l-0.5,3.5l-1.2,2.3l0.1,2.3h2.3l-1.6,1l-2,2.9c9.5,4,27.8,11.1,31.9,10.5l2.2-3.7L172.9,72z"/>
	<path class="medium" fill="#FFBC61" d="M270.7,122.9l-1.2-1.5l-0.7-3l3.2-3.7l0.1-5.1l-0.7-3.4l1.9-1.2l-3-3.5l1.4-1.6l0.1-4.1l-3.6-2.7l-1.5-1.6
		l2.1-1.5l-0.9-1.9l0.8-2.3v-3.3l6.3-1.9l5.5,0.8l3.1-5l5.8-4.5l-0.7-2.3l2.4-3.3l0.5-1.9l1.7-2.1l-1-0.4l-6.2-3.8
		c0,0,0.9-3.4,0.7-5.6c-0.2-2.1-3.7-5.2-3.7-5.2l-1.7,2.5l-13.1-4.9l-5.1-1.9c-0.9,1.9-1.9,3.8-1.9,3.8l-2.2,2l-2.4-0.6l-3.1,3.8
		l-4.6-1.5l-3.6,1.5l-2.6,0.6l-1,3.2l-1.6,2.8h-6.5c0,0-2.4,3.1-2.7,3.7c-0.2,0.6-1.2,3-1.2,3l1.6,1.3l-0.2,1.1l0.6,2.8l-2,2.3
		l2.3,0.5l-0.1,4.2l-2.2,1.2l-0.6,2.8c0,0-1.7,1.6-1.6,2.3c0.1,0.7,3.5,1.2,3.5,1.2l2.1,2.7l-0.9,2.9l0.3,4.3l-1.9,2.2l2.2,2.3l3,1
		l1.6,1.5l-1.9,1.6v2.1l-1,2l-8.7,0.1l5.2,1.9l9.5,3.5l26.5,17.6c0,0-0.9,2.2,0.8,3.7c0,0,0.5,0.5,0.5,0.5c1.4-4.5,2.3-9.3,2.3-9.3
		V122.9z"/>
</g>
</svg>
