<?xml version="1.0" encoding="utf-8"?>
<!-- Generator: Adobe Illustrator 18.0.0, SVG Export Plug-In . SVG Version: 6.00 Build 0)  -->
<!DOCTYPE svg PUBLIC "-//W3C//DTD SVG 1.1//EN" "http://www.w3.org/Graphics/SVG/1.1/DTD/svg11.dtd">
<svg version="1.1" xmlns="http://www.w3.org/2000/svg" xmlns:xlink="http://www.w3.org/1999/xlink" x="0px" y="0px"
	 viewBox="0 0 530.5 299.1" enable-background="new 0 0 530.5 299.1" xml:space="preserve">
<g id="background">
	<g opacity="0.1">
		<path d="M203.3,1.8l-75,42.8c43.3,87,67.1,171.2,62.4,251.2l337.7-98.5L203.3,1.8z"/>
	</g>
	<polygon opacity="0.1" points="218.5,9.1 12,120.7 133.9,296 530.5,186.6 	"/>
	<path fill="#9F0F44" d="M206.5,9.1L0,120.7C21,183.3,66.5,240.7,121.9,296l396.6-109.4L206.5,9.1z"/>
	<g>
		<path fill="#D4145A" d="M193.3,0l-75,42.8c43.3,87,67.1,171.2,62.4,251.2l337.7-98.5L193.3,0z"/>
	</g>
	<g opacity="0.1">
		<path d="M193.3,0l-33.7,19.3c87.4,63.9,159.6,134.7,180.5,228.3l178.4-52L193.3,0z"/>
	</g>
</g>
<g id="board">
	<g opacity="0.1">
		<path d="M300,57h-98.3C104.3,87,78,89.9,52,91.2v23.2C79,189.5,88.6,236,87.7,267h44.5c73.2-2,141.2-18.5,205.1-46.9
			C316.8,178.7,305.5,122,300,57z"/>
	</g>
	<g>
		<path fill="#DD437B" d="M297.3,56H199C101.6,86,75,88.9,50,90.2v23.2C76,188.5,85.8,235,84.9,266h44.5
			c73.2-2,141.2-18.5,205.1-46.9C314.1,177.7,302.8,121,297.3,56z"/>
	</g>
	
		<rect x="167.9" y="127.7" transform="matrix(0.9985 -5.482052e-002 5.482052e-002 0.9985 -7.5035 10.1913)" opacity="0.1" width="28.3" height="28.3"/>
	
		<rect x="166.7" y="129" transform="matrix(0.9985 -5.482052e-002 5.482052e-002 0.9985 -7.5746 10.1294)" fill="#FFFFFF" width="28.3" height="28.3"/>
	
		<rect x="169" y="131.8" transform="matrix(0.9985 -5.482052e-002 5.482052e-002 0.9985 -7.4981 10.1186)" fill="#D4145A" width="23.4" height="19.8"/>
	<g opacity="0.1">
		<polygon points="191.8,131.2 175.3,132.1 186.7,151.3 192.9,151 		"/>
	</g>
	<g opacity="0.1">
		<path d="M297.4,56h-98.3c-1.2,0-2.3,0.8-3.4,1.1c37.4,62.5,68.8,123.4,89.4,181.4c16.8-5.6,33.3-12.1,49.5-19.4
			C314.2,177.8,302.9,121,297.4,56z"/>
	</g>
	
		<rect x="229.9" y="62.7" transform="matrix(0.9974 7.162865e-002 -7.162865e-002 0.9974 6.1304 -17.2837)" opacity="0.1" width="28.3" height="28.3"/>
	
		<rect x="228.6" y="63.8" transform="matrix(0.9974 7.162865e-002 -7.162865e-002 0.9974 6.2064 -17.1868)" fill="#FFFFFF" width="28.3" height="28.3"/>
	
		<rect x="231.1" y="66.6" transform="matrix(0.9974 7.162865e-002 -7.162865e-002 0.9974 6.1056 -17.1918)" fill="#D4145A" width="23.4" height="19.8"/>
	<g opacity="0.1">
		<polygon points="255.1,67.5 238.6,66.3 247.5,86.8 253.7,87.2 		"/>
	</g>
	
		<rect x="216.7" y="164.2" transform="matrix(0.9835 -0.1811 0.1811 0.9835 -28.4723 44.7572)" opacity="0.1" width="28.3" height="28.3"/>
	
		<rect x="215.7" y="165.6" transform="matrix(0.9835 -0.1811 0.1811 0.9835 -28.7427 44.6004)" fill="#FFFFFF" width="28.3" height="28.3"/>
	
		<rect x="217.9" y="168.5" transform="matrix(0.9835 -0.1811 0.1811 0.9835 -28.5005 44.5172)" fill="#D4145A" width="23.4" height="19.8"/>
	
		<rect x="181.6" y="176.2" transform="matrix(0.9919 -0.1272 0.1272 0.9919 -22.6219 26.4433)" opacity="0.1" width="28.3" height="28.3"/>
	
		<rect x="180.6" y="177.6" transform="matrix(0.9919 -0.1272 0.1272 0.9919 -22.8018 26.3183)" fill="#FFFFFF" width="28.3" height="28.3"/>
	
		<rect x="182.8" y="180.4" transform="matrix(0.9919 -0.1272 0.1272 0.9919 -22.6279 26.274)" fill="#D4145A" width="23.4" height="19.8"/>
	<g opacity="0.1">
		<polygon points="204.8,179 188.3,181.1 201.2,199.5 207.3,198.7 		"/>
	</g>
	
		<rect x="98.2" y="202.8" transform="matrix(0.9968 -7.937031e-002 7.937031e-002 0.9968 -16.8648 9.6034)" opacity="0.1" width="28.3" height="28.3"/>
	
		<rect x="97.1" y="204.1" transform="matrix(0.9968 -7.937031e-002 7.937031e-002 0.9968 -16.971 9.5176)" fill="#FFFFFF" width="28.3" height="28.3"/>
	
		<rect x="99.4" y="206.9" transform="matrix(0.9968 -7.937031e-002 7.937031e-002 0.9968 -16.8609 9.4979)" fill="#D4145A" width="23.4" height="19.8"/>
	<g opacity="0.1">
		<polygon points="121.9,206 105.4,207.3 117.3,226.3 123.5,225.8 		"/>
	</g>
	
		<rect x="76.7" y="112" transform="matrix(0.9997 2.236462e-002 -2.236462e-002 0.9997 2.8447 -1.9996)" opacity="0.1" width="28.3" height="28.3"/>
	
		<rect x="75.4" y="113.2" transform="matrix(0.9997 2.236462e-002 -2.236462e-002 0.9997 2.8706 -1.9712)" fill="#FFFFFF" width="28.3" height="28.3"/>
	
		<rect x="77.8" y="116" transform="matrix(0.9997 2.236462e-002 -2.236462e-002 0.9997 2.8391 -1.9704)" fill="#D4145A" width="23.4" height="19.8"/>
	<g opacity="0.1">
		<polygon points="101.4,116.3 84.8,115.9 94.8,136 101,136.1 		"/>
	</g>
	
		<rect x="117.8" y="94.3" transform="matrix(0.999 4.495548e-002 -4.495548e-002 0.999 5.0073 -5.8249)" opacity="0.1" width="28.3" height="28.3"/>
	
		<rect x="116.6" y="95.4" transform="matrix(0.999 4.495548e-002 -4.495548e-002 0.999 5.0574 -5.766)" fill="#FFFFFF" width="28.3" height="28.3"/>
	
		<rect x="119" y="98.2" transform="matrix(0.999 4.495548e-002 -4.495548e-002 0.999 4.994 -5.7666)" fill="#D4145A" width="23.4" height="19.8"/>
	<g opacity="0.1">
		<polygon points="142.8,98.8 126.3,98 135.8,118.3 141.9,118.6 		"/>
	</g>
	
		<rect x="151.3" y="81.3" transform="matrix(0.9933 -0.1154 0.1154 0.9933 -9.9083 19.7211)" opacity="0.1" width="28.3" height="28.3"/>
	
		<rect x="150.2" y="82.6" transform="matrix(0.9933 -0.1154 0.1154 0.9933 -10.0694 19.6048)" fill="#FFFFFF" width="28.3" height="28.3"/>
	
		<rect x="152.4" y="85.5" transform="matrix(0.9933 -0.1154 0.1154 0.9933 -9.911 19.5675)" fill="#D4145A" width="23.4" height="19.8"/>
	<g opacity="0.1">
		<polygon points="174.5,84.2 158.1,86.1 170.7,104.6 176.8,103.9 		"/>
	</g>
	
		<rect x="190.8" y="72.3" transform="matrix(0.9985 -5.482052e-002 5.482052e-002 0.9985 -4.4319 11.3678)" opacity="0.1" width="28.3" height="28.3"/>
	
		<rect x="189.7" y="73.6" transform="matrix(0.9985 -5.482052e-002 5.482052e-002 0.9985 -4.503 11.3059)" fill="#FFFFFF" width="28.3" height="28.3"/>
	
		<rect x="192" y="76.4" transform="matrix(0.9985 -5.482052e-002 5.482052e-002 0.9985 -4.4266 11.2951)" fill="#D4145A" width="23.4" height="19.8"/>
	<g opacity="0.1">
		<polygon points="214.8,75.8 198.2,76.7 209.7,95.9 215.9,95.6 		"/>
	</g>
	
		<rect x="152.5" y="227.5" transform="matrix(0.9976 6.995314e-002 -6.995314e-002 0.9976 17.3132 -11.0642)" opacity="0.1" width="28.3" height="28.3"/>
	
		<rect x="151.2" y="228.6" transform="matrix(0.9976 6.995314e-002 -6.995314e-002 0.9976 17.3877 -10.9697)" fill="#FFFFFF" width="28.3" height="28.3"/>
	
		<rect x="153.6" y="231.5" transform="matrix(0.9976 6.995314e-002 -6.995314e-002 0.9976 17.2892 -10.9743)" fill="#D4145A" width="23.4" height="19.8"/>
	<g opacity="0.1">
		<polygon points="177.7,232.3 161.1,231.1 170.1,251.6 176.3,252.1 		"/>
	</g>
	
		<rect x="208.7" y="119.7" transform="matrix(0.986 -0.1666 0.1666 0.986 -19.1847 38.9854)" opacity="0.1" width="28.3" height="28.3"/>
	
		<rect x="207.7" y="121.1" transform="matrix(0.986 -0.1666 0.1666 0.986 -19.4301 38.8358)" fill="#FFFFFF" width="28.3" height="28.3"/>
	
		<rect x="209.8" y="124" transform="matrix(0.986 -0.1666 0.1666 0.986 -19.2058 38.7642)" fill="#D4145A" width="23.4" height="19.8"/>
	<g opacity="0.1">
		<polygon points="231.4,122.1 215,124.9 228.6,142.7 234.7,141.7 		"/>
	</g>
	
		<rect x="246.4" y="107.9" transform="matrix(0.9994 3.374625e-002 -3.374625e-002 0.9994 4.2684 -8.7241)" opacity="0.1" width="28.3" height="28.3"/>
	
		<rect x="245.2" y="109.1" transform="matrix(0.9994 3.374625e-002 -3.374625e-002 0.9994 4.3067 -8.6806)" fill="#FFFFFF" width="28.3" height="28.3"/>
	
		<rect x="247.6" y="111.9" transform="matrix(0.9994 3.374625e-002 -3.374625e-002 0.9994 4.2592 -8.6802)" fill="#D4145A" width="23.4" height="19.8"/>
	<g opacity="0.1">
		<polygon points="271.3,112.3 254.7,111.7 264.5,131.9 270.6,132.1 		"/>
	</g>
	<g opacity="0.1">
		<polygon points="239.3,166.5 223,169.5 236.8,187.1 242.8,186 		"/>
	</g>
	
		<rect x="256.4" y="153.9" transform="matrix(0.9973 7.387924e-002 -7.387924e-002 0.9973 13.1565 -19.5317)" opacity="0.1" width="28.3" height="28.3"/>
	
		<rect x="255.1" y="155" transform="matrix(0.9973 7.387924e-002 -7.387924e-002 0.9973 13.2346 -19.4314)" fill="#FFFFFF" width="28.3" height="28.3"/>
	
		<rect x="257.6" y="157.9" transform="matrix(0.9973 7.387924e-002 -7.387924e-002 0.9973 13.1306 -19.4369)" fill="#D4145A" width="23.4" height="19.8"/>
	<g opacity="0.1">
		<polygon points="281.7,158.7 265.1,157.5 274.1,178.1 280.2,178.5 		"/>
	</g>
	
		<rect x="91.7" y="152.9" transform="matrix(0.9999 1.295742e-002 -1.295742e-002 0.9999 2.1738 -1.3577)" opacity="0.1" width="28.3" height="28.3"/>
	
		<rect x="90.5" y="154.1" transform="matrix(0.9999 1.295742e-002 -1.295742e-002 0.9999 2.189 -1.3414)" fill="#FFFFFF" width="28.3" height="28.3"/>
	
		<rect x="92.9" y="156.9" transform="matrix(0.9999 1.295742e-002 -1.295742e-002 0.9999 2.1708 -1.3407)" fill="#D4145A" width="23.4" height="19.8"/>
	<g opacity="0.1">
		<polygon points="116.4,157.1 99.8,156.9 109.9,176.8 116.1,176.9 		"/>
	</g>
	
		<rect x="140.6" y="184.7" transform="matrix(0.998 6.320954e-002 -6.320954e-002 0.998 12.8782 -9.3825)" opacity="0.1" width="28.3" height="28.3"/>
	
		<rect x="139.3" y="185.8" transform="matrix(0.998 6.320954e-002 -6.320954e-002 0.998 12.9463 -9.2977)" fill="#FFFFFF" width="28.3" height="28.3"/>
	
		<rect x="141.7" y="188.7" transform="matrix(0.998 6.320954e-002 -6.320954e-002 0.998 12.8573 -9.301)" fill="#D4145A" width="23.4" height="19.8"/>
	<g opacity="0.1">
		<polygon points="165.7,189.4 149.2,188.3 158.3,208.8 164.5,209.2 		"/>
	</g>
	
		<rect x="128.3" y="139.1" transform="matrix(0.9985 -5.482052e-002 5.482052e-002 0.9985 -8.1853 8.0412)" opacity="0.1" width="28.3" height="28.3"/>
	
		<rect x="127.2" y="140.3" transform="matrix(0.9985 -5.482052e-002 5.482052e-002 0.9985 -8.2564 7.9794)" fill="#FFFFFF" width="28.3" height="28.3"/>
	
		<rect x="129.5" y="143.2" transform="matrix(0.9985 -5.482052e-002 5.482052e-002 0.9985 -8.18 7.9686)" fill="#D4145A" width="23.4" height="19.8"/>
	<g opacity="0.1">
		<polygon points="152.3,142.5 135.7,143.4 147.2,162.7 153.4,162.3 		"/>
	</g>
	<circle opacity="0.2" cx="86" cy="87.2" r="5.2"/>
	<circle fill="#AFA497" cx="84.2" cy="86.9" r="5.2"/>
	<circle opacity="0.2" cx="268.1" cy="56.8" r="5.2"/>
	<circle fill="#AFA497" cx="267.3" cy="56.5" r="5.2"/>
	<g>
		<circle opacity="0.1" cx="90.7" cy="114.5" r="1.1"/>
		<circle fill="#AFA497" cx="90.5" cy="114.7" r="1.1"/>
	</g>
	<g>
		<circle opacity="0.1" cx="104" cy="155.4" r="1.1"/>
		<circle fill="#AFA497" cx="103.8" cy="155.6" r="1.1"/>
	</g>
	<g>
		<circle opacity="0.1" cx="118.7" cy="205" r="1.1"/>
		<circle fill="#AFA497" cx="118.5" cy="205.1" r="1.1"/>
	</g>
	<g>
		<circle opacity="0.1" cx="154.3" cy="229.3" r="1.1"/>
		<circle fill="#AFA497" cx="154.1" cy="229.5" r="1.1"/>
	</g>
	<g>
		<circle opacity="0.1" cx="146.9" cy="186.6" r="1.1"/>
		<circle fill="#AFA497" cx="146.7" cy="186.8" r="1.1"/>
	</g>
	<g>
		<circle opacity="0.1" cx="200.1" cy="178.3" r="1.1"/>
		<circle fill="#AFA497" cx="199.9" cy="178.4" r="1.1"/>
	</g>
	<g>
		<circle opacity="0.1" cx="239.2" cy="165.2" r="1.1"/>
		<circle fill="#AFA497" cx="239.1" cy="165.3" r="1.1"/>
	</g>
	<g>
		<circle opacity="0.1" cx="258.3" cy="155.7" r="1.1"/>
		<circle fill="#AFA497" cx="258.1" cy="155.9" r="1.1"/>
	</g>
	<g>
		<circle opacity="0.1" cx="141.3" cy="141.6" r="1.1"/>
		<circle fill="#AFA497" cx="141.1" cy="141.8" r="1.1"/>
	</g>
	<g>
		<circle opacity="0.1" cx="180.3" cy="130.3" r="1.1"/>
		<circle fill="#AFA497" cx="180.1" cy="130.4" r="1.1"/>
	</g>
	<g>
		<circle opacity="0.1" cx="232" cy="120.6" r="1.1"/>
		<circle fill="#AFA497" cx="231.8" cy="120.7" r="1.1"/>
	</g>
	<g>
		<circle opacity="0.1" cx="247.9" cy="110" r="1.1"/>
		<circle fill="#AFA497" cx="247.7" cy="110.2" r="1.1"/>
	</g>
	<g>
		<circle opacity="0.1" cx="128.3" cy="96.6" r="1.1"/>
		<circle fill="#AFA497" cx="128.1" cy="96.8" r="1.1"/>
	</g>
	<g>
		<circle opacity="0.1" cx="171.8" cy="83" r="1.1"/>
		<circle fill="#AFA497" cx="171.6" cy="83.1" r="1.1"/>
	</g>
	<g>
		<circle opacity="0.1" cx="202" cy="75" r="1.1"/>
		<circle fill="#AFA497" cx="201.9" cy="75.2" r="1.1"/>
	</g>
	<g>
		<circle opacity="0.1" cx="234.6" cy="64.5" r="1.1"/>
		<circle fill="#AFA497" cx="234.4" cy="64.6" r="1.1"/>
	</g>
</g>
<g id="me">
	<path opacity="0.2" d="M307.5,141.3l-36.2-0.9c-11,0.6-19.8-9.5-25.8-18.8l-0.3-0.5c-5.8-9-6.4-20.5-1.6-30.1l0.3-0.5
		c4.9-9.9,14.8-8.8,25.8-9.4l34.5-1.9c11-0.6,21.5,4.8,27.4,14.1l0.3,0.5c5.8,9,6.4,20.5,1.6,30.1l-0.3,0.5
		C328.4,134.3,318.5,140.8,307.5,141.3z"/>
	<g>
		
			<rect x="289.7" y="104.7" transform="matrix(0.986 -0.1666 0.1666 0.986 -15.5549 52.2671)" opacity="0.1" width="28.3" height="28.3"/>
		
			<rect x="288.7" y="106.1" transform="matrix(0.986 -0.1666 0.1666 0.986 -15.8003 52.1176)" fill="#FFFFFF" width="28.3" height="28.3"/>
		
			<rect x="290.8" y="109" transform="matrix(0.986 -0.1666 0.1666 0.986 -15.576 52.046)" fill="#C1272D" width="23.4" height="19.8"/>
		<g opacity="0.1">
			<polygon points="312.4,107.1 296,109.9 309.6,127.7 315.7,126.7 			"/>
		</g>
	</g>
	<g>
		<circle opacity="0.1" cx="261.3" cy="115.3" r="1.1"/>
		<circle fill="#AFA497" cx="261.1" cy="115.4" r="1.1"/>
	</g>
	<g>
		<circle opacity="0.1" cx="313" cy="105.6" r="1.1"/>
		<circle fill="#AFA497" cx="312.8" cy="105.7" r="1.1"/>
	</g>
	<g>
		<circle opacity="0.1" cx="328.9" cy="95" r="1.1"/>
		<circle fill="#AFA497" cx="328.7" cy="95.2" r="1.1"/>
	</g>
	<path opacity="0.2" d="M311.2,244.5l-7.3,0.9l-8.6,50.6l-7.8-48.6l-11.6,1.4c5.1-36.3,6.3-70.7,1.7-102.4l24-2.2
		C299.2,173.3,303.6,207.6,311.2,244.5z"/>
	<path fill="#F2F2F2" d="M305.4,141.3l-36.2-0.9c-11,0.6-19.8-9.5-25.8-18.8l-0.3-0.5c-5.8-9-6.4-20.5-1.6-30.1l0.3-0.5
		c4.9-9.9,14.8-8.8,25.8-9.4l34.5-1.9c11-0.6,21.5,4.8,27.4,14.1l0.3,0.5c5.8,9,6.4,20.5,1.6,30.1l-0.3,0.5
		C326.2,134.3,316.4,140.8,305.4,141.3z"/>
	<g>
		<path fill="#CCCCCC" d="M329.8,93.8l-0.3-0.5c-5.9-9.3-16.4-14.7-27.4-14.1l-12.7,0.7c18.2,17.7,24.9,39.1,24.1,59.9
			c7.6-2.5,14-8,17.7-15.4l0.3-0.5C336.2,114.3,335.6,102.9,329.8,93.8z"/>
	</g>
	<path fill="#666666" d="M279.2,109.8l-19.8-1.5c-1.6-0.1-3-1.4-3.5-3.2l-1.9-6.8c7.5-2.4,15.7-2.7,24.3-1.8L279.2,109.8z"/>
	<path fill="#FFFFFF" d="M279.1,107.1l-19-1c-0.7,0-1.4-0.5-1.6-1.2l-2-6.1c4.7-1.6,11.9-2.1,21.9-1.6L279.1,107.1z"/>
	<path fill="#666666" d="M311.1,105.5l-17.9,3.3l-1-13.3c8.3-2.3,16.3-2.8,23.9-1.7l-1.3,7.7C314.5,103.5,313,105.1,311.1,105.5z"/>
	<path fill="#FFFFFF" d="M309.5,103.4l-16.7,2.7l-0.7-9.8c8.2-1.6,15.4-2.1,21.9-1.6l-1.3,5.8C312.3,102,311.1,103.1,309.5,103.4z"
		/>
	<path opacity="0.2" d="M299.3,131.5c0,2.9-2.9,5.2-6.5,5.2c-1.8,0-3.4-0.4-4.6-1.3c-1.2,1-2.8,1.3-4.6,1.3c-3.6,0-6.5-2.3-6.5-5.2
		c0-2.9,2.9-5.2,6.5-5.2c1.8,0,3.4,0.6,4.6,1.6c1.2-1,2.8-1.6,4.6-1.6C296.4,126.2,299.3,128.6,299.3,131.5z"/>
	<path fill="#9F0F44" d="M297.8,131.8c0,2.7-2.7,4.9-6.1,4.9c-1.7,0-3.2-0.4-4.3-1.3c-1.1,0.9-2.6,1.3-4.3,1.3
		c-3.3,0-6.1-2.2-6.1-4.9c0-2.7,2.7-4.9,6.1-4.9c1.7,0,3.2,0.6,4.3,1.5c1.1-0.9,2.6-1.5,4.3-1.5
		C295.1,126.9,297.8,129.1,297.8,131.8z"/>
	<circle fill="#666666" cx="269" cy="102.1" r="2.3"/>
	<circle fill="#666666" cx="300.7" cy="99.7" r="2.3"/>
	<g opacity="0.2">
		<path d="M329.8,93.8l-0.3-0.5C323.5,84,313,78.7,302,79.2l-34.5,1.9c-11,0.6-20.9-0.5-25.8,9.4l-0.3,0.5c-0.9,1.9-1.7,3.9-2.2,5.9
			l90.7-2.8C329.9,94,329.8,93.9,329.8,93.8z"/>
	</g>
	<path fill="#9F0F44" d="M290.7,56.9C270.5,77,219.3,72.8,225,88.7c0.7,2-3.4,6.2-1.4,6.1c40.3-5.7,79.8-8.9,118.3-9.3
		c2-0.1-2.6-5.8-1.8-7.6c8.5-19.5-39,0.7-46.4-20.3C293.3,56.4,291.7,56,290.7,56.9z"/>
	<g opacity="0.1">
		<path d="M340.2,77.9c8.4-19.3-39,0.7-46.4-20.3c-0.3-0.9-1.1-1.3-2-1.2c2.4,19.3,16.5,14.5,29.2,29.6c7.5-0.3,14.5-0.4,21-0.5
			C343.9,85.4,339.4,79.7,340.2,77.9z"/>
	</g>
	<rect x="285.7" y="139.8" fill="#E9E0D6" width="3.6" height="14.2"/>
	<path fill="#CCCCCC" d="M268.5,239.4l-4.9-1c6.8-25.4,12.2-50.5,15.2-75l4.9,1C277.5,189.1,272.4,214.1,268.5,239.4z"/>
	<path fill="#CCCCCC" d="M318.5,238.6l4.8-1.6c-9.8-24.5-18-48.7-23.8-72.7l-4.8,1.6C303.8,189.7,311.7,213.9,318.5,238.6z"/>
	<polygon fill="#F2F2F2" points="293.5,297.1 277.4,224 304.7,224 	"/>
	<path fill="#9F0F44" d="M309.9,245.9l-35.3,4.2c5.1-36.3,6.3-70.7,1.7-102.4l24-2.2C297.9,174.6,302.2,209,309.9,245.9z"/>
	<g>
		<path fill="#9F0F44" d="M296.4,266.8c-1.1,0.3-1.6,1.8-2.8,2c-1.3,0.2-2.2-1.5-3.6-1.8c-0.9-0.2-1.9,0.2-2.6,0.8
			c-0.1,0.1-0.3,0.2-0.4,0.3l6.4,29l4.6-30.2C297.5,266.8,297,266.6,296.4,266.8z"/>
	</g>
	<g opacity="0.1">
		<path d="M300.2,145.5l-14.5,1.3c8.2,33.6,11.9,67.3,9,100.8l15.1-1.8C302.2,209,297.8,174.6,300.2,145.5z"/>
	</g>
</g>
</svg>
