<?xml version="1.0" encoding="utf-8"?>
<!-- Generator: Adobe Illustrator 18.0.0, SVG Export Plug-In . SVG Version: 6.00 Build 0)  -->
<!DOCTYPE svg PUBLIC "-//W3C//DTD SVG 1.1//EN" "http://www.w3.org/Graphics/SVG/1.1/DTD/svg11.dtd">
<svg version="1.1" xmlns="http://www.w3.org/2000/svg" xmlns:xlink="http://www.w3.org/1999/xlink" x="0px" y="0px"
	 viewBox="0 0 3320.7 2793.1" enable-background="new 0 0 3320.7 2793.1" xml:space="preserve">
<g id="bg">
	<g opacity="0.1">
		<path d="M1080,1807.5c105.2,23.6,208.8,53.8,313.5,79.1c215.8,52.1,436.6,83.3,658.4,93c137.4,6,275,3.8,412.6,1.5
			c134.2-2.2,268.5-4.4,402.7-6.5c102-1.7,205.5-3.6,306-19.2c82.4-145.2,133.6-322.9,147.5-538.9c4-62.3,4.1-136.1,0.6-219.7
			c-252.9-33.1-506.8-68.3-759.2-60.7c-312.6,9.5-624.2,85-935.2,51.9c-437.3-46.6-829.1-303.4-1264.7-363.4
			C249.5,809,135.9,807,22.1,811.7c-19.7,237-16,442,15.8,596c28.1,135.9,66.3,257.1,114.1,364.8
			C460,1727.7,776.3,1739.5,1080,1807.5z"/>
	</g>
	<g>
		<path fill="#333333" d="M2552.1,1177.1c-312.6,9.5-624.2,85-935.2,51.9c-437.3-46.6-829.1-303.4-1264.7-363.4
			C239.5,850,125.9,848,12.1,852.7c-19.7,237-16,442,15.8,596c179.2,868,771.5,1134.7,1657.8,1134.7s1568-241.4,1625-1125.9
			c4-62.3,4.1-136.1,0.6-219.7C3058.4,1204.7,2804.5,1169.4,2552.1,1177.1z"/>
	</g>
	<g>
		<path fill="#333333" d="M1070,1848.5c105.2,23.6,208.8,53.8,313.5,79.1c215.8,52.1,436.6,83.3,658.4,93c137.4,6,275,3.8,412.6,1.5
			c134.2-2.2,268.5-4.4,402.7-6.5c102-1.7,205.5-3.6,306-19.2c82.4-145.2,133.6-322.9,147.5-538.9c4-62.3,4.1-136.1,0.6-219.7
			c-252.9-33.1-506.8-68.3-759.2-60.7c-312.6,9.5-624.2,85-935.2,51.9c-437.3-46.6-829.1-303.4-1264.7-363.4
			C239.5,850,125.9,848,12.1,852.7c-19.7,237-16,442,15.8,596C56,1584.6,94.2,1705.8,142,1813.5
			C450,1768.7,766.3,1780.5,1070,1848.5z"/>
	</g>
</g>
<g id="aoe">
	<path opacity="0.1" d="M2345.9,1828.5c37,299.2-258.4,577.2-577.2,577.2s-673.3-273.3-577.2-577.2
		c93.1-294.5,261.6-532.7,577.2-577.2C2048.8,1211.6,2306.8,1512.1,2345.9,1828.5z"/>
	<path fill="#521028" d="M2289.9,1857.5c37,299.2-258.4,577.2-577.2,577.2s-673.3-273.3-577.2-577.2
		c93.1-294.5,261.6-532.7,577.2-577.2C1992.8,1240.6,2250.8,1541.1,2289.9,1857.5z"/>
	<path opacity="0.2" fill="#FFFFFF" d="M2178.9,1853.5c-20,287.8-191.7,501.2-466.2,501.2s-527.5-224.3-497.1-497.1
		c21.3-190.6,299.9-476.6,497.1-497.1C1985.7,1332.1,2197.9,1579.6,2178.9,1853.5z"/>
	<path opacity="0.6" fill="#FFFFFF" d="M1981.6,1857.6c-34.7,146.7-122.2,272.9-272.9,272.9s-272.9-122.2-272.9-272.9
		s142.2-272.9,272.9-272.9C1859.4,1584.6,2020.1,1694.7,1981.6,1857.6z"/>
	<path opacity="0.8" fill="#FCEE21" d="M1888.9,1857.6c-18.6,97.8-66,198.4-180.2,180.2c-107.7-17.1-180.2-80.7-180.2-180.2
		s79.4-166.3,180.2-180.2C1807.2,1663.6,1914.9,1721,1888.9,1857.6z"/>
	<path opacity="0.8" fill="#FFF5B7" d="M1770,1837.6c-5.7,36.2-21.4,49-58.3,58.3c-31.2,7.8-66.8-27.2-58.3-58.3
		c8.6-31.6,32.1-65.7,58.3-58.3C1742.7,1788,1775,1805.7,1770,1837.6z"/>
</g>
<g id="tree">
	<path opacity="0.1" d="M727.3,115.7C1282.7,756.3,2051,821,2895.8,678.6C2256.4,89.3,1548-168.1,727.3,115.7z"/>
	<path opacity="0.1" d="M824.5,1603.8c-0.4,177.6,20.8,357.2,60.3,537.4L557.6,2009c0,0-22.9-189.3,19.1-454.5
		c18.5-116.8,49.5-248.3,100.7-384.8c25-66.9,56.3-132.7,91.3-196.3c46.9,16.3,93.6,33.5,140.2,50.9
		C851.6,1213.5,824.9,1407.4,824.5,1603.8z"/>
	<path fill="#1A1A1A" d="M1383.2,322.7c0,0-444.6,400.2-611.8,847S651.6,2009,651.6,2009l327.2,132.3
		C839.6,1506.2,928.3,878,1383.2,322.7z"/>
	<g>
		<path fill="#4D4D4D" d="M1387.2,322.7c-5.9,7.2-11.7,14.4-17.5,21.6C1375.5,337.2,1381.3,329.9,1387.2,322.7z"/>
		<path fill="#4D4D4D" d="M1387.2,322.7L1387.2,322.7C1387.2,322.7,1387.2,322.7,1387.2,322.7
			C1387.2,322.7,1387.2,322.7,1387.2,322.7z"/>
		<path fill="#4D4D4D" d="M1369.7,344.4C960.2,854.1,715,1408.5,689.3,2022.6l293.5,118.7C845.4,1514.5,930.1,894.4,1369.7,344.4z"
			/>
	</g>
	<path fill="#999999" d="M712.3,178.7C1267.7,819.3,2036,884,2880.8,741.6C2241.4,152.3,1533-105.1,712.3,178.7z"/>
	<g opacity="0.1">
		<path d="M2766.7,985.6C2118.5,336.2,1455.7,107,775.4,377.3C1297,923.7,1993.3,1047.7,2766.7,985.6z"/>
	</g>
	<path fill="#999999" d="M459.6,1891c196.3,78.6,400,206,608.1,258.9c148.6,37.8,302.1,11.5,444.2,22
		c403.8,29.8,622.6,160.8,973.1,45.2c99.6-32.9,274.7-37.6,377.3-66.3c0,0,25.5,195.4-395.3,516.1
		c-344.2,262.3-1280.1,139.5-1799.5-212.6C347.1,2237.1,459.6,1891,459.6,1891z"/>
	<g>
		<path fill="#333333" d="M1593.3,2303.3c-32.9-18-64.9-40.5-102.1-45.2c-48.6-6.1-94.8,19.4-141.6,33.9
			c-71.1,22-147.2,19-221.5,15.8c-112.2-4.9-227.1-10.4-330.8-53.6c-76-31.7-143.1-82.6-220-112.2c-41.2-15.9-88-24.4-131.8-20.2
			c17.8,107.6,73.8,233.5,219.9,332.5c519.5,352.2,1455.3,474.9,1799.5,212.6c125.2-95.4,210.8-179.6,269.5-251
			c-243.8-10.5-487.6-21-731.4-31.4C1862.6,2378.4,1716.5,2370.8,1593.3,2303.3z"/>
	</g>
	<g opacity="0.2">
		<path d="M943.8,1308.5c-69.7,54.1-126.6,108.5-169.8,163c-32.7,121.5-56.5,245.5-70.8,372c42,95,132.4,189.5,276.4,282.6
			C920.7,1850.4,905,1576.1,943.8,1308.5z"/>
	</g>
	<g opacity="0.3">
		<path d="M1530.9,2173.2c-5.3-0.4-10.6-0.8-16-1.2c-142.1-10.5-295.6,15.8-444.2-22C948,2118.8,826.9,2061.7,708,2004
			C852,2190.8,1091.6,2282,1530.9,2173.2z"/>
	</g>
	<g>
		<path fill="#4D4D4D" d="M2753.7,1003.6C2105.5,354.2,1442.7,125,762.4,395.3C1284,941.7,1980.3,1065.7,2753.7,1003.6z"/>
	</g>
	<g opacity="0.1">
		<path d="M2528.5,1128.4C2102,580.6,1582.1,400.7,954,649.4C1392.4,1022.1,1933.1,1142.7,2528.5,1128.4z"/>
	</g>
	<g>
		<path fill="#333333" d="M2513.5,1145.4C2087,597.6,1567.1,417.7,939,666.4C1377.4,1039.1,1918.1,1159.7,2513.5,1145.4z"/>
	</g>
	<g opacity="0.1">
		<path d="M2029.1,1163.6c-215.7-165.4-456.6-247-725-238C1515,1077.7,1761,1147,2029.1,1163.6z"/>
	</g>
	<g>
		<path fill="#CCCCCC" d="M2019.1,1177.6c-215.7-165.4-456.6-247-725-238C1505,1091.7,1751,1161,2019.1,1177.6z"/>
	</g>
	<g>
		<path fill="#1A1A1A" d="M2003,2384.4c-140.4-6-286.5-13.6-409.7-81.1c-32.9-18-64.9-40.5-102.1-45.2
			c-48.6-6.1-94.8,19.4-141.6,33.9c-71.1,22-147.2,19-221.5,15.8c-112.2-4.9-227.1-10.4-330.8-53.6c-76-31.7-143.1-82.6-220-112.2
			c-41.2-15.9-88-24.4-131.8-20.2c3.1,18.8,7.4,38.2,13.1,57.9c40.8-3.4,82.4-17.3,119.1-0.7c21.9,9.9,37.8,29.1,55.7,45
			c27.3,24.1,60,41.1,93.2,56.1c159.3,72.3,336,106,510.7,97.3c100.1-5,200.4-23.6,299.8-11c64.5,8.2,126.5,29.4,189.4,45.8
			c201.8,52.6,412.7,56.1,621.2,59.2c111,1.7,222,3.4,332.9,5c20-21.1,37.8-41.3,53.7-60.6C2490.6,2405.4,2246.8,2394.9,2003,2384.4
			z"/>
	</g>
</g>
<g id="stroller">
	<path fill="#4A1448" d="M1030.3,1713.4c30.3-140,79.5-257.7,151.6-348.4c122.2,110.8,202.6,241.6,227.4,399
		C1288.7,1804.7,1161.9,1783.6,1030.3,1713.4z"/>
	<g>
		<path fill="#FFA01B" d="M1410.3,1763.9c-17.7-112.1-63.6-210.8-132.8-298.3c-111.2,50.9-143.3,163.5-162.7,285.8
			C1216.7,1789.8,1315.4,1796,1410.3,1763.9z"/>
	</g>
	<g opacity="0.5">
		<path fill="#FFFFFF" d="M1182.9,1365c-12.9,16.3-50.9,75.7-62.4,93.7c40.5-2.8,124.8-5.7,193.9,58
			C1278.7,1462.2,1234.6,1411.8,1182.9,1365z"/>
	</g>
	<g opacity="0.2">
		<path fill="#C40022" d="M1114.9,1751.5c26.9,10.1,53.5,17.9,79.9,23.5c-26.4-5.5-53-13.2-79.9-23.3
			C1114.9,1751.6,1114.9,1751.6,1114.9,1751.5z"/>
		<path fill="#C40022" d="M1283.6,1784.5c-10.3,0-20.6-0.4-30.9-1.2c-0.1,0-0.2,0-0.3,0c-5.2-0.4-10.4-1-15.6-1.6
			C1252.5,1783.6,1268.1,1784.5,1283.6,1784.5z"/>
		<path fill="#C40022" d="M1283.7,1784.5c2.2,0,4.4,0,6.6-0.1C1288.1,1784.5,1285.9,1784.5,1283.7,1784.5z"/>
		<path fill="#C40022" d="M1409.3,1763.9c-39,13.2-78.7,19.9-119,20.5c40.6-0.6,80.6-7.3,120-20.5c-5.8-36.8-14.7-72.1-26.4-106
			l-1.2-0.6C1394.6,1691.5,1403.5,1727,1409.3,1763.9z"/>
		<path fill="#C40022" d="M1283.7,1785c0,0-0.1,0-0.1,0C1283.7,1785,1283.7,1785,1283.7,1785z"/>
		<path fill="#C40022" d="M1409.3,1763.9c-39.1,13.2-78.7,20.1-119,20.8c-2.2,0-4.4,0.3-6.6,0.3h-0.1c-10.3-0.2-20.6-0.7-30.9-1.6
			c10.3,0.8,20.6,1.2,30.9,1.2c-15.5,0-31.1-1-46.8-2.8c-14-1.6-28-3.9-42.1-6.8c-26.4-5.5-26.4-5.5,0,0c14.1,2.9,28.1,5.2,42.1,6.8
			c5.2,0.6,10.4,1.1,15.6,1.6c-72.3-5.4-146.4-29.6-222.1-70c15.8-73,36.7-139.9,63.4-200.1c120.9,22.9,255.9,31.2,289.1,144
			C1394.6,1691.5,1403.5,1727,1409.3,1763.9z"/>
		<path fill="#C40022" d="M1114.9,1751.5c26.9,10.1,53.5,17.9,79.9,23.5c-26.4-5.5-53-13.2-79.9-23.3
			C1114.9,1751.6,1114.9,1751.6,1114.9,1751.5z"/>
		<path fill="#C40022" d="M1283.6,1784.5c-10.3,0-20.6-0.4-30.9-1.2c-0.1,0-0.2,0-0.3,0c-5.2-0.4-10.4-1-15.6-1.6
			C1252.5,1783.6,1268.1,1784.5,1283.6,1784.5z"/>
	</g>
	<g id="wheel-behind_1_">
		<path fill="#FFFFFF" d="M1426,2180.1c-21.7,0-43-4.9-63.3-14.6c-23.5-11.2-43.9-24.8-60.8-40.4c-17.2-15.8-30.7-33.8-40.3-53.3
			c-9.7-19.9-15.3-41.5-16.6-64.2c-1.3-23.1,1.8-47.5,9.4-72.4c5.6-18.4,15.2-35.7,28.7-51.2c12.3-14.1,27.4-26.6,45.1-37.1
			c32.6-19.4,71.8-30.5,107.6-30.5c19.2,0,36.3,3.2,50.6,9.4c25,10.9,48.3,26.8,67.3,46c19,19.2,34,41.9,43.2,65.6
			c7.5,19.4,11.3,39.2,11.2,59c-0.1,21-4.6,41.5-13.3,61c-15.2,34.1-39.4,64.9-68.3,86.8C1495.2,2167.6,1460.6,2180.1,1426,2180.1z
			 M1435.7,1835.6c-64.5,0-143,39.3-162.9,105.1c-26.9,89,8.9,164.6,98.3,207.3c17.7,8.5,36.2,12.7,55,12.7
			c60.5,0,121.2-44.7,150.9-111.3c14.9-33.4,15.5-69.8,1.8-105.2c-16.8-43.2-54.2-80.9-100.2-100.8
			C1466.8,1838.3,1452,1835.6,1435.7,1835.6z"/>
		
			<rect x="1423.4" y="1823.1" transform="matrix(0.9414 0.3374 -0.3374 0.9414 756.5802 -364.7559)" fill="#FFFFFF" width="8.6" height="342.1"/>
		
			<rect x="1256.6" y="1989.9" transform="matrix(0.9414 0.3374 -0.3374 0.9414 756.6006 -364.7617)" fill="#FFFFFF" width="342.1" height="8.6"/>
		
			<rect x="1256.3" y="1990" transform="matrix(0.4271 0.9042 -0.9042 0.4271 2621.0764 -148.0177)" fill="#FFFFFF" width="342.1" height="8.6"/>
		
			<rect x="1423.4" y="1823.3" transform="matrix(0.4271 0.9042 -0.9042 0.4271 2621.3259 -148.3059)" fill="#FFFFFF" width="8.6" height="342.1"/>
	</g>
	<g>
		<path fill="#FFFEE8" d="M1029.3,1713.4c51.2,27.3,101.7,47.2,151.3,58.9c-43-109-41.3-245.7,0-406.9
			C1108.7,1456,1059.6,1573.6,1029.3,1713.4z"/>
	</g>
	<g opacity="0.1">
		<path d="M1029.3,1713.4c19.1,10.2,38.2,19.4,57.1,27.5c-25.5-55-16.4-139.5,12.1-240.5C1069.1,1563.8,1046.2,1635.1,1029.3,1713.4
			z"/>
	</g>
	<path fill="#FFCE69" d="M1030.7,1711.3c185.9,56.1,369.4,55.4,550.6,0c-13.5,83.7-24.6,131-56.7,179.5
		c-69.1,104.7-149.6,110.2-230.8,112c-81.8,1.8-139.4-1.4-200.6-104.5C1062.1,1845.9,1040.1,1805.8,1030.7,1711.3z"/>
	<path id="light_x5F_holder_2_" fill="#FFFFFF" d="M1572.3,1720.1c0,0,0-0.7,0.1-2c0.1-1.3,0.3-3.2,0.5-5.8c0.5-5,1.4-12.4,3-21.6
		c1.6-9.3,3.9-20.5,7.6-33.1c3.8-12.6,8.8-26.7,17.1-40.8c4.2-7,9.1-14.1,15.4-20.5c6.2-6.4,13.8-12.1,22.7-15.8
		c4.4-1.9,9.1-3.3,14-4.1c1.2-0.2,2.4-0.3,3.7-0.5c0.3,0,0.6-0.1,1-0.1l0.9-0.1l1.8-0.1c1.2-0.1,2.5-0.1,3.7-0.2
		c1.2-0.1,2.5,0,3.7-0.1c9.9,0,20.1,1.5,29.7,5.2c9.7,3.6,18.7,9.3,26.4,16.5c7.7,7.2,14.2,15.8,19.4,25.1
		c5.2,9.3,9.2,19.3,12.1,29.7c1.4,5.2,2.5,10.5,3.3,15.8c0.4,2.7,0.6,5.4,0.8,8.1c0.1,2.7,0.2,5.4-0.1,8.2c-0.5,5.5-2,11.1-4.8,16
		c-2.8,4.9-6.8,9-11.4,12.1c-4.6,3.1-9.7,5.2-14.8,6.8c-5.2,1.5-10.5,2.5-15.7,3.1c-5.3,0.6-10.6,0.8-15.8,0.7
		c-5.2,0-10.3,0-15.5-0.2c-5.2-0.3-10.4-0.7-15.5-2.4c-2.5-0.9-4.9-2.2-7-4c-2-1.8-3.6-4-4.8-6.3c-2.3-4.7-3.2-9.8-3.6-14.8
		c-0.4-5-0.4-9.8-0.1-14.7c0.4-4.9,1.3-9.6,2.8-14.2c1.5-4.5,3.5-8.9,6-12.7c5.1-7.8,12.2-13.9,20.2-17.5c4-1.8,8.1-3.1,12.3-3.8
		c4.2-0.6,8.3-0.8,12.4,0c2,0.4,3.9,1,5.7,1.8c1.8,0.8,3.5,1.8,5.1,2.9c1.6,1.1,3,2.4,4.4,3.7c1.3,1.3,2.6,2.7,3.7,4.2
		c4.4,5.9,7.3,12.4,8.8,18.7c0.8,3.2,1.3,6.3,1.5,9.3c0.2,3,0.1,6-0.4,8.8c-1,5.6-3.4,10.4-6.3,14c-2.9,3.7-6.3,6.2-9.4,8.1
		c-3.1,1.8-6.1,2.9-8.5,3.5c-2.4,0.6-4.3,0.8-5.6,0.9c-0.6,0.1-1.1,0-1.5,0.1c-0.3,0-0.5,0-0.5,0s0.2,0,0.5,0c0.3,0,0.8,0,1.5-0.1
		c1.3-0.1,3.2-0.3,5.6-1c2.4-0.6,5.3-1.7,8.4-3.6c3.1-1.8,6.4-4.4,9.2-8.1c2.9-3.6,5.1-8.4,6-13.9c0.4-2.7,0.5-5.7,0.3-8.6
		c-0.2-3-0.8-6.1-1.6-9.2c-1.6-6.2-4.5-12.6-8.9-18.3c-1.1-1.4-2.3-2.8-3.6-4c-1.3-1.3-2.8-2.5-4.3-3.5c-1.6-1-3.2-2-5-2.7
		c-1.8-0.7-3.6-1.3-5.5-1.7c-3.8-0.7-7.9-0.6-11.9,0.1c-4,0.7-8,2-11.8,3.8c-7.6,3.6-14.5,9.6-19.2,17.1c-2.4,3.8-4.3,7.9-5.7,12.3
		c-1.4,4.4-2.2,9-2.5,13.7c-0.3,4.7-0.2,9.5,0.2,14.3c0.5,4.8,1.4,9.6,3.5,13.8c1.1,2.1,2.5,4,4.3,5.5c1.8,1.5,3.9,2.6,6.1,3.4
		c4.6,1.5,9.6,1.9,14.6,2.1c5.1,0.2,10.2,0.1,15.4,0c5.1,0,10.3-0.3,15.4-0.9c5.1-0.6,10.2-1.6,15.1-3.1c4.9-1.5,9.6-3.6,13.8-6.5
		c4.2-2.9,7.7-6.6,10.1-10.9c2.4-4.4,3.7-9.3,4.1-14.4c0.4-5-0.1-10.3-0.9-15.4c-0.8-5.1-1.9-10.2-3.4-15.2
		c-2.9-10-6.9-19.6-12-28.5c-5.1-8.9-11.4-17-18.7-23.7c-7.4-6.7-15.8-11.9-24.9-15.1c-9-3.3-18.5-4.6-27.8-4.5
		c-1.2,0-2.3,0-3.5,0.1c-1.1,0.1-2.2,0.1-3.4,0.2l-1.8,0.2l-0.9,0.1c-0.2,0-0.5,0.1-0.8,0.1c-1.1,0.2-2.2,0.3-3.3,0.5
		c-4.4,0.8-8.6,2.1-12.6,3.8c-7.9,3.5-14.8,8.7-20.5,14.6c-5.7,6-10.3,12.6-14.2,19.3c-7.7,13.5-12.4,27.2-15.9,39.4
		c-3.5,12.3-5.6,23.3-7.1,32.3c-1.5,9.1-2.2,16.3-2.7,21.1c-0.2,2.4-0.4,4.3-0.4,5.6c-0.1,1.2-0.1,1.9-0.1,1.9L1572.3,1720.1z"/>
	<path fill="#FFFFFF" d="M1704.2,1707.7c0,0,0,0.6,0.1,1.8c0.1,1.2,0.2,2.9,0.4,5c0.2,2.2,0.3,4.8,0.5,7.8c0.2,3,0.4,6.4,0.7,10.1
		c0.2,3.7,0.5,7.7,0.7,11.9c0.2,4.2,0.5,8.7,0.7,13.3c0.2,4.6,0.5,9.4,0.7,14.3c0.2,4.9,0.4,9.8,0.6,14.7c0.2,4.9,0.3,9.9,0.5,14.7
		c0.2,4.9,0.2,9.7,0.4,14.3c0.1,4.6,0.2,9.1,0.2,13.4c0,4.3,0.1,8.3,0,12c0,7.4-0.2,13.6-0.3,17.9c-0.1,2.2-0.2,3.9-0.2,5
		c0,1.2-0.1,1.8-0.1,1.8s0-0.6-0.1-1.8c-0.1-1.2-0.2-2.9-0.4-5c-0.2-2.2-0.3-4.8-0.5-7.8c-0.2-3-0.4-6.4-0.7-10.1
		c-0.2-3.7-0.5-7.7-0.7-11.9c-0.2-4.2-0.5-8.7-0.7-13.3c-0.2-4.6-0.5-9.4-0.7-14.3c-0.2-4.9-0.4-9.8-0.6-14.7
		c-0.2-4.9-0.3-9.9-0.5-14.7c-0.2-4.9-0.2-9.7-0.4-14.3c-0.1-4.6-0.2-9.1-0.2-13.4c0-4.3-0.1-8.3,0-12c0-7.4,0.2-13.6,0.3-17.9
		c0.1-2.2,0.2-3.9,0.2-5C1704.2,1708.3,1704.2,1707.7,1704.2,1707.7z"/>
	<g opacity="0.2">
		<path d="M1030.2,1711.3c9.4,94.5,31.4,134.6,62.5,187c29.7,50.1,58.6,76.6,89.9,90.4c-62.5-92.1-112.5-182.4-102.9-263.8
			C1063.2,1720.8,1046.7,1716.3,1030.2,1711.3z"/>
	</g>
	<g opacity="0.2">
		<path fill="#FFFFFF" d="M1361.6,1751.4c-53.4,62-31.3,139.4,72.5,224.7c31.5-16.1,61.8-42.4,90.2-85.4
			c32-48.5,43.2-95.8,56.7-179.5C1508.2,1733.5,1435.1,1747,1361.6,1751.4z"/>
	</g>
	<g opacity="0.6">
		<path fill="#FFFFFF" d="M1582,1711.3c-11.5,3.5-23.1,6.8-34.7,9.9c-73.1,38-74.8,127.4-26.9,176.8c1.6-2.3,3.3-4.7,4.9-7.2
			C1557.3,1842.2,1568.5,1795,1582,1711.3z"/>
	</g>
	<g opacity="0.6">
		<path fill="#FFFFFF" d="M1566.9,1715.8c-23.9,49.9-30.7,104.5-33.9,162.6c26.2-44.5,36.6-90.5,49-167.1
			C1576.9,1712.8,1571.9,1714.3,1566.9,1715.8z"/>
	</g>
	<g opacity="0.8">
		<path opacity="0.1" d="M1042.4,1782.9c10.8-1.7,21.8-2.9,32.7-3.7l8.2-0.5c2.7-0.2,5.5-0.2,8.2-0.4c2.7-0.1,5.5-0.2,8.2-0.3
			c2.7-0.1,5.5-0.1,8.2-0.1l8.2,0l8.2,0.1c5.5,0.1,11,0.3,16.5,0.5c11,0.3,21.9,1.1,32.9,2c10.9,1,21.8,2.2,32.7,3.4l16.3,1.8
			l16.4,1.5c10.9,0.9,21.8,1.7,32.8,2.3c10.9,0.7,21.9,1.1,32.8,1.5c10.9,0.5,21.9,0.8,32.8,1.4c10.9,0.5,21.9,1.2,32.8,1.8
			c10.9,0.5,21.8,1,32.6,1.1c10.9,0,21.7-0.1,32.6-0.5c10.9-0.4,21.8-1,32.7-1.6l16.4-1l16.4-0.9c5.5-0.3,10.9-0.6,16.4-0.8
			c5.5-0.3,10.9-0.5,16.4-0.7c10.9-0.4,21.9-0.8,32.9-1l0,0l0.1,0v0.8l-0.1,0l0,0c-10.9,1.6-21.7,3-32.6,4.3
			c-5.4,0.7-10.9,1.3-16.3,1.9c-5.4,0.6-10.9,1.3-16.3,1.8l-16.3,1.7l-16.3,1.6c-10.9,1.1-21.9,1.9-32.9,2.4
			c-11,0.5-22,0.7-33.1,0.4c-11-0.3-22-1-33-1.9c-10.9-0.9-21.8-1.8-32.7-2.9c-10.9-1-21.8-2.3-32.7-3.4
			c-10.9-1.1-21.8-2.3-32.7-3.2c-10.9-0.9-21.8-1.8-32.8-2.4l-16.4-0.8l-16.4-0.6l-32.8-1.1c-10.9-0.4-21.8-1-32.7-1.6
			c-5.5-0.3-10.9-0.5-16.4-0.7l-8.2-0.4l-8.2-0.3l-8.2-0.2c-2.7-0.1-5.5-0.2-8.2-0.2l-16.4-0.2c-10.9,0-21.8,0.1-32.8,0.2
			L1042.4,1782.9z"/>
		<path opacity="0.1" d="M1062.8,1841.8c7.8-0.3,15.6-0.4,23.4-0.5c7.8-0.1,15.6-0.1,23.3-0.1c7.8,0,15.6,0.1,23.3,0.2
			c7.8,0,15.6,0.3,23.3,0.4c7.8,0.1,15.5,0.3,23.3,0.7l5.8,0.2l5.8,0.3l11.7,0.6c7.8,0.4,15.5,0.9,23.3,1.3
			c7.8,0.4,15.6,0.6,23.3,0.8c7.8,0.1,15.6,0.1,23.3,0.1c7.8-0.1,15.6-0.2,23.3-0.5c15.6-0.5,31.1-1.2,46.7-1.6l46.6-1.2l11.7-0.3
			l11.7-0.3c4,0,8.2,0,12.6,0.9c2.2,0.5,4.4,1.2,6.6,2.3c2.2,1.1,4.2,2.8,5.8,4.7l-3.2-1.5l13.9,0.3l13.9,0.4
			c4.6,0.1,9.2,0.3,13.9,0.4l13.9,0.5l13.9,0.6c4.6,0.2,9.2,0.5,13.9,0.7c4.6,0.2,9.2,0.5,13.8,0.8c4.6,0.3,9.2,0.6,13.8,1l0,0.8
			c-4.6,0.3-9.2,0.5-13.9,0.7c-4.6,0.2-9.2,0.4-13.9,0.6c-4.6,0.2-9.2,0.3-13.9,0.5l-13.9,0.4l-13.9,0.3c-4.6,0.1-9.2,0.2-13.9,0.2
			l-13.9,0.2l-13.9,0.1l-1.9,0l-1.3-1.6c-1.7-2.1-4.4-3.4-7.6-4c-3.3-0.7-6.9-0.8-10.7-0.7l-11.7,0.1l-11.7,0.1l-23.4,0
			c-7.8,0-15.6-0.1-23.4-0.2c-7.8-0.1-15.6-0.3-23.4-0.6l-23.4-0.8c-7.8-0.3-15.6-0.5-23.3-0.6c-3.9-0.1-7.8-0.1-11.7-0.2
			c-3.9-0.1-7.8-0.1-11.7-0.1c-3.9,0-7.8,0-11.7,0.1c-3.9,0-7.8,0.1-11.7,0.2l-23.4,0.6c-3.9,0.1-7.8,0.2-11.7,0.2l-5.8,0.1l-5.8,0
			c-7.8,0.1-15.6-0.1-23.4-0.4l-11.7-0.4c-3.9-0.1-7.8-0.3-11.7-0.5c-7.8-0.4-15.6-0.8-23.3-1.3c-7.8-0.5-15.5-1.1-23.3-1.7
			c-7.8-0.7-15.5-1.4-23.3-2.3L1062.8,1841.8z"/>
		<path opacity="0.1" d="M1092.9,1897.3c0,0,6.6-0.5,18.2-1c2.9-0.1,6.1-0.2,9.6-0.4c3.5-0.1,7.3-0.2,11.3-0.3
			c8.1-0.2,17.1-0.3,27-0.3c9.9,0,20.6,0,32,0.4c11.3,0.3,23.3,1.2,35.7,1.9c12.4,0.8,25.2,1.4,38.2,1.5c13,0.2,26.2,0,39.4-0.4
			c6.6-0.2,13.2-0.3,19.8-0.5c3.3-0.1,6.6-0.1,9.8-0.2c3.3,0,6.5-0.1,9.8-0.1c13-0.1,25.8-0.1,38.2-0.1c12.4,0,24.3,0.2,35.7,0.5
			c11.3,0.3,22.1,0.7,32,1.1c9.9,0.5,19,0.9,27,1.3c4,0.2,7.8,0.4,11.3,0.7c3.5,0.2,6.7,0.5,9.6,0.6c5.8,0.4,10.3,0.8,13.4,1
			c3.1,0.3,4.7,0.4,4.7,0.4l0,0.8c0,0-1.7,0.1-4.8,0.3c-3.1,0.2-7.6,0.4-13.4,0.6c-2.9,0.1-6.1,0.2-9.6,0.4
			c-3.5,0.1-7.3,0.3-11.3,0.3c-8.1,0.2-17.1,0.4-27,0.5c-9.9,0.1-20.6,0.2-32,0.2c-11.3,0-23.3-0.2-35.7-0.6
			c-12.4-0.3-25.2-0.7-38.2-1.2c-3.2-0.1-6.5-0.2-9.8-0.4c-3.3-0.2-6.6-0.3-9.8-0.5c-6.6-0.4-13.2-0.7-19.8-1.1
			c-13.2-0.8-26.4-1.4-39.4-1.6c-13-0.3-25.8,0-38.2,0.3c-12.4,0.4-24.4,0.9-35.7,0.9c-11.3,0-22.1-0.3-32-0.6
			c-9.9-0.4-19-0.7-27-1.1c-4-0.2-7.8-0.4-11.3-0.6c-3.5-0.2-6.7-0.4-9.6-0.6c-11.5-0.8-18.1-1.6-18.1-1.6L1092.9,1897.3z"/>
		<path opacity="0.1" d="M1076.5,1868.9c0,0,7.2-0.7,19.7-1.4c3.1-0.2,6.6-0.4,10.4-0.6c3.8-0.2,7.9-0.4,12.2-0.5
			c8.7-0.4,18.6-0.6,29.3-0.8c10.7-0.1,22.4-0.4,34.7-0.1c12.3,0.2,25.3,0.9,38.7,1.5c6.7,0.3,13.5,0.6,20.4,0.8
			c6.9,0.2,13.9,0.3,20.9,0.4c14.1,0.1,28.4-0.2,42.7-0.6c7.2-0.2,14.3-0.4,21.5-0.5c3.6-0.1,7.1-0.1,10.7-0.2c3.5,0,7.1,0,10.6-0.1
			c14.1-0.1,28,0,41.4,0c13.4,0.1,26.4,0.3,38.7,0.7c6.2,0.2,12.1,0.4,17.9,0.7c5.8,0.3,11.4,0.5,16.7,0.8
			c10.7,0.5,20.6,1.1,29.3,1.7c8.7,0.5,16.3,1.1,22.6,1.6c6.3,0.5,11.2,0.9,14.5,1.3c3.3,0.3,5.1,0.5,5.1,0.5l0,0.8
			c0,0-1.8,0.1-5.2,0.2c-3.4,0.1-8.3,0.3-14.6,0.4c-3.1,0.1-6.6,0.1-10.4,0.2c-3.8,0.1-7.9,0.2-12.2,0.2c-8.7,0.1-18.6,0.2-29.3,0.2
			c-10.7,0-22.4,0-34.7-0.1c-12.3-0.1-25.3-0.4-38.7-0.8c-13.4-0.4-27.3-0.8-41.4-1.3c-3.5-0.1-7.1-0.3-10.6-0.4
			c-3.5-0.2-7.1-0.3-10.7-0.5c-7.1-0.4-14.3-0.7-21.4-1.1c-14.3-0.7-28.6-1.3-42.7-1.4c-14.1-0.2-28,0.2-41.4,0.7
			c-13.4,0.5-26.4,1.1-38.7,1.3c-12.3,0.2-23.9-0.1-34.7-0.1c-10.7-0.2-20.6-0.4-29.3-0.7c-4.4-0.1-8.4-0.3-12.2-0.4
			c-3.8-0.1-7.2-0.3-10.4-0.4c-12.5-0.6-19.7-1.2-19.7-1.2L1076.5,1868.9z"/>
		<path opacity="0.1" d="M1052.2,1815.6c0,0,2-0.1,5.7-0.3c1.9-0.1,4.1-0.2,6.8-0.3c2.7-0.1,5.8-0.1,9.3-0.2c1.7,0,3.6,0,5.5-0.1
			c1.9,0,3.9,0.1,6,0.1c4.2,0.1,8.7,0.1,13.6,0.4c4.8,0.2,10,0.4,15.4,0.8c5.4,0.3,11.1,0.7,17,1.2c11.8,1,24.7,2.1,38.2,3.8
			c13.5,1.6,27.7,3.7,42.4,5.5c14.7,1.8,30,3.3,45.5,3.7c3.9,0.2,7.8,0.2,11.7,0.2c3.9,0,7.8,0,11.8-0.1c3.9-0.1,7.9-0.3,11.8-0.5
			c3.9-0.3,7.9-0.5,11.8-0.8c7.9-0.6,15.8-1.2,23.7-1.7c3.9-0.3,7.9-0.5,11.8-0.8c3.9-0.2,7.8-0.5,11.7-0.7
			c15.6-0.8,30.9-1.7,45.7-2.5c14.8-0.8,29.2-1.4,42.7-1.8c13.6-0.4,26.5-0.7,38.3-0.9c11.9-0.2,22.8-0.3,32.4-0.4
			c4.8,0,9.3,0,13.5,0c4.2,0,8,0,11.5,0c6.9,0,12.4,0.1,16.1,0.2c3.7,0.1,5.7,0.1,5.7,0.1l0,0.8c0,0-2,0.2-5.7,0.6
			c-3.7,0.4-9.1,0.9-16,1.5c-3.5,0.3-7.3,0.6-11.4,1c-4.2,0.3-8.7,0.7-13.5,1.1c-9.6,0.7-20.5,1.5-32.3,2.3
			c-11.9,0.7-24.7,1.5-38.3,2.2c-13.6,0.7-27.9,1.3-42.8,1.7c-14.8,0.4-30.2,0.8-45.7,1.2c-15.6,0.4-31.4,0.5-47.3,0.5
			c-4,0-7.9,0-11.9,0c-4,0-7.9,0-11.9-0.1c-4,0-7.9-0.1-11.8-0.3c-3.9-0.1-7.9-0.1-11.7-0.3c-3.9-0.1-7.8-0.3-11.6-0.4
			c-3.9-0.2-7.7-0.3-11.5-0.4c-7.6-0.3-15.2-0.7-22.6-1c-14.9-0.7-29.2-1.5-42.8-2.8c-13.6-1.2-26.3-2.8-38.1-4
			c-2.9-0.3-5.8-0.7-8.6-1c-2.8-0.3-5.6-0.6-8.3-0.9c-5.4-0.6-10.5-1.1-15.2-1.6c-9.6-0.9-17.9-1.8-24.8-2.3
			c-3.4-0.3-6.5-0.5-9.2-0.8c-2.7-0.2-5-0.4-6.8-0.5c-3.7-0.3-5.7-0.5-5.7-0.5L1052.2,1815.6z"/>
		<path opacity="0.1" d="M1102.1,1912.2c0,0,1.6-0.4,4.5-1.1c2.9-0.7,7.2-1.6,12.7-2.7c2.8-0.5,5.8-1,9.2-1.6
			c3.3-0.5,7-1.1,10.9-1.5c7.8-0.9,16.6-1.6,26.3-1.8c1.2,0,2.4,0,3.7,0c0.6,0,1.3,0,1.9,0c0.6,0,1.2,0,1.9,0c2.5,0.1,5,0.1,7.7,0.3
			c5.3,0.2,10.6,0.8,16.1,1.4c11,1.4,22.4,3.7,34.1,6.1c11.7,2.4,23.9,4.8,36.3,6.4c3.1,0.4,6.2,0.8,9.4,1c3.1,0.2,6.3,0.6,9.5,0.7
			c6.3,0.4,12.7,0.6,19,0.6c3.2,0,6.4,0,9.5,0c3.2,0,6.3-0.1,9.5-0.2c6.3-0.1,12.6-0.3,18.9-0.5c12.5-0.4,24.8-1,36.7-1.8
			c11.9-0.8,23.4-1.5,34.4-2c10.9-0.5,21.3-1,30.9-1.5c9.6-0.4,18.3-0.8,26.1-1.1c3.9-0.2,7.5-0.3,10.9-0.4c3.4-0.1,6.5-0.2,9.3-0.3
			c5.6-0.2,10-0.2,13-0.3c3,0,4.6-0.1,4.6-0.1l0.1,0.8c0,0-1.6,0.3-4.5,0.8c-3,0.5-7.3,1.2-12.8,2c-2.8,0.4-5.8,0.8-9.2,1.3
			c-3.3,0.5-7,0.9-10.8,1.4c-7.7,1-16.5,1.9-26,2.9c-9.5,0.9-19.9,1.9-30.8,2.8c-11,0.8-22.5,1.6-34.5,2c-12,0.4-24.4,0.6-37,0.5
			c-3.2-0.1-6.3-0.1-9.5-0.2c-3.2-0.1-6.4-0.2-9.6-0.4c-3.2-0.2-6.4-0.4-9.6-0.6c-3.2-0.2-6.4-0.5-9.6-0.8l-4.8-0.4l-4.8-0.5
			c-3.2-0.3-6.4-0.7-9.5-1.1c-3.2-0.3-6.3-0.8-9.5-1.1c-3.2-0.4-6.3-0.8-9.4-1.2c-6.2-0.8-12.4-1.7-18.5-2.4
			c-6.1-0.8-12.2-1.5-18.1-2.1c-11.9-1.3-23.4-2.3-34.2-3.3c-2.7-0.2-5.4-0.5-8-0.7c-2.6-0.2-5.2-0.4-7.7-0.6
			c-2.5-0.2-5.1-0.3-7.5-0.4c-0.6,0-1.2-0.1-1.9-0.1c-0.6,0-1.2,0-1.8-0.1c-1.2,0-2.4-0.1-3.6-0.1c-9.5-0.3-18.1,0-25.9,0.3
			c-3.9,0.2-7.5,0.4-10.8,0.5c-3.3,0.2-6.4,0.4-9.2,0.6c-5.6,0.4-9.9,0.7-12.9,0.9c-3,0.2-4.6,0.3-4.6,0.3L1102.1,1912.2z"/>
		<path opacity="0.1" d="M1113.6,1928.8c0,0,0.3-0.1,1-0.3c0.7-0.2,1.6-0.5,2.9-0.8c2.6-0.6,6.4-1.5,11.3-2.2c2.5-0.4,5.2-0.7,8.2-1
			c3-0.3,6.2-0.5,9.6-0.7c6.9-0.4,14.6-0.5,23-0.7c4.2-0.1,8.6-0.1,13.1-0.1c4.5,0,9.2,0,14.1,0.2c9.7,0.3,19.8,1.1,30.4,1.9
			c10.5,0.8,21.4,1.6,32.5,2.1c11.1,0.5,22.3,0.8,33.6,1.2c2.8,0.1,5.6,0.2,8.4,0.3c2.8,0.1,5.6,0.3,8.4,0.4
			c2.8,0.2,5.6,0.4,8.4,0.6c2.8,0.2,5.5,0.5,8.3,0.8c11.1,1.1,21.9,2.4,32.4,3.8c20.9,2.7,40.2,6.2,56.8,8.8
			c4.1,0.7,8.1,1.3,11.9,1.9c3.8,0.6,7.4,1.1,10.7,1.6c6.8,1,12.6,1.9,17.5,2.5c9.8,1.3,15.3,2,15.3,2l0,0.8c0,0-1.4,0.1-4.1,0.2
			c-1.3,0-3,0.1-4.9,0.2c-1.9,0.1-4.1,0-6.6,0c-1.2,0-2.5,0-3.9,0c-1.4,0-2.8-0.1-4.3-0.1c-3-0.1-6.2-0.1-9.6-0.4
			c-3.4-0.2-7.1-0.3-10.9-0.7c-3.8-0.3-7.9-0.6-12.1-1c-4.2-0.4-8.6-0.9-13.1-1.4c-4.5-0.5-9.2-1.1-14-1.7c-9.6-1.3-19.7-2.8-30-4.5
			c-10.4-1.7-21.1-3.4-32-5c-5.5-0.8-11-1.6-16.5-2.4c-2.8-0.4-5.5-0.8-8.3-1.2c-2.8-0.4-5.5-0.8-8.3-1.1
			c-11.1-1.5-22.3-2.6-33.3-3.1c-11-0.6-21.9-0.6-32.4-0.2c-10.5,0.3-20.7,0.8-30.3,0.9c-9.6,0.1-18.8-0.1-27.2-0.3
			c-8.4-0.2-16.1-0.5-22.9-0.8c-3.4-0.1-6.6-0.2-9.5-0.2c-2.9,0-5.6,0-8.1,0c-4.9,0-8.7,0.2-11.3,0.4c-1.3,0.1-2.3,0.1-3,0.2
			c-0.7,0-1,0.1-1,0.1L1113.6,1928.8z"/>
		<path opacity="0.1" d="M1137.9,1957.6c6.3-0.9,12.6-1.6,18.9-2.2c3.2-0.3,6.3-0.5,9.5-0.7c3.2-0.2,6.3-0.4,9.5-0.6
			c6.3-0.3,12.7-0.4,19-0.5c6.3-0.1,12.7,0,19,0.3c6.3,0.4,12.7,0.9,19,1.4c6.3,0.6,12.6,1.1,19,1.4c6.3,0.3,12.6,0.5,19,0.6
			c6.3,0.1,12.7,0.1,19,0c6.3,0,12.7-0.1,19,0c6.3,0.1,12.7,0.4,19,0.7c6.3,0.3,12.7,0.7,19,1c6.3,0.4,12.6,0.9,19,1.5
			c6.3,0.7,12.6,1.4,18.9,2.2l9.4,1.3l9.4,1.4c3.1,0.5,6.3,1,9.4,1.6c3.1,0.5,6.3,1.1,9.4,1.7c6.2,1.2,12.5,2.5,18.6,4l-0.1,0l0,0
			v0.8l0,0l-0.1,0c-6.4-0.1-12.7-0.4-19-0.7c-3.2-0.1-6.3-0.3-9.5-0.5c-3.2-0.2-6.3-0.3-9.5-0.6l-9.5-0.6l-9.5-0.7
			c-6.3-0.4-12.6-0.9-18.9-1.4c-6.3-0.5-12.6-1-18.9-1.7c-6.3-0.6-12.6-1.2-18.9-1.8c-6.3-0.6-12.6-1.1-18.9-1.8
			c-6.3-0.6-12.6-1.4-18.9-2c-6.3-0.6-12.6-1.3-18.9-1.7c-6.3-0.4-12.6-0.6-19-0.7c-6.3,0-12.7,0.2-19,0.5c-6.3,0.3-12.6,0.7-19,0.9
			c-6.3,0.2-12.6,0.3-18.9,0.1c-6.3,0-12.6-0.2-18.9-0.3c-3.2-0.1-6.3-0.2-9.5-0.3c-3.2-0.1-6.3-0.2-9.5-0.4
			c-6.3-0.3-12.7-0.6-19-1.3V1957.6z"/>
		<path opacity="0.1" d="M1174.7,1984.3c0,0,3.4-0.7,9.4-1.5c3-0.4,6.6-0.8,10.8-1.1c4.2-0.4,8.9-0.6,14-0.8
			c5.1-0.2,10.7-0.3,16.6-0.1c5.9,0.2,12.1,0.9,18.5,1.5c6.4,0.7,13,1.2,19.8,1.3c6.7,0.1,13.6-0.1,20.4-0.4
			c3.4-0.1,6.9-0.3,10.3-0.4c3.4-0.1,6.8-0.2,10.2-0.1c6.7,0,13.4,0.2,19.8,0.3c6.4,0.2,12.6,0.5,18.5,1c5.9,0.5,11.4,1.1,16.5,1.7
			c5.1,0.7,9.8,1.3,13.9,2c4.1,0.6,7.7,1.3,10.7,1.9c5.9,1.1,9.3,2,9.3,2l-0.1,0.8c0,0-3.5,0.3-9.5,0.4c-1.5,0.1-3.2,0.1-5,0.1
			c-1.8,0-3.8,0.1-5.9,0.1c-4.2,0-8.9,0-14-0.1c-5.1-0.1-10.7-0.2-16.5-0.5c-5.9-0.2-12-0.6-18.4-1.1c-6.4-0.5-13-1-19.7-1.6
			c-3.4-0.3-6.7-0.6-10.1-1c-3.4-0.4-6.8-0.8-10.2-1.2c-6.8-0.8-13.6-1.4-20.4-1.5c-3.4-0.1-6.7-0.1-10,0c-3.3,0.1-6.6,0.3-9.8,0.6
			c-3.2,0.3-6.4,0.5-9.4,0.8c-3.1,0.2-6.1,0.4-9,0.5c-2.9,0.1-5.8,0.1-8.5,0c-2.8,0-5.4-0.1-8-0.1c-5.1-0.2-9.8-0.4-14-0.6
			c-4.2-0.3-7.8-0.5-10.8-0.8c-6-0.5-9.4-1.1-9.4-1.1L1174.7,1984.3z"/>
		<path opacity="0.1" d="M1037,1757c0,0,2.1-0.2,6.1-0.5c4-0.3,9.8-0.8,17.2-1.2c3.7-0.2,7.8-0.4,12.3-0.5c2.2-0.1,4.6-0.2,7-0.3
			c2.4-0.1,4.9-0.1,7.5-0.2c5.2-0.1,10.7-0.2,16.5-0.3c5.8,0,11.9,0,18.2,0c12.7,0.2,26.5,0.3,41,1.1c14.5,0.7,29.8,1.9,45.7,3.2
			c15.8,1.2,32.2,2.4,48.8,2.9c4.2,0.1,8.3,0.3,12.5,0.4c4.2,0.1,8.4,0.2,12.6,0.3c8.4,0.1,16.9,0.1,25.3,0
			c8.5-0.1,16.9-0.1,25.3-0.3c8.4-0.1,16.8-0.2,25.1-0.4c4.2-0.1,8.3-0.1,12.4-0.2c4.1-0.1,8.2-0.2,12.3-0.3c2-0.1,4.1-0.1,6.1-0.2
			c1,0,2-0.1,3-0.1l0.8,0l0.9,0l1.5,0c1.9-0.1,4.2,0.1,6.3,0.2c2.1,0.2,4.2,0.4,6.2,0.7c8.2,1.2,15.9,3.6,23.2,5.7
			c7.3,2.2,14.2,4.1,21.1,4.9l0.6,0.1l0.3,0c-0.1,0,0.1,0,0.1,0l0.2,0l1.4,0.1c0.9,0.1,1.8,0.2,2.6,0.2c0.8,0.1,1.7,0.1,2.5,0.2
			c0.9,0,1.7,0.1,2.6,0.1c3.4,0.1,6.8,0,10.2-0.1c6.7-0.2,13.3-0.7,19.6-1.2c6.3-0.5,12.4-0.9,18.3-1l0.5,0l0.1,0c0,0,0.2,0,0,0
			l0.3,0l1.1-0.1c0.7,0,1.4-0.1,2.1-0.1c1.4-0.1,2.6-0.3,3.9-0.4c1.3-0.2,2.6-0.4,3.9-0.6c1.3-0.3,2.5-0.5,3.8-0.7
			c9.9-2.2,18.4-5,25.5-7.1c7.1-2.1,12.8-3.6,16.7-4.5c1.9-0.4,3.5-0.7,4.5-0.9c1-0.2,1.5-0.3,1.5-0.3l0.2,0.8c0,0-0.5,0.2-1.5,0.5
			c-1,0.3-2.4,0.7-4.3,1.4c-3.7,1.3-9.2,3.3-16,6.1c-3.4,1.4-7.2,2.9-11.5,4.5c-4.2,1.6-8.8,3.2-13.9,4.7c-1.3,0.3-2.6,0.7-3.9,1
			c-1.3,0.3-2.7,0.6-4.1,0.9c-1.4,0.2-2.9,0.5-4.4,0.7c-0.7,0.1-1.4,0.1-2.1,0.2l-1.1,0.1l-0.3,0l-0.4,0l-0.5,0
			c-5.7,0.4-11.7,1.2-18,1.9c-6.3,0.7-12.9,1.5-19.9,2c-3.5,0.3-7,0.4-10.7,0.4c-0.9,0-1.8,0-2.7,0c-0.9,0-1.9-0.1-2.8-0.1
			c-1,0-1.8-0.1-2.7-0.2l-1.4-0.1l-0.4,0l-0.4,0l-0.7-0.1c-3.8-0.4-7.6-1.1-11.4-2c-3.8-0.9-7.5-2-11.1-3c-3.7-1.1-7.3-2.2-11-3.2
			c-1.8-0.5-3.7-0.9-5.5-1.4c-1.8-0.4-3.7-0.8-5.6-1.1c-1.9-0.4-3.7-0.5-5.6-0.8c-1.8-0.1-3.6-0.3-5.7-0.3l-1.5,0l-0.6,0l-0.8,0
			c-1,0-2,0-3,0c-2,0-4.1,0-6.1,0c-4.1,0-8.2,0-12.3,0c-4.1-0.1-8.3-0.1-12.5-0.2c-16.7-0.2-33.6-1.1-50.5-2
			c-8.5-0.5-16.9-1-25.3-1.4c-4.2-0.2-8.4-0.4-12.6-0.6c-4.2-0.2-8.4-0.4-12.5-0.5c-8.3-0.4-16.6-0.6-24.7-0.8
			c-8.2-0.2-16.2-0.3-24.2-0.3c-15.9-0.1-31.2-0.1-45.7-0.4c-14.5-0.3-28.2-1-40.9-1.3c-12.7-0.5-24.3-0.9-34.6-1.2
			c-10.3-0.4-19.3-0.6-26.7-0.9c-7.4-0.2-13.2-0.4-17.2-0.6c-4-0.2-6.1-0.3-6.1-0.3L1037,1757z"/>
		<path opacity="0.1" d="M1047.3,1800.8c0,0,8.1-0.5,22.2-0.8c3.5-0.1,7.4-0.2,11.7-0.2c4.3-0.1,8.9-0.2,13.8-0.2
			c9.8-0.1,20.9-0.1,33,0c12.1,0.2,25.2,0.2,39,0.7c13.9,0.5,28.4,1.4,43.6,2.3c15.1,0.9,30.7,1.7,46.6,1.9
			c15.9,0.3,32,0.3,48.1,0.1c8.1-0.1,16.1-0.2,24.2-0.3c4,0,8,0,12-0.1c4,0,8,0,12,0c15.9,0.1,31.5,0.3,46.6,0.4
			c15.1,0.1,29.7,0.4,43.5,0.5c13.8,0.2,26.9,0.4,38.9,0.3c12.1,0,23.1-0.2,32.9-0.4c2.5,0,4.8-0.1,7.1-0.2c2.3-0.1,4.5-0.1,6.6-0.2
			c4.2-0.2,8.1-0.4,11.7-0.5c7-0.4,12.6-0.7,16.3-0.9c3.8-0.2,5.8-0.3,5.8-0.3l0.1,0.8c0,0-2,0.4-5.7,1.1c-1.9,0.3-4.2,0.8-6.9,1.2
			c-2.7,0.4-5.8,0.9-9.3,1.4c-3.5,0.5-7.4,1-11.6,1.5c-4.2,0.5-8.8,1-13.7,1.5c-9.8,1-20.9,1.7-33,2.3c-12.1,0.6-25.3,0.9-39.2,1
			c-13.9,0.1-28.5-0.2-43.7-0.6c-15.1-0.5-30.7-1-46.6-1.6c-4-0.2-7.9-0.3-11.9-0.5c-4-0.2-8-0.4-12-0.6c-8-0.4-16.1-0.9-24.1-1.3
			c-16.1-0.9-32.2-1.7-48.1-2c-15.9-0.4-31.5-0.3-46.6-0.1c-15.1,0.3-29.8,0.6-43.6,0.4c-13.9-0.1-27-0.6-39-0.9
			c-12.1-0.5-23.2-0.9-33-1.4c-4.9-0.2-9.5-0.5-13.8-0.8c-4.2-0.3-8.1-0.5-11.7-0.7c-14.1-1-22.1-1.8-22.1-1.8L1047.3,1800.8z"/>
	</g>
	<g>
		<path fill="#FFFFFF" d="M1207.3,2176.4c-22.8-0.2-44.2-4.8-63.5-13.6c-20.9-9.5-39-23.7-53.8-42.2c-16.2-20.3-28.8-41.5-37.2-62.9
			c-8.6-21.7-13-43.8-13.1-65.5c-0.1-22.2,4.2-44.1,13-65.1c8.9-21.4,22.3-42,39.9-61.1c15.2-16.5,34.6-29.1,57.5-37.3
			c20.7-7.4,43.4-11.1,67.5-10.8c53.8,0.5,105.3,20.3,131.4,50.6c17.8,20.7,31.8,45.1,40.6,70.7c8.8,25.6,12.3,52.5,10.3,77.8
			c-1.7,20.7-6.9,40.2-15.6,58c-9.2,18.8-22.2,35.4-38.5,49.2c-19.2,16.2-41.8,29.6-65.4,38.6
			C1256,2172,1231.5,2176.7,1207.3,2176.4z M1217.5,1837.2c-46.1-0.4-85.4,14.5-110.7,42c-63,68.5-63.6,152.1-1.7,229.4
			c31.7,39.6,73.2,48.3,102.5,48.5c43.6,0.4,89.4-17,125.8-47.7c28-23.6,44.4-56.1,47.4-94c3.7-46.2-13.6-96.4-46.3-134.4
			C1312.2,1855.3,1265.2,1837.7,1217.5,1837.2z"/>
		
			<rect x="1218.7" y="1823.7" transform="matrix(0.7007 0.7135 -0.7135 0.7007 1789.1962 -275.5008)" fill="#FFFFFF" width="8.6" height="342.1"/>
		
			<rect x="1051.9" y="1990.5" transform="matrix(0.7007 0.7134 -0.7134 0.7007 1789.097 -275.5255)" fill="#FFFFFF" width="342.1" height="8.6"/>
		
			<rect x="1217.9" y="1824" transform="matrix(1 8.978291e-003 -8.978291e-003 1 17.9609 -10.8947)" fill="#FFFFFF" width="9" height="342"/>
		
			<rect x="1051.9" y="1991" transform="matrix(1 8.978291e-003 -8.978291e-003 1 17.9609 -10.8992)" fill="#FFFFFF" width="342" height="8"/>
	</g>
</g>
<g id="lantern">
	<polygon fill="#FFFFFF" points="1739.3,1837.8 1706.7,1894.1 1670.8,1837.8 1683,1830 1706.7,1781.4 1726.3,1828.7 	"/>
</g>
</svg>
