<svg version="1.1" xmlns="http://www.w3.org/2000/svg" xmlns:xlink="http://www.w3.org/1999/xlink" x="0px" y="0px"
	 viewBox="0 0 1380.5 1166.2" enable-background="new 0 0 1380.5 1166.2" xml:space="preserve">
<g id="stroller-bg">
	<g opacity="0.1">
		<path d="M448.6,750.7c43.7,9.8,86.7,22.3,130.2,32.8c89.6,21.6,181.3,34.6,273.5,38.6c57.1,2.5,114.2,1.6,171.3,0.6
			c55.8-0.9,111.5-1.8,167.3-2.7c42.4-0.7,85.3-1.5,127.1-8c34.2-60.3,55.5-134.1,61.3-223.8c1.7-25.9,1.7-56.5,0.3-91.3
			c-105-13.7-210.5-28.4-315.3-25.2c-129.8,3.9-259.3,35.3-388.4,21.5c-181.6-19.4-344.3-126-525.3-150.9
			c-46.8-6.5-94-7.3-141.3-5.3C1,435.6,2.5,520.7,15.7,584.7c11.7,56.5,27.5,106.8,47.4,151.5C191.1,717.6,322.4,722.5,448.6,750.7z
			"/>
	</g>
	<g>
		<path fill="#333333" d="M1060,488.9c-129.8,3.9-259.3,35.3-388.4,21.5C490,491,327.2,384.4,146.3,359.5
			c-46.8-6.5-94-7.3-141.3-5.3c-8.2,98.4-6.6,183.6,6.6,247.5C86,962.2,332,1073,700.1,1073s651.2-100.3,674.9-467.6
			c1.7-25.9,1.7-56.5,0.3-91.3C1270.3,500.4,1164.8,485.7,1060,488.9z"/>
	</g>
	<g>
		<path fill="#222222" d="M444.4,767.8c43.7,9.8,86.7,22.3,130.2,32.8c89.6,21.6,181.3,34.6,273.5,38.6
			c57.1,2.5,114.2,1.6,171.3,0.6c55.8-0.9,111.5-1.8,167.3-2.7c42.4-0.7,85.3-1.5,127.1-8c34.2-60.3,55.5-134.1,61.3-223.8
			c1.7-25.9,1.7-56.5,0.3-91.3c-105-13.7-210.5-28.4-315.3-25.2c-129.8,3.9-259.3,35.3-388.4,21.5C490,491,327.2,384.4,146.3,359.5
			c-46.8-6.5-94-7.3-141.3-5.3c-8.2,98.4-6.6,183.6,6.6,247.5C23.2,658.1,39.1,708.5,59,753.2C186.9,734.6,318.3,739.5,444.4,767.8z
			"/>
	</g>
</g>
<g id="stroller-aoe">
	<path opacity="0.1" d="M974.3,759.4C989.7,883.7,867,999.2,734.6,999.2S454.9,885.7,494.8,759.4
		c38.6-122.3,108.6-221.2,239.8-239.8C850.9,503.2,958.1,628,974.3,759.4z"/>
	<path fill="#521028" d="M951.1,771.5c15.4,124.3-107.3,239.8-239.8,239.8S431.7,897.7,471.6,771.5
		c38.6-122.3,108.6-221.2,239.8-239.8C827.7,515.3,934.8,640.1,951.1,771.5z"/>
	<path opacity="0.2" fill="#FFFFFF" d="M905,769.8C896.7,889.3,825.4,978,711.3,978s-219.1-93.1-206.5-206.5
		c8.8-79.2,124.5-197.9,206.5-206.5C824.7,553.3,912.9,656.1,905,769.8z"/>
	<path opacity="0.6" fill="#FFFFFF" d="M823.1,771.5c-14.4,60.9-50.8,113.4-113.4,113.4s-113.4-50.8-113.4-113.4
		s59-113.4,113.4-113.4C772.3,658.2,839,703.9,823.1,771.5z"/>
	<path opacity="0.8" fill="#FCEE21" d="M784.5,771.5c-7.7,40.6-27.4,82.4-74.9,74.9c-44.7-7.1-74.9-33.5-74.9-74.9
		c0-41.3,33-69.1,74.9-74.9C750.6,691,795.3,714.8,784.5,771.5z"/>
	<path opacity="0.8" fill="#FFF5B7" d="M735.1,763.2c-2.4,15-8.9,20.4-24.2,24.2c-13,3.3-27.7-11.3-24.2-24.2
		c3.6-13.1,13.3-27.3,24.2-24.2C723.8,742.6,737.2,750,735.1,763.2z"/>
</g>
<g id="stroller-tree">
	<path opacity="0.1" d="M302.1,48c230.7,266.1,549.8,293,900.7,233.8C937.2,37.1,642.9-69.8,302.1,48z"/>
	<path opacity="0.1" d="M342.5,666.1c-0.2,73.8,8.6,148.4,25,223.2l-135.9-54.9c0,0-9.5-78.6,7.9-188.8
		c7.7-48.5,20.6-103.1,41.8-159.8c10.4-27.8,23.4-55.1,37.9-81.5c19.5,6.8,38.9,13.9,58.2,21.1C353.7,504,342.6,584.5,342.5,666.1z"
		/>
	<path fill="#1A1A1A" d="M574.5,134c0,0-184.7,166.2-254.1,351.8s-49.7,348.6-49.7,348.6l135.9,54.9
		C348.7,625.6,385.6,364.7,574.5,134z"/>
	<g>
		<path fill="#4D4D4D" d="M576.2,134c-2.4,3-4.9,6-7.3,9C571.3,140,573.7,137,576.2,134z"/>
		<path fill="#4D4D4D" d="M576.2,134L576.2,134C576.2,134,576.2,134,576.2,134C576.2,134,576.2,134,576.2,134z"/>
		<path fill="#4D4D4D" d="M568.9,143C398.8,354.7,297,585,286.3,840.1l121.9,49.3C351.1,629,386.3,371.5,568.9,143z"/>
	</g>
	<path fill="#999999" d="M295.8,74.2c230.7,266.1,549.8,293,900.7,233.8C930.9,63.3,636.7-43.6,295.8,74.2z"/>
	<g opacity="0.1">
		<path d="M1149.1,409.4C879.9,139.7,604.6,44.4,322.1,156.7C538.7,383.6,827.9,435.1,1149.1,409.4z"/>
	</g>
	<path fill="#999999" d="M190.9,785.4C272.4,818.1,357,871,443.4,893c61.7,15.7,125.5,4.8,184.5,9.1
		c167.7,12.4,258.6,66.8,404.2,18.8c41.4-13.6,114.1-15.6,156.7-27.5c0,0,10.6,81.2-164.2,214.3c-143,108.9-531.7,58-747.4-88.3
		C144.2,929.1,190.9,785.4,190.9,785.4z"/>
	<g>
		<path fill="#333333" d="M661.8,956.7c-13.7-7.5-27-16.8-42.4-18.8c-20.2-2.5-39.4,8-58.8,14.1c-29.5,9.2-61.1,7.9-92,6.5
			c-46.6-2-94.3-4.3-137.4-22.2c-31.6-13.2-59.4-34.3-91.4-46.6c-17.1-6.6-36.5-10.1-54.7-8.4c7.4,44.7,30.7,97,91.3,138.1
			c215.8,146.3,604.5,197.2,747.4,88.3c52-39.6,87.6-74.6,111.9-104.3c-101.3-4.4-202.5-8.7-303.8-13.1
			C773.6,987.8,712.9,984.7,661.8,956.7z"/>
	</g>
	<g opacity="0.2">
		<path d="M392,543.5c-28.9,22.5-52.6,45-70.5,67.7c-13.6,50.5-23.5,102-29.4,154.5c17.4,39.5,55,78.7,114.8,117.4
			C382.4,768.6,375.9,654.6,392,543.5z"/>
	</g>
	<g opacity="0.3">
		<path d="M635.8,902.6c-2.2-0.2-4.4-0.4-6.7-0.5c-59-4.4-122.8,6.6-184.5-9.1c-50.9-13-101.2-36.7-150.6-60.6
			C353.9,909.9,453.4,947.8,635.8,902.6z"/>
	</g>
	<g>
		<path fill="#4D4D4D" d="M1143.7,416.8C874.5,147.1,599.2,51.9,316.7,164.2C533.3,391.1,822.5,442.6,1143.7,416.8z"/>
	</g>
	<g opacity="0.1">
		<path d="M1050.2,468.7c-177.1-227.5-393-302.3-653.9-199C578.3,424.5,802.9,474.6,1050.2,468.7z"/>
	</g>
	<g>
		<path fill="#333333" d="M1043.9,475.7c-177.1-227.5-393-302.3-653.9-199C572.1,431.6,796.6,481.7,1043.9,475.7z"/>
	</g>
	<g opacity="0.1">
		<path d="M842.8,483.3c-89.6-68.7-189.7-102.6-301.1-98.9C629.3,447.6,731.4,476.4,842.8,483.3z"/>
	</g>
	<g>
		<path fill="#CCCCCC" d="M838.6,489.1c-89.6-68.7-189.7-102.6-301.1-98.9C625.1,453.4,727.3,482.2,838.6,489.1z"/>
	</g>
	<g>
		<path fill="#1A1A1A" d="M831.9,990.3c-58.3-2.5-119-5.6-170.2-33.7c-13.7-7.5-27-16.8-42.4-18.8c-20.2-2.5-39.4,8-58.8,14.1
			c-29.5,9.2-61.1,7.9-92,6.5c-46.6-2-94.3-4.3-137.4-22.2c-31.6-13.2-59.4-34.3-91.4-46.6c-17.1-6.6-36.5-10.1-54.7-8.4
			c1.3,7.8,3.1,15.9,5.5,24.1c16.9-1.4,34.2-7.2,49.5-0.3c9.1,4.1,15.7,12.1,23.2,18.7c11.3,10,24.9,17.1,38.7,23.3
			c66.2,30,139.5,44,212.1,40.4c41.6-2.1,83.2-9.8,124.5-4.5c26.8,3.4,52.5,12.2,78.7,19c83.8,21.9,171.4,23.3,258,24.6
			c46.1,0.7,92.2,1.4,138.3,2.1c8.3-8.8,15.7-17.2,22.3-25.2C1034.4,999,933.2,994.7,831.9,990.3z"/>
	</g>
</g>
<g id="stroller-stroller">
	<path fill="#4A1448" d="M427.9,711.6c12.6-58.2,33-107,63-144.7c50.7,46,84.1,100.4,94.5,165.7
		C535.2,749.5,482.6,740.8,427.9,711.6z"/>
	<g>
		<path fill="#FFA01B" d="M585.8,732.6c-7.4-46.6-26.4-87.5-55.1-123.9c-46.2,21.2-59.5,67.9-67.6,118.7
			C505.4,743.4,546.3,745.9,585.8,732.6z"/>
	</g>
	<g opacity="0.5">
		<path fill="#FFFFFF" d="M491.3,566.9c-5.4,6.8-21.1,31.4-25.9,38.9c16.8-1.2,51.8-2.4,80.5,24.1
			C531.1,607.3,512.8,586.4,491.3,566.9z"/>
	</g>
	<g opacity="0.2">
		<path fill="#C40022" d="M463.1,727.5c11.2,4.2,22.2,7.5,33.2,9.8C485.3,734.9,474.2,731.7,463.1,727.5
			C463,727.5,463,727.5,463.1,727.5z"/>
		<path fill="#C40022" d="M533.1,741.2c-4.3,0-8.5-0.2-12.8-0.5c0,0-0.1,0-0.1,0c-2.2-0.2-4.3-0.4-6.5-0.7
			C520.2,740.8,526.7,741.2,533.1,741.2z"/>
		<path fill="#C40022" d="M533.2,741.2c0.9,0,1.8,0,2.7,0C535,741.2,534.1,741.2,533.2,741.2z"/>
		<path fill="#C40022" d="M585.4,732.6c-16.2,5.5-32.7,8.3-49.4,8.5c16.9-0.2,33.5-3,49.8-8.5c-2.4-15.3-6.1-29.9-10.9-44l-0.5-0.2
			C579.2,702.5,582.9,717.3,585.4,732.6z"/>
		<path fill="#C40022" d="M533.2,741.2C533.2,741.2,533.2,741.2,533.2,741.2C533.2,741.2,533.2,741.2,533.2,741.2z"/>
		<path fill="#C40022" d="M585.4,732.6c-16.2,5.5-32.7,8.3-49.4,8.5c-0.9,0-1.8,0-2.7,0h0c-4.3,0-8.5-0.2-12.8-0.6
			c4.3,0.3,8.6,0.5,12.8,0.5c-6.4,0-12.9-0.4-19.4-1.1c-5.8-0.7-11.6-1.6-17.5-2.8c-11-2.3-11-2.3,0,0c5.9,1.2,11.7,2.2,17.5,2.8
			c2.2,0.3,4.3,0.5,6.5,0.7c-30-2.3-60.8-12.3-92.2-29.1c6.6-30.3,15.3-58.1,26.3-83.1c50.2,9.5,106.3,13,120.1,59.8
			C579.2,702.5,582.9,717.3,585.4,732.6z"/>
		<path fill="#C40022" d="M463.1,727.5c11.2,4.2,22.2,7.5,33.2,9.8C485.3,734.9,474.2,731.7,463.1,727.5
			C463,727.5,463,727.5,463.1,727.5z"/>
		<path fill="#C40022" d="M533.1,741.2c-4.3,0-8.5-0.2-12.8-0.5c0,0-0.1,0-0.1,0c-2.2-0.2-4.3-0.4-6.5-0.7
			C520.2,740.8,526.7,741.2,533.1,741.2z"/>
	</g>
	<g id="wheel-behind_1_">
		<path fill="#FFFFFF" d="M592.3,905.5c-9,0-17.9-2-26.3-6.1c-9.7-4.7-18.2-10.3-25.3-16.8c-7.1-6.6-12.8-14-16.7-22.1
			c-4-8.3-6.4-17.2-6.9-26.7c-0.5-9.6,0.8-19.7,3.9-30.1c2.3-7.7,6.3-14.8,11.9-21.3c5.1-5.9,11.4-11.1,18.7-15.4
			c13.6-8,29.8-12.7,44.7-12.7c8,0,15.1,1.3,21,3.9c10.4,4.5,20,11.1,27.9,19.1c7.9,8,14.1,17.4,17.9,27.2c3.1,8,4.7,16.3,4.6,24.5
			c-0.1,8.7-1.9,17.2-5.5,25.3c-6.3,14.1-16.4,26.9-28.4,36C621,900.3,606.6,905.5,592.3,905.5z M596.3,762.4
			c-26.8,0-59.4,16.3-67.6,43.6c-11.2,37,3.7,68.4,40.8,86.1c7.3,3.5,15,5.3,22.8,5.3c25.1,0,50.3-18.6,62.7-46.2
			c6.2-13.9,6.5-29,0.7-43.7c-7-17.9-22.5-33.6-41.6-41.9C609.2,763.5,603.1,762.4,596.3,762.4z"/>

			<rect x="591.2" y="757.2" transform="matrix(0.9414 0.3374 -0.3374 0.9414 314.237 -151.4972)" fill="#FFFFFF" width="3.6" height="142.1"/>

			<rect x="521.9" y="826.5" transform="matrix(0.9414 0.3374 -0.3374 0.9414 314.2455 -151.4996)" fill="#FFFFFF" width="142.1" height="3.6"/>

			<rect x="521.8" y="826.5" transform="matrix(0.4271 0.9042 -0.9042 0.4271 1088.6343 -61.4775)" fill="#FFFFFF" width="142.1" height="3.6"/>

			<rect x="591.2" y="757.3" transform="matrix(0.4271 0.9042 -0.9042 0.4271 1088.738 -61.5972)" fill="#FFFFFF" width="3.6" height="142.1"/>
	</g>
	<g>
		<path fill="#FFFEE8" d="M427.5,711.6c21.3,11.3,42.2,19.6,62.8,24.5c-17.9-45.3-17.2-102,0-169
			C460.5,604.7,440.1,653.6,427.5,711.6z"/>
	</g>
	<g opacity="0.1">
		<path d="M427.5,711.6c8,4.2,15.9,8,23.7,11.4c-10.6-22.8-6.8-57.9,5-99.9C444,649.5,434.5,679.1,427.5,711.6z"/>
	</g>
	<path fill="#FFCE69" d="M428.1,710.8c77.2,23.3,153.4,23,228.7,0c-5.6,34.8-10.2,54.4-23.5,74.5c-28.7,43.5-62.2,45.8-95.8,46.5
		c-34,0.8-57.9-0.6-83.3-43.4C441.1,766.7,432,750,428.1,710.8z"/>
	<path id="light_x5F_holder_2_" fill="#FFFFFF" d="M653,714.4c0,0,0-0.3,0.1-0.8c0-0.5,0.1-1.3,0.2-2.4c0.2-2.1,0.6-5.1,1.2-9
		c0.7-3.8,1.6-8.5,3.2-13.7c1.6-5.2,3.7-11.1,7.1-16.9c1.7-2.9,3.8-5.8,6.4-8.5c2.6-2.6,5.7-5,9.4-6.6c1.8-0.8,3.8-1.4,5.8-1.7
		c0.5-0.1,1-0.1,1.5-0.2c0.1,0,0.2,0,0.4,0l0.4,0l0.7-0.1c0.5,0,1-0.1,1.5-0.1c0.5,0,1,0,1.5,0c4.1,0,8.3,0.6,12.4,2.2
		c4,1.5,7.8,3.9,11,6.9c3.2,3,5.9,6.6,8.1,10.4c2.2,3.9,3.8,8,5,12.3c0.6,2.2,1.1,4.3,1.4,6.6c0.2,1.1,0.3,2.2,0.3,3.4
		c0.1,1.1,0.1,2.3,0,3.4c-0.2,2.3-0.8,4.6-2,6.6c-1.2,2-2.8,3.7-4.7,5c-1.9,1.3-4,2.2-6.2,2.8c-2.2,0.6-4.3,1-6.5,1.3
		c-2.2,0.2-4.4,0.3-6.6,0.3c-2.1,0-4.3,0-6.4-0.1c-2.1-0.1-4.3-0.3-6.4-1c-1-0.4-2-0.9-2.9-1.7c-0.9-0.7-1.5-1.7-2-2.6
		c-1-2-1.3-4.1-1.5-6.1c-0.2-2.1-0.2-4.1,0-6.1c0.2-2,0.5-4,1.2-5.9c0.6-1.9,1.4-3.7,2.5-5.3c2.1-3.2,5.1-5.8,8.4-7.3
		c1.6-0.8,3.4-1.3,5.1-1.6c1.7-0.3,3.5-0.3,5.1,0c0.8,0.2,1.6,0.4,2.4,0.8c0.8,0.3,1.5,0.8,2.1,1.2c0.7,0.5,1.3,1,1.8,1.5
		c0.6,0.6,1.1,1.1,1.5,1.7c1.8,2.4,3,5.1,3.7,7.8c0.3,1.3,0.5,2.6,0.6,3.9c0.1,1.3,0,2.5-0.2,3.6c-0.4,2.3-1.4,4.3-2.6,5.8
		c-1.2,1.5-2.6,2.6-3.9,3.3c-1.3,0.8-2.5,1.2-3.5,1.4c-1,0.3-1.8,0.3-2.3,0.4c-0.3,0-0.5,0-0.6,0c-0.1,0-0.2,0-0.2,0s0.1,0,0.2,0
		c0.1,0,0.3,0,0.6,0c0.5,0,1.3-0.1,2.3-0.4c1-0.3,2.2-0.7,3.5-1.5c1.3-0.8,2.7-1.8,3.8-3.4c1.2-1.5,2.1-3.5,2.5-5.8
		c0.2-1.1,0.2-2.3,0.1-3.6c-0.1-1.2-0.3-2.5-0.7-3.8c-0.7-2.6-1.9-5.2-3.7-7.6c-0.5-0.6-1-1.1-1.5-1.7c-0.6-0.5-1.1-1-1.8-1.5
		c-0.6-0.4-1.3-0.8-2.1-1.1c-0.7-0.3-1.5-0.5-2.3-0.7c-1.6-0.3-3.3-0.2-4.9,0c-1.7,0.3-3.3,0.8-4.9,1.6c-3.2,1.5-6,4-8,7.1
		c-1,1.6-1.8,3.3-2.4,5.1c-0.6,1.8-0.9,3.7-1,5.7c-0.1,1.9-0.1,4,0.1,5.9c0.2,2,0.6,4,1.5,5.7c0.4,0.9,1,1.7,1.8,2.3
		c0.7,0.6,1.6,1.1,2.5,1.4c1.9,0.6,4,0.8,6.1,0.9c2.1,0.1,4.2,0,6.4,0c2.1,0,4.3-0.1,6.4-0.4c2.1-0.3,4.2-0.7,6.3-1.3
		c2-0.6,4-1.5,5.7-2.7c1.7-1.2,3.2-2.7,4.2-4.5c1-1.8,1.5-3.9,1.7-6c0.2-2.1,0-4.3-0.4-6.4c-0.3-2.1-0.8-4.3-1.4-6.3
		c-1.2-4.2-2.9-8.2-5-11.8c-2.1-3.7-4.7-7.1-7.8-9.8c-3.1-2.8-6.6-4.9-10.3-6.3c-3.7-1.4-7.7-1.9-11.5-1.9c-0.5,0-1,0-1.4,0
		c-0.5,0-0.9,0-1.4,0.1l-0.7,0.1l-0.4,0c-0.1,0-0.2,0-0.3,0c-0.5,0.1-0.9,0.1-1.4,0.2c-1.8,0.3-3.6,0.9-5.2,1.6
		c-3.3,1.4-6.1,3.6-8.5,6.1c-2.4,2.5-4.3,5.2-5.9,8c-3.2,5.6-5.2,11.3-6.6,16.4c-1.4,5.1-2.3,9.7-2.9,13.4c-0.6,3.8-0.9,6.8-1.1,8.8
		c-0.1,1-0.1,1.8-0.2,2.3c0,0.5,0,0.8,0,0.8L653,714.4z"/>
	<g opacity="0.2">
		<path d="M427.9,710.8c3.9,39.2,13.1,55.9,26,77.7c12.4,20.8,24.4,31.8,37.3,37.6c-25.9-38.2-46.7-75.7-42.7-109.6
			C441.6,714.7,434.7,712.8,427.9,710.8z"/>
	</g>
	<g opacity="0.2">
		<path fill="#FFFFFF" d="M565.5,727.4c-22.2,25.7-13,57.9,30.1,93.3c13.1-6.7,25.7-17.6,37.5-35.5c13.3-20.2,17.9-39.8,23.5-74.5
			C626.4,720,596.1,725.6,565.5,727.4z"/>
	</g>
	<g opacity="0.6">
		<path fill="#FFFFFF" d="M657.1,710.8c-4.8,1.5-9.6,2.8-14.4,4.1c-30.4,15.8-31.1,52.9-11.2,73.4c0.7-1,1.4-2,2-3
			C646.8,765.2,651.4,745.5,657.1,710.8z"/>
	</g>
	<g opacity="0.6">
		<path fill="#FFFFFF" d="M650.8,712.6c-9.9,20.7-12.8,43.4-14.1,67.5c10.9-18.5,15.2-37.6,20.3-69.4
			C655,711.4,652.9,712,650.8,712.6z"/>
	</g>
	<g opacity="0.8">
		<path opacity="0.1" d="M432.9,740.5c4.5-0.7,9-1.2,13.6-1.5l3.4-0.2c1.1-0.1,2.3-0.1,3.4-0.1c1.1-0.1,2.3-0.1,3.4-0.1
			c1.1,0,2.3-0.1,3.4-0.1l3.4,0l3.4,0c2.3,0,4.6,0.1,6.8,0.2c4.6,0.1,9.1,0.4,13.6,0.8c4.5,0.4,9.1,0.9,13.6,1.4l6.8,0.7l6.8,0.6
			c4.5,0.4,9.1,0.7,13.6,1c4.5,0.3,9.1,0.5,13.6,0.6c4.5,0.2,9.1,0.3,13.6,0.6c4.5,0.2,9.1,0.5,13.6,0.7c4.5,0.2,9,0.4,13.6,0.5
			c4.5,0,9-0.1,13.5-0.2c4.5-0.2,9-0.4,13.6-0.7l6.8-0.4l6.8-0.4c2.3-0.1,4.5-0.2,6.8-0.3c2.3-0.1,4.5,0,6.8-0.1
			c4.5-0.2,9.1-0.3,13.6-0.3h0l0.5-0.3v0.3l-0.5,0h0c-4.5,1-9,1.2-13.5,1.8c-2.3,0.3-4.5,0.6-6.8,0.8c-2.3,0.3-4.5,0.5-6.8,0.8
			l-6.8,0.7l-6.8,0.7c-4.5,0.4-9.1,0.8-13.7,1c-4.6,0.2-9.2,0.3-13.7,0.2c-4.6-0.1-9.2-0.4-13.7-0.8c-4.5-0.4-9.1-0.8-13.6-1.2
			c-4.5-0.4-9-0.9-13.6-1.4c-4.5-0.5-9-0.9-13.6-1.3c-4.5-0.4-9.1-0.7-13.6-1l-6.8-0.3l-6.8-0.3l-13.6-0.5
			c-4.5-0.2-9.1-0.4-13.6-0.7c-2.3-0.1-4.5-0.2-6.8-0.3l-3.4-0.1l-3.4-0.1l-3.4-0.1c-1.1,0-2.3-0.1-3.4-0.1l-6.8-0.1
			c-4.5,0-9.1,0-13.6,0.1L432.9,740.5z"/>
		<path opacity="0.1" d="M441.4,765c3.2-0.1,6.5-0.2,9.7-0.2c3.2,0,6.5,0,9.7,0c3.2,0,6.5,0,9.7,0.1c3.2,0,6.5,0.1,9.7,0.2
			c3.2,0.1,6.5,0.1,9.7,0.3l2.4,0.1l2.4,0.1l4.8,0.3c3.2,0.2,6.5,0.4,9.7,0.5c3.2,0.2,6.5,0.3,9.7,0.3c3.2,0.1,6.5,0.1,9.7,0
			c3.2,0,6.5-0.1,9.7-0.2c6.5-0.2,12.9-0.5,19.4-0.7l19.4-0.5l4.8-0.1l4.9-0.1c1.6,0,3.4,0,5.2,0.4c0.9,0.2,1.8,0.5,2.7,1
			c0.9,0.5,1.7,1.1,2.4,2l-1.3-0.6l5.8,0.1l5.8,0.2c1.9,0.1,3.8,0.1,5.8,0.2l5.8,0.2l5.8,0.3c1.9,0.1,3.8,0.2,5.8,0.3
			c1.9,0.1,3.8,0.2,5.8,0.3c1.9,0.1,3.8,0.3,5.8,0.4l0,0.3c-1.9,0.1-3.8,0.2-5.8,0.3c-1.9,0.1-3.8,0.2-5.8,0.2
			c-1.9,0.1-3.8,0.1-5.8,0.2l-5.8,0.2l-5.8,0.1c-1.9,0-3.8,0.1-5.8,0.1l-5.8,0.1l-5.8,0l-0.8,0l-0.5-0.6c-0.7-0.9-1.8-1.4-3.2-1.7
			c-1.4-0.3-2.9-0.3-4.4-0.3l-4.8,0.1l-4.9,0l-9.7,0c-3.2,0-6.5,0-9.7-0.1c-3.2-0.1-6.5-0.1-9.7-0.2l-9.7-0.3
			c-3.2-0.1-6.5-0.2-9.7-0.3c-1.6,0-3.2,0-4.8-0.1c-1.6,0-3.2,0-4.8,0c-1.6,0-3.2,0-4.8,0c-1.6,0-3.2,0-4.9,0.1l-9.7,0.2
			c-1.6,0-3.2,0.1-4.9,0.1l-2.4,0l-2.4,0c-3.2,0-6.5-0.1-9.7-0.2l-4.8-0.2c-1.6-0.1-3.2-0.1-4.8-0.2c-3.2-0.2-6.5-0.3-9.7-0.5
			c-3.2-0.2-6.5-0.5-9.7-0.7c-3.2-0.3-6.4-0.6-9.7-1L441.4,765z"/>
		<path opacity="0.1" d="M453.9,788c0,0,2.7-0.2,7.5-0.4c1.2-0.1,2.5-0.1,4-0.1c1.4-0.1,3-0.1,4.7-0.1c3.3-0.1,7.1-0.1,11.2-0.1
			c4.1,0,8.6,0,13.3,0.2c4.7,0.1,9.7,0.5,14.8,0.8c5.1,0.3,10.4,0.6,15.8,0.6c5.4,0.1,10.9,0,16.4-0.2c2.7-0.1,5.5-0.1,8.2-0.2
			c1.4,0,2.7,0,4.1-0.1c1.4,0,2.7,0,4.1,0c5.4,0,10.7,0,15.9,0c5.1,0,10.1,0.1,14.8,0.2c4.7,0.1,9.2,0.3,13.3,0.5
			c4.1,0.2,7.9,0.4,11.2,0.6c1.7,0.1,3.2,0.2,4.7,0.3c1.4,0.1,2.8,0.2,4,0.3c2.4,0.2,4.3,0.3,5.6,0.4c1.3,0.1,2,0.2,2,0.2l0,0.3
			c0,0-0.7,0-2,0.1c-1.3,0.1-3.2,0.2-5.6,0.3c-1.2,0-2.5,0.1-4,0.1c-1.4,0.1-3,0.1-4.7,0.1c-3.3,0.1-7.1,0.2-11.2,0.2
			c-4.1,0-8.6,0.1-13.3,0.1c-4.7,0-9.7-0.1-14.8-0.2c-5.1-0.1-10.5-0.3-15.8-0.5c-1.3-0.1-2.7-0.1-4.1-0.2c-1.4-0.1-2.7-0.1-4.1-0.2
			c-2.7-0.2-5.5-0.3-8.2-0.5c-5.5-0.3-11-0.6-16.4-0.6c-5.4-0.1-10.7,0-15.9,0.1c-5.1,0.2-10.1,0.4-14.8,0.4
			c-4.7,0-9.2-0.1-13.3-0.2c-4.1-0.2-7.9-0.3-11.2-0.5c-1.7-0.1-3.2-0.2-4.7-0.3c-1.4-0.1-2.8-0.2-4-0.3c-4.8-0.3-7.5-0.7-7.5-0.7
			L453.9,788z"/>
		<path opacity="0.1" d="M447.1,776.2c0,0,3-0.3,8.2-0.6c1.3-0.1,2.7-0.2,4.3-0.2c1.6-0.1,3.3-0.2,5.1-0.2c3.6-0.2,7.7-0.2,12.2-0.3
			c4.5,0,9.3-0.1,14.4,0c5.1,0.1,10.5,0.4,16.1,0.6c2.8,0.1,5.6,0.3,8.5,0.3c2.9,0.1,5.8,0.1,8.7,0.1c5.9,0,11.8-0.1,17.8-0.2
			c3-0.1,6-0.2,8.9-0.2c1.5,0,3,0,4.4-0.1c1.5,0,2.9,0,4.4,0c5.9,0,11.6,0,17.2,0c5.6,0,11,0.1,16.1,0.3c2.6,0.1,5,0.2,7.4,0.3
			c2.4,0.1,4.7,0.2,7,0.3c4.5,0.2,8.5,0.4,12.2,0.7c3.6,0.2,6.8,0.5,9.4,0.7c2.6,0.2,4.6,0.4,6,0.5c1.4,0.1,2.1,0.2,2.1,0.2l0,0.3
			c0,0-0.7,0-2.1,0.1c-1.4,0.1-3.4,0.1-6,0.2c-1.3,0-2.7,0.1-4.3,0.1c-1.6,0-3.3,0.1-5.1,0.1c-3.6,0.1-7.7,0.1-12.2,0.1
			c-4.5,0-9.3,0-14.4-0.1c-5.1-0.1-10.5-0.1-16.1-0.3c-5.6-0.2-11.3-0.4-17.2-0.5c-1.5-0.1-2.9-0.1-4.4-0.2
			c-1.5-0.1-2.9-0.1-4.4-0.2c-3-0.1-5.9-0.3-8.9-0.4c-5.9-0.3-11.9-0.5-17.7-0.6c-5.9-0.1-11.6,0.1-17.2,0.3
			c-5.6,0.2-11,0.5-16.1,0.5c-5.1,0.1-9.9,0-14.4,0c-4.5-0.1-8.5-0.2-12.2-0.3c-1.8,0-3.5-0.1-5.1-0.2c-1.6-0.1-3-0.1-4.3-0.2
			c-5.2-0.2-8.2-0.5-8.2-0.5L447.1,776.2z"/>
		<path opacity="0.1" d="M437,754.1c0,0,0.8,0,2.4-0.1c0.8,0,1.7-0.1,2.8-0.1c1.1-0.1,2.4,0,3.9-0.1c0.7,0,1.5,0,2.3,0
			c0.8,0,1.6,0,2.5,0c1.7,0,3.6,0,5.6,0.1c2,0.1,4.1,0.2,6.4,0.3c2.2,0.1,4.6,0.3,7.1,0.5c4.9,0.4,10.2,0.9,15.9,1.6
			c5.6,0.7,11.5,1.5,17.6,2.3c6.1,0.8,12.4,1.4,18.9,1.5c1.6,0.1,3.2,0.1,4.9,0.1c1.6,0,3.3,0,4.9-0.1c1.6-0.1,3.3-0.1,4.9-0.2
			c1.6-0.1,3.3-0.2,4.9-0.3c3.3-0.2,6.6-0.5,9.8-0.7c1.6-0.1,3.3-0.2,4.9-0.3c1.6-0.1,3.2-0.2,4.9-0.3c6.5-0.3,12.8-0.7,19-1
			c6.2-0.3,12.1-0.6,17.8-0.7c5.6-0.2,11-0.3,15.9-0.4c4.9-0.1,9.5-0.1,13.5-0.2c2,0,3.9,0,5.6,0c1.7,0,3.3,0,4.8,0
			c2.9,0,5.1,0.1,6.7,0.1c1.5,0,2.4,0.1,2.4,0.1l0,0.3c0,0-0.8,0.1-2.4,0.2c-1.5,0.2-3.8,0.4-6.7,0.6c-1.4,0.1-3,0.3-4.8,0.4
			c-1.7,0.1-3.6,0.3-5.6,0.4c-4,0.3-8.5,0.6-13.4,0.9c-4.9,0.3-10.3,0.6-15.9,0.9c-5.6,0.3-11.6,0.5-17.8,0.7
			c-6.2,0.2-12.5,0.3-19,0.5c-6.5,0.2-13,0.2-19.6,0.2c-1.6,0-3.3,0-4.9,0c-1.6,0-3.3,0-4.9,0c-1.6,0-3.3-0.1-4.9-0.1
			c-1.6,0-3.3,0-4.9-0.1c-1.6-0.1-3.2-0.1-4.8-0.2c-1.6-0.1-3.2-0.1-4.8-0.2c-3.2-0.1-6.3-0.3-9.4-0.4c-6.2-0.3-12.1-0.6-17.8-1.1
			c-5.6-0.5-10.9-1.2-15.8-1.7c-1.2-0.1-2.4-0.3-3.6-0.4c-1.2-0.1-2.3-0.2-3.4-0.4c-2.2-0.2-4.3-0.5-6.3-0.7c-4-0.4-7.4-0.7-10.3-1
			c-1.4-0.1-2.7-0.2-3.8-0.3c-1.1-0.1-2.1-0.2-2.8-0.2c-1.5-0.1-2.4-0.2-2.4-0.2L437,754.1z"/>
		<path opacity="0.1" d="M457.7,794.2c0,0,0.6-0.2,1.9-0.5c1.2-0.3,3-0.7,5.3-1.1c1.1-0.2,2.4-0.4,3.8-0.7c1.4-0.2,2.9-0.4,4.5-0.6
			c3.2-0.4,6.9-0.7,10.9-0.7c0.5,0,1,0,1.5,0c0.3,0,0.5,0,0.8,0c0.3,0,0.5,0,0.8,0c1,0,2.1,0.1,3.2,0.1c2.2,0.1,4.4,0.3,6.7,0.6
			c4.6,0.6,9.3,1.5,14.2,2.5c4.9,1,9.9,2,15.1,2.6c1.3,0.2,2.6,0.3,3.9,0.4c1.3,0.1,2.6,0.2,3.9,0.3c2.6,0.2,5.3,0.2,7.9,0.2
			c1.3,0,2.6,0,4,0c1.3,0,2.6,0,4-0.1c2.6,0,5.2-0.1,7.8-0.2c5.2-0.2,10.3-0.4,15.2-0.7c4.9-0.3,9.7-0.6,14.3-0.8
			c4.5-0.2,8.8-0.4,12.8-0.6c4-0.2,7.6-0.3,10.8-0.4c1.6-0.1,3.1-0.1,4.5-0.2c1.4,0,2.7-0.1,3.8-0.1c2.3-0.1,4.1-0.1,5.4-0.1
			c1.2,0,1.9,0,1.9,0l0,0.3c0,0-0.7,0.1-1.9,0.3c-1.2,0.2-3,0.5-5.3,0.8c-1.1,0.2-2.4,0.3-3.8,0.5c-1.4,0.2-2.9,0.4-4.5,0.6
			c-3.2,0.4-6.8,0.8-10.8,1.2c-4,0.4-8.3,0.8-12.8,1.2c-4.5,0.4-9.4,0.6-14.3,0.8c-5,0.2-10.1,0.3-15.4,0.2c-1.3,0-2.6,0-3.9-0.1
			c-1.3-0.1-2.6-0.1-4-0.2c-1.3-0.1-2.7-0.2-4-0.3c-1.3-0.1-2.7-0.2-4-0.3l-2-0.2l-2-0.2c-1.3-0.1-2.6-0.3-4-0.4
			c-1.3-0.1-2.6-0.3-3.9-0.5c-1.3-0.2-2.6-0.3-3.9-0.5c-2.6-0.3-5.2-0.7-7.7-1c-2.5-0.3-5.1-0.6-7.5-0.9c-4.9-0.5-9.7-1-14.2-1.4
			c-1.1-0.1-2.2-0.2-3.3-0.3c-1.1-0.1-2.2-0.2-3.2-0.2c-1-0.1-2.1-0.1-3.1-0.2c-0.3,0-0.5,0-0.8,0c-0.2,0-0.5,0-0.7,0
			c-0.5,0-1,0-1.5,0c-3.9-0.1-7.5,0-10.7,0.1c-1.6,0.1-3.1,0.2-4.5,0.2c-1.4,0.1-2.7,0.2-3.8,0.2c-2.3,0.2-4.1,0.3-5.4,0.4
			c-1.2,0.1-1.9,0.1-1.9,0.1L457.7,794.2z"/>
		<path opacity="0.1" d="M462.5,801.1c0,0,0.1,0,0.4-0.1c0.3-0.1,0.7-0.2,1.2-0.3c1.1-0.3,2.7-0.6,4.7-0.9c1-0.2,2.2-0.3,3.4-0.4
			c1.2-0.1,2.6-0.2,4-0.3c2.9-0.2,6.1-0.2,9.6-0.3c1.8,0,3.6,0,5.5,0c1.9,0,3.8,0,5.8,0.1c4,0.1,8.2,0.4,12.6,0.8
			c4.4,0.3,8.9,0.7,13.5,0.9c4.6,0.2,9.3,0.3,13.9,0.5c1.2,0,2.3,0.1,3.5,0.1c1.2,0,2.3,0.1,3.5,0.2c1.2,0.1,2.3,0.1,3.5,0.2
			c1.2,0.1,2.3,0.2,3.4,0.3c4.6,0.5,9.1,1,13.4,1.6c8.7,1.1,16.7,2.6,23.6,3.6c1.7,0.3,3.4,0.6,4.9,0.8c1.6,0.2,3.1,0.5,4.5,0.7
			c2.8,0.4,5.3,0.8,7.3,1c4.1,0.5,6.4,0.8,6.4,0.8l0,0.3c0,0-0.6,0-1.7,0.1c-0.5,0-1.2,0-2,0.1c-0.8,0-1.7,0-2.7,0
			c-0.5,0-1.1,0-1.6,0c-0.6,0-1.2,0-1.8,0c-1.2,0-2.6-0.1-4-0.1c-1.4-0.1-2.9-0.1-4.5-0.3c-1.6-0.1-3.3-0.3-5-0.4
			c-1.7-0.2-3.6-0.4-5.4-0.6c-1.9-0.2-3.8-0.5-5.8-0.7c-4-0.5-8.2-1.2-12.5-1.9c-4.3-0.7-8.8-1.4-13.3-2.1c-2.3-0.3-4.6-0.7-6.8-1
			c-1.1-0.2-2.3-0.3-3.4-0.5c-1.2-0.2-2.3-0.3-3.5-0.5c-4.6-0.6-9.3-1.1-13.8-1.3c-4.6-0.3-9.1-0.2-13.5-0.1
			c-4.4,0.1-8.6,0.3-12.6,0.4c-4,0-7.8-0.1-11.3-0.1c-3.5-0.1-6.7-0.2-9.5-0.3c-1.4,0-2.7-0.1-4-0.1c-1.2,0-2.3,0-3.4,0
			c-2,0-3.6,0.1-4.7,0.2c-0.5,0-1,0.1-1.2,0.1c-0.3,0-0.4,0-0.4,0L462.5,801.1z"/>
		<path opacity="0.1" d="M472.2,813.1c3-0.4,5.4-0.7,8-0.9c1.3-0.1,2.7-0.2,4-0.3c1.3-0.1,2.7-0.2,4-0.2c2.6-0.1,5.3-0.2,7.9-0.2
			c2.6,0,5.3,0,7.9,0.1c2.6,0.2,5.3,0.4,7.9,0.6c2.6,0.2,5.3,0.5,7.9,0.6c2.6,0.1,5.3,0.2,7.9,0.2c2.6,0.1,5.3,0,7.9,0
			c2.6,0,5.3,0,7.9,0c2.6,0.1,5.3,0.2,7.9,0.3c2.6,0.1,5.3,0.3,7.9,0.4c2.6,0.2,5.3,0.4,7.9,0.6c2.6,0.3,5.2,0.6,7.8,0.9l3.9,0.5
			l3.9,0.6c1.3,0.2,2.6,0.4,3.9,0.7c1.3,0.2,2.6,0.5,3.9,0.7c2.6,0.5,5.2,1,7.7,1.7l-0.1,0l-0.1,0v0.3l0.1,0l0,0
			c-2.6,0-5.2-0.2-7.9-0.3c-1.3-0.1-2.6-0.1-3.9-0.2c-1.3-0.1-2.6-0.1-3.9-0.2l-3.9-0.2l-3.9-0.3c-2.6-0.2-5.2-0.4-7.8-0.6
			c-2.6-0.2-5.2-0.4-7.8-0.7c-2.6-0.2-5.2-0.5-7.8-0.7c-2.6-0.2-5.2-0.5-7.8-0.7c-2.6-0.2-5.2-0.6-7.8-0.9c-2.6-0.3-5.2-0.5-7.9-0.7
			c-2.6-0.2-5.2-0.3-7.9-0.3c-2.6,0-5.3,0.1-7.9,0.2c-2.6,0.1-5.3,0.3-7.9,0.4c-2.6,0.1-5.2,0.1-7.9,0.1c-2.6,0-5.2-0.1-7.9-0.1
			c-1.3,0-2.6-0.1-3.9-0.1c-1.3,0-2.8-0.1-4.1-0.2c-2.6-0.1-5.1-0.3-8.1-0.5V813.1z"/>
		<path opacity="0.1" d="M487.9,824.1c0,0,1.4-0.3,3.9-0.6c1.2-0.2,2.7-0.3,4.5-0.5c1.7-0.1,3.7-0.3,5.8-0.3c2.1-0.1,4.4-0.1,6.9,0
			c2.4,0.1,5,0.4,7.7,0.6c2.7,0.3,5.4,0.5,8.2,0.5c2.8,0,5.6,0,8.5-0.2c1.4-0.1,2.9-0.1,4.3-0.2c1.4,0,2.8-0.1,4.2-0.1
			c2.8,0,5.6,0.1,8.2,0.1c2.7,0.1,5.2,0.2,7.7,0.4c2.4,0.2,4.7,0.4,6.9,0.7c2.1,0.3,4.1,0.5,5.8,0.8c1.7,0.3,3.2,0.5,4.4,0.8
			c2.5,0.5,3.9,0.8,3.9,0.8l0,0.3c0,0-1.4,0.1-3.9,0.2c-0.6,0-1.3,0-2.1,0c-0.8,0-1.6,0-2.4,0c-1.7,0-3.7,0-5.8,0
			c-2.1,0-4.4-0.1-6.9-0.2c-2.4-0.1-5-0.2-7.6-0.5c-2.7-0.2-5.4-0.4-8.2-0.6c-1.4-0.1-2.8-0.3-4.2-0.4c-1.4-0.2-2.8-0.3-4.2-0.5
			c-2.8-0.3-5.7-0.6-8.5-0.6c-1.4,0-2.8-0.1-4.2,0c-1.4,0-2.7,0.1-4.1,0.2c-1.3,0.1-2.6,0.2-3.9,0.3c-1.3,0.1-2.5,0.2-3.8,0.2
			c-1.2,0-2.4,0-3.5,0c-1.1,0-2.3,0-3.3-0.1c-2.1-0.1-4.1-0.2-5.8-0.3c-1.7-0.1-3.2-0.2-4.5-0.3c-2.5-0.2-3.9-0.5-3.9-0.5
			L487.9,824.1z"/>
		<path opacity="0.1" d="M430.7,729.7c0,0,0.9-0.1,2.5-0.2c1.6-0.1,4.1-0.3,7.1-0.5c1.5-0.1,3.2-0.1,5.1-0.2c0.9,0,1.9-0.1,2.9-0.1
			c1,0,2,0,3.1-0.1c2.1,0,4.4-0.1,6.8-0.1c2.4,0,4.9,0,7.6,0c5.3,0.1,11,0.1,17,0.5c6,0.3,12.4,0.8,19,1.3c6.6,0.5,13.4,1,20.3,1.2
			c1.7,0.1,3.5,0.1,5.2,0.2c1.7,0,3.5,0.1,5.2,0.1c3.5,0,7,0,10.5,0c3.5,0,7,0,10.5-0.1c3.5,0,7-0.1,10.4-0.1c1.7,0,3.4-0.1,5.2-0.1
			c1.7,0,3.4-0.1,5.1-0.1c0.8,0,1.7,0,2.5-0.1c0.4,0,0.8,0,1.3,0l0.3,0l0.4,0l0.6,0c0.8,0,1.7,0,2.6,0.1c0.9,0.1,1.7,0.2,2.6,0.3
			c3.4,0.5,6.6,1.5,9.6,2.4c3,0.9,5.9,1.7,8.7,2l0.3,0l0.1,0c0,0,0,0,0,0l0.1,0l0.6,0.1c0.4,0,0.8,0.1,1.1,0.1c0.3,0,0.7,0,1,0.1
			c0.4,0,0.7,0,1.1,0c1.4,0,2.8,0,4.2,0c2.8-0.1,5.5-0.3,8.1-0.5c2.6-0.2,5.2-0.4,7.6-0.4l0.2,0l0.1,0c0,0,0.1,0,0,0l0.1,0l0.4,0
			c0.3,0,0.6,0,0.9,0c0.6,0,1.1-0.1,1.6-0.2c0.5-0.1,1.1-0.2,1.6-0.2c0.5-0.1,1-0.2,1.6-0.3c4.1-0.9,7.7-2.1,10.6-2.9
			c2.9-0.9,5.3-1.5,6.9-1.9c0.8-0.2,1.4-0.3,1.9-0.4c0.4-0.1,0.6-0.1,0.6-0.1l0.1,0.3c0,0-0.2,0.1-0.6,0.2c-0.4,0.1-1,0.3-1.8,0.6
			c-1.6,0.5-3.8,1.4-6.7,2.5c-1.4,0.6-3,1.2-4.8,1.9c-1.7,0.7-3.7,1.3-5.8,1.9c-0.5,0.1-1.1,0.3-1.6,0.4c-0.6,0.1-1.1,0.2-1.7,0.4
			c-0.6,0.1-1.2,0.2-1.8,0.3c-0.3,0-0.6,0.1-0.9,0.1l-0.4,0l-0.1,0l-0.2,0l-0.2,0c-2.4,0.2-4.8,0.5-7.5,0.8
			c-2.6,0.3-5.4,0.6-8.2,0.8c-1.4,0.1-2.9,0.2-4.4,0.2c-0.4,0-0.8,0-1.1,0c-0.4,0-0.8,0-1.2,0c-0.4,0-0.8,0-1.1-0.1l-0.6,0l-0.2,0
			l-0.1,0l-0.3,0c-1.6-0.2-3.2-0.5-4.7-0.8c-1.6-0.4-3.1-0.8-4.6-1.3c-1.5-0.5-3-0.9-4.6-1.3c-0.8-0.2-1.5-0.4-2.3-0.6
			c-0.8-0.2-1.5-0.3-2.3-0.5c-0.8-0.1-1.6-0.2-2.3-0.3c-0.8,0-1.5-0.1-2.4-0.1l-0.6,0l-0.3,0l-0.3,0c-0.4,0-0.8,0-1.3,0
			c-0.8,0-1.7,0-2.5,0c-1.7,0-3.4,0-5.1,0c-1.7,0-3.4,0-5.2-0.1c-6.9-0.1-14-0.5-21-0.8c-3.5-0.2-7-0.4-10.5-0.6
			c-1.7-0.1-3.5-0.2-5.2-0.3c-1.7-0.1-3.5-0.1-5.2-0.2c-3.5-0.2-6.9-0.3-10.3-0.3c-3.4-0.1-6.7-0.1-10-0.1c-6.6,0-13,0-19-0.2
			c-6-0.1-11.7-0.4-17-0.5c-5.3-0.2-10.1-0.4-14.4-0.5c-4.3-0.2-8-0.3-11.1-0.4c-3.1-0.1-5.5-0.2-7.1-0.2c-1.6-0.1-2.5-0.1-2.5-0.1
			L430.7,729.7z"/>
		<path opacity="0.1" d="M435,747.9c0,0,3.4-0.2,9.2-0.3c1.5,0,3.1-0.1,4.9-0.1c1.8,0,3.7-0.1,5.7-0.1c4.1,0,8.7,0,13.7,0
			c5,0.1,10.5,0.1,16.2,0.3c5.8,0.2,11.8,0.6,18.1,1c6.3,0.4,12.8,0.7,19.3,0.8c6.6,0.1,13.3,0.1,20,0c3.4,0,6.7-0.1,10-0.1
			c1.7,0,3.3,0,5,0c1.7,0,3.3,0,5,0c6.6,0.1,13.1,0.1,19.4,0.2c6.3,0,12.3,0.1,18.1,0.2c5.7,0.1,11.2,0.2,16.2,0.1
			c5,0,9.6-0.1,13.7-0.2c1,0,2-0.1,3-0.1c1,0,1.9-0.1,2.7-0.1c1.8-0.1,3.4-0.1,4.8-0.2c2.9-0.2,5.2-0.3,6.8-0.4
			c1.6-0.1,2.4-0.1,2.4-0.1l0,0.3c0,0-0.8,0.2-2.4,0.4c-0.8,0.1-1.7,0.3-2.9,0.5c-1.1,0.2-2.4,0.4-3.9,0.6c-1.5,0.2-3.1,0.4-4.8,0.6
			c-1.8,0.2-3.7,0.4-5.7,0.6c-4.1,0.4-8.7,0.7-13.7,1c-5,0.2-10.5,0.4-16.3,0.4c-5.8,0-11.8-0.1-18.1-0.3
			c-6.3-0.2-12.8-0.4-19.4-0.7c-1.6-0.1-3.3-0.1-5-0.2c-1.7-0.1-3.3-0.2-5-0.2c-3.3-0.2-6.7-0.4-10-0.6c-6.7-0.4-13.4-0.7-20-0.8
			c-6.6-0.2-13.1-0.1-19.4,0c-6.3,0.1-12.4,0.2-18.1,0.2c-5.8,0-11.2-0.3-16.2-0.4c-5-0.2-9.6-0.4-13.7-0.6c-2-0.1-3.9-0.2-5.7-0.3
			c-1.8-0.1-3.4-0.2-4.8-0.3c-5.9-0.4-9.2-0.7-9.2-0.7L435,747.9z"/>
	</g>
	<g>
		<path fill="#FFFFFF" d="M501.5,904c-9.5-0.1-18.3-2-26.4-5.6c-8.7-3.9-16.2-9.8-22.3-17.5c-6.7-8.4-11.9-17.2-15.5-26.1
			c-3.6-9-5.4-18.2-5.4-27.2c0-9.2,1.8-18.3,5.4-27c3.7-8.9,9.3-17.4,16.6-25.4c6.3-6.9,14.4-12.1,23.9-15.5c8.6-3.1,18-4.6,28-4.5
			c22.3,0.2,43.8,8.4,54.6,21c7.4,8.6,13.2,18.7,16.9,29.4c3.6,10.6,5.1,21.8,4.3,32.3c-0.7,8.6-2.9,16.7-6.5,24.1
			c-3.8,7.8-9.2,14.7-16,20.4c-8,6.7-17.4,12.3-27.1,16C521.7,902.1,511.5,904,501.5,904z M505.7,763.1c-19.1-0.2-35.5,6-46,17.4
			c-26.1,28.4-26.4,63.2-0.7,95.3c13.2,16.5,30.4,20,42.6,20.2c18.1,0.2,37.1-7.1,52.2-19.8c11.6-9.8,18.4-23.3,19.7-39
			c1.5-19.2-5.7-40-19.2-55.8C545,770.6,525.5,763.3,505.7,763.1z"/>

			<rect x="506.2" y="757.4" transform="matrix(0.7007 0.7135 -0.7135 0.7007 743.1224 -114.4261)" fill="#FFFFFF" width="3.6" height="142.1"/>

			<rect x="436.9" y="826.7" transform="matrix(0.7007 0.7134 -0.7134 0.7007 743.0812 -114.4364)" fill="#FFFFFF" width="142.1" height="3.6"/>

			<rect x="505.8" y="757.6" transform="matrix(1 8.978291e-003 -8.978291e-003 1 7.4598 -4.525)" fill="#FFFFFF" width="3.7" height="142"/>

			<rect x="436.9" y="826.9" transform="matrix(1 8.978291e-003 -8.978291e-003 1 7.4599 -4.5269)" fill="#FFFFFF" width="142" height="3.3"/>
	</g>
</g>
<g id="stroller-lantern">
	<g>
		<path fill="#FFFFFF" d="M707.8,709.3c0,0,0,0.3,0.1,0.7c0,0.5,0.1,1.2,0.2,2.1c0.1,0.9,0.1,2,0.2,3.2c0.1,1.2,0.2,2.7,0.3,4.2
			c0.1,1.5,0.2,3.2,0.3,5c0.1,1.8,0.2,3.6,0.3,5.5c0.1,1.9,0.2,3.9,0.3,5.9c0.1,2,0.2,4.1,0.3,6.1c0.1,2.1,0.1,4.1,0.2,6.1
			c0.1,2,0.1,4,0.2,5.9c0.1,1.9,0.1,3.8,0.1,5.6c0,1.8,0,3.4,0,5c0,3.1-0.1,5.7-0.1,7.4c0,0.9-0.1,1.6-0.1,2.1c0,0.5,0,0.7,0,0.7
			s0-0.3-0.1-0.7c0-0.5-0.1-1.2-0.2-2.1c-0.1-0.9-0.1-2-0.2-3.2c-0.1-1.2-0.2-2.7-0.3-4.2c-0.1-1.5-0.2-3.2-0.3-5
			c-0.1-1.8-0.2-3.6-0.3-5.5c-0.1-1.9-0.2-3.9-0.3-5.9c-0.1-2-0.2-4.1-0.3-6.1c-0.1-2.1-0.1-4.1-0.2-6.1c-0.1-2-0.1-4-0.2-5.9
			c-0.1-1.9-0.1-3.8-0.1-5.6c0-1.8,0-3.4,0-5c0-3.1,0.1-5.7,0.1-7.5c0-0.9,0.1-1.6,0.1-2.1C707.8,709.5,707.8,709.3,707.8,709.3z"/>
		<path fill="#FFFFFF" d="M722.4,763.3c-7.1,8-10.8,14.6-12.7,20.4c-0.3,1-1.6,1-2,0.1c-4.1-9.2-8.6-16.5-13.7-20.6l5.1-3.2
			l9.9-20.2l8.1,19.6L722.4,763.3z"/>
	</g>
</g>
</svg>
