<?xml version="1.0" encoding="utf-8"?>
<!-- Generator: Adobe Illustrator 18.0.0, SVG Export Plug-In . SVG Version: 6.00 Build 0)  -->
<!DOCTYPE svg PUBLIC "-//W3C//DTD SVG 1.1//EN" "http://www.w3.org/Graphics/SVG/1.1/DTD/svg11.dtd">
<svg version="1.1" id="Layer_1" xmlns="http://www.w3.org/2000/svg" xmlns:xlink="http://www.w3.org/1999/xlink" x="0px" y="0px"
	 viewBox="0 0 694 290.9" enable-background="new 0 0 694 290.9" xml:space="preserve">
<g>
	<g>
		<path fill="#FFC732" d="M274.1,212.3c0,33.3-27,60.3-60.3,60.3c-13.1,0-25.3-4.2-35.2-11.3c-11.7,16.3-30.8,26.9-52.4,26.9
			c-20.9,0-39.4-9.9-51.2-25.3c-7.4,4.8-16.2,7.6-25.6,7.6c-25.8,0-46.7-20.9-46.7-46.7S23.6,177,49.4,177c2.2,0,4.5,0.2,6.6,0.5
			c-0.1-1-0.1-1.9-0.1-2.9c0-33.6,27.2-60.8,60.8-60.8c14.5,0,27.8,5.1,38.2,13.5c5.5-14.4,19.4-24.6,35.7-24.6
			c21.1,0,38.2,17.1,38.2,38.2c0,4.4-0.7,8.6-2.1,12.5C253.9,159.3,274.1,183.4,274.1,212.3z"/>
		<path fill="#F2F2F2" d="M126.2,290.9c-20.3,0-39-8.9-51.8-24.5c-7.6,4.4-16.1,6.8-25,6.8C22.2,273.2,0,251,0,223.8
			c0-27.3,22.2-49.4,49.4-49.4c1.3,0,2.6,0.1,3.9,0.1c0-35,28.5-63.4,63.5-63.4c13.3,0,26.4,4.2,37.1,12c6.8-13.9,21.1-23,36.8-23
			c22.5,0,40.9,18.3,40.9,40.9c0,3.6-0.5,7.1-1.4,10.5c12.7,3.4,24.1,10.8,32.5,21.1c9.1,11.2,14.1,25.3,14.1,39.7
			c0,34.7-28.3,63-63,63c-12.4,0-24.3-3.6-34.6-10.3C166.6,281.2,146.9,290.9,126.2,290.9z M75.6,259.3l1.5,2
			c11.8,15.4,29.7,24.3,49.1,24.3c19.9,0,38.6-9.7,50.2-25.8l1.6-2.2l2.2,1.6c9.8,7.1,21.4,10.8,33.6,10.8
			c31.8,0,57.6-25.9,57.6-57.6c0-26.9-19-50.5-45.2-56.3l-2.9-0.6l1-2.8c1.3-3.7,1.9-7.6,1.9-11.6c0-19.6-15.9-35.5-35.5-35.5
			c-14.6,0-28,9.2-33.2,22.8l-1.3,3.4l-2.9-2.3c-10.3-8.3-23.3-12.9-36.5-12.9c-32.1,0-58.1,26.1-58.1,58.1c0,1,0,1.9,0.1,2.8
			l0.2,3.3l-3.2-0.5c-2.1-0.3-4.2-0.4-6.2-0.4c-24.3,0-44.1,19.8-44.1,44.1c0,24.3,19.8,44.1,44.1,44.1c8.6,0,17-2.5,24.1-7.2
			L75.6,259.3z"/>
	</g>
	<path fill="#F2F2F2" d="M33.3,202c0,0,0.2-0.4,0.5-1c0.3-0.7,0.8-1.6,1.6-2.8c0.8-1.2,1.7-2.6,3-4.1c1.3-1.5,2.9-3.1,4.8-4.6
		c1.9-1.5,4.1-3,6.7-4.3c2.5-1.3,5.4-2.3,8.4-3c3-0.7,6.3-1.1,9.6-1c3.3,0.1,6.7,0.5,9.9,1.4c3.2,0.9,6.4,2.2,9.2,3.9L88,187
		l0.5,0.3l0.2,0.1l0.1,0.1l0.2,0.2c0.6,0.5,1.2,0.9,1.9,1.3c0.6,0.5,1.3,1,1.9,1.6c0.6,0.5,1.2,1.1,1.7,1.6c2.2,2.2,4.1,4.6,5.6,7
		c0.4,0.6,0.7,1.2,1.1,1.8c0.3,0.6,0.6,1.2,0.9,1.8c0.5,1.2,1.1,2.4,1.5,3.6c0.4,1.1,0.8,2.3,1.1,3.4c0.3,1.1,0.5,2.1,0.6,3.1
		c0.3,1.9,0.4,3.7,0.5,5.1c0,0.7,0,1.3,0,1.9c0,0.5-0.1,1-0.1,1.4c-0.1,0.7-0.1,1.1-0.1,1.1s-0.1-0.4-0.2-1.1
		c-0.1-0.4-0.1-0.8-0.2-1.3c-0.1-0.5-0.3-1.1-0.4-1.8c-0.3-1.3-0.8-2.9-1.4-4.7c-0.7-1.8-1.5-3.7-2.5-5.7c-2.1-4-5.3-8.3-9.5-11.9
		c-0.5-0.4-1.1-0.9-1.6-1.3c-0.5-0.4-1.1-0.8-1.7-1.2c-0.6-0.4-1.3-0.8-1.9-1.2l-0.2-0.2l-0.1-0.1c-0.1,0,0.1,0,0,0l0,0l-0.1,0
		l-0.5-0.3l-0.9-0.5c-2.5-1.4-5.3-2.5-8.1-3.3c-2.8-0.8-5.7-1.3-8.6-1.4c-1.4-0.1-2.9-0.1-4.3,0c-1.4,0.1-2.8,0.2-4.2,0.5
		c-2.7,0.5-5.3,1.2-7.8,2.1c-2.4,0.9-4.6,2-6.6,3.1c-1.9,1.2-3.7,2.4-5.1,3.6c-1.5,1.2-2.6,2.3-3.6,3.3c-0.9,1-1.7,1.8-2.2,2.3
		C33.5,201.7,33.3,202,33.3,202z"/>
	<path fill="#F2F2F2" d="M160.1,166.6c0,0,0.2-0.4,0.5-1c0.3-0.7,0.9-1.6,1.7-2.8c0.8-1.2,1.8-2.6,3.1-4c1.3-1.5,2.9-3,4.9-4.5
		c2-1.5,4.2-2.9,6.8-4.1c2.6-1.2,5.4-2.2,8.5-2.8c3.1-0.6,6.3-1,9.6-0.8c3.3,0.1,6.6,0.7,9.9,1.7c3.2,1,6.3,2.4,9.1,4.1l1,0.7
		l0.5,0.3l0.2,0.1l0.1,0.1l0.2,0.2c0.6,0.5,1.2,0.9,1.8,1.4c0.6,0.5,1.3,1.1,1.9,1.6c0.6,0.5,1.1,1.1,1.7,1.7c2.2,2.2,4,4.7,5.5,7.1
		c0.3,0.6,0.7,1.2,1,1.8c0.3,0.6,0.6,1.2,0.9,1.8c0.5,1.2,1,2.4,1.4,3.6c0.4,1.2,0.7,2.3,1,3.4c0.2,1.1,0.4,2.1,0.6,3.1
		c0.3,2,0.3,3.7,0.3,5.1c0,0.7,0,1.3-0.1,1.9c-0.1,0.5-0.1,1-0.1,1.4c-0.1,0.7-0.1,1.1-0.1,1.1s-0.1-0.4-0.2-1.1
		c-0.1-0.4-0.1-0.8-0.2-1.3c-0.1-0.5-0.2-1.1-0.4-1.8c-0.3-1.3-0.7-2.9-1.3-4.7c-0.6-1.8-1.4-3.7-2.4-5.8c-2-4.1-5.1-8.4-9.2-12.1
		c-0.5-0.4-1.1-0.9-1.6-1.4c-0.5-0.4-1.1-0.8-1.6-1.2c-0.6-0.4-1.3-0.8-1.9-1.3l-0.2-0.2l-0.1-0.1c-0.1,0,0.1,0,0,0l0,0l-0.1,0
		l-0.5-0.3l-0.9-0.6c-2.5-1.4-5.2-2.6-8-3.5c-2.8-0.9-5.7-1.4-8.6-1.6c-1.4-0.1-2.9-0.1-4.3-0.1c-1.4,0.1-2.8,0.2-4.2,0.4
		c-2.7,0.4-5.4,1-7.8,1.9c-2.4,0.9-4.7,1.9-6.6,3c-2,1.1-3.7,2.3-5.2,3.5c-1.5,1.1-2.7,2.3-3.7,3.2c-1,1-1.7,1.7-2.2,2.3
		C160.3,166.3,160.1,166.6,160.1,166.6z"/>
</g>
<g>
	<g>
		<path fill="#FFC732" d="M691.4,104.4c-1.7,34.7-31.3,61.4-66,59.7c-10.7-0.5-20.6-3.7-29.2-8.8c-14.1,9.2-31.2,14.2-49.4,13.3
			c-14.7-0.7-28.4-5.3-40-12.6c-3.6,4.6-9.3,7.5-15.6,7.1c-8.5-0.4-15.3-6.4-17.2-14.3c-5,1.5-10.4,2.2-15.9,1.9
			c-26.1-1.3-46.2-23.5-44.9-49.6c1.3-26.1,23.5-46.2,49.6-44.9c3.4,0.2,6.7,0.7,9.8,1.5c11.9-33.7,44.9-57.1,82.5-55.3
			c27.1,1.3,50.6,15.6,64.7,36.4c3.8-0.5,7.8-0.7,11.8-0.5C666.4,40.2,693.2,69.7,691.4,104.4z"/>
		<path fill="#F2F2F2" d="M551.1,171.2c-1.4,0-2.9,0-4.3-0.1c-13.9-0.7-27.5-4.8-39.4-11.9c-4.2,4.4-10,6.7-16.2,6.4
			c-8.4-0.4-15.8-5.9-18.7-13.7c-4.7,1.1-9.5,1.6-14.4,1.4c-13.3-0.7-25.5-6.4-34.4-16.3c-8.9-9.9-13.5-22.6-12.8-35.9
			c1.3-26.5,23.1-47.3,49.7-47.3c0.8,0,1.7,0,2.5,0.1c2.7,0.1,5.5,0.5,8.1,1.1C483.8,22,515.6,0,551,0c1.4,0,2.9,0,4.3,0.1
			c26.6,1.3,50.5,14.5,65.8,36.3c3.5-0.4,7.2-0.5,10.8-0.3c17.4,0.9,33.5,8.5,45.2,21.4c11.7,12.9,17.7,29.7,16.8,47.1
			c-1.7,34.8-30.4,62.1-65.2,62.1c-1.1,0-2.2,0-3.3-0.1c-10.2-0.5-20.2-3.4-29-8.4C582.8,166.7,567.2,171.2,551.1,171.2z
			 M506.3,152.8l1.9,1.2c11.6,7.3,25.1,11.5,38.8,12.2c17,0.8,33.7-3.7,47.9-12.9l1.3-0.8l1.3,0.8c8.4,5.1,18.1,8,28,8.5
			c1,0.1,2,0.1,3.1,0.1c32.2,0,58.7-25.2,60.3-57.5c0.8-16.1-4.7-31.6-15.6-43.6c-10.8-12-25.7-19-41.8-19.8
			c-3.8-0.2-7.6,0-11.3,0.5l-1.5,0.2l-0.9-1.3C603.5,19.2,580.6,6.3,555.1,5c-1.4-0.1-2.7-0.1-4.1-0.1c-34.1,0-64.6,21.6-76,53.7
			l-0.8,2.1l-2.2-0.6c-3-0.8-6.2-1.3-9.3-1.4c-0.8,0-1.5-0.1-2.3-0.1c-23.9,0-43.6,18.7-44.8,42.6c-0.6,12,3.5,23.4,11.5,32.3
			c8,8.9,19.1,14.1,31,14.7c5.1,0.3,10.2-0.4,15.1-1.8l2.5-0.7l0.6,2.5c1.7,6.9,7.8,12,14.9,12.4c5.3,0.3,10.3-2,13.6-6.2
			L506.3,152.8z"/>
	</g>
	<path fill="#F2F2F2" d="M451.2,80.5c0,0,0.2-0.3,0.5-0.9c0.3-0.6,0.9-1.5,1.6-2.5c0.8-1,1.7-2.3,3-3.6c1.3-1.3,2.8-2.7,4.6-4
		c1.8-1.3,4-2.6,6.4-3.6c2.4-1,5.1-1.8,7.9-2.3c2.8-0.5,5.8-0.7,8.8-0.4c3,0.2,6.1,0.8,9,1.9c2.9,1,5.7,2.4,8.2,4.1l0.9,0.6l0.5,0.3
		l0.2,0.1l0.1,0.1l0.2,0.2c0.6,0.4,1.1,0.9,1.6,1.3c0.6,0.5,1.1,1,1.7,1.5c0.5,0.5,1,1.1,1.5,1.6c1.9,2.1,3.5,4.4,4.8,6.7
		c0.3,0.6,0.6,1.1,0.9,1.7c0.3,0.6,0.5,1.1,0.8,1.7c0.4,1.1,0.9,2.2,1.1,3.3c0.3,1.1,0.6,2.1,0.8,3.1c0.2,1,0.3,2,0.4,2.9
		c0.2,1.8,0.2,3.4,0.1,4.7c0,0.6-0.1,1.2-0.1,1.7c-0.1,0.5-0.1,0.9-0.2,1.3c-0.1,0.7-0.2,1-0.2,1s0-0.4-0.1-1c0-0.3-0.1-0.7-0.1-1.2
		c-0.1-0.5-0.2-1-0.3-1.7c-0.2-1.2-0.6-2.7-1-4.4c-0.5-1.6-1.1-3.5-2-5.4c-1.7-3.8-4.4-7.9-8-11.4c-0.5-0.4-0.9-0.9-1.4-1.3
		c-0.5-0.4-1-0.8-1.4-1.2c-0.5-0.4-1.1-0.8-1.7-1.2L500,74l-0.1-0.1c-0.1,0,0.1,0,0,0l0,0l-0.1,0l-0.4-0.3l-0.8-0.5
		c-2.3-1.4-4.7-2.6-7.2-3.4c-2.5-0.9-5.2-1.5-7.8-1.8c-1.3-0.2-2.6-0.2-3.9-0.2c-1.3,0-2.6,0.1-3.9,0.2c-2.5,0.3-5,0.8-7.2,1.5
		c-2.2,0.7-4.3,1.6-6.2,2.5c-1.8,1-3.5,2-4.9,3c-1.4,1-2.5,2-3.5,2.8c-0.9,0.9-1.6,1.5-2.1,2C451.4,80.2,451.2,80.5,451.2,80.5z"/>
</g>
</svg>
