<?xml version="1.0" encoding="utf-8"?>
<!-- Generator: Adobe Illustrator 18.0.0, SVG Export Plug-In . SVG Version: 6.00 Build 0)  -->
<!DOCTYPE svg PUBLIC "-//W3C//DTD SVG 1.1//EN" "http://www.w3.org/Graphics/SVG/1.1/DTD/svg11.dtd">
<svg version="1.1" id="Layer_1" xmlns="http://www.w3.org/2000/svg" xmlns:xlink="http://www.w3.org/1999/xlink" x="0px" y="0px"
	 viewBox="0 0 1162.7 483.7" enable-background="new 0 0 1162.7 483.7" xml:space="preserve">
<g>
	<g>
		<path fill="#FFC732" d="M958.5,74.9c-0.5,9.5-8.6,16.8-18.1,16.3c-2.9-0.1-5.6-1-8-2.4c-3.9,2.5-8.5,3.9-13.5,3.6
			c-4-0.2-7.8-1.4-11-3.4c-1,1.3-2.6,2-4.3,2c-2.3-0.1-4.2-1.8-4.7-3.9c-1.4,0.4-2.8,0.6-4.4,0.5c-7.1-0.4-12.6-6.4-12.3-13.6
			c0.4-7.1,6.4-12.6,13.6-12.3c0.9,0,1.8,0.2,2.7,0.4c3.3-9.2,12.3-15.6,22.6-15.1c7.4,0.4,13.8,4.3,17.7,10
			c1.1-0.1,2.1-0.2,3.2-0.1C951.6,57.4,958.9,65.4,958.5,74.9z"/>
		<path fill="#F2F2F2" d="M920,93.2c-0.4,0-0.8,0-1.2,0c-3.8-0.2-7.5-1.3-10.8-3.2c-1.2,1.2-2.7,1.8-4.4,1.8
			c-2.3-0.1-4.3-1.6-5.1-3.8c-1.3,0.3-2.6,0.4-3.9,0.4c-3.6-0.2-7-1.8-9.4-4.5c-2.4-2.7-3.7-6.2-3.5-9.8c0.4-7.3,6.3-12.9,13.6-12.9
			c0.2,0,0.5,0,0.7,0c0.8,0,1.5,0.1,2.2,0.3c3.5-9,12.2-15,21.9-15c0.4,0,0.8,0,1.2,0c7.3,0.4,13.8,4,18,9.9c1-0.1,2-0.1,2.9-0.1
			c4.8,0.2,9.2,2.3,12.4,5.9c3.2,3.5,4.8,8.1,4.6,12.9c-0.5,9.5-8.3,17-17.9,17c-0.3,0-0.6,0-0.9,0c-2.8-0.1-5.5-0.9-7.9-2.3
			C928.7,92,924.4,93.2,920,93.2z M907.8,88.2l0.5,0.3c3.2,2,6.9,3.2,10.6,3.3c4.7,0.2,9.2-1,13.1-3.5l0.4-0.2l0.4,0.2
			c2.3,1.4,5,2.2,7.7,2.3c0.3,0,0.6,0,0.8,0c8.8,0,16.1-6.9,16.5-15.7c0.2-4.4-1.3-8.7-4.3-11.9c-3-3.3-7-5.2-11.4-5.4
			c-1-0.1-2.1,0-3.1,0.1l-0.4,0.1l-0.2-0.3c-3.9-5.8-10.2-9.3-17.2-9.7c-0.4,0-0.7,0-1.1,0c-9.3,0-17.7,5.9-20.8,14.7L899,63
			l-0.6-0.2c-0.8-0.2-1.7-0.4-2.5-0.4c-0.2,0-0.4,0-0.6,0c-6.5,0-11.9,5.1-12.3,11.7c-0.2,3.3,1,6.4,3.2,8.9c2.2,2.4,5.2,3.9,8.5,4
			c1.4,0.1,2.8-0.1,4.1-0.5l0.7-0.2l0.2,0.7c0.5,1.9,2.1,3.3,4.1,3.4c1.5,0.1,2.8-0.6,3.7-1.7L907.8,88.2z"/>
	</g>
	<path fill="#F2F2F2" d="M938.9,80.1c0,0,0.1-0.2,0.2-0.5c0.1-0.4,0.3-0.9,0.4-1.6c0.1-0.7,0.3-1.5,0.4-2.5c0.1-1,0.1-2.1-0.1-3.4
		c-0.1-1.2-0.4-2.6-0.9-3.9c-0.5-1.4-1.1-2.7-1.9-4.1c-0.8-1.3-1.9-2.6-3.1-3.8c-1.2-1.2-2.6-2.2-4.1-3c-1.5-0.8-3.1-1.5-4.7-1.9
		l-0.6-0.1l-0.3-0.1l-0.1,0l-0.1,0l-0.1,0c-0.4-0.1-0.8-0.1-1.1-0.2c-0.4,0-0.8-0.1-1.2-0.1c-0.4,0-0.8,0-1.2,0
		c-1.6,0-3.1,0.2-4.5,0.5c-0.3,0.1-0.7,0.2-1,0.3c-0.3,0.1-0.7,0.2-1,0.3c-0.6,0.2-1.2,0.5-1.8,0.8c-0.6,0.3-1.1,0.5-1.6,0.8
		c-0.5,0.3-0.9,0.6-1.3,0.9c-0.8,0.6-1.5,1.2-2,1.7c-0.3,0.3-0.5,0.5-0.7,0.7c-0.2,0.2-0.3,0.4-0.5,0.5c-0.2,0.3-0.4,0.4-0.4,0.4
		s0.2-0.1,0.5-0.3c0.2-0.1,0.3-0.2,0.6-0.4c0.2-0.1,0.5-0.3,0.8-0.5c0.6-0.4,1.3-0.8,2.2-1.2c0.9-0.4,1.8-0.8,2.9-1.1
		c2.2-0.7,4.8-1.1,7.6-0.9c0.3,0,0.7,0.1,1,0.1c0.3,0.1,0.7,0.1,1,0.2c0.4,0.1,0.7,0.2,1.1,0.2l0.1,0l0.1,0c0,0,0,0,0,0l0,0l0,0
		l0.3,0.1l0.5,0.1c1.4,0.4,2.8,1,4.1,1.7c1.3,0.7,2.5,1.6,3.6,2.6c0.5,0.5,1.1,1,1.5,1.5c0.5,0.5,0.9,1.1,1.3,1.7
		c0.8,1.1,1.5,2.3,2,3.5c0.5,1.2,0.9,2.3,1.2,3.5c0.3,1.1,0.5,2.2,0.6,3.1c0.1,0.9,0.1,1.8,0.1,2.5c0,0.7,0,1.2-0.1,1.6
		C938.9,79.9,938.9,80.1,938.9,80.1z"/>
</g>
<g>
	<g>
		<path fill="#FFC732" d="M361.3,202.1c-1,20.7-18.7,36.7-39.4,35.7c-6.4-0.3-12.3-2.2-17.4-5.3c-8.4,5.5-18.6,8.5-29.5,7.9
			c-8.8-0.4-16.9-3.1-23.9-7.5c-2.2,2.8-5.6,4.5-9.3,4.3c-5.1-0.3-9.2-3.8-10.3-8.5c-3,0.9-6.2,1.3-9.5,1.1
			c-15.6-0.8-27.6-14-26.8-29.6c0.8-15.6,14-27.6,29.6-26.8c2,0.1,4,0.4,5.9,0.9c7.1-20.2,26.8-34.1,49.3-33
			c16.2,0.8,30.2,9.3,38.6,21.8c2.3-0.3,4.7-0.4,7.1-0.3C346.4,163.7,362.3,181.4,361.3,202.1z"/>
		<path fill="#F2F2F2" d="M277.5,242c-0.9,0-1.7,0-2.6-0.1c-8.3-0.4-16.4-2.9-23.5-7.1c-2.5,2.6-6,4-9.7,3.8
			c-5-0.3-9.5-3.5-11.2-8.2c-2.8,0.7-5.7,1-8.6,0.8c-7.9-0.4-15.2-3.9-20.6-9.7c-5.3-5.9-8-13.5-7.7-21.4
			c0.8-15.8,13.8-28.2,29.7-28.2c0.5,0,1,0,1.5,0c1.6,0.1,3.3,0.3,4.9,0.6c7.5-19.7,26.5-32.8,47.7-32.8c0.9,0,1.7,0,2.6,0.1
			c15.9,0.8,30.1,8.7,39.3,21.7c2.1-0.2,4.3-0.3,6.4-0.2c10.4,0.5,20,5.1,27,12.8c7,7.7,10.6,17.7,10.1,28.1
			c-1,20.8-18.1,37.1-39,37.1c-0.7,0-1.3,0-2,0c-6.1-0.3-12.1-2-17.3-5C296.4,239.3,287.1,242,277.5,242z M250.8,231l1.1,0.7
			c6.9,4.4,15,6.9,23.2,7.3c10.2,0.5,20.1-2.2,28.6-7.7l0.8-0.5l0.8,0.5c5,3,10.8,4.8,16.7,5.1c0.6,0,1.2,0,1.8,0
			c19.2,0,35.1-15.1,36-34.3c0.5-9.6-2.8-18.9-9.3-26c-6.5-7.1-15.3-11.3-25-11.8c-2.3-0.1-4.6,0-6.8,0.3l-0.9,0.1l-0.5-0.8
			c-8.6-12.7-22.3-20.4-37.5-21.1c-0.8,0-1.6-0.1-2.4-0.1c-20.4,0-38.6,12.9-45.4,32.1l-0.5,1.3l-1.3-0.3c-1.8-0.5-3.7-0.8-5.6-0.9
			c-0.4,0-0.9,0-1.4,0c-14.3,0-26,11.2-26.7,25.5c-0.4,7.1,2.1,14,6.9,19.3c4.8,5.3,11.4,8.4,18.5,8.8c3.1,0.2,6.1-0.2,9-1.1
			l1.5-0.4l0.4,1.5c1,4.1,4.7,7.2,8.9,7.4c3.2,0.2,6.2-1.2,8.1-3.7L250.8,231z"/>
	</g>
	<path fill="#F2F2F2" d="M258.7,171.9c0,0,0.3-0.3,0.7-0.9c0.5-0.6,1.2-1.3,2.2-2.3c1-0.9,2.3-2.1,3.9-3.1c1.6-1.1,3.5-2.2,5.7-3.2
		c2.2-1,4.7-1.8,7.4-2.4c2.7-0.6,5.7-0.9,8.8-0.8c3.1,0.1,6.3,0.5,9.4,1.4c3.1,0.9,6.2,2.2,9,3.9c2.8,1.7,5.5,3.7,7.8,6l0.8,0.9
		l0.4,0.4l0.2,0.2l0.1,0.1l0.2,0.2c0.5,0.6,1,1.1,1.4,1.7c0.5,0.7,1,1.3,1.4,2c0.4,0.7,0.8,1.3,1.2,2c1.6,2.6,2.8,5.4,3.6,8.1
		c0.2,0.7,0.4,1.3,0.6,2c0.1,0.7,0.3,1.3,0.4,2c0.2,1.3,0.4,2.5,0.5,3.7c0.1,1.2,0.2,2.4,0.2,3.4c0,1.1-0.1,2.1-0.2,3.1
		c-0.2,1.9-0.5,3.6-0.8,4.9c-0.2,0.7-0.3,1.3-0.5,1.8c-0.2,0.5-0.3,0.9-0.4,1.3c-0.2,0.7-0.4,1.1-0.4,1.1s0-0.4,0.1-1.1
		c0-0.4,0.1-0.8,0.1-1.3c0-0.5,0-1.1,0.1-1.8c0-1.3,0-3-0.1-4.8c-0.2-1.8-0.4-3.9-1-6.1c-1-4.4-3-9.2-6-13.7
		c-0.4-0.5-0.8-1.1-1.2-1.7c-0.4-0.5-0.8-1-1.3-1.6c-0.5-0.5-1-1.1-1.5-1.6l-0.2-0.2l-0.1-0.1c-0.1-0.1,0.1,0.1,0,0l0,0l0,0
		l-0.4-0.4l-0.8-0.7c-2.1-1.9-4.4-3.7-6.9-5.1c-2.5-1.5-5.1-2.6-7.8-3.5c-1.4-0.4-2.7-0.8-4.1-1.1c-1.4-0.3-2.7-0.5-4.1-0.6
		c-2.7-0.3-5.4-0.2-7.9,0c-2.5,0.3-4.9,0.7-7,1.3c-2.1,0.6-4.1,1.4-5.8,2.1c-1.7,0.8-3.1,1.5-4.3,2.2c-1.1,0.7-2.1,1.2-2.6,1.7
		C259,171.7,258.7,171.9,258.7,171.9z"/>
</g>
<g>
	<g>
		<path fill="#FFC732" d="M270.4,454.2c-0.8,15.3-13.8,27.1-29.1,26.4c-4.7-0.2-9.1-1.6-12.9-3.9c-6.2,4.1-13.8,6.3-21.8,5.9
			c-6.5-0.3-12.5-2.3-17.7-5.6c-1.6,2-4.1,3.3-6.9,3.2c-3.7-0.2-6.8-2.8-7.6-6.3c-2.2,0.7-4.6,1-7,0.8
			c-11.5-0.6-20.4-10.4-19.8-21.9c0.6-11.5,10.4-20.4,21.9-19.8c1.5,0.1,2.9,0.3,4.3,0.7c5.3-14.9,19.8-25.2,36.4-24.4
			c12,0.6,22.3,6.9,28.6,16.1c1.7-0.2,3.4-0.3,5.2-0.2C259.3,425.8,271.1,438.9,270.4,454.2z"/>
		<path fill="#F2F2F2" d="M208.4,483.7c-0.6,0-1.3,0-1.9,0c-6.2-0.3-12.2-2.1-17.4-5.2c-1.9,1.9-4.4,3-7.2,2.8
			c-3.7-0.2-7-2.6-8.3-6.1c-2.1,0.5-4.2,0.7-6.3,0.6c-5.9-0.3-11.3-2.8-15.2-7.2c-3.9-4.4-6-10-5.7-15.8
			c0.6-11.7,10.2-20.9,21.9-20.9c0.4,0,0.7,0,1.1,0c1.2,0.1,2.4,0.2,3.6,0.5c5.6-14.6,19.6-24.3,35.3-24.3c0.6,0,1.3,0,1.9,0
			c11.8,0.6,22.3,6.4,29.1,16c1.6-0.2,3.2-0.2,4.8-0.2c7.7,0.4,14.8,3.7,20,9.5c5.2,5.7,7.8,13.1,7.4,20.8
			c-0.8,15.4-13.4,27.4-28.8,27.4c-0.5,0-1,0-1.5,0c-4.5-0.2-8.9-1.5-12.8-3.7C222.4,481.7,215.5,483.7,208.4,483.7z M188.6,475.5
			l0.8,0.5c5.1,3.2,11.1,5.1,17.2,5.4c7.5,0.4,14.9-1.6,21.2-5.7l0.6-0.4l0.6,0.3c3.7,2.2,8,3.5,12.4,3.7c0.4,0,0.9,0,1.3,0
			c14.2,0,25.9-11.1,26.6-25.4c0.4-7.1-2.1-14-6.9-19.2c-4.8-5.3-11.3-8.4-18.5-8.7c-1.7-0.1-3.4,0-5,0.2l-0.7,0.1l-0.4-0.6
			c-6.3-9.4-16.5-15.1-27.7-15.6c-0.6,0-1.2,0-1.8,0c-15.1,0-28.6,9.5-33.6,23.7l-0.3,0.9l-1-0.3c-1.3-0.4-2.7-0.6-4.1-0.6
			c-0.3,0-0.7,0-1,0c-10.6,0-19.2,8.3-19.8,18.8c-0.3,5.3,1.5,10.4,5.1,14.3c3.6,3.9,8.4,6.2,13.7,6.5c2.3,0.1,4.5-0.2,6.7-0.8
			l1.1-0.3l0.3,1.1c0.7,3.1,3.4,5.3,6.6,5.5c2.4,0.1,4.6-0.9,6-2.7L188.6,475.5z"/>
	</g>
	<path fill="#F2F2F2" d="M194.5,431.9c0,0,0.2-0.2,0.5-0.6c0.3-0.4,0.9-1,1.6-1.7c0.8-0.7,1.7-1.5,2.9-2.3c1.2-0.8,2.6-1.7,4.2-2.4
		c1.6-0.7,3.5-1.4,5.5-1.8c2-0.4,4.2-0.6,6.5-0.6c2.3,0.1,4.6,0.4,6.9,1.1c2.3,0.7,4.6,1.6,6.7,2.8c2.1,1.3,4.1,2.7,5.7,4.5l0.6,0.6
		l0.3,0.3l0.1,0.1l0.1,0.1l0.1,0.2c0.4,0.4,0.7,0.8,1.1,1.3c0.4,0.5,0.7,1,1.1,1.5c0.3,0.5,0.6,1,0.9,1.5c1.2,2,2,4,2.7,6
		c0.1,0.5,0.3,1,0.4,1.5c0.1,0.5,0.2,1,0.3,1.4c0.2,1,0.3,1.9,0.4,2.8c0.1,0.9,0.1,1.7,0.1,2.6c0,0.8-0.1,1.6-0.1,2.3
		c-0.1,1.4-0.4,2.7-0.6,3.6c-0.1,0.5-0.2,0.9-0.4,1.3c-0.1,0.4-0.2,0.7-0.3,0.9c-0.2,0.5-0.3,0.8-0.3,0.8s0-0.3,0.1-0.8
		c0-0.3,0.1-0.6,0.1-1c0-0.4,0-0.8,0-1.3c0-1,0-2.2-0.1-3.6c-0.1-1.4-0.3-2.9-0.7-4.5c-0.7-3.2-2.2-6.8-4.5-10.1
		c-0.3-0.4-0.6-0.8-0.9-1.2c-0.3-0.4-0.6-0.8-0.9-1.2c-0.3-0.4-0.7-0.8-1.1-1.2l-0.1-0.2l-0.1-0.1c0,0,0,0,0,0l0,0l0,0l-0.3-0.3
		l-0.6-0.6c-1.5-1.4-3.2-2.7-5.1-3.8c-1.8-1.1-3.8-1.9-5.8-2.6c-1-0.3-2-0.6-3-0.8c-1-0.2-2-0.4-3-0.4c-2-0.2-4-0.2-5.8,0
		c-1.9,0.2-3.6,0.5-5.2,1c-1.6,0.5-3,1-4.3,1.6c-1.2,0.6-2.3,1.1-3.2,1.6c-0.8,0.5-1.5,0.9-2,1.2
		C194.7,431.7,194.5,431.9,194.5,431.9z"/>
</g>
<g>
	<g>
		<path fill="#FFC732" d="M440.8,40.1c0.7,13.3,12,23.6,25.3,22.9c4.1-0.2,7.9-1.4,11.2-3.4c5.4,3.5,12,5.4,18.9,5.1
			c5.7-0.3,10.9-2,15.4-4.8c1.4,1.8,3.6,2.9,6,2.7c3.2-0.2,5.9-2.5,6.6-5.5c1.9,0.6,4,0.8,6.1,0.7c10-0.5,17.7-9,17.2-19
			c-0.5-10-9-17.7-19-17.2c-1.3,0.1-2.6,0.3-3.8,0.6C520.1,9.2,507.5,0.3,493.1,1c-10.4,0.5-19.4,6-24.8,14c-1.5-0.2-3-0.3-4.5-0.2
			C450.4,15.4,440.1,26.8,440.8,40.1z"/>
		<path fill="#F2F2F2" d="M477.3,60.7c-3.4,1.9-7.2,3-11.1,3.2c-0.4,0-0.8,0-1.3,0c-13.4,0-24.4-10.5-25-23.8
			c-0.3-6.7,2-13.1,6.5-18.1c4.5-5,10.7-7.9,17.4-8.2c1.4-0.1,2.8,0,4.1,0.1c5.9-8.3,15-13.4,25.2-13.9c0.5,0,1.1,0,1.7,0
			c13.6,0,25.8,8.4,30.6,21.1c1-0.2,2.1-0.4,3.1-0.4c0.3,0,0.6,0,1,0c10.2,0,18.6,8,19.1,18.1c0.3,5.1-1.5,10-4.9,13.8
			c-3.4,3.8-8.1,6-13.2,6.3c-1.9,0.1-3.7-0.1-5.5-0.5c-1.1,3-3.9,5.1-7.2,5.3c-2.4,0.1-4.6-0.8-6.2-2.5c-4.6,2.7-9.8,4.3-15.1,4.6
			c-0.5,0-1.1,0-1.7,0C488.5,65.7,482.5,64,477.3,60.7z M512.3,59.3c1.3,1.6,3.2,2.5,5.2,2.4c2.7-0.1,5.1-2.1,5.7-4.8l0.2-1l1,0.3
			c1.9,0.6,3.8,0.8,5.8,0.7c4.6-0.2,8.8-2.2,11.9-5.6c3.1-3.4,4.7-7.8,4.4-12.4c-0.5-9.2-8-16.4-17.2-16.4c-0.3,0-0.6,0-0.9,0
			c-1.2,0.1-2.4,0.2-3.6,0.6l-0.8,0.2l-0.3-0.8c-4.4-12.3-16.1-20.6-29.2-20.6c-0.5,0-1,0-1.6,0c-9.8,0.5-18.6,5.4-24.1,13.6
			l-0.3,0.5l-0.6-0.1c-1.4-0.2-2.9-0.3-4.4-0.2c-6.2,0.3-11.9,3-16,7.6c-4.2,4.6-6.3,10.5-6,16.7c0.6,12.4,10.8,22,23.1,22
			c0.4,0,0.8,0,1.2,0c3.8-0.2,7.5-1.3,10.8-3.3l0.5-0.3l0.5,0.3c5.5,3.5,11.9,5.3,18.4,4.9c5.3-0.3,10.4-1.9,14.9-4.7l0.7-0.5
			L512.3,59.3z"/>
	</g>
	<path fill="#F2F2F2" d="M526.8,52.1c0,0,0-0.3,0.1-0.8c0.1-0.5,0.1-1.2,0.1-2.2c0-1,0-2.1-0.3-3.5c-0.2-1.3-0.5-2.8-1.1-4.4
		c-0.5-1.6-1.3-3.3-2.3-4.9c-1-1.7-2.3-3.3-3.8-4.8c-1.5-1.5-3.2-2.9-5.2-4.1c-1.9-1.2-4-2.1-6.2-2.7c-2.2-0.6-4.5-1-6.7-1.1l-0.8,0
		l-0.4,0l-0.2,0l-0.1,0l-0.2,0c-0.5,0-1,0.1-1.6,0.1c-0.6,0.1-1.1,0.1-1.7,0.2c-0.5,0.1-1.1,0.2-1.6,0.3c-2.1,0.5-4,1.2-5.8,2
		c-0.4,0.2-0.9,0.4-1.3,0.7c-0.4,0.2-0.8,0.5-1.2,0.7c-0.8,0.5-1.5,1-2.1,1.5c-0.7,0.5-1.3,1-1.8,1.6c-0.5,0.5-1,1.1-1.5,1.6
		c-0.9,1-1.6,2-2.1,2.8c-0.3,0.4-0.5,0.8-0.7,1.1c-0.2,0.3-0.3,0.6-0.4,0.8c-0.2,0.5-0.4,0.7-0.4,0.7s0.2-0.2,0.5-0.6
		c0.2-0.2,0.4-0.4,0.6-0.7c0.3-0.3,0.6-0.6,0.9-0.9c0.7-0.7,1.5-1.4,2.5-2.2c1-0.8,2.2-1.6,3.5-2.4c2.7-1.6,6.1-2.9,9.8-3.4
		c0.5-0.1,0.9-0.1,1.4-0.2c0.5,0,0.9-0.1,1.4-0.1c0.5,0,1,0,1.5,0l0.2,0l0.1,0c0.1,0-0.1,0,0,0l0,0l0,0l0.4,0l0.7,0
		c2,0.1,3.9,0.5,5.9,1c1.9,0.5,3.8,1.4,5.5,2.3c0.9,0.5,1.7,1,2.5,1.6c0.8,0.6,1.5,1.2,2.2,1.8c1.4,1.3,2.7,2.6,3.7,4
		c1.1,1.4,1.9,2.8,2.7,4.2c0.7,1.4,1.2,2.7,1.7,3.9c0.4,1.2,0.7,2.3,0.9,3.2c0.2,0.9,0.3,1.6,0.4,2.1
		C526.8,51.8,526.8,52.1,526.8,52.1z"/>
</g>
<g>
	<g>
		<path fill="#FFC732" d="M1,205.5c0.7,13.3,12,23.6,25.3,22.9c4.1-0.2,7.9-1.4,11.2-3.4c5.4,3.5,12,5.4,18.9,5.1
			c5.7-0.3,10.9-2,15.4-4.8c1.4,1.8,3.6,2.9,6,2.7c3.2-0.2,5.9-2.5,6.6-5.5c1.9,0.6,4,0.8,6.1,0.7c10-0.5,17.7-9,17.2-19
			c-0.5-10-9-17.7-19-17.2c-1.3,0.1-2.6,0.3-3.8,0.6c-4.6-12.9-17.2-21.9-31.7-21.2c-10.4,0.5-19.4,6-24.8,14
			c-1.5-0.2-3-0.3-4.5-0.2C10.6,180.9,0.3,192.2,1,205.5z"/>
		<path fill="#F2F2F2" d="M37.5,226.1c-3.4,1.9-7.2,3-11.1,3.2c-0.4,0-0.8,0-1.3,0c-13.4,0-24.4-10.5-25-23.8
			c-0.3-6.7,2-13.1,6.5-18.1c4.5-5,10.7-7.9,17.4-8.2c1.4-0.1,2.8,0,4.1,0.1c5.9-8.3,15-13.4,25.2-13.9c0.5,0,1.1,0,1.7,0
			c13.6,0,25.8,8.4,30.6,21.1c1-0.2,2.1-0.4,3.1-0.4c0.3,0,0.6,0,1,0c10.2,0,18.6,8,19.1,18.1c0.3,5.1-1.5,10-4.9,13.8
			s-8.1,6-13.2,6.3c-1.9,0.1-3.7-0.1-5.5-0.5c-1.1,3-3.9,5.1-7.2,5.3c-2.4,0.1-4.6-0.8-6.2-2.5c-4.6,2.7-9.8,4.3-15.1,4.6
			c-0.5,0-1.1,0-1.7,0C48.7,231.1,42.7,229.4,37.5,226.1z M72.5,224.7c1.3,1.6,3.2,2.5,5.2,2.4c2.7-0.1,5.1-2.1,5.7-4.8l0.2-1l1,0.3
			c1.9,0.6,3.8,0.8,5.8,0.7c4.6-0.2,8.8-2.2,11.9-5.6c3.1-3.4,4.7-7.8,4.4-12.4c-0.5-9.2-8-16.4-17.2-16.4c-0.3,0-0.6,0-0.9,0
			c-1.2,0.1-2.4,0.2-3.6,0.6l-0.8,0.2l-0.3-0.8c-4.4-12.3-16.1-20.6-29.2-20.6c-0.5,0-1,0-1.6,0c-9.8,0.5-18.6,5.4-24.1,13.6
			l-0.3,0.5l-0.6-0.1c-1.4-0.2-2.9-0.3-4.4-0.2c-6.2,0.3-11.9,3-16,7.6c-4.2,4.6-6.3,10.5-6,16.7c0.6,12.4,10.8,22,23.1,22
			c0.4,0,0.8,0,1.2,0c3.8-0.2,7.5-1.3,10.8-3.3l0.5-0.3l0.5,0.3c5.5,3.5,11.9,5.3,18.4,4.9c5.3-0.3,10.4-1.9,14.9-4.7L72,224
			L72.5,224.7z"/>
	</g>
	<path fill="#F2F2F2" d="M87,217.5c0,0,0-0.3,0.1-0.8c0.1-0.5,0.1-1.2,0.1-2.2c0-1,0-2.1-0.3-3.5c-0.2-1.3-0.5-2.8-1.1-4.4
		c-0.5-1.6-1.3-3.3-2.3-4.9c-1-1.7-2.3-3.3-3.8-4.8c-1.5-1.5-3.2-2.9-5.2-4.1c-1.9-1.2-4-2.1-6.2-2.7c-2.2-0.6-4.5-1-6.7-1.1l-0.8,0
		l-0.4,0l-0.2,0l-0.1,0l-0.2,0c-0.5,0-1,0.1-1.6,0.1c-0.6,0.1-1.1,0.1-1.7,0.2c-0.5,0.1-1.1,0.2-1.6,0.3c-2.1,0.5-4,1.2-5.8,2
		c-0.4,0.2-0.9,0.4-1.3,0.7c-0.4,0.2-0.8,0.5-1.2,0.7c-0.8,0.5-1.5,1-2.1,1.5c-0.7,0.5-1.3,1-1.8,1.6c-0.5,0.5-1,1.1-1.5,1.6
		c-0.9,1-1.6,2-2.1,2.8c-0.3,0.4-0.5,0.8-0.7,1.1c-0.2,0.3-0.3,0.6-0.4,0.8c-0.2,0.5-0.4,0.7-0.4,0.7s0.2-0.2,0.5-0.6
		c0.2-0.2,0.4-0.4,0.6-0.7c0.3-0.3,0.6-0.6,0.9-0.9c0.7-0.7,1.5-1.4,2.5-2.2c1-0.8,2.2-1.6,3.5-2.4c2.7-1.6,6.1-2.9,9.8-3.4
		c0.5-0.1,0.9-0.1,1.4-0.2c0.5,0,0.9-0.1,1.4-0.1c0.5,0,1,0,1.5,0l0.2,0l0.1,0c0.1,0-0.1,0,0,0l0,0l0,0l0.4,0l0.7,0
		c2,0.1,3.9,0.5,5.9,1c1.9,0.5,3.8,1.4,5.5,2.3c0.9,0.5,1.7,1,2.5,1.6c0.8,0.6,1.5,1.2,2.2,1.8c1.4,1.3,2.7,2.6,3.7,4
		c1.1,1.4,1.9,2.8,2.7,4.2c0.7,1.4,1.2,2.7,1.7,3.9c0.4,1.2,0.7,2.3,0.9,3.2c0.2,0.9,0.3,1.6,0.4,2.1C87,217.3,87,217.5,87,217.5z"
		/>
</g>
<g>
	<g>
		<path fill="#FFC732" d="M1017.3,235.9c0.9,18,16.2,31.8,34.2,30.9c5.5-0.3,10.7-1.9,15.1-4.6c7.3,4.8,16.2,7.3,25.6,6.9
			c7.6-0.4,14.7-2.7,20.7-6.5c1.9,2.4,4.8,3.9,8.1,3.7c4.4-0.2,7.9-3.3,8.9-7.4c2.6,0.8,5.4,1.1,8.2,1c13.5-0.7,23.9-12.2,23.3-25.7
			c-0.7-13.5-12.2-23.9-25.7-23.3c-1.8,0.1-3.5,0.4-5.1,0.8c-6.2-17.5-23.3-29.6-42.7-28.6c-14,0.7-26.2,8.1-33.5,18.9
			c-2-0.3-4-0.4-6.1-0.3C1030.3,202.7,1016.5,218,1017.3,235.9z"/>
		<path fill="#F2F2F2" d="M1066.6,263.8c-4.6,2.6-9.7,4.1-15,4.4c-0.6,0-1.1,0-1.7,0c-18,0-32.9-14.1-33.8-32.2
			c-0.4-9,2.6-17.7,8.7-24.4c6.1-6.7,14.4-10.6,23.4-11.1c1.9-0.1,3.7,0,5.6,0.2c7.9-11.3,20.3-18.1,34.1-18.8
			c0.7,0,1.5-0.1,2.2-0.1c18.3,0,34.8,11.4,41.4,28.5c1.4-0.3,2.8-0.5,4.2-0.6c0.4,0,0.9,0,1.3,0c13.7,0,25,10.8,25.7,24.5
			c0.3,6.9-2,13.5-6.6,18.6c-4.6,5.1-11,8.1-17.8,8.4c-2.5,0.1-5-0.1-7.4-0.7c-1.5,4-5.3,6.9-9.7,7.1c-3.2,0.2-6.2-1.1-8.4-3.3
			c-6.2,3.7-13.2,5.8-20.4,6.1c-0.7,0-1.5,0.1-2.2,0.1C1081.7,270.5,1073.6,268.2,1066.6,263.8z M1113.9,261.9
			c1.7,2.2,4.3,3.4,7,3.2c3.7-0.2,6.9-2.8,7.7-6.4l0.3-1.3l1.3,0.4c2.5,0.8,5.2,1.1,7.8,0.9c6.2-0.3,11.9-3,16.1-7.6
			c4.2-4.6,6.3-10.5,6-16.7c-0.6-12.4-10.8-22.1-23.2-22.1c-0.4,0-0.8,0-1.2,0c-1.6,0.1-3.3,0.3-4.8,0.7l-1.1,0.3l-0.4-1.1
			c-5.9-16.6-21.7-27.8-39.4-27.8c-0.7,0-1.4,0-2.1,0.1c-13.2,0.7-25.1,7.3-32.5,18.3l-0.4,0.7l-0.8-0.1c-1.9-0.3-3.9-0.4-5.9-0.3
			c-8.4,0.4-16,4.1-21.7,10.3c-5.6,6.2-8.5,14.2-8.1,22.6c0.8,16.7,14.6,29.8,31.2,29.8c0.5,0,1.1,0,1.6,0
			c5.1-0.3,10.1-1.8,14.5-4.4l0.7-0.4l0.7,0.4c7.4,4.8,16,7.1,24.8,6.7c7.1-0.4,14.1-2.5,20.1-6.3l1-0.6L1113.9,261.9z"/>
	</g>
	<path fill="#F2F2F2" d="M1124.3,245.7c0,0,0.1-0.4,0.4-1c0.2-0.7,0.5-1.7,0.8-3c0.3-1.3,0.6-2.9,0.7-4.8c0.1-1.9,0.2-4-0.1-6.4
		c-0.3-2.3-0.8-4.9-1.6-7.4c-0.9-2.6-2.1-5.2-3.7-7.7c-1.6-2.5-3.5-5-5.8-7.1c-2.3-2.2-4.9-4.1-7.7-5.7c-2.8-1.5-5.8-2.8-8.9-3.5
		l-1.1-0.3l-0.6-0.1l-0.2,0l-0.1,0l-0.3,0c-0.7-0.1-1.4-0.2-2.2-0.3c-0.8-0.1-1.6-0.2-2.4-0.2c-0.8,0-1.5-0.1-2.3-0.1
		c-3,0-5.9,0.3-8.5,1c-0.7,0.2-1.3,0.3-1.9,0.5c-0.6,0.2-1.2,0.4-1.8,0.6c-1.2,0.5-2.3,0.9-3.4,1.4c-1.1,0.5-2,1-3,1.6
		c-0.9,0.6-1.7,1.1-2.5,1.7c-1.5,1.1-2.8,2.2-3.7,3.1c-0.5,0.5-0.9,0.9-1.2,1.3c-0.3,0.4-0.6,0.7-0.9,1c-0.5,0.5-0.7,0.8-0.7,0.8
		s0.3-0.2,0.9-0.6c0.3-0.2,0.6-0.5,1.1-0.7c0.4-0.3,0.9-0.6,1.5-0.9c1.1-0.7,2.5-1.4,4.1-2.2c1.6-0.8,3.5-1.5,5.5-2.2
		c4.1-1.3,9.2-2,14.4-1.7c0.7,0.1,1.3,0.1,2,0.2c0.6,0.1,1.3,0.2,1.9,0.3c0.7,0.1,1.4,0.3,2.1,0.5l0.3,0.1l0.1,0c0.1,0-0.1,0,0,0
		l0,0l0.1,0l0.5,0.1l1,0.3c2.6,0.8,5.2,1.9,7.7,3.2c2.5,1.3,4.7,3,6.8,4.8c1,0.9,2,1.9,2.9,2.9c0.9,1,1.7,2.1,2.5,3.1
		c1.5,2.1,2.8,4.4,3.9,6.6c1,2.2,1.8,4.4,2.3,6.5c0.5,2.1,0.9,4.1,1.1,5.9c0.2,1.8,0.2,3.4,0.2,4.7c0,1.3,0,2.3-0.1,3
		C1124.4,245.4,1124.3,245.7,1124.3,245.7z"/>
</g>
<g>
	<g>
		<path fill="#FFC732" d="M771.9,270.9c1.2,24.1,21.7,42.7,45.9,41.5c7.4-0.4,14.3-2.6,20.3-6.1c9.8,6.4,21.7,9.9,34.3,9.2
			c10.2-0.5,19.7-3.7,27.8-8.8c2.5,3.2,6.5,5.2,10.9,5c5.9-0.3,10.7-4.5,12-9.9c3.5,1,7.2,1.5,11.1,1.3
			c18.1-0.9,32.1-16.3,31.2-34.5c-0.9-18.1-16.3-32.1-34.5-31.2c-2.4,0.1-4.6,0.5-6.8,1.1c-8.3-23.5-31.2-39.7-57.4-38.4
			c-18.9,0.9-35.2,10.8-45,25.3c-2.7-0.4-5.4-0.5-8.2-0.4C789.3,226.2,770.7,246.8,771.9,270.9z"/>
		<path fill="#F2F2F2" d="M838,308.3c-6.1,3.5-13.1,5.5-20.2,5.8c-0.8,0-1.5,0.1-2.3,0.1c-24.2,0-44.2-19-45.4-43.2
			c-0.6-12.1,3.6-23.8,11.7-32.8c8.1-9,19.3-14.3,31.4-14.9c2.5-0.1,5,0,7.5,0.2c10.6-15.1,27.2-24.3,45.7-25.2c1,0,2-0.1,3-0.1
			c24.6,0,46.8,15.3,55.5,38.2c1.9-0.4,3.8-0.7,5.7-0.8c0.6,0,1.2,0,1.7,0c18.4,0,33.6,14.4,34.5,32.9c0.5,9.2-2.7,18.1-8.9,24.9
			c-6.2,6.9-14.7,10.9-23.9,11.3c-3.4,0.2-6.7-0.2-10-1c-2,5.4-7.2,9.2-13,9.5c-4.3,0.2-8.4-1.4-11.3-4.5
			c-8.3,4.9-17.7,7.8-27.4,8.2c-1,0-2,0.1-3,0.1C858.3,317.3,847.5,314.2,838,308.3z M901.6,305.7c2.3,2.9,5.7,4.5,9.4,4.3
			c5-0.2,9.2-3.8,10.4-8.6l0.4-1.8l1.7,0.5c3.4,1,6.9,1.4,10.5,1.3c8.3-0.4,16-4,21.6-10.2c5.6-6.2,8.4-14.2,8-22.5
			c-0.8-16.6-14.5-29.6-31.1-29.6c-0.5,0-1.1,0-1.6,0c-2.2,0.1-4.4,0.4-6.5,1l-1.5,0.4l-0.5-1.5c-7.9-22.4-29.1-37.4-52.8-37.4
			c-0.9,0-1.9,0-2.8,0.1c-17.8,0.9-33.7,9.8-43.7,24.6l-0.6,0.9l-1.1-0.1c-2.6-0.4-5.2-0.5-7.9-0.3c-11.2,0.6-21.5,5.4-29.1,13.8
			c-7.5,8.3-11.4,19.1-10.8,30.3c1.1,22.4,19.5,40,41.9,40c0.7,0,1.4,0,2.1-0.1c6.9-0.3,13.6-2.4,19.5-5.9l0.9-0.5l0.9,0.6
			c9.9,6.4,21.5,9.6,33.3,9c9.6-0.5,18.9-3.4,27-8.5l1.3-0.8L901.6,305.7z"/>
	</g>
	<path fill="#F2F2F2" d="M935.5,278.7c0,0,0-0.4,0.1-1.2c0.1-0.8,0.2-1.9,0.2-3.4c0-1.5-0.1-3.3-0.4-5.3c-0.3-2-0.8-4.3-1.7-6.8
		c-0.8-2.4-2-5-3.5-7.5c-1.6-2.5-3.5-5.1-5.8-7.4c-2.3-2.3-5-4.5-7.9-6.2c-3-1.8-6.2-3.2-9.6-4.2c-3.4-1-6.9-1.6-10.3-1.7l-1.3,0
		l-0.6,0l-0.2,0l-0.2,0l-0.3,0c-0.8,0.1-1.6,0.1-2.4,0.2c-0.9,0.1-1.7,0.2-2.6,0.3c-0.8,0.1-1.6,0.3-2.4,0.5
		c-3.2,0.7-6.2,1.8-8.9,3.1c-0.7,0.3-1.3,0.6-2,1c-0.6,0.4-1.2,0.7-1.8,1.1c-1.2,0.8-2.3,1.5-3.3,2.3c-1,0.8-1.9,1.6-2.8,2.4
		c-0.8,0.8-1.6,1.6-2.3,2.4c-1.4,1.5-2.4,3-3.2,4.2c-0.4,0.6-0.7,1.2-1,1.7c-0.3,0.5-0.5,0.9-0.7,1.3c-0.4,0.7-0.5,1.1-0.5,1.1
		s0.3-0.3,0.8-0.9c0.3-0.3,0.6-0.6,1-1.1c0.4-0.4,0.9-0.8,1.3-1.4c1-1,2.3-2.1,3.8-3.4c1.6-1.2,3.3-2.5,5.4-3.7
		c4.1-2.4,9.3-4.4,15-5.3c0.7-0.1,1.4-0.2,2.2-0.3c0.7,0,1.4-0.1,2.1-0.2c0.8,0,1.6,0,2.4,0l0.3,0l0.2,0c0.1,0-0.1,0-0.1,0l0,0
		l0.1,0l0.6,0l1.1,0c3,0.2,6.1,0.7,9,1.6c3,0.8,5.8,2.1,8.4,3.5c1.3,0.7,2.6,1.6,3.8,2.4c1.2,0.9,2.4,1.8,3.4,2.7
		c2.2,1.9,4.1,4,5.7,6.1c1.6,2.1,3,4.3,4.1,6.4c1.1,2.1,1.9,4.2,2.5,6c0.6,1.9,1.1,3.5,1.4,4.9c0.3,1.4,0.5,2.5,0.6,3.3
		C935.4,278.3,935.5,278.7,935.5,278.7z"/>
</g>
</svg>
