<?xml version="1.0" encoding="utf-8"?>
<!-- Generator: Adobe Illustrator 18.0.0, SVG Export Plug-In . SVG Version: 6.00 Build 0)  -->
<!DOCTYPE svg PUBLIC "-//W3C//DTD SVG 1.1//EN" "http://www.w3.org/Graphics/SVG/1.1/DTD/svg11.dtd">
<svg version="1.1" id="Layer_1" xmlns="http://www.w3.org/2000/svg" xmlns:xlink="http://www.w3.org/1999/xlink" x="0px" y="0px"
	 viewBox="0 0 486.7 294.2" enable-background="new 0 0 486.7 294.2" xml:space="preserve">
<g>
	<g>
		<path fill="#FFC732" d="M482.4,179.5c-3,59.6-53.7,105.6-113.3,102.6c-18.3-0.9-35.4-6.3-50.1-15.2
			c-24.3,15.8-53.7,24.4-84.8,22.8c-25.3-1.3-48.8-9-68.8-21.6c-6.2,7.9-16,12.8-26.8,12.3c-14.5-0.7-26.3-11-29.6-24.5
			c-8.6,2.6-17.8,3.8-27.3,3.3C36.6,257,2.1,218.8,4.3,174c2.2-44.8,40.4-79.4,85.2-77.2c5.8,0.3,11.5,1.2,16.9,2.6
			c20.5-58,77.2-98.2,141.8-95c46.6,2.3,86.9,26.7,111.2,62.6c6.6-0.9,13.4-1.2,20.3-0.9C439.4,69.1,485.3,119.8,482.4,179.5z"/>
		<path fill="#F2F2F2" d="M241.2,294.2c-2.5,0-4.9-0.1-7.4-0.2c-23.9-1.2-47.3-8.2-67.8-20.4c-7.2,7.5-17.2,11.5-27.9,11
			c-14.5-0.7-27.2-10.2-32.2-23.6c-8,2-16.3,2.8-24.7,2.4c-22.8-1.1-43.8-11.1-59.2-28s-23.2-38.8-22-61.6
			c2.3-45.6,39.8-81.3,85.4-81.3c1.4,0,2.9,0,4.3,0.1c4.7,0.2,9.4,0.9,14,1.9C125.4,37.8,180.1,0,241,0c2.5,0,4.9,0.1,7.4,0.2
			c45.7,2.3,86.8,24.9,113,62.3c6.1-0.7,12.3-0.9,18.5-0.6c30,1.5,57.6,14.6,77.7,36.8c20.1,22.2,30.4,51,28.9,81
			c-3,59.9-52.2,106.8-112.1,106.8c-1.9,0-3.8,0-5.7-0.1c-17.5-0.9-34.7-5.9-49.8-14.4C295.6,286.5,268.8,294.2,241.2,294.2z
			 M164.3,262.5l3.2,2c20,12.6,43.1,19.8,66.8,21c29.2,1.4,57.9-6.3,82.3-22.2l2.2-1.4l2.3,1.4c14.5,8.7,31.1,13.7,48.2,14.6
			c1.7,0.1,3.5,0.1,5.2,0.1c55.4,0,100.9-43.4,103.7-98.7c1.4-27.7-8.1-54.3-26.7-74.9c-18.6-20.6-44.1-32.7-71.9-34
			c-6.5-0.3-13.1,0-19.5,0.9l-2.6,0.4l-1.5-2.2c-24.7-36.4-64-58.6-107.9-60.8c-2.3-0.1-4.7-0.2-7-0.2
			c-58.6,0-111.1,37.1-130.6,92.4l-1.3,3.7l-3.8-1c-5.2-1.4-10.6-2.2-16-2.5c-1.3-0.1-2.6-0.1-3.9-0.1c-41.1,0-74.9,32.2-76.9,73.3
			c-1,20.6,6,40.3,19.8,55.6C42.2,245,61.1,254,81.7,255c8.8,0.4,17.5-0.6,25.9-3.1l4.3-1.3l1,4.3c2.9,11.9,13.4,20.7,25.7,21.3
			c9.1,0.5,17.7-3.5,23.3-10.7L164.3,262.5z"/>
	</g>
</g>
</svg>
