<?xml version="1.0" encoding="utf-8"?>
<!-- Generator: Adobe Illustrator 18.0.0, SVG Export Plug-In . SVG Version: 6.00 Build 0)  -->
<!DOCTYPE svg PUBLIC "-//W3C//DTD SVG 1.1//EN" "http://www.w3.org/Graphics/SVG/1.1/DTD/svg11.dtd">
<svg version="1.1" id="Layer_1" xmlns="http://www.w3.org/2000/svg" xmlns:xlink="http://www.w3.org/1999/xlink" x="0px" y="0px"
	 viewBox="0 0 943.1 741.7" enable-background="new 0 0 943.1 741.7" xml:space="preserve">
<g>
	<g>
		<path fill="#F2F2F2" d="M183.9,30.3l39.4-27.2c23,60.7,88.9,94.6,146,154.2l-85.8,31.5L183.9,30.3z"/>
		<path fill="#333333" d="M282.6,191.2L181.2,29.7L224.3,0l0.9,2.4c14.9,39.3,47.6,66.9,85.4,98.8c19.9,16.8,40.4,34.1,60.2,54.7
			l2.1,2.2L282.6,191.2z M186.6,30.9l97.7,155.5l81.4-29.9c-18.9-19.5-38.6-36.1-57.7-52.2c-37.5-31.6-70-59.1-85.7-98.1L186.6,30.9
			z"/>
	</g>
	<g>
		<path fill="#F2F2F2" d="M199.3,305.5c-20.5-98.4-36.4-194.9-15.4-275.2l38.6-27.2c20.8,71.9,67.6,115.1,120.8,151.2L199.3,305.5z"
			/>
		<path fill="#333333" d="M198.9,305.6c-1.4-5.6-2.9-11.2-4.3-16.9c-1.4-5.6-2.7-11.3-4-16.9c-1.3-5.7-2.5-11.3-3.7-17
			c-1.3-5.7-2.3-11.4-3.4-17.1c-1.1-5.7-2.1-11.4-3.1-17.1c-1-5.7-1.9-11.5-2.8-17.2c-0.4-2.9-0.9-5.7-1.3-8.6l-1.1-8.7
			c-0.4-2.9-0.8-5.8-1.1-8.7l-0.9-8.7c-0.3-2.9-0.6-5.8-0.9-8.7l-0.6-8.7c-0.2-2.9-0.4-5.8-0.5-8.7c-0.1-2.9-0.2-5.8-0.3-8.7
			c-0.1-2.9-0.2-5.8-0.2-8.7l0.1-8.7l0.1-4.4l0-2.2l0.1-2.2l0.5-8.7c0.2-5.8,1-11.6,1.5-17.4l0.4-4.3l0.6-4.3l1.3-8.7
			c0.4-2.9,1-5.7,1.5-8.6l1.6-8.6c0.2-1.4,0.6-2.8,1-4.3l1-4.2c0.7-2.8,1.4-5.7,2-8.5l0.1-0.4l0.4-0.3l9.7-6.7
			c3.2-2.2,6.4-4.5,9.6-6.8l9.6-6.8l9.6-6.9l1.6-1.1l0.6,1.9c1.3,3.9,2.6,7.8,3.9,11.7l0.5,1.5l0.6,1.4l1.1,2.8l2.3,5.7
			c0.4,0.9,0.7,1.9,1.2,2.8l1.3,2.8l2.6,5.5l1.3,2.8l1.5,2.7l2.9,5.4l1.5,2.7c0.5,0.9,1.1,1.7,1.6,2.6l3.2,5.2l1.6,2.6
			c0.5,0.9,1.2,1.7,1.7,2.5l3.5,5l1.7,2.5c0.6,0.8,1.2,1.6,1.8,2.4l3.7,4.8l1.9,2.4c0.6,0.8,1.3,1.6,2,2.3l3.9,4.7l2,2.3l2.1,2.2
			l4.1,4.5c0.7,0.7,1.4,1.5,2.1,2.2l2.2,2.2l4.3,4.3c1.4,1.5,2.9,2.8,4.4,4.2l4.5,4.1c1.5,1.4,3.1,2.7,4.6,4l4.7,4
			c3.1,2.6,6.4,5.1,9.5,7.7c3.2,2.5,6.5,4.9,9.8,7.4l10,7.1l10.1,7l4.1,2.9l-3.4,3.6l-9,9.5c-3,3.1-6,6.3-9,9.4l-18.1,18.8l-9.1,9.4
			l-9.1,9.3c-6.1,6.2-12.2,12.5-18.3,18.6l-18.4,18.5c-6.2,6.1-12.3,12.3-18.5,18.5c-6.2,6.1-12.4,12.3-18.6,18.3l-9.3,9.1
			c-3.1,3.1-6.3,6.1-9.4,9.1l-0.5,0.5L198.9,305.6z M199.5,304.6c2.7-3.1,5.3-6.2,8.1-9.2l8.7-9.8c5.8-6.5,11.6-13,17.4-19.5
			c5.8-6.5,11.7-12.9,17.5-19.3l17.6-19.3c5.9-6.4,11.8-12.8,17.7-19.2l8.9-9.6l8.9-9.5l17.9-19c3-3.2,6-6.3,9-9.5l9-9.4l0.7,6.5
			l-10.2-7.1l-10-7.4c-3.3-2.6-6.6-5.1-9.8-7.7c-3.2-2.7-6.5-5.3-9.6-8l-4.7-4.2c-1.6-1.4-3.1-2.7-4.6-4.2l-4.5-4.3
			c-1.5-1.4-3-2.9-4.5-4.4l-4.4-4.5l-2.2-2.3c-0.7-0.8-1.4-1.6-2.1-2.3l-4.1-4.7l-2.1-2.4l-2-2.4l-3.9-4.9c-0.6-0.8-1.3-1.6-1.9-2.5
			l-1.8-2.6l-3.6-5.1c-0.6-0.9-1.2-1.7-1.8-2.6l-1.7-2.6l-3.3-5.3c-0.5-0.9-1.1-1.7-1.6-2.7l-1.5-2.7l-3-5.5c-0.5-0.9-1-1.8-1.5-2.7
			l-1.4-2.8l-2.7-5.6l-1.4-2.8l-1.2-2.9l-2.4-5.8l-1.2-2.9c-0.4-1-0.7-2-1.1-2.9l-2.1-5.9l-1.1-2.9l-0.5-1.5l-0.5-1.5
			c-1.2-4-2.4-7.9-3.6-11.9l2.2,0.8l-9.7,6.7l-9.7,6.8c-3.2,2.3-6.5,4.5-9.7,6.8l-9.6,6.9l0.5-0.7c-0.6,2.8-1.3,5.6-1.9,8.4
			l-0.9,4.2c-0.3,1.4-0.6,2.8-0.8,4.2l-1.3,8.5c-0.4,2.8-0.9,5.7-1.1,8.6l-0.8,8.6l-0.4,4.3l-0.2,4.3c-0.2,5.8-0.6,11.5-0.6,17.3
			l-0.1,8.6l0,2.2l0.1,2.2l0.1,4.3l0.2,8.6c0,2.9,0.3,5.7,0.4,8.6c0.1,2.9,0.3,5.7,0.4,8.6c0.1,2.9,0.4,5.7,0.6,8.6l0.6,8.6
			c0.2,2.9,0.5,5.7,0.8,8.6l0.8,8.6c0.3,2.9,0.6,5.7,0.9,8.6c0.7,5.7,1.3,11.5,2,17.2c0.7,5.7,1.4,11.5,2.3,17.2
			c0.9,5.7,1.5,11.5,2.5,17.2l2.6,17.1l2.7,17.1l2.8,17.2C197.9,293.7,198.7,299.1,199.5,304.6z"/>
	</g>
	<g>
		<g>
			<path fill="#F2F2F2" d="M933.8,393.2l9.3,19.8C691.2,554.1,674.4,538.8,582.6,537.8l-9.6-24.9L933.8,393.2z"/>
			<path fill="#333333" d="M934,393.1c3.3,6.5,6.5,13.1,9.7,19.6l0.3,0.5l-0.5,0.3l-21,12.1l-21.1,11.9L880,449.4l-21.4,11.6
				c-7.2,3.8-14.3,7.6-21.5,11.3c-7.2,3.7-14.4,7.4-21.6,11c-3.6,1.8-7.2,3.6-10.9,5.4l-10.9,5.3l-11,5.1c-3.7,1.7-7.4,3.3-11.1,4.9
				c-3.7,1.7-7.4,3.2-11.2,4.8l-5.6,2.4l-5.6,2.3l-5.6,2.3l-5.7,2.2l-5.7,2.1l-5.7,2c-7.6,2.7-15.4,5.1-23.2,7.4l-5.9,1.6l-2.9,0.8
				l-3,0.7c-2,0.4-3.9,1-5.9,1.4l-6,1.2c-8,1.5-16,2.6-24.1,3.4c-8.1,0.8-16.2,1-24.3,1.1c-16.2,0.1-32.4-0.5-48.6-0.5l-0.7,0
				l-0.3-0.7l-9.8-24.8l-0.5-1.3l1.4-0.5l45-15.3l45-15.2l45-15.1l22.5-7.5l22.6-7.4l22.6-7.4l22.6-7.3l45.2-14.7l45.3-14.5
				l22.7-7.2l22.8-7.1L934,393.1z M933.7,393.4l-22.2,7.8l-22.4,7.8l-44.9,15.5l-45,15.3l-22.5,7.6l-22.5,7.6l-22.5,7.5L709,470
				l-45.1,14.8l-45.2,14.8l-45.2,14.6l0.9-1.8l9.3,25l-1-0.7c8.1,0.2,16.2,0.4,24.3,0.7c8.1,0.3,16.2,0.6,24.2,0.6
				c8.1,0,16.2-0.2,24.2-0.9c8-0.7,16-1.8,24-3.4c7.9-1.5,15.7-3.6,23.5-5.9c7.7-2.4,15.4-4.9,22.9-7.8l5.7-2.1l5.6-2.3l5.6-2.3
				l5.6-2.4l5.6-2.4l5.5-2.5c3.7-1.6,7.4-3.3,11-5c7.3-3.4,14.6-6.9,21.9-10.4c7.2-3.6,14.5-7,21.7-10.7l10.8-5.4l10.8-5.5
				c7.2-3.6,14.4-7.5,21.6-11.1l21.5-11.3l21.4-11.4l42.8-23l-0.3,0.8C939.6,406.6,936.6,400,933.7,393.4z"/>
		</g>
		<g>
			<path fill="#F2F2F2" d="M680.9,425.8L573,512.9c104.5,9.4,241.3-38.4,360.8-119.8l-6.2-13.2C831.7,408.4,759.8,423.2,680.9,425.8
				z"/>
			<path fill="#333333" d="M681,426c-8.8,7.5-17.7,14.8-26.5,22.3c-4.4,3.7-8.9,7.4-13.3,11.1l-13.4,11l-13.4,11l-13.4,11
				l-26.9,21.9l-0.9-3.1l6,0.4c2,0.1,4,0.3,6,0.3c4,0.1,8,0.3,12,0.3l6,0l6-0.1c4-0.1,8-0.3,12-0.5l3-0.2l3-0.2l6-0.5
				c4-0.3,8-0.8,12-1.2c4-0.5,8-1,12-1.5c4-0.6,8-1.2,11.9-1.8c7.9-1.4,15.8-2.9,23.7-4.6c7.9-1.7,15.7-3.6,23.5-5.7
				c7.8-2.1,15.5-4.4,23.2-6.8c7.7-2.4,15.3-5.1,22.8-7.9c7.6-2.8,15.1-5.7,22.5-8.7c3.7-1.5,7.4-3.1,11.1-4.7l11-4.9l11-5.1
				l10.9-5.3l10.8-5.5c3.6-1.8,7.1-3.7,10.7-5.6c7.1-3.8,14.2-7.6,21.1-11.6c3.5-2,7-4,10.4-6.1l5.2-3.1l5.2-3.1
				c6.9-4.1,13.7-8.4,20.5-12.8c3.4-2.2,6.7-4.4,10.1-6.6l10-6.8L932,394l-6.3-13.2l2.5,1.1l-15.1,4.5c-5,1.5-10.1,2.9-15.1,4.3
				c-5,1.5-10.1,2.8-15.2,4.2c-5.1,1.4-10.1,2.7-15.2,4l-7.6,1.9l-7.7,1.9l-7.7,1.9l-7.7,1.8l-7.7,1.7l-7.7,1.6l-7.7,1.6l-7.7,1.5
				l-7.7,1.5l-7.8,1.3l-7.8,1.3l-7.8,1.2c-5.2,0.9-10.4,1.5-15.6,2.2c-5.2,0.7-10.4,1.3-15.6,1.8c-5.2,0.6-10.5,1-15.7,1.5
				c-5.2,0.5-10.5,0.8-15.7,1.1c-5.2,0.3-10.5,0.5-15.7,0.8C691.4,425.8,686.2,425.8,681,426z M680.8,425.6l15.8-1
				c5.2-0.4,10.4-0.8,15.7-1.3l7.8-0.8c2.6-0.3,5.2-0.5,7.8-0.8c5.2-0.6,10.4-1.1,15.6-1.9c5.2-0.7,10.4-1.4,15.5-2.2l7.8-1.2
				c2.6-0.4,5.2-0.9,7.7-1.3l7.7-1.3l7.7-1.4l7.7-1.5l7.7-1.6l7.7-1.6l7.7-1.7l7.7-1.7l7.6-1.8l7.6-1.8l7.6-1.9l7.6-1.9l7.6-2
				c5.1-1.3,10.1-2.7,15.2-4.1c5.1-1.4,10.1-2.7,15.1-4.2c5-1.4,10.1-2.8,15.1-4.3L927,378l1.7-0.5l0.7,1.6l6.2,13.2l0.7,1.6
				l-1.4,0.9l-10.1,6.7c-3.4,2.2-6.8,4.4-10.2,6.6c-6.8,4.3-13.7,8.6-20.7,12.7l-5.2,3.1l-5.3,3c-3.5,2-7,4-10.6,5.9
				c-3.5,1.9-7.1,3.9-10.7,5.8c-3.6,1.9-7.1,3.8-10.7,5.6c-3.6,1.8-7.2,3.6-10.8,5.4l-10.9,5.2l-11,5.1l-11.1,4.9l-11.2,4.7
				c-3.7,1.6-7.5,3-11.2,4.5c-7.5,3-15,5.9-22.6,8.6c-7.6,2.7-15.2,5.3-22.9,7.8c-3.8,1.3-7.7,2.4-11.5,3.6
				c-3.8,1.2-7.7,2.3-11.6,3.4c-7.8,2.2-15.6,4.3-23.4,6.2c-7.8,1.9-15.7,3.6-23.7,5.2c-4,0.8-8,1.4-11.9,2.1c-4,0.6-8,1.2-12,1.8
				c-4,0.5-8,1-12.1,1.4l-6,0.5l-3,0.3l-3,0.2c-4,0.2-8.1,0.5-12.1,0.6l-6.1,0.2l-6.1,0c-8.1,0-16.2-0.5-24.3-1.2l-4.4-0.3l3.4-2.7
				l27.1-21.7l13.6-10.8l13.6-10.8l13.6-10.8c4.5-3.6,9.1-7.2,13.6-10.7C662.5,439.8,671.6,432.6,680.8,425.6L680.8,425.6z"/>
		</g>
	</g>
	<g>
		<circle fill="#F2F2F2" cx="488.8" cy="407.7" r="330.7"/>
		<path fill="#333333" d="M819.9,407.7c0,0,0,2-0.1,6c0,2-0.1,4.4-0.2,7.3c-0.1,1.4,0,3-0.2,4.7c-0.1,1.7-0.3,3.5-0.4,5.4
			c-1,15.2-3.4,37.5-10.8,65.1c-1,3.4-1.9,7-2.9,10.6c-1.2,3.6-2.4,7.2-3.6,10.9c-1.1,3.8-2.6,7.5-4.1,11.3
			c-1.5,3.8-2.9,7.8-4.7,11.7c-6.6,15.8-15.2,32.4-26,49.2c-10.7,16.7-23.6,33.7-39,49.9c-7.7,8.1-16,16-24.9,23.7
			c-2.2,2-4.5,3.8-6.8,5.6c-2.3,1.9-4.7,3.7-7,5.6c-2.4,1.8-4.9,3.5-7.3,5.3c-1.2,0.9-2.5,1.8-3.7,2.7c-1.2,0.9-2.5,1.8-3.8,2.6
			c-10.2,6.8-20.9,13.5-32.3,19.3c-2.8,1.5-5.7,2.9-8.6,4.4c-2.9,1.3-5.9,2.7-8.9,4c-5.9,2.8-12.1,5.1-18.2,7.6l-2.3,0.9
			c-0.8,0.3-1.6,0.5-2.4,0.8c-1.6,0.5-3.2,1.1-4.7,1.6c-3.2,1.1-6.3,2.2-9.6,3.2c-3.2,0.9-6.5,1.8-9.8,2.8c-1.6,0.5-3.3,0.9-4.9,1.4
			c-1.7,0.4-3.3,0.8-5,1.2c-3.3,0.8-6.7,1.5-10.1,2.3c-1.7,0.4-3.4,0.7-5.1,1c-1.7,0.3-3.4,0.6-5.1,0.9c-1.7,0.3-3.4,0.6-5.1,0.9
			l-2.6,0.5l-2.6,0.3c-3.5,0.4-7,0.9-10.5,1.3c-3.5,0.5-7,0.7-10.6,0.9c-3.5,0.2-7.1,0.5-10.7,0.7c-3.6,0.1-7.2,0.1-10.7,0.2
			c-1.8,0-3.6,0.1-5.4,0.1c-0.1,0-0.6,0-0.8,0l-0.7,0l-1.3,0l-2.7-0.1c-3.6-0.1-7.2-0.2-10.8-0.3l-1.3,0l-1.4-0.1l-2.7-0.2
			c-1.8-0.2-3.7-0.3-5.5-0.5c-7.4-0.5-14.6-1.6-21.9-2.6c-14.6-2.4-29.2-5.4-43.6-9.9c-3.6-1.1-7.3-2.1-10.8-3.4
			c-3.6-1.2-7.2-2.5-10.7-3.7c-3.5-1.4-7.1-2.8-10.6-4.2c-1.8-0.7-3.5-1.4-5.3-2.2c-1.7-0.8-3.5-1.6-5.2-2.4
			c-27.9-12.6-54.4-29.5-78.4-49.8c-3-2.6-5.9-5.2-8.9-7.8l-1.1-1l-1.1-1l-2.1-2.1l-4.3-4.1c-1.4-1.4-2.9-2.7-4.3-4.1l-4.1-4.3
			l-4.1-4.3c-1.4-1.4-2.7-2.9-4-4.4c-2.6-3-5.2-6-7.8-9c-1.3-1.5-2.5-3.1-3.7-4.7l-3.7-4.7c-1.2-1.6-2.5-3.1-3.7-4.7l-3.5-4.9
			l-3.5-4.9c-1.2-1.6-2.3-3.3-3.4-5c-2.2-3.4-4.3-6.7-6.5-10.1l-0.8-1.3l-0.8-1.3l-1.5-2.6l-3-5.2c-1-1.7-2-3.5-3-5.2l-2.8-5.4
			l-2.8-5.4l-1.4-2.7c-0.5-0.9-0.8-1.8-1.3-2.7c-1.7-3.7-3.4-7.3-5-11c-0.4-0.9-0.8-1.8-1.2-2.8l-1.1-2.8l-2.3-5.6
			c-0.7-1.9-1.5-3.8-2.2-5.7l-2-5.8l-2-5.8l-1-2.9c-0.3-1-0.6-1.9-0.9-2.9c-1.1-3.9-2.3-7.8-3.4-11.7c-0.6-1.9-1-3.9-1.5-5.9
			l-1.4-5.9l-1.4-5.9l-1.1-6l-1.1-6c-0.4-2-0.8-4-1-6l-1.6-12.1c-0.1-1-0.3-2-0.4-3l-0.3-3l-0.5-6.1l-0.5-6.1c-0.1-1-0.1-2-0.2-3.1
			l-0.1-3.1l-0.4-12.3l0.2-12.2l0.1-3c0-1,0-2,0.1-3.1l0.4-6.1l0.4-6.1l0.2-3.1c0.1-1,0.2-2,0.3-3l1.4-12.2c0.2-2,0.6-4,0.9-6.1l1-6
			l1-6l1.3-6l1.3-6c0.5-2,0.8-4,1.4-6c1.1-3.9,2.2-7.9,3.2-11.8c0.3-1,0.5-2,0.8-2.9l1-2.9l1.9-5.8l1.9-5.8c0.7-1.9,1.5-3.8,2.2-5.7
			l2.2-5.7l1.1-2.8c0.4-1,0.7-1.9,1.2-2.8c1.7-3.7,3.3-7.4,5-11.1c0.4-0.9,0.8-1.9,1.3-2.8l1.4-2.7l2.8-5.4l2.8-5.4
			c1-1.8,2-3.5,3-5.3l3-5.3l1.5-2.6l0.8-1.3l0.8-1.3c2.2-3.4,4.3-6.8,6.5-10.2c1.1-1.7,2.2-3.4,3.4-5l3.5-4.9l3.5-4.9
			c1.2-1.6,2.5-3.2,3.7-4.8l3.7-4.8c1.3-1.6,2.4-3.2,3.8-4.7c2.6-3,5.2-6.1,7.8-9.1c1.3-1.5,2.7-3,4-4.4l4.1-4.4l4.1-4.3
			c1.4-1.4,2.9-2.8,4.3-4.2l4.3-4.1l2.2-2.1l1.1-1l1.1-1c3-2.6,6-5.2,9-7.8c24.2-20.4,51-37.2,79.2-49.7c1.8-0.8,3.5-1.6,5.3-2.4
			c1.8-0.7,3.6-1.4,5.4-2.1c3.6-1.4,7.1-2.9,10.7-4.2c7.2-2.4,14.4-5.1,21.7-7c14.5-4.4,29.3-7.2,43.9-9.5c7.4-0.9,14.7-2,22-2.4
			c1.8-0.1,3.7-0.3,5.5-0.4l2.7-0.2l1.4-0.1l1.4,0c3.6-0.1,7.3-0.2,10.9-0.3l2.7-0.1l1.4,0l0.7,0c0.2,0,0.7,0,0.8,0
			c1.8,0,3.6,0.1,5.3,0.1c3.6,0.1,7.1,0.2,10.6,0.3c3.6,0.2,7.2,0.5,10.7,0.8c3.6,0.3,7.1,0.5,10.6,1c3.5,0.5,7,0.9,10.5,1.4
			l2.6,0.3l2.6,0.5c1.7,0.3,3.4,0.6,5.1,0.9c1.7,0.3,3.4,0.6,5.1,0.9c1.7,0.3,3.4,0.6,5.1,1c3.4,0.8,6.7,1.6,10.1,2.3
			c1.7,0.4,3.3,0.8,5,1.2c1.6,0.5,3.3,0.9,4.9,1.4c3.3,0.9,6.5,1.9,9.8,2.8c3.2,1,6.4,2.2,9.6,3.2c1.6,0.5,3.2,1.1,4.7,1.6
			c0.8,0.3,1.6,0.5,2.4,0.8l2.3,0.9c6.1,2.5,12.3,4.8,18.2,7.6c3,1.4,5.9,2.7,8.9,4.1c2.9,1.5,5.7,3,8.6,4.4
			c11.4,5.8,22,12.6,32.3,19.4c1.3,0.8,2.5,1.8,3.8,2.6c1.2,0.9,2.5,1.8,3.7,2.7c2.5,1.8,4.9,3.5,7.3,5.4c2.3,1.9,4.7,3.8,7,5.6
			c2.3,1.9,4.7,3.7,6.8,5.7c8.9,7.7,17.2,15.6,24.9,23.8c15.4,16.2,28.3,33.2,39,49.9c10.7,16.8,19.3,33.3,25.9,49.2
			c1.8,3.9,3.2,7.9,4.7,11.7c1.5,3.8,3,7.6,4.1,11.4c1.2,3.7,2.4,7.4,3.6,10.9c1,3.6,2,7.1,2.9,10.6c7.4,27.5,9.9,49.9,10.8,65.1
			c0.1,1.9,0.3,3.7,0.4,5.4c0.1,1.7,0.1,3.2,0.2,4.7c0.1,2.9,0.1,5.3,0.2,7.3C819.8,405.6,819.9,407.7,819.9,407.7L819.9,407.7z
			 M819.1,407.7c0,0-0.1-2-0.2-6c-0.1-2-0.1-4.4-0.2-7.3c-0.1-1.4,0-3-0.2-4.7c-0.1-1.7-0.3-3.5-0.4-5.3c-0.1-1.9-0.3-3.9-0.5-6
			c-0.2-2.1-0.3-4.3-0.6-6.7c-0.6-4.6-1.2-9.7-2-15.1c-0.5-2.7-1-5.5-1.5-8.4c-0.3-1.5-0.5-2.9-0.8-4.4c-0.1-0.8-0.3-1.5-0.4-2.3
			c-0.1-0.8-0.4-1.5-0.5-2.3c-0.7-3.1-1.5-6.2-2.3-9.5c-0.4-1.6-0.8-3.3-1.2-5c-0.5-1.7-1-3.3-1.5-5c-1-3.4-2-6.9-3.1-10.5
			c-1.2-3.5-2.5-7.1-3.7-10.8c-1.2-3.7-2.8-7.4-4.3-11.2c-1.6-3.8-3-7.7-4.9-11.5c-1.8-3.9-3.6-7.8-5.5-11.8
			c-2.1-3.9-4.2-7.9-6.3-12c-2.2-4-4.7-8-7.1-12.1c-0.6-1-1.2-2.1-1.8-3.1c-0.7-1-1.3-2-2-3c-1.3-2-2.7-4.1-4-6.1
			c-11-16.3-24.2-32.7-39.7-48.3c-15.5-15.6-33.4-30.5-53.6-43.7c-10.1-6.5-20.7-12.8-31.9-18.4c-2.8-1.4-5.6-2.8-8.4-4.2
			c-2.9-1.3-5.8-2.6-8.7-3.9c-5.8-2.7-11.8-4.9-17.9-7.2l-2.3-0.9c-0.8-0.3-1.5-0.5-2.3-0.8c-1.5-0.5-3.1-1-4.6-1.5
			c-3.1-1-6.2-2.1-9.4-3.1c-3.2-0.9-6.4-1.8-9.6-2.7c-1.6-0.4-3.2-0.9-4.8-1.4c-1.6-0.4-3.3-0.8-4.9-1.1c-3.3-0.7-6.5-1.5-9.8-2.2
			c-1.6-0.4-3.3-0.6-5-1c-1.7-0.3-3.3-0.6-5-0.9c-1.7-0.3-3.3-0.6-5-0.9l-2.5-0.4l-2.5-0.3c-3.4-0.4-6.8-0.8-10.2-1.3
			c-3.4-0.5-6.8-0.7-10.3-0.9c-3.4-0.2-6.9-0.5-10.4-0.7c-3.5-0.1-7.1-0.2-10.6-0.2c-1.8,0-3.6-0.1-5.3-0.1c-0.3,0-0.3,0-0.6,0
			l-0.7,0l-1.3,0l-2.6,0.1c-3.5,0.1-7.1,0.2-10.6,0.3l-1.3,0l-1.3,0.1L468,82c-1.8,0.1-3.6,0.3-5.3,0.4c-7.1,0.4-14.3,1.5-21.4,2.3
			c-14.3,2.2-28.7,5-42.8,9.3c-3.5,1-7.1,2-10.6,3.2c-3.5,1.2-7,2.4-10.6,3.5c-3.5,1.3-7,2.7-10.4,4c-1.7,0.7-3.5,1.4-5.2,2
			c-1.7,0.8-3.4,1.5-5.1,2.3c-27.5,12-53.8,28.3-77.6,48.1c-2.9,2.5-5.9,5.1-8.8,7.6l-1.1,1l-1.1,1l-2.1,2l-4.2,4
			c-1.4,1.3-2.8,2.7-4.2,4l-4.1,4.2l-4.1,4.2c-1.4,1.4-2.7,2.8-4,4.3c-2.6,3-5.1,5.9-7.7,8.9c-1.3,1.5-2.5,3-3.7,4.6l-3.7,4.6
			c-1.2,1.5-2.5,3.1-3.7,4.6l-3.4,4.8l-3.5,4.8c-1.2,1.6-2.3,3.2-3.4,4.9c-2.1,3.3-4.3,6.6-6.5,10l-0.8,1.2l-0.7,1.3l-1.5,2.6
			l-3,5.1c-1,1.7-2,3.4-3,5.2l-2.7,5.3l-2.7,5.3l-1.4,2.7c-0.5,0.9-0.8,1.8-1.3,2.7c-1.7,3.6-3.3,7.2-5,10.9
			c-0.4,0.9-0.8,1.8-1.2,2.7l-1.1,2.8l-2.2,5.6c-0.7,1.9-1.5,3.7-2.2,5.6l-2,5.7l-2,5.7l-1,2.8c-0.3,0.9-0.6,1.9-0.9,2.9
			c-1.1,3.8-2.3,7.7-3.4,11.5c-0.6,1.9-1,3.9-1.5,5.8l-1.4,5.9l-1.4,5.9l-1.1,5.9l-1.1,5.9c-0.4,2-0.8,3.9-1,5.9l-1.6,12
			c-0.1,1-0.3,2-0.4,3l-0.3,3l-0.5,6l-0.5,6c-0.1,1-0.1,2-0.2,3l-0.1,3l-0.4,12.2l0.2,12l0.1,3c0,1,0,2,0.1,3l0.4,6l0.4,6l0.2,3
			c0.1,1,0.2,2,0.3,3l1.4,12c0.2,2,0.6,4,0.9,6l1,6l1,6l1.3,5.9l1.3,5.9c0.5,2,0.8,3.9,1.4,5.9c1.1,3.9,2.1,7.8,3.2,11.6
			c0.3,1,0.5,1.9,0.8,2.9l1,2.9l1.9,5.7l1.9,5.7c0.7,1.9,1.4,3.7,2.2,5.6l2.2,5.6l1.1,2.8c0.4,0.9,0.7,1.9,1.2,2.8
			c1.6,3.7,3.3,7.3,4.9,11c0.4,0.9,0.8,1.8,1.2,2.7l1.4,2.7l2.7,5.3l2.7,5.3c0.9,1.8,2,3.5,3,5.2l3,5.2l1.5,2.6l0.7,1.3l0.8,1.3
			c2.1,3.4,4.3,6.7,6.4,10.1c1,1.7,2.2,3.3,3.4,4.9l3.4,4.9l3.5,4.9c1.2,1.6,2.4,3.1,3.7,4.7l3.7,4.7c1.2,1.5,2.4,3.1,3.7,4.6
			c2.6,3,5.2,6,7.8,8.9c10.6,11.6,21.8,22.7,33.9,32.6c24,19.9,50.6,36.1,78.3,48c1.7,0.8,3.5,1.5,5.2,2.3c1.8,0.7,3.5,1.4,5.3,2
			c3.5,1.3,7,2.7,10.5,4c7.1,2.3,14.1,4.8,21.3,6.6c1.8,0.5,3.6,1,5.4,1.5c1.8,0.5,3.6,1,5.4,1.4c3.6,0.8,7.2,1.6,10.8,2.4
			c3.6,0.9,7.2,1.3,10.8,2c1.8,0.3,3.6,0.6,5.4,0.9c1.8,0.3,3.6,0.6,5.4,0.8c7.2,0.8,14.4,1.9,21.5,2.2c1.8,0.1,3.6,0.2,5.3,0.4
			l2.7,0.2l1.3,0.1l1.4,0c3.6,0.1,7.2,0.1,10.8,0.2l2.7,0.1l1.3,0l0.7,0c0.2,0,0.3,0,0.6,0c1.8-0.1,3.5-0.1,5.3-0.2
			c3.5-0.1,7-0.2,10.5-0.3c3.5-0.2,7-0.5,10.4-0.8c3.5-0.3,6.9-0.5,10.3-1c27.4-3.3,53.7-9.6,78-18.8c6-2.4,12.1-4.6,17.9-7.3
			c2.9-1.3,5.8-2.6,8.7-3.9c2.8-1.4,5.6-2.9,8.4-4.3c11.2-5.6,21.8-12,31.9-18.5c20.2-13.3,38-28.2,53.5-43.8
			c15.5-15.6,28.7-32,39.7-48.3c1.4-2.1,2.7-4.1,4-6.1c0.7-1,1.3-2,2-3c0.7-1,1.2-2.1,1.8-3.1c2.4-4.1,4.9-8.1,7.1-12.1
			c2.1-4.1,4.2-8.1,6.3-12c2-4,3.7-8,5.5-11.8c1.9-3.8,3.3-7.8,4.9-11.5c1.5-3.8,3.1-7.5,4.3-11.2c1.3-3.7,2.5-7.3,3.7-10.8
			c1.1-3.6,2.1-7.1,3.1-10.5c0.5-1.7,1-3.4,1.5-5c0.4-1.7,0.8-3.3,1.2-5c0.8-3.3,1.5-6.4,2.3-9.5c0.2-0.8,0.4-1.5,0.5-2.3
			c0.1-0.8,0.3-1.5,0.4-2.3c0.3-1.5,0.6-3,0.8-4.4c0.5-2.9,1-5.7,1.5-8.4c0.8-5.5,1.4-10.5,2-15.1c0.4-2.3,0.4-4.5,0.6-6.6
			c0.2-2.1,0.3-4.1,0.5-6c0.1-1.9,0.3-3.7,0.4-5.3c0.1-1.7,0.1-3.2,0.2-4.7c0.1-2.9,0.1-5.3,0.2-7.3
			C819,409.7,819.1,407.7,819.1,407.7L819.1,407.7z"/>
	</g>
	<g>
		<path fill="#C1272D" d="M819.5,407.7c0,171.8-131.1,313.1-298.7,329.2c-3-21.6-4.5-43.7-4.5-66.1c0-185.6,106-346.5,260.8-425.4
			C804.1,293.3,819.5,348.7,819.5,407.7z"/>
		<path fill="#333333" d="M819.9,407.7l-0.3,15.2c-0.3,5.1-0.7,10.2-1,15.2c-0.1,1.3-0.2,2.5-0.4,3.8l-0.4,3.8l-0.8,7.6l-0.2,1.9
			l-0.3,1.9l-0.6,3.8l-1.2,7.5c-0.3,2.5-1,5-1.4,7.5l-1.5,7.5c-0.4,2.5-1.1,5-1.7,7.4l-1.8,7.4c-0.6,2.5-1.4,4.9-2.1,7.4l-2.2,7.3
			c-0.7,2.5-1.6,4.9-2.4,7.3l-2.5,7.2c-0.8,2.4-1.8,4.8-2.7,7.2l-2.8,7.1c-0.9,2.4-2,4.7-3.1,7l-3.2,7c-1,2.4-2.2,4.6-3.4,6.9
			l-3.5,6.8c-1.1,2.3-2.5,4.5-3.7,6.7l-3.8,6.7c-1.2,2.2-2.7,4.3-4.1,6.5l-4.2,6.5l-1,1.6l-1.1,1.6l-2.2,3.1l-4.4,6.3
			c-0.7,1.1-1.5,2.1-2.3,3.1l-2.4,3l-4.8,6c-3.3,4-6.7,7.8-10,11.7c-3.4,3.8-7.1,7.5-10.6,11.2c-3.7,3.6-7.4,7.1-11.1,10.6
			c-3.8,3.4-7.7,6.8-11.6,10.1l-12.1,9.5c-4.2,3-8.3,6-12.5,8.9c-4.3,2.8-8.6,5.6-13,8.3c-4.4,2.6-8.8,5.2-13.3,7.7
			c-4.6,2.3-9.1,4.7-13.7,7c-4.7,2.1-9.3,4.3-14,6.4c-4.7,1.9-9.5,3.9-14.2,5.7c-4.8,1.7-9.6,3.5-14.5,5c-4.9,1.5-9.8,3-14.7,4.4
			l-7.4,1.9c-2.5,0.6-4.9,1.3-7.4,1.9c-5,1-10,2.1-15,3.1l-15.1,2.4l-15.2,1.8l-1.2,0.1l-0.2-1.2c-1.6-12.2-2.9-24.5-3.7-36.9
			c-0.7-12.3-1.2-24.7-1-37l0.1-9.2l0.4-9.3c0.1-3.1,0.2-6.2,0.4-9.3l0.7-9.2l0.4-4.6l0.2-2.3l0.3-2.3l1-9.2l0.5-4.6
			c0.2-1.5,0.4-3.1,0.7-4.6l1.4-9.2c0.2-1.5,0.4-3.1,0.7-4.6l0.8-4.6l1.7-9.1l0.4-2.3l0.5-2.3l1-4.5l2-9.1c1.5-6,3-12,4.7-18
			l2.7-8.9c0.9-3,1.7-6,2.8-8.9l3-8.8c0.5-1.5,1-2.9,1.5-4.4l1.7-4.3l3.3-8.7c1.1-2.9,2.4-5.7,3.5-8.6l3.6-8.6l3.9-8.4
			c2.5-5.7,5.4-11.2,8.2-16.7l2.1-4.2l2.2-4.1l4.5-8.2l1.1-2l1.2-2l2.4-4l4.8-8l5-7.8l2.5-3.9l1.3-2l1.3-1.9l5.3-7.7l2.6-3.8
			l2.8-3.7l5.6-7.5l1.4-1.9l1.4-1.8l2.9-3.6l5.8-7.3l6.1-7.1l3-3.5l1.5-1.8l1.6-1.7l6.3-6.9l3.2-3.4l3.3-3.3l6.5-6.6l1.6-1.7
			l1.7-1.6l3.4-3.2l6.8-6.4l7-6.2c2.4-2,4.6-4.2,7.1-6.1l7.2-5.9l3.6-3l3.7-2.8l7.4-5.7c1.2-1,2.5-1.9,3.8-2.8l3.8-2.7l7.6-5.4
			l7.8-5.1c2.6-1.7,5.2-3.5,7.8-5l8-4.8l4-2.4l4.1-2.3l8.1-4.5l2-1.1l2.1-1.1l4.1-2.1l8.3-4.2l2.6-1.3l1.3,2.5l4.9,9.5l4.6,9.6
			c1.4,3.3,2.9,6.5,4.3,9.8c1.3,3.3,2.7,6.6,4,9.9c1.2,3.3,2.5,6.7,3.6,10c1.1,3.4,2.3,6.7,3.3,10.1c1,3.4,2.1,6.8,3,10.2
			c0.9,3.4,1.9,6.8,2.7,10.3c0.8,3.5,1.6,6.9,2.3,10.4c0.7,3.5,1.4,6.9,2,10.4c0.6,3.5,1.2,7,1.7,10.5c0.5,3.5,1,7,1.4,10.5
			l1.1,10.6c0.3,3.5,0.6,7.1,0.8,10.6l0.5,10.6L819.9,407.7L819.9,407.7z M819.1,407.7l-0.2-10.6l-0.6-10.6c-0.3-3.5-0.6-7-0.9-10.5
			c-0.3-3.5-0.8-7-1.3-10.5c-0.5-3.5-1.1-7-1.6-10.5c-0.6-3.5-1.3-6.9-2-10.4c-0.7-3.5-1.6-6.9-2.3-10.3c-0.8-3.4-1.8-6.8-2.7-10.2
			c-0.9-3.4-2-6.7-3-10.1c-1-3.4-2.2-6.7-3.4-10c-1.2-3.3-2.5-6.6-3.7-9.9c-1.3-3.3-2.7-6.5-4-9.7c-1.4-3.2-2.9-6.4-4.3-9.6
			c-1.5-3.2-3.1-6.3-4.6-9.5l-4.9-9.3l-5.2-9.1l3.9,1.2l-8,4.5l-4,2.2l-2,1.1l-2,1.2l-7.9,4.7l-3.9,2.3l-3.9,2.5
			c-5.1,3.3-10.3,6.5-15.3,10.1l-7.6,5.2l-7.4,5.4l-3.7,2.7c-1.2,0.9-2.5,1.8-3.7,2.8l-7.2,5.6l-3.6,2.8l-3.5,2.9l-7,5.9
			c-2.4,1.9-4.6,4-6.9,6l-6.8,6.1l-6.6,6.3l-3.3,3.2l-1.7,1.6l-1.6,1.6l-6.4,6.5l-3.2,3.3l-3.1,3.4l-6.2,6.7l-1.6,1.7l-1.5,1.7
			l-3,3.5l-6,6.9l-5.7,7.1l-2.9,3.6l-1.4,1.8l-1.4,1.8l-5.5,7.3l-2.8,3.6l-2.6,3.7l-5.3,7.5l-1.3,1.9l-1.3,1.9l-2.5,3.8l-5,7.7
			l-4.8,7.8l-2.4,3.9l-1.2,2l-1.1,2l-4.5,8l-2.3,4l-2.1,4.1c-2.8,5.4-5.7,10.8-8.2,16.4l-3.9,8.3l-3.7,8.4c-1.2,2.8-2.5,5.6-3.6,8.4
			l-3.4,8.5c-2.4,5.6-4.2,11.5-6.4,17.2c-1.1,2.9-2,5.8-2.9,8.7l-2.8,8.7c-0.9,2.9-1.7,5.9-2.6,8.8l-2.5,8.8l-2.2,8.9l-1.1,4.5
			l-0.6,2.2l-0.5,2.2l-1.9,9l-1,4.5c-0.3,1.5-0.5,3-0.8,4.5l-1.6,9.1c-0.3,1.5-0.6,3-0.8,4.5l-0.6,4.6l-1.3,9.1l-0.3,2.3l-0.2,2.3
			l-0.5,4.6l-0.9,9.2c-0.3,3.1-0.4,6.1-0.6,9.2l-0.6,9.2l-0.2,9.2c-0.1,3.1-0.2,6.2-0.2,9.2c0,3.1,0,6.1,0.1,9.2
			c0.1,6.1,0.3,12.3,0.7,18.4c0.7,12.3,1.9,24.5,3.6,36.7l-1.3-1.1l15.1-1.9c5-0.8,10-1.7,14.9-2.6c4.9-1,9.9-2.2,14.8-3.3
			c4.9-1.3,9.8-2.7,14.6-4c4.8-1.5,9.6-3.2,14.4-4.8c4.7-1.7,9.4-3.6,14.1-5.4c4.7-1.9,9.2-4,13.9-6.1c4.6-2.1,9-4.5,13.6-6.7
			c4.4-2.4,8.8-4.9,13.2-7.3c4.3-2.6,8.6-5.3,12.9-7.9c4.2-2.8,8.3-5.6,12.5-8.4l12.1-9l11.7-9.5l11.3-10c3.6-3.5,7.3-6.9,10.9-10.5
			l5.2-5.5c1.7-1.8,3.5-3.6,5.2-5.5c3.3-3.8,6.7-7.5,9.9-11.3l4.7-5.9l2.4-2.9c0.8-1,1.6-2,2.3-3l4.5-6l2.3-3l1.1-1.5l1.1-1.6
			l4.2-6.2c1.4-2.1,2.9-4.1,4.2-6.3l4-6.4c1.3-2.1,2.7-4.2,3.9-6.5l3.7-6.6c1.2-2.2,2.5-4.4,3.6-6.7l3.4-6.8
			c1.1-2.3,2.3-4.5,3.3-6.8l3.1-6.9c1-2.3,2.1-4.6,3-7l2.8-7.1c0.9-2.4,1.9-4.7,2.7-7.1l2.4-7.2c0.8-2.4,1.7-4.8,2.3-7.2l2.1-7.3
			c0.7-2.4,1.4-4.9,2-7.3l1.7-7.4c0.6-2.5,1.2-4.9,1.6-7.4l1.3-7.5l0.7-3.7l0.3-1.9l0.2-1.9l1-7.5l0.5-3.8c0.2-1.3,0.3-2.5,0.4-3.8
			c0.4-5.1,0.8-10.1,1.1-15.2L819.1,407.7L819.1,407.7z"/>
	</g>
	<g>
		<path fill="#F2F2F2" d="M2.1,621.1V643c288,20.1,296.7-0.8,379.4-40.9l-2-26.6L2.1,621.1z"/>
		<path fill="#333333" d="M2.3,621.3c0.2,7.2,0.3,14.5,0.4,21.7l-0.6-0.6l48.5,2.5l24.2,1.1l24.2,1c8.1,0.3,16.2,0.7,24.2,0.9
			l12.1,0.4l12.1,0.3c8.1,0.2,16.2,0.3,24.2,0.4c8.1,0,16.2,0.1,24.2,0c4,0,8.1-0.1,12.1-0.2l6.1-0.1l6.1-0.2l6.1-0.2l6-0.3l6-0.4
			l6-0.5c8.1-0.6,16.1-1.5,24.1-2.7c8-1.3,15.9-2.7,23.7-4.7c7.8-2,15.6-4.3,23.1-7.2c7.6-2.8,15-6.1,22.3-9.5
			c7.3-3.4,14.5-7.2,21.7-10.9c7.2-3.7,14.4-7.4,21.6-11l-0.6,1.1l-2.3-26.6l1.6,1.3l-47.1,6.1l-47.1,5.9l-47.2,5.9l-23.6,2.9
			l-23.6,2.8l-23.6,2.8l-23.6,2.7l-47.2,5.4l-47.2,5.2l-23.6,2.5L2.3,621.3z M1.9,620.9l23.7-3.3l23.5-3.2l47.1-6.2l47.1-6l23.6-3
			l23.6-2.9l23.6-2.9l23.6-2.8l47.2-5.5l47.2-5.5l47.2-5.3l1.5-0.2l0.1,1.4l1.7,26.6l0,0.8l-0.7,0.3c-14.6,6.9-29,14.3-43.7,21.2
			c-7.4,3.4-14.8,6.6-22.4,9.4c-7.6,2.8-15.4,5.2-23.2,7.2l-5.9,1.4c-2,0.5-4,0.8-5.9,1.3l-3,0.6l-3,0.5l-6,1.1
			c-8,1.2-16,2.4-24.1,3.2l-6.1,0.6l-6.1,0.5l-6.1,0.5l-6.1,0.4l-6.1,0.4l-6.1,0.3c-4,0.2-8.1,0.4-12.2,0.4
			c-4.1,0.1-8.1,0.3-12.2,0.3l-12.2,0.1l-12.2-0.1c-4.1,0-8.1-0.1-12.1-0.2c-8.1-0.1-16.2-0.5-24.3-0.7c-8.1-0.3-16.2-0.7-24.3-1.1
			L74.7,649l-24.2-1.6l-24.2-1.8l-24.2-2l-0.6,0l0-0.6c0.1-7.3,0.2-14.6,0.4-21.9L1.9,620.9z"/>
	</g>
	<g>
		<path fill="#F2F2F2" d="M244.7,542.7l134.8,32.8C289,628.6,144.8,643.8,2.1,621.1v-14.6C101,591.4,172.2,574,244.7,542.7z"/>
		<path fill="#333333" d="M244.8,542.5c11.3,2.5,22.6,5,33.8,7.6c5.6,1.3,11.3,2.6,16.9,3.9l16.9,3.9l16.9,3.9l16.9,4l33.7,8.1
			l4.3,1l-3.8,2.2c-7,4-14.1,8-21.5,11.4l-5.5,2.6l-5.6,2.4c-3.7,1.7-7.5,3.1-11.2,4.6l-2.8,1.1l-2.9,1l-5.7,2.1
			c-3.8,1.4-7.7,2.6-11.5,3.9c-3.9,1.2-7.7,2.4-11.6,3.5c-3.9,1.1-7.8,2.2-11.7,3.2c-7.8,2-15.7,3.8-23.6,5.4
			c-7.9,1.6-15.9,3.1-23.8,4.4c-4,0.6-8,1.3-12,1.8c-4,0.6-8,1.2-12,1.7c-8,1-16,1.9-24.1,2.7c-8,0.8-16.1,1.4-24.1,1.9
			c-4,0.2-8.1,0.5-12.1,0.7l-12.1,0.5l-12.1,0.3l-12.1,0.1l-12.1-0.1c-4,0-8.1-0.2-12.1-0.3c-4-0.1-8.1-0.3-12.1-0.5
			c-4-0.2-8.1-0.4-12.1-0.7c-4-0.2-8.1-0.5-12.1-0.8l-6-0.5l-6-0.6c-8-0.7-16.1-1.7-24.1-2.6c-4-0.5-8-1-12-1.6l-12-1.8l-1.7-0.2
			l0-1.7L0,606.5l0-1.8l1.8-0.3l15.5-2.5c5.2-0.8,10.3-1.7,15.5-2.6c5.2-0.8,10.3-1.8,15.5-2.7c5.2-0.9,10.3-1.8,15.5-2.8l7.7-1.4
			l7.7-1.5l7.7-1.5l7.7-1.6l7.7-1.6l7.7-1.7l7.7-1.7l7.6-1.8l7.6-1.8l7.6-2l7.6-2l7.6-2.1c2.5-0.7,5-1.4,7.6-2.1l7.5-2.2
			c5-1.4,10-3.1,15-4.6c5-1.5,9.9-3.3,14.9-4.9c2.5-0.8,4.9-1.7,7.4-2.6l7.4-2.6c4.9-1.8,9.8-3.7,14.7-5.5L244.8,542.5L244.8,542.5z
			 M244.7,542.9c-4.8,2.1-9.5,4.3-14.3,6.3c-4.8,2-9.7,4.1-14.5,6c-4.9,1.9-9.7,3.9-14.7,5.7c-4.9,1.8-9.8,3.7-14.8,5.3
			c-5,1.7-9.9,3.4-14.9,5c-5,1.6-10,3.2-15,4.7l-7.6,2.2l-7.6,2.1l-7.6,2.1l-7.6,2l-7.6,2l-7.7,1.8l-7.7,1.8l-7.7,1.7l-7.7,1.7
			l-7.7,1.6l-7.7,1.6l-7.7,1.5c-5.2,1-10.3,2-15.5,2.9c-5.2,0.9-10.3,1.9-15.5,2.7c-5.2,0.9-10.4,1.7-15.5,2.6l-15.6,2.4l1.8-2
			l-0.1,14.6l-1.7-2l11.9,1.8c4,0.6,8,1.1,11.9,1.7c8,1,16,2,24,2.8l6,0.6l6,0.6c4,0.4,8,0.7,12,1c8,0.6,16.1,1.1,24.1,1.5
			c4,0.2,8,0.4,12.1,0.5l12.1,0.3l12.1,0.1l12.1-0.1l12.1-0.3c4-0.1,8-0.3,12.1-0.5c8-0.4,16.1-1,24.1-1.7c8-0.7,16-1.5,24-2.6
			c8-1.1,15.9-2.3,23.9-3.7c7.9-1.4,15.8-3,23.7-4.8c7.8-1.8,15.6-3.8,23.4-6c3.9-1.1,7.7-2.3,11.6-3.4c3.8-1.2,7.6-2.5,11.5-3.7
			c3.8-1.4,7.6-2.7,11.3-4.1l5.6-2.1l2.8-1.1l2.8-1.1c3.7-1.5,7.4-3,11.1-4.7l5.5-2.4l5.4-2.6c3.6-1.7,7.2-3.6,10.7-5.4
			c1.8-0.9,3.5-1.9,5.3-2.9l5.2-2.9l0.5,3.2l-33.7-8.4l-16.8-4.2l-16.8-4.3L295,556c-5.6-1.4-11.2-2.8-16.8-4.3
			C267,548.8,255.9,545.9,244.7,542.9z"/>
	</g>
	<g>
		<path fill="#F2F2F2" d="M71.5,340.3l0,11.9c97.2,26.7,147.4,9.1,176.5-28.3l-3.3-10.9L71.5,340.3z"/>
		<path fill="#333333" d="M71.7,340.4l0.3,5.8l0.2,5.9l-0.5-0.6c3.9,0.9,7.7,1.8,11.6,2.6l5.8,1.3l5.8,1.2c3.9,0.8,7.8,1.4,11.7,2.2
			c3.9,0.6,7.8,1.3,11.7,1.8c2,0.3,3.9,0.6,5.9,0.8c2,0.2,3.9,0.5,5.9,0.7l5.9,0.5l5.9,0.4c2,0.2,3.9,0.2,5.9,0.3
			c2,0.1,3.9,0.1,5.9,0.2c2,0.1,3.9,0,5.9,0l2.9,0l2.9-0.1l2.9-0.1l2.9-0.2l2.9-0.2l2.9-0.3c1-0.1,2-0.2,2.9-0.4l2.9-0.5
			c2-0.3,3.9-0.7,5.8-1.1c1.9-0.3,3.8-0.9,5.8-1.4c1.9-0.5,3.8-1.1,5.7-1.7c3.7-1.3,7.4-2.7,11-4.4c3.6-1.6,7-3.6,10.4-5.7l2.4-1.7
			c0.8-0.5,1.6-1.1,2.4-1.7l2.4-1.8c0.8-0.6,1.5-1.3,2.3-1.9c1.5-1.2,2.9-2.6,4.4-3.9l2.1-2.1c0.7-0.7,1.4-1.4,2-2.1
			c2.7-2.8,5.1-5.9,7.5-9l-0.2,1.1l-3.5-10.9l1.7,1.1l-21.6,3.7l-21.6,3.6c-7.2,1.2-14.4,2.4-21.6,3.5l-10.8,1.7l-10.8,1.6
			c-7.2,1.1-14.5,2.2-21.7,3.2l-21.7,3.1l-21.7,2.9l-10.9,1.4C78.8,339.6,75.2,340,71.7,340.4z M71.4,340.1
			c3.6-0.7,7.2-1.4,10.8-2.1l10.8-2.1l21.6-3.9l21.6-3.8c7.2-1.2,14.4-2.5,21.6-3.6l10.8-1.8l10.8-1.7c7.2-1.2,14.4-2.2,21.7-3.3
			l21.7-3.2l21.7-3.1l1.3-0.2l0.3,1.3l3,11l0.2,0.7l-0.4,0.5c-1.3,1.5-2.5,3.1-3.9,4.5l-2,2.2l-2.1,2.1c-0.7,0.7-1.4,1.4-2.2,2.1
			l-2.2,2c-1.5,1.3-3,2.6-4.6,3.8c-3.1,2.5-6.4,4.7-9.8,6.9c-3.4,2.1-6.9,4-10.5,5.7c-3.6,1.8-7.3,3.2-11,4.6
			c-1.9,0.6-3.8,1.3-5.7,1.9c-1.9,0.5-3.8,1.2-5.8,1.6c-1.9,0.5-3.9,1-5.8,1.4l-2.9,0.6c-1,0.2-2,0.3-3,0.5l-3,0.5l-3,0.4l-3,0.4
			l-3,0.3l-3,0.3l-3,0.2l-3,0.2c-1,0-2,0-3,0c-4,0.1-8,0-12-0.3l-6-0.4l-6-0.6c-2-0.2-4-0.5-5.9-0.7c-2-0.2-4-0.5-5.9-0.9
			c-3.9-0.6-7.9-1.4-11.8-2.1c-2-0.4-3.9-0.8-5.8-1.2c-1.9-0.4-3.9-0.9-5.8-1.3c-1.9-0.5-3.9-0.9-5.8-1.4l-5.8-1.6
			c-3.8-1-7.6-2.2-11.4-3.4l-0.5-0.2l0-0.5l0.2-5.9l0.3-6.1L71.4,340.1z"/>
	</g>
	<g>
		<path fill="#F2F2F2" d="M166.3,300.1l78.4,12.8c-37.5,44.8-99.1,47.2-173.3,27.4L166.3,300.1z"/>
		<path fill="#333333" d="M166.3,299.9c3.3,0.4,6.6,0.8,9.9,1.2l9.9,1.2c6.6,0.9,13.1,1.8,19.7,2.7l9.8,1.4l9.8,1.5
			c6.5,1,13.1,2,19.6,3.1l3.2,0.5l-2.1,2.4c-1.3,1.5-2.6,3-3.9,4.4c-1.4,1.4-2.7,2.8-4.2,4.1c-2.9,2.7-5.9,5.2-9.1,7.5l-2.4,1.7
			c-0.8,0.6-1.6,1.1-2.5,1.6c-0.8,0.5-1.6,1.1-2.5,1.6l-2.5,1.5c-3.4,2-6.9,3.6-10.5,5.2l-5.4,2.2c-1.8,0.6-3.7,1.3-5.5,1.9
			c-3.7,1.2-7.5,2.2-11.2,3.1c-1.9,0.4-3.8,0.9-5.7,1.2c-1.9,0.4-3.8,0.7-5.7,1l-2.9,0.5l-2.9,0.3l-2.9,0.4l-2.9,0.3
			c-1,0.1-1.9,0.2-2.9,0.3l-2.9,0.2c-1.9,0.1-3.9,0.2-5.8,0.3c-1.9,0.1-3.9,0.1-5.8,0.1l-2.9,0l-2.9-0.1l-2.9-0.1l-2.9-0.1
			c-1.9-0.1-3.9-0.2-5.8-0.4c-3.9-0.3-7.8-0.7-11.6-1.2c-1.9-0.3-3.9-0.5-5.8-0.8l-5.8-0.9c-3.8-0.7-7.7-1.3-11.5-2.1
			c-1.9-0.4-3.8-0.8-5.7-1.2c-1.9-0.4-3.8-0.8-5.7-1.3c-3.8-0.8-7.6-1.8-11.3-2.8l-6.1-1.6l5.8-2.5c4-1.7,7.9-3.4,11.9-5l11.9-4.9
			l11.9-4.9l11.9-4.8c4-1.6,8-3.2,12-4.8l12-4.7c4-1.6,8-3.1,12-4.7c4-1.5,8-3.1,12-4.6L166.3,299.9L166.3,299.9z M166.3,300.3
			c-3.9,1.8-7.7,3.6-11.6,5.4c-3.9,1.8-7.8,3.6-11.7,5.4l-11.7,5.3c-3.9,1.8-7.8,3.5-11.8,5.3l-11.8,5.2L96,332.1l-11.8,5.1
			c-3.9,1.7-7.9,3.4-11.8,5l-0.3-4c3.7,1,7.5,1.9,11.2,2.9c1.9,0.5,3.7,0.9,5.6,1.4c1.9,0.4,3.7,0.9,5.6,1.3
			c3.8,0.8,7.5,1.6,11.3,2.3l5.7,1l5.7,0.9c3.8,0.6,7.6,1.1,11.4,1.5c1.9,0.2,3.8,0.4,5.7,0.6l2.9,0.3l2.9,0.2l2.9,0.2l2.9,0.1
			c1.9,0.1,3.8,0.2,5.8,0.2c1.9,0,3.8,0,5.8,0l2.9-0.1c1,0,1.9-0.1,2.9-0.1l2.9-0.2l2.9-0.3l2.9-0.3l2.9-0.4c1-0.1,1.9-0.2,2.9-0.4
			l2.8-0.5c1.9-0.3,3.8-0.7,5.7-1.2c3.8-0.8,7.4-2,11.1-3.2c1.8-0.6,3.6-1.4,5.4-2c1.8-0.8,3.5-1.5,5.3-2.4c3.4-1.7,6.8-3.5,10-5.6
			l2.4-1.6c0.8-0.5,1.6-1.1,2.3-1.7c0.8-0.6,1.6-1.1,2.3-1.7l2.2-1.8c3-2.4,5.8-5,8.5-7.6c1.4-1.3,2.6-2.8,4-4.1l3.8-4.3l1.1,2.9
			c-6.5-1-13.1-2.2-19.6-3.3l-9.8-1.7l-9.8-1.7c-6.5-1.2-13-2.4-19.5-3.7l-9.7-1.9C172.8,301.7,169.5,301,166.3,300.3z"/>
	</g>
</g>
</svg>
