<?xml version="1.0" encoding="utf-8"?>
<!-- Generator: Adobe Illustrator 18.0.0, SVG Export Plug-In . SVG Version: 6.00 Build 0)  -->
<!DOCTYPE svg PUBLIC "-//W3C//DTD SVG 1.1//EN" "http://www.w3.org/Graphics/SVG/1.1/DTD/svg11.dtd">
<svg version="1.1" id="Layer_1" xmlns="http://www.w3.org/2000/svg" xmlns:xlink="http://www.w3.org/1999/xlink" x="0px" y="0px"
	 viewBox="0 0 141.3 71.5" enable-background="new 0 0 141.3 71.5" xml:space="preserve">
<g>
	<g>
		<path fill="#333333" d="M59.3,24.7l3-16.3c0-4.6-2.9-8.4-6.5-8.4c-3.6,0-12.6,8.3-12.6,12.9l3,10.2c-7.4,5.1-12.1,4.3-9.1,9.9
			l-8,2.2v-1.5c0-6.3-8.4-7.7-12-10.6l3-14.7c0-4.6-9-8.4-12.6-8.4C4,0,1,3.8,1,8.4l3,16.3c-0.7,3-5.2,7.1-3.8,9.1
			c4.4,6,8.4,12,15,12c6.1,0,11.2-3.1,12.2-9l9.9-1.5c0.9,5.9,4.5,10.6,10.7,10.6c6.6,0,13.5-0.8,13.5-7.4
			C61.6,35.8,60,27.7,59.3,24.7z M2.9,8.4c0-3.6,2.1-6.6,4.7-6.6c2.6,0,10.2,4,10.2,7.6l-2.4,12.3l-0.1,0.4
			c-2.4-3.8-7.6-3.8-9.3-1.7L2.9,8.4z M46,13.3c0-3.6,7.2-11.4,9.8-11.4c2.6,0,4.7,2.9,4.7,6.6l-3,12.1c-1.7-2.1-4.6-2.4-9.4,1.3h0
			L46,13.3z"/>
	</g>
</g>
<g>
	<path fill="#333333" d="M94.7,55.6l-6.8-5.2l-1.3-2.6l-0.5,0.8c-0.4,0.6-0.9,1.5-1.9,2.2c-1.5,1-3.5,1-5.4,0.1
		c-4-1.9-6.5-6.5-5.8-10.9l0.2-1.2l1.1-0.6c2.1-1.2,4.5-1.5,6.6-1.6l-0.3-0.7l2,0.7c0.8,0,1.6,0.1,2.3,0.1l0,0.6l6.6,2.3l-1.8,3
		l2.3,4.5l0.4,0.3c0.3-0.4,0.6-0.8,0.9-1.2l3.8,3.2c-0.6,0.7-1.1,1.6-1.3,2.5L94.7,55.6z M78,41.9c0.2,1.8,1.4,3.6,3,4.3
		c0.3,0.1,0.5,0.2,0.6,0.2c0.1-0.1,0.2-0.3,0.3-0.5l2.1-3.6l-0.4-0.8C81.4,41.4,79.5,41.4,78,41.9z"/>
	<path fill="#333333" d="M109.5,54.3l-8.8-1.1l-0.6-1c-2.4-3.7-0.8-8.2,0-10.7l0.1-0.4l0.3-0.3c1.3-1.6,3.3-2.4,5.3-2.2l-0.6,5
		c-0.2,0-0.4,0-0.6,0.1c-0.6,1.8-1,3.5-0.7,4.8l6.2,0.8L109.5,54.3z"/>
	<path fill="#333333" d="M132.6,56.3c-0.6,0-1.1-0.1-1.6-0.2l-1-0.2l-3.9-6l-0.6-1.1c-0.6-0.8-1.7-1.3-2.8-1.2
		c-1.5,0.1-2.9,1.3-4.2,2.6l2.3,5.6l-5.6-2.4c-0.6-0.3-1.1-0.7-1.5-1.2c-0.4-0.6-0.5-1.2-0.5-1.8c-1.6-4.6-2.4-9.5-2.1-14.4
		c0-0.7,0.1-1.3,0.2-1.9l-1.3-3.7c1.2-0.4,2.3-0.9,3.5-1.4c1.7-2.3,4-3.9,6.5-5.6l0,0c1.7-1.1,4,0.3,3.8,2.3v0
		c-0.3,2.9-2.6,4.6-4.3,5.6c-0.9,0.5-1.8,1-2.7,1.5c-0.5,1-0.8,2-0.8,3.3c-0.1,2.9,0.1,5.9,0.8,8.8c1.5-1.2,3.3-2.1,5.3-2.3
		c2.9-0.3,5.8,1.1,7.4,3.4l0.1,0.2l0.6,1.1l2.5,3.9c1.2-0.3,2.6-1.8,4-4.3l4.4,2.5C138.3,54.8,135.1,56.3,132.6,56.3z"/>
	<path fill="#333333" d="M80.8,64.1c-0.2,0-0.4,0-0.6-0.1c-1.1-0.2-2-1-2.4-1.9c-0.5-1.2-0.3-2.4-0.1-3c0.6-2.6,2.4-3.5,4-3.3
		l-0.4,3.3c-0.4-0.1-0.8,0-1.2,0.2l1.1,0.3l-0.2,1.1c0.7,0.1,1.2-0.2,1.5-0.5c0-0.1,0-0.1-0.1-0.2c0-0.1,0-0.1-0.1-0.1l1.8,0.5
		l-0.6,2.4l-0.5,0.5C82.3,63.9,81.6,64.1,80.8,64.1z"/>
</g>
<path fill="#333333" d="M42.5,71.5c-2.2,0-4.1-0.8-5.4-2.3c-1.1-1.3-1.6-2.9-2.1-4.3c-0.4-1.3-0.7-2.3-1.4-3c0,0,0,0,0,0
	c-0.7,0.7-1.3,1.6-1.9,2.6c-0.7,1.1-1.5,2.3-2.6,3.4c-2.1,2.1-5.2,3-8.4,2.6c-3.2-0.4-5.9-2.1-7.4-4.6c-0.3-0.5-0.6-1-0.8-1.5
	c-0.4-0.8-0.7-1.5-1.2-2c-1-0.9-2.8-0.6-4.1,0.1c-1.6,1-2.8,2.8-3.9,4.6L0,64.7c1.2-1.9,2.8-4.3,5.2-5.8c2.5-1.6,6.4-2,8.9,0.3
	c1.1,1,1.6,2.1,2.1,3.2c0.2,0.4,0.4,0.9,0.6,1.2c0.9,1.5,2.6,2.5,4.5,2.7c2,0.3,3.8-0.3,5.1-1.5c0.7-0.7,1.3-1.7,2-2.7
	c0.7-1.1,1.5-2.3,2.5-3.3c0.4-0.4,1-0.9,1.8-1.1c1.3-0.4,2.7,0.1,3.8,1.2c1.4,1.4,1.9,3.1,2.4,4.7c0.4,1.1,0.7,2.2,1.3,2.9
	c0.7,0.8,1.7,1,2.5,0.9c1.5,0,3-0.8,3.8-1.9c0.5-0.6,0.9-1.4,1.3-2.2c1.2-2.2,2.8-5,6-5.4c2.7-0.3,5.3,1.3,7.2,4.5
	c0.2,0.3,0.4,0.7,0.6,1.1c0.5,0.9,1,1.7,1.6,2.4c0.6,0.6,1.4,1,1.9,0.8l1.4,3.8c-2,0.7-4.5,0-6.2-1.8c-1-1-1.6-2.2-2.2-3.2
	c-0.2-0.3-0.4-0.6-0.5-1c-0.8-1.3-2.1-2.7-3.3-2.6c-1.1,0.1-1.9,1.4-3,3.4c-0.5,0.9-1,1.8-1.7,2.7c-1.6,2.1-4.2,3.4-6.9,3.5
	C42.7,71.5,42.6,71.5,42.5,71.5z"/>
</svg>
