<?xml version="1.0" encoding="utf-8"?>
<!-- Generator: Adobe Illustrator 18.0.0, SVG Export Plug-In . SVG Version: 6.00 Build 0)  -->
<!DOCTYPE svg PUBLIC "-//W3C//DTD SVG 1.1//EN" "http://www.w3.org/Graphics/SVG/1.1/DTD/svg11.dtd">
<svg version="1.1" id="Layer_1" xmlns="http://www.w3.org/2000/svg" xmlns:xlink="http://www.w3.org/1999/xlink" x="0px" y="0px"
	 viewBox="0 0 513 493.4" enable-background="new 0 0 513 493.4" xml:space="preserve">
<polygon fill="#A8A39D" points="235.3,368.5 206.6,0 346.2,174.8 "/>
<polygon fill="#F8F1E9" points="231.4,375.6 190.4,8.3 335.8,178.3 "/>
<polygon fill="#8A171E" points="0,338.8 461,365.5 316,486.3 68,486.3 "/>
<polygon fill="#E2DDD9" points="372.6,493.4 67.3,486.6 109.8,437.3 220.8,484.9 294.2,457.9 313.6,483 352.2,468 "/>
<path fill="#F2F2F2" d="M372.6,396.4c0,0,0.6-0.1,1.6-0.2c1-0.1,2.6-0.2,4.5-0.4c3.9-0.3,9.4-0.6,16-0.8c6.6-0.2,14.3-0.3,22.5-0.2
	c4.1,0,8.4,0.1,12.7,0.2c4.3,0.1,8.7,0.3,13.1,0.5c4.4,0.2,8.8,0.4,13.1,0.7c4.3,0.3,8.6,0.6,12.7,0.9c8.2,0.7,15.9,1.5,22.4,2.3
	c3.3,0.4,6.3,0.8,8.9,1.2c2.7,0.4,5,0.8,6.9,1.1c1.9,0.3,3.4,0.6,4.4,0.8c1,0.2,1.6,0.3,1.6,0.3s-0.6,0.1-1.6,0.2
	c-1,0.1-2.6,0.2-4.5,0.4c-1.9,0.1-4.3,0.3-7,0.4c-2.7,0.1-5.7,0.3-9,0.4c-6.6,0.2-14.3,0.3-22.5,0.2c-4.1,0-8.4-0.1-12.7-0.3
	c-4.3-0.1-8.7-0.3-13.1-0.5c-4.4-0.2-8.8-0.4-13.1-0.7c-4.3-0.3-8.6-0.6-12.7-0.9c-8.2-0.7-15.9-1.5-22.4-2.3
	c-6.6-0.8-12-1.6-15.8-2.2c-1.9-0.3-3.4-0.6-4.4-0.8C373.1,396.5,372.6,396.4,372.6,396.4z"/>
<path fill="#F2F2F2" d="M351.4,415.5c0,0,0.6-0.1,1.6-0.2c1-0.1,2.6-0.2,4.5-0.4c3.9-0.3,9.4-0.6,16-0.8c6.6-0.2,14.3-0.3,22.5-0.2
	c4.1,0,8.4,0.1,12.7,0.2c4.3,0.1,8.7,0.3,13.1,0.5c4.4,0.2,8.8,0.4,13.1,0.7c4.3,0.3,8.6,0.6,12.7,0.9c8.2,0.7,15.9,1.5,22.4,2.3
	c3.3,0.4,6.3,0.8,8.9,1.2c2.7,0.4,5,0.8,6.9,1.1c1.9,0.3,3.4,0.6,4.4,0.8c1,0.2,1.6,0.3,1.6,0.3s-0.6,0.1-1.6,0.2
	c-1,0.1-2.6,0.2-4.5,0.4c-1.9,0.1-4.3,0.3-7,0.4c-2.7,0.1-5.7,0.3-9,0.4c-6.6,0.2-14.3,0.3-22.5,0.2c-4.1,0-8.4-0.1-12.7-0.3
	c-4.3-0.1-8.7-0.3-13.1-0.5c-4.4-0.2-8.8-0.4-13.1-0.7c-4.3-0.3-8.6-0.6-12.7-0.9c-8.2-0.7-15.9-1.5-22.4-2.3
	c-6.6-0.8-12-1.6-15.8-2.2c-1.9-0.3-3.4-0.6-4.4-0.8C351.9,415.6,351.4,415.5,351.4,415.5z"/>
<path fill="#F2F2F2" d="M330.2,434.1c0,0,0.6-0.1,1.6-0.2c1-0.1,2.6-0.2,4.5-0.4c3.9-0.3,9.4-0.6,16-0.8c6.6-0.2,14.3-0.3,22.5-0.2
	c4.1,0,8.4,0.1,12.7,0.2c4.3,0.1,8.7,0.3,13.1,0.5c4.4,0.2,8.8,0.4,13.1,0.7c4.3,0.3,8.6,0.6,12.7,0.9c8.2,0.7,15.9,1.5,22.4,2.3
	c3.3,0.4,6.3,0.8,8.9,1.2c2.7,0.4,5,0.8,6.9,1.1c1.9,0.3,3.4,0.6,4.4,0.8c1,0.2,1.6,0.3,1.6,0.3s-0.6,0.1-1.6,0.2
	c-1,0.1-2.6,0.2-4.5,0.4c-1.9,0.1-4.3,0.3-7,0.4c-2.7,0.1-5.7,0.3-9,0.4c-6.6,0.2-14.3,0.3-22.5,0.2c-4.1,0-8.4-0.1-12.7-0.3
	c-4.3-0.1-8.7-0.3-13.1-0.5c-4.4-0.2-8.8-0.4-13.1-0.7c-4.3-0.3-8.6-0.6-12.7-0.9c-8.2-0.7-15.9-1.5-22.4-2.3
	c-6.6-0.8-12-1.6-15.8-2.2c-1.9-0.3-3.4-0.6-4.4-0.8C330.7,434.2,330.2,434.1,330.2,434.1z"/>
</svg>
