<?xml version="1.0" encoding="utf-8"?>
<!-- Generator: Adobe Illustrator 18.0.0, SVG Export Plug-In . SVG Version: 6.00 Build 0)  -->
<!DOCTYPE svg PUBLIC "-//W3C//DTD SVG 1.1//EN" "http://www.w3.org/Graphics/SVG/1.1/DTD/svg11.dtd">
<svg version="1.1" id="Layer_1" xmlns="http://www.w3.org/2000/svg" xmlns:xlink="http://www.w3.org/1999/xlink" x="0px" y="0px"
	 viewBox="0 0 1211 651" enable-background="new 0 0 1211 651" xml:space="preserve">
<polygon fill="#333333" points="915.6,282.8 743.8,308.4 0,651 1211,651 1211,376 1115.2,326.3 "/>
<polygon fill="#333333" points="923.6,195.2 915.6,194.8 925.5,20.8 938,20.8 "/>
<polygon fill="#333333" points="1211,31 760,31 748,0 1211,11 "/>
<polygon fill="#F8F1E9" points="919.6,191 743.8,308.4 233.6,651 1211,651 1211,395.3 1115.2,326.3 "/>
<path fill="#D8C8B8" d="M911.7,282.8l-34,55.1c-8.7,14.2-7.9,32.2,2.1,45.6l5.3,7.1c13.2,17.6,39.6,17.4,52.6-0.4l9.9-13.6
	c9.6-13.2,9.6-31.2,0-44.4L911.7,282.8z"/>
<path fill="#8A171E" d="M919.6,190c-69.4,26.1-127.9,65.7-175.8,118.4l371.3,17.9C1064.2,265.4,1001.5,217.3,919.6,190z"/>
</svg>
