<?xml version="1.0" encoding="utf-8"?>
<!-- Generator: Adobe Illustrator 18.0.0, SVG Export Plug-In . SVG Version: 6.00 Build 0)  -->
<!DOCTYPE svg PUBLIC "-//W3C//DTD SVG 1.1//EN" "http://www.w3.org/Graphics/SVG/1.1/DTD/svg11.dtd">
<svg version="1.1" id="Layer_1" xmlns="http://www.w3.org/2000/svg" xmlns:xlink="http://www.w3.org/1999/xlink" x="0px" y="0px"
	 viewBox="0 0 385.8 493.5" enable-background="new 0 0 385.8 493.5" xml:space="preserve">
<path fill="#333333" d="M232.4,493.5l-2.8-118.1c0-0.7,0.1-1.4,0.2-2v0c0.2-1,0.6-1.9,1.1-2.7l7.3-11.7l0-0.1l1.5-2.5h0l3.2-5.2v0
	l21.9-35.3l47-75.8l9.7-15.6c1.1-1.8,1.5-3.9,1.2-5.9l-9.2-55.3v0l-2.7-16.1c-1.1-6.3-7.3-8.4-11.9-6.5c-2.5,1-4.5,3.2-5,6.6
	l-3.1,20.5c-1.4,9.4-14.8,9.8-16.9,0.6L250.7,63.9c-2.1-9.5-15.9-8.7-16.9,1l-8.1,78.5c-1,10-15.4,10.4-17,0.5l-22-136.7
	c-1.7-10.3-16.8-9.3-17.1,1.1l-4.7,162.5c-0.3,9.4-13.3,11.6-16.6,2.8l-40-106.2c-3.6-9.5-17.8-6-16.5,4.1l22.3,178
	c0.8,6.3-5.4,11.3-11.4,9.2l-91.2-32.5c-8.6-3.1-15.4,7.7-8.9,14.2l101.2,100.5L124,361l0,0l6.4,6.4c1.5,1.5,2.4,3.5,2.5,5.7
	l1.9,42.7v0l3.5,77.8H232.4z"/>
<path fill="#8D7966" d="M174.6,374.7l-2.8,5.9L145.3,436l-2.6,5.4c-0.3,0.7-0.4,1.4-0.3,2.1l6.7,50.1h-40.8l-7.3-46.6
	c-0.2-0.9-0.6-1.7-1.4-2.3l-60.5-48.2c-3.1-2.5-0.7-7.4,3.1-6.5l40.4,9.6c2.7,0.6,5.1-1.8,4.4-4.4l-7.3-30.8l-4.5-19h0l-6-25.2
	c-1-4.2,4.9-6.4,6.9-2.5l17,33.5l5.1,10c1.8,3.6,7.3,2.1,7-2l-0.3-4.3l-1.1-14l-4.1-51.4c-0.4-4.5,6-5.6,7.2-1.3l15.8,57.3
	c1.1,4,7,3.3,7.2-0.7v0c0-0.1,0-0.2,0-0.3l-0.2-33.9c0-4.2,5.8-5.2,7.2-1.2l14.8,43.6c1.3,3.9,7,3,7.2-1l0.4-8.9
	c0.2-4.2,6.1-4.9,7.2-0.8l7,24.9h0l1.4,5C175.1,373,175,373.9,174.6,374.7z"/>
<path fill="#A8A39D" d="M272.2,493.5l15.6-81.4c0-0.3,0.1-0.5,0.2-0.8c0.3-0.9,0.8-1.8,1.5-2.5l16.3-16.8l75.5-78.2
	c1.1-1.1,1.8-2.7,1.8-4.3l2.7-55.5c0.3-7.5-10.1-9.7-12.7-2.7l-5.7,14.9c-2.6,6.8-12.7,5-12.7-2.3l-0.5-82.3c0-7.5-10.5-9.1-12.8-2
	l-18.8,57.6c-1.7,5.1-7.4,5.7-10.6,2.9c-1.4-1.2-2.3-3-2.2-5.3l3.8-71.5v0l1.9-34.7c0.4-8-11.1-9.7-13-1.9l-3.5,14.1L272.5,248
	c-1.7,7-11.9,6.5-12.9-0.6l-12.7-86.2c-1.1-7.7-12.4-7.4-13.1,0.4l-12.2,137.2c0,0.5-0.1,1-0.3,1.4c-0.1,0.4-0.3,0.8-0.5,1.2
	c-0.5,1-1.3,1.8-2.2,2.3c-2,1.3-4.8,1.5-7.1,0.1l-17.6-10.9l-11.3-7l-23.3-14.4l-11-6.9c-6-3.7-12.8,3.3-9,9.2l20.1,31l53,81.7
	l2.2,3.4c0.9,1.4,1.2,3.1,1,4.7l-0.8,5v0l-5.9,35.1l-6.2,36.4v0l-4.5,22.5H272.2z"/>
<path fill="#E2DDD9" d="M200.3,426.3c-0.1-1,0.2-1.9,0.7-2.7l0.1-0.2l13.7-23.7v0l15.1-26.1v0l8.4-14.4l0-0.1l1.4-2.4l3.5-6.1v0
	l7.2-12.5c0.6-1,0.8-2.3,0.6-3.4l-2-10.3v0l-6.1-30.5c-1.1-5.5-9.1-5.2-9.7,0.4l-1.4,11.8c-0.3,2.6-2.2,4.1-4.3,4.3
	c-2.3,0.3-4.7-0.9-5.4-3.7l-1.3-5.2l-0.2-0.9l-13.6-53.7c-1.4-5.4-9.3-4.7-9.7,0.9l-3.3,45.2l0,0.1c-0.4,5.8-8.7,6.2-9.8,0.6
	l-1.5-7.7L169,215.4c-1.1-5.9-9.8-5-9.8,0.9l0.1,55.1l0.1,33.3l0,5c0,5.4-7.4,6.9-9.5,1.9l-24.8-60.3c-2.2-5.4-10.3-3.1-9.4,2.6
	l14.2,90.9v0l1.7,11.1c0.6,3.6-2.9,6.6-6.4,5.5L124,361l0,0l-19.1-6.2l-11.7-3.8l-17.8-5.7h0l-3.1-1c-5-1.6-8.7,4.7-4.9,8.3
	l12.5,11.7l55,51.4v0l8.2,7.6c0.9,0.9,1.4,2,1.5,3.2l0.7,9.4l4.4,57.5h54L200.3,426.3z"/>
<path fill="#F8F1E9" d="M203.9,493.5l7.5-53.3c0.1-1-0.1-1.9-0.6-2.7l-1.9-2.8l-7.8-11.4l-29.3-42.7l-6.8-9.9
	c-2.3-3.4,1.6-7.6,5.1-5.5l3.3,1.9h0l34.2,20c1.7,1,3.6,0.5,4.8-0.7c0.6-0.6,0.9-1.4,1-2.4l5.1-80.4v-0.1c0.1-1.5,0.9-2.6,1.9-3.1
	c0.2-0.1,0.5-0.2,0.7-0.3c2-0.6,4.5,0.3,5,3l1.2,7l7.5,43.2c0.4,2.5,2.8,3.5,4.7,3.1c0,0,0.1,0,0.1,0h0c1.3-0.3,2.4-1.3,2.7-2.9
	l0.5-2.3v0l0.2-0.9v0l5.8-26.2v0l9.2-42c1-4.6,7.8-3.7,7.6,0.9l-0.9,32.8l-0.8,29.4c-0.1,4.5,6.3,5.5,7.5,1.2l10.2-34
	c1.3-4.2,7.4-3.4,7.5,1l1.5,48.1c0.1,4.3,6.1,5.2,7.5,1.2l3.1-8.8c1.5-4.1,7.6-3,7.5,1.4l-0.7,32.5c0,0.9-0.4,1.8-1,2.5l-1.3,1.4
	L288,411.3l-33.2,36.1c-0.5,0.6-0.8,1.2-1,2l-7.3,44.1H203.9z"/>
</svg>
