<?xml version="1.0" encoding="utf-8"?>
<!-- Generator: Adobe Illustrator 18.0.0, SVG Export Plug-In . SVG Version: 6.00 Build 0)  -->
<!DOCTYPE svg PUBLIC "-//W3C//DTD SVG 1.1//EN" "http://www.w3.org/Graphics/SVG/1.1/DTD/svg11.dtd">
<svg version="1.1" id="Layer_1" xmlns="http://www.w3.org/2000/svg" xmlns:xlink="http://www.w3.org/1999/xlink" x="0px" y="0px"
	 viewBox="0 0 388.9 661.7" enable-background="new 0 0 388.9 661.7" xml:space="preserve">
<polygon fill="#333333" points="304.2,661.7 303.7,494.7 147.6,406.4 66.1,251.2 78.5,240.9 168.9,388.6 289.6,448.8 247.8,6 
	271.8,6 372.9,661.7 "/>
<polygon fill="#E2DDD9" points="331.8,661.7 333.9,494 167.1,410.2 84.6,238 90.1,234.9 184.9,388.6 305.6,448.8 263.8,0 287.8,0 
	388.9,661.7 "/>
<polygon fill="#A8A39D" points="331.8,661.7 333.9,494 167.1,410.2 84.6,238 90.1,234.9 184.9,388.6 305.6,448.8 263.8,0 280.5,0 
	299,228 367.3,591.8 370.1,661.7 "/>
<polygon fill="#D8C8B8" points="115.3,298.8 74.3,282 0,290.4 57.6,323.7 "/>
</svg>
