<?xml version="1.0" encoding="utf-8"?>
<!-- Generator: Adobe Illustrator 18.0.0, SVG Export Plug-In . SVG Version: 6.00 Build 0)  -->
<!DOCTYPE svg PUBLIC "-//W3C//DTD SVG 1.1//EN" "http://www.w3.org/Graphics/SVG/1.1/DTD/svg11.dtd">
<svg version="1.1" id="Layer_1" xmlns="http://www.w3.org/2000/svg" xmlns:xlink="http://www.w3.org/1999/xlink" x="0px" y="0px"
	 viewBox="0 0 766.6 652.9" enable-background="new 0 0 766.6 652.9" xml:space="preserve">
<polygon opacity="0.1" fill="#8D7966" points="288.2,89.6 178.1,473.7 467,527 477.1,453.6 514.4,461 497.3,419.1 542,381.4 
	491.5,365.6 547.3,342.6 487.3,268.5 499.2,182.4 442.9,161.5 510.9,145.9 543.1,87.5 "/>
<polygon opacity="0.1" fill="#A8A39D" points="113.4,29.8 9.1,547.8 395.5,587.3 401,489.5 450.9,495.2 423.9,441.8 478.8,387.4 
	410.6,372 481.7,335.8 394.8,244.5 401.4,129.7 324.9,108.1 412.8,80.3 449,0 "/>
<polygon opacity="0.1" fill="#8D7966" points="77.6,230.8 69.9,630.3 362.8,607.6 353.7,534 391.6,531.5 364.3,495.5 397.8,447.5 
	345,445.3 393,408.7 316,352.5 305.3,266.2 245.5,260.5 307.2,228 323.3,163.3 "/>
<polygon opacity="0.1" fill="#333333" points="20.4,307.7 0,652.9 254,643.3 248.7,579.4 281.6,578.6 259.2,546.4 289.8,506.1 
	244.2,502.4 287,472.4 222.3,421.1 216.1,346.2 164.6,339.1 219,313.1 235.2,257.7 "/>
<polygon fill="#333333" points="564.1,450.1 721.2,449.7 766.6,401.2 738.9,345.1 665.4,368.6 681.4,395.8 710.5,398 705.3,423.2 
	"/>
</svg>
