<?xml version="1.0" encoding="utf-8"?>
<!-- Generator: Adobe Illustrator 18.0.0, SVG Export Plug-In . SVG Version: 6.00 Build 0)  -->
<!DOCTYPE svg PUBLIC "-//W3C//DTD SVG 1.1//EN" "http://www.w3.org/Graphics/SVG/1.1/DTD/svg11.dtd">
<svg version="1.1" id="Layer_1" xmlns="http://www.w3.org/2000/svg" xmlns:xlink="http://www.w3.org/1999/xlink" x="0px" y="0px"
	 viewBox="412.1 0 541.7 768" enable-background="new 412.1 0 541.7 768" xml:space="preserve">
<path fill="#E2DDD9" d="M952,499.8c1.9,11.6,3.5,24.3-2.1,34.7c-4.6,8.4-13.3,13.6-21.5,18.6c-14.7,8.7-29.4,17.4-44.1,26
	c-23.2,13.8-47,27.6-73.6,32.2c-63.9,11.1-125.6-33.9-190.3-30.6c-38.3,1.9-76.3,20.7-113.6,11.9c-16.7-4-31.8-13.3-45.3-23.8
	c-18.7-14.5-35.4-31.6-49.4-50.8c8.4-15.6,17.3-30.9,26.9-45.8c8.6-13.2,17.8-26.1,30.1-35.9c12.3-9.8,28.1-16,43.6-13.9
	c20.9,2.9,36.9,19.9,56.6,27.6c27.3,10.7,58.7,2.1,84.1-12.5c25.4-14.6,47.2-34.8,72.2-50c16.9-10.3,36.9-18.6,56.3-14.3
	c27.2,5.9,44.9,34.1,71.7,41.4c20.1,5.4,41-1.8,61.3-6.8c2.5-0.6,5.2-1.2,7.6-0.6c4.9,1.2,7.6,6.2,9.6,10.9
	C943.1,444.1,947.7,472.1,952,499.8z"/>
<g>
	<polygon fill="#333333" points="679.9,765 617.9,288.7 638.4,192.1 661,292.3 694.2,765.3 	"/>
	<g>
		<path fill="#D8C8B8" d="M662.4,292.3l-17.2-71.9c-2.8,0.6-4.1,5.5-7,5.3c-1.6-0.1-4.5-5.2-6.1-5.6l-15.4,68.7L679.9,765l17.6,0.3
			L662.4,292.3z"/>
		<path fill="none" d="M618.5,212.3c0-0.1-0.1-0.1-0.1-0.2C618.4,212.2,618.5,212.3,618.5,212.3z"/>
	</g>
	<g>
		<path fill="#333333" d="M662.7,291c-1.3,0.7-2.7,1.2-4.1,1.4c-4,0.8-8.7-0.5-10.6-4.1c-1.5-2.9-0.8-2.6-3.8-4.2
			c-3.1,7.5-1.1,9.4-4.9,15.2c-0.6,0.8-1.5,1.5-2.5,1.8c-3.3,0.7-4.7-3.9-7.6-5.2c-2.4-4.4-4.7-8.7-6.9-13.1
			c-0.7-1.3-1.4-2.6-2.8-3.2c-0.7-0.2-1.3-0.2-2,0l-1.8,7.4l63.5,481h20L662.7,291z"/>
	</g>
</g>
<g>
	<polygon fill="#F8F1E9" points="695.5,768 660.6,97.6 682.7,0 707.2,101.1 715.3,768 	"/>
	<g>
		<path fill="none" d="M662.5,20.3c0-0.1-0.1-0.1-0.1-0.2C662.2,20.2,662.4,20.3,662.5,20.3z"/>
		<path fill="#D8C8B8" d="M707.2,101.1l-17.5-72.6c-2.8,0.6-4.2,5.6-7.1,5.3c-1.6-0.1-4.6-5.3-6.2-5.8l-15.8,69.4l34.9,670.4h19.8
			L707.2,101.1z"/>
	</g>
	<g>
		<path fill="#F8F1E9" d="M707.4,101.7c-1.3,0.7-2.7,1.2-4.1,1.4c-4,0.8-8.7-0.5-10.6-4.1c-1.5-2.9-0.8-2.6-3.8-4.2
			c-3.1,7.5-1.1,9.4-4.9,15.2c-0.6,0.8-1.5,1.5-2.5,1.8c-3.3,0.7-4.7-3.9-7.6-5.2c-2.4-4.4-4.7-8.7-6.9-13.1
			c-0.7-1.3-1.4-2.6-2.8-3.2c-0.7-0.2-1.3-0.2-2,0l-1.8,7.3L695.6,768h20L707.4,101.7z"/>
	</g>
</g>
<g>
	<polygon fill="#A8A39D" points="699.2,768 719.2,362.7 741.5,265.1 766.2,366.2 719.2,768 	"/>
	<g>
		<path fill="#E2DDD9" d="M720.9,285.4c0-0.1-0.1-0.1-0.1-0.2C720.8,285.3,720.8,285.4,720.9,285.4z"/>
		<path fill="#E2DDD9" d="M766.2,366.2l-17.8-72.6c-2.8,0.6-4.4,5.6-7.2,5.3c-1.6-0.1-4.7-5.3-6.2-5.8l-15.9,69.4l-20,405.4h20
			L766.2,366.2z"/>
	</g>
	<g>
		<path fill="#A8A39D" d="M766.2,366.7c-1.3,0.7-2.7,1.2-4.1,1.4c-4,0.8-8.7-0.5-10.6-4.1c-1.5-2.9-0.8-2.6-3.8-4.2
			c-3.1,7.5-1.1,9.4-4.9,15.2c-0.6,0.8-1.5,1.5-2.5,1.8c-3.3,0.7-4.7-3.9-7.6-5.2c-2.4-4.4-4.7-8.7-6.9-13.1
			c-0.7-1.3-1.4-2.6-2.8-3.2c-0.7-0.2-1.3-0.2-2,0l-1.6,7.3L699.2,768h20L766.2,366.7z"/>
	</g>
</g>
<g>
	<path fill="#FFFFFF" d="M952,499.8c-4.4-27.8-8.9-55.7-19.6-81.6c-2-4.7-4.7-9.8-9.6-10.9c-2.5-0.6-5.2,0-7.6,0.6
		c-20.2,5.1-46.3,21.3-61.3,6.8c-21.5-20.8-78.4-50.3-87.6-40c-0.6,8.8,40.9,29.2,40.3,38.1c-1.1,14.7-3.6,32-16.8,38.7
		c-15.8,8-34-5.3-51.6-4.8c-16.1,0.5-29.3,12.1-41.2,22.8c-9.6,8.7-19.6,17.4-31.5,22.9c-11.9,5.4-26,7.2-37.9,1.8
		c-2.6-1.2-5.2-2.8-6.7-5.3c-1.6-2.8-1.6-6.1-1.8-9.4c-0.4-9.1,20.1-24.9,17.4-33.6c-15.2,3.2-52.8,9.8-67.3,4.1
		c-19.6-7.6-35.6-24.7-56.6-27.6c-15.5-2.1-31.3,4.1-43.6,13.9c-12.2,9.8-21.5,22.7-30.1,35.9c-9.4,15.1-18.3,30.2-26.7,46
		c14,19.1,30.7,36.2,49.4,50.8c13.6,10.6,28.6,19.9,45.3,23.8c37.3,8.8,75.3-10,113.6-11.9c64.7-3.3,126.4,41.6,190.3,30.6
		c26.6-4.6,50.3-18.6,73.6-32.2c14.7-8.7,29.4-17.4,44.1-26c8.2-4.8,16.9-10.1,21.5-18.6C955.6,524.2,953.9,511.5,952,499.8z"/>
</g>
</svg>
