<?xml version="1.0" encoding="utf-8"?>
<!-- Generator: Adobe Illustrator 18.0.0, SVG Export Plug-In . SVG Version: 6.00 Build 0)  -->
<!DOCTYPE svg PUBLIC "-//W3C//DTD SVG 1.1//EN" "http://www.w3.org/Graphics/SVG/1.1/DTD/svg11.dtd">
<svg version="1.1" id="Layer_1" xmlns="http://www.w3.org/2000/svg" xmlns:xlink="http://www.w3.org/1999/xlink" x="0px" y="0px"
	 viewBox="0 100 300 100" enable-background="new 0 100 300 100" xml:space="preserve">
<path fill="#3C6C8C" d="M244.7,131.6l-50-14.4c-41.3-11.9-85.2-10.6-125.7,3.6L0,146.4V200h300v-53.6
	C281.4,146.4,262.7,136.8,244.7,131.6z"/>
<path fill="#F2F2F2" d="M194.7,124.2l50,14.4c18.1,5.2,36.7,7.8,55.3,7.8v-16.1c-18.7,0-37.3-2.6-55.3-7.8l-50-14.4
	c-41.3-11.9-85.2-10.6-125.7,3.6c0,0-44.4,18.6-68.9,18.6v16.1c24.6,0,68.9-18.6,68.9-18.6C109.5,113.6,153.5,112.3,194.7,124.2z"/>
</svg>
