<?xml version="1.0" encoding="utf-8"?>
<!-- Generator: Adobe Illustrator 18.0.0, SVG Export Plug-In . SVG Version: 6.00 Build 0)  -->
<!DOCTYPE svg PUBLIC "-//W3C//DTD SVG 1.1//EN" "http://www.w3.org/Graphics/SVG/1.1/DTD/svg11.dtd">
<svg version="1.1" id="Layer_1" xmlns="http://www.w3.org/2000/svg" xmlns:xlink="http://www.w3.org/1999/xlink" x="0px" y="0px"
	 viewBox="0 0 1034.5 738.7" enable-background="new 0 0 1034.5 738.7" xml:space="preserve">
<path fill="#FFFFFF" d="M1034.5,736.3l-3.2,2.4l-19.1-24.8l-5.1,3.7l-76.6-107.4c-27.8-39-56.7-79.4-94-110.2
	c-41.1-33.9-87.1-50.3-129.5-46.2c-41.2,4-76.6,25.9-114.2,49.2c-15.2,9.4-30.8,19.1-46.8,27.4c-13.9,7.3-35.4,16.5-58.3,19.1
	c-23.2,2.6-43-1.9-58.9-13.4c-14.3-10.4-23.5-25.3-32.4-39.6c-9.3-15-18.1-29.2-31.8-37.2c-10.6-6.2-23.5-8.2-36.8-9.9
	c-45.6-5.7-92-7.6-137.8-5.5c-4.5,0.2-9.1,0.4-13.6,0.7c-25.1,1.3-51,2.7-76.5-2.2c-35.6-6.9-63.5-25.8-76.5-52
	c-9.8-19.8-10.5-41.9-9.9-61c1-30.9,5.7-61.7,10.2-91.6c3-19.9,6.1-40.6,8.1-60.8C37.5,116.3,30.6,69,10.5,32.4l5.2-2.9L0,2l3.5-2
	l15.8,27.6l5.3-2.9c21.6,39.6,29.1,89.8,23,153.7c-2,20.7-5.1,41.5-8.2,61.7c-4.4,29.4-9,59.8-10,89.7c-0.6,17.1,0,36.8,8.2,53.4
	c10.6,21.3,34.9,37.6,65.2,43.4c23.5,4.5,48.5,3.2,72.6,1.9c4.6-0.2,9.2-0.5,13.8-0.7c46.8-2.1,94.1-0.2,140.6,5.6
	c14.5,1.8,29.7,4.2,42.9,12c17.1,10,27.4,26.6,37.3,42.6c8.5,13.7,16.5,26.6,28.2,35.1c32.9,23.9,81.2,3.1,100.5-6.9
	c15.5-8,30.9-17.6,45.8-26.8c37.5-23.2,76.2-47.1,121.1-51.5c46.6-4.5,96.8,13.2,141.2,49.8c39,32.1,68.4,73.4,96.9,113.3
	l76.6,107.4l-4.6,3.3L1034.5,736.3z"/>
</svg>
