<?xml version="1.0" encoding="utf-8"?>
<!-- Generator: Adobe Illustrator 18.0.0, SVG Export Plug-In . SVG Version: 6.00 Build 0)  -->
<!DOCTYPE svg PUBLIC "-//W3C//DTD SVG 1.1//EN" "http://www.w3.org/Graphics/SVG/1.1/DTD/svg11.dtd">
<svg version="1.1" id="Layer_1" xmlns="http://www.w3.org/2000/svg" xmlns:xlink="http://www.w3.org/1999/xlink" x="0px" y="0px"
	 viewBox="0 0 1176.9 685.2" enable-background="new 0 0 1176.9 685.2" xml:space="preserve">
<path fill="#FFFFFF" d="M1157.3,163.9c-14.7,38.2-37.6,77.5-68.1,116.8c-20.8,26.9-46.9,56.3-82.1,70.2
	c-34.4,13.6-71.5,10.4-107.4,7.3c-11.6-1-23.6-2.1-35.2-2.5c-55-2-110,10.1-159,35c-27.8,14.1-54.2,32.6-79.8,50.5
	c-39.1,27.3-79.5,55.6-126.3,69.5C454.4,524,405,523,360.5,508c-18.2-6.2-35.5-14.6-52.3-22.8c-21.4-10.4-41.6-20.2-63.5-25.9
	c-63.1-16.3-135.1,8.3-174.9,59.9C40.3,557.3,28,607.4,17.2,651.7l-6.1-1.5l-7.1,35L0,684.4l7.2-35.2l-5.5-1.4
	c11.2-45.8,23.9-97.7,55.4-138.4c43.7-56.5,122.5-83.5,191.6-65.7c23.5,6.1,45.4,16.7,66.5,27c16.4,7.9,33.3,16.2,50.5,22
	c41.4,14,87.3,14.9,129.2,2.4c44.4-13.2,81.9-39.5,121.7-67.3c26-18.2,52.9-37,81.8-51.7c51.5-26.1,109.2-38.8,166.8-36.7
	c12,0.4,24.2,1.5,36,2.5c35.6,3.1,69.2,6,100.2-6.2c31.6-12.5,55.8-39.9,75.3-65.1c44.9-57.9,95.6-146,82.1-236.5l5.9-0.9l-6-32.8
	l3.9-0.7l6,32.9l6-0.9C1180.7,73.7,1174.9,118.1,1157.3,163.9z"/>
</svg>
