<?xml version="1.0" encoding="utf-8"?>
<!-- Generator: Adobe Illustrator 18.0.0, SVG Export Plug-In . SVG Version: 6.00 Build 0)  -->
<!DOCTYPE svg PUBLIC "-//W3C//DTD SVG 1.1//EN" "http://www.w3.org/Graphics/SVG/1.1/DTD/svg11.dtd">
<svg version="1.1" id="Layer_1" xmlns="http://www.w3.org/2000/svg" xmlns:xlink="http://www.w3.org/1999/xlink" x="0px" y="0px"
	 viewBox="0 0 662 596.8" enable-background="new 0 0 662 596.8" xml:space="preserve">
<g>
	<path fill="#FFAC6F" d="M137.3,25c39.9-18.2,66.9,6.1,112.4,44.3l103.3,2.9l-30.3,54.4c-4.6,8.2-5.1,18.1-1.4,26.7l19.5,45.5
		c5,11.6,4,24.9-2.7,35.6l0,0c-9.5,15.5-8.3,35.2,3,49.4l0,0c14.7,18.3,34.6,31.7,57.1,38.4c117.7,34.9,208.2,98.4,263,199.5
		l-34.5,67.2l-161.7-72.5L88.7,197.1L137.3,25z"/>
	<g>
		<path fill="#0071BC" d="M327.6,92.8c-7.1,11.4-16.7,21.5-21,34.2c-4.2,12.4-2.9,26.5,3.6,37.9c4.8,8.5,12.4,15.6,14.8,25.1
			c3.5,14.1-5.7,27.9-9.5,41.9c-5.9,21.5,1.2,45.1,14.3,63.1c13.1,18,31.7,31.4,50.7,43.1c27.2,16.7,56,30.7,85.9,41.7
			c15.7,5.8,31.9,10.9,46.2,19.7c18.1,11.2,32.2,27.7,46.4,43.6c32.6,36.7,49.9,74.9,90.9,101.4l11.7-22.8
			c-54.8-101-145.3-164.5-263-199.5c-22.5-6.7-42.4-20.1-57.1-38.4l0,0c-11.4-14.2-12.6-34-3-49.4c6.6-10.7,7.6-24,2.7-35.6
			l-19.5-45.5c-3.7-8.6-3.2-18.5,1.4-26.7l30.3-54.4l-35.1-1C317.8,79.7,332.1,85.6,327.6,92.8z"/>
	</g>
	<g>
		<path fill="#F2F2F2" d="M503.4,365.2c-59.5,5.6-83.1,47.9-91,106.4l52.7,44.7l161.7,72.5l34.5-67.2
			C624.2,453.2,570.7,402,503.4,365.2z"/>
	</g>
	<path opacity="0.1" d="M123.2,39.9C103.3,128.3,72,195.9,33.1,245.9c-49,63,130.6,69.8,405.4,260.2c18.1,10.9,37,20.3,56.6,28.1
		l132.8,53.2l34.2-66.6l-138.6-57.3c-14.5-6-28.3-13.4-41.3-22.1l-121.8-81.9c-5.5-3.7-11.1-7.1-16.9-10.3l-31.6-17.4
		c-27.2-15-37-49.2-21.9-76.4l0,0c10.7-19.1,11.7-42.1,2.8-62.1l-1.8-4c-12.9-29.1-8.3-63,11.9-87.5l24.9-30.2l-44.9-4.9
		c-21.7,0.8-42.7-7.7-57.7-23.4l-12.3-12.8c-9.8-10.2-23-16.4-37.1-17.5l-4-0.3C151.5,11.2,132.4,21.9,123.2,39.9z"/>
	<path fill="#FBFF47" d="M116.8,35.9c-20.1,89.2-51.7,157.4-91,207.8c-49.4,63.5,131.8,70.5,409.1,262.6
		c18.2,11,37.3,20.4,57.1,28.4l134,53.7l34.5-67.2l-139.8-57.8c-14.6-6-28.6-13.5-41.7-22.3L356,358.4c-5.5-3.7-11.2-7.2-17.1-10.4
		L307,330.4c-27.5-15.1-37.4-49.7-22.1-77.1l0,0c10.8-19.3,11.8-42.5,2.9-62.7l-1.8-4c-13-29.4-8.4-63.5,12-88.3L328.7,61l-50.9,1.9
		c-21.9,0.8-43.1-7.8-58.3-23.6l-12.4-13C197.3,16,184,9.7,169.7,8.7l-4.1-0.3C145.3,6.9,126.1,17.8,116.8,35.9z"/>
	<g>
		<path fill="#0071BC" d="M521.9,464c-14.6-6-28.6-13.5-41.7-22.3l-48.7-32.5c-15.1,21.5-23.4,49.1-27.8,75.8
			c10.7,7,21.5,14.4,32.5,22c18.2,11,37.3,20.4,57.1,28.4l134,53.7l34.5-67.2L521.9,464z"/>
	</g>
	<g opacity="0.1">
		<path d="M191.7,209.6c20.4-19.2,24.8-49.3,32.7-76.2c5.8-19.9,14.3-39.2,27.3-55.4c4.2-5.3,9.6-11.7,14.7-16.1
			c-25-2.7-29.3-9.3-40-20.5l-12.4-13c-9.9-10.4-23.3-16.7-37.5-17.7l-4.1-0.3C152,8.9,132.7,19.8,123.3,38
			c-20.1,89.4-51.9,157.9-91.3,208.5c-18.1,23.3-5.4,39,31.6,58.9c32-30.3,67.2-57.2,105-79.9C176.7,220.7,184.9,216,191.7,209.6z"
			/>
	</g>
	<g>
		<path fill="#70FFD4" d="M188.7,204.3c21-19.7,25.4-50.5,33.5-78.1c6-20.4,14.7-40.2,27.9-56.8c4.3-5.4,9.1-10.4,14.4-15
			c-15.2-3.3-29.3-11.1-40.3-22.6l-12.7-13.3C201.4,7.9,187.7,1.5,173.1,0.4l-4.2-0.3c-20.9-1.5-40.7,9.7-50.3,28.3
			C98,120.1,65.4,190.3,25.1,242.2c-18.5,23.8-5.5,39.9,32.4,60.4c32.8-31.1,68.9-58.6,107.6-81.9
			C173.3,215.7,181.7,210.9,188.7,204.3z"/>
	</g>
	<g>
		<path fill="#004F9C" d="M598,525.5c-53.9-32.4-117-47.6-169.8-81.7c-22.8-14.7-43.3-32.8-65.5-48.3
			c-15.7-10.9-32.4-20.6-48.9-30.2c-26.4-15.3-52.9-30.6-79.3-45.9c-51.4-29.8-102.9-59.6-154.3-89.4c-10.8-6.2-22.2-12.6-33.9-16.6
			c-5.1,7.5-10.3,14.8-15.6,21.6c-49.6,63.7,132.1,70.6,410,263.2c18.3,11,37.4,20.5,57.2,28.4l134.3,53.8l14.5-28.3
			C629.6,546.1,613.7,535,598,525.5z"/>
	</g>
	<g opacity="0.1">
		<path d="M589.5,540.6c-55-33.1-119.4-48.5-173.3-83.4c-23.3-15-44.2-33.5-66.9-49.3c-16.1-11.2-33-21-50-30.8
			c-27-15.6-54-31.3-80.9-46.9c-52.5-30.4-105-60.8-157.5-91.2c-11-6.4-22.6-12.9-34.6-16.9c-5.2,7.7-10.5,15.1-15.9,22.1
			c-50.6,65,134.9,72.1,418.6,268.7c18.7,11.2,38.2,20.9,58.4,29l137.1,54.9l14.8-28.9C621.8,561.6,605.5,550.2,589.5,540.6z"/>
	</g>
	<g>
		<path fill="#FFFFFF" d="M592.2,535.4c-55.5-33.4-120.4-48.9-174.7-84.1c-23.4-15.2-44.5-33.7-67.4-49.7
			c-16.2-11.3-33.3-21.2-50.4-31c-27.2-15.8-54.4-31.5-81.6-47.3c-52.9-30.7-105.8-61.3-158.8-92c-11.1-6.4-22.8-13-34.9-17
			c-5.2,7.8-10.6,15.2-16.1,22.3c-51,65.5,136,72.7,421.9,270.8c18.8,11.3,38.5,21.1,58.9,29.3l138.2,55.4l14.9-29.1
			C624.8,556.6,608.4,545.1,592.2,535.4z"/>
	</g>
	<circle fill="#FFAC6F" cx="279.7" cy="93.9" r="7.8"/>
	<circle fill="#FFAC6F" cx="260.8" cy="121.9" r="7.8"/>
	<circle fill="#FFAC6F" cx="257.8" cy="155.8" r="7.8"/>
	<circle fill="#FFAC6F" cx="265.9" cy="190.1" r="7.8"/>
	<circle fill="#FFAC6F" cx="270.5" cy="224.1" r="7.8"/>
	<circle fill="#FFAC6F" cx="262.2" cy="257.1" r="7.8"/>
</g>
</svg>
