<?xml version="1.0" encoding="utf-8"?>
<!-- Generator: Adobe Illustrator 18.0.0, SVG Export Plug-In . SVG Version: 6.00 Build 0)  -->
<!DOCTYPE svg PUBLIC "-//W3C//DTD SVG 1.1//EN" "http://www.w3.org/Graphics/SVG/1.1/DTD/svg11.dtd">
<svg version="1.1" id="Layer_1" xmlns="http://www.w3.org/2000/svg" xmlns:xlink="http://www.w3.org/1999/xlink" x="0px" y="0px"
	 viewBox="0 0 858.3 491.4" enable-background="new 0 0 858.3 491.4" xml:space="preserve">
<path opacity="0.1" d="M7,439.8c294.6-102.6,374.6-41.5,514.3-8.1c50.5,12.1,136.6-9.9,207-5.5c98.8,6.3,99.3,52.2,129.9,65.1
	l-354.2-19.2L7,439.8z"/>
<path fill="#E6E6E6" d="M0,439.4c175.4-204.5,227.4-114.9,310.9-47.7c30.2,24.3,81.5-19.4,123.5-10.3c59,12.9,51.4,64.9,69.7,90.8
	L0,439.4z"/>
<path fill="#F2F2F2" d="M495.8,32.7c1.4-0.6,2.9-1.2,4.3-1.8c0.7-0.3,1.5-0.5,2.2-0.8c0.7-0.3,1.5-0.5,2.2-0.7l1.1-0.4
	c0.4-0.1,0.7-0.2,1.1-0.3c0.7-0.2,1.5-0.4,2.3-0.6c1.5-0.4,3-0.8,4.6-1.1c1.5-0.3,3.1-0.6,4.6-0.8c1.6-0.2,3.1-0.4,4.7-0.5
	c1.6-0.1,3.2-0.1,4.8-0.1c1.6,0,3.2,0.1,4.8,0.3l1.2,0.2c0.4,0.1,0.8,0.1,1.2,0.2l1.2,0.2l1.2,0.3c0.4,0.1,0.8,0.2,1.2,0.3l1.2,0.3
	c0.8,0.2,1.6,0.5,2.3,0.7l0.6,0.2l0.6,0.2l1.1,0.5c0.4,0.1,0.7,0.3,1.1,0.5l1.1,0.5c0.7,0.4,1.4,0.8,2.2,1.2
	c0.7,0.4,1.4,0.8,2.1,1.3c0.7,0.5,1.4,0.9,2,1.4l1,0.7c0.3,0.2,0.7,0.5,1,0.8c1.3,1,2.5,2.2,3.6,3.3l0.8,0.9
	c0.3,0.3,0.6,0.6,0.8,0.9c0.5,0.6,1.1,1.2,1.6,1.9c0.5,0.6,1,1.3,1.5,1.9l1.4,2l-3.6-0.8l2.1-1.2c0.7-0.4,1.4-0.7,2.1-1.1
	c1.4-0.7,2.8-1.4,4.3-1.9c0.7-0.3,1.5-0.6,2.2-0.8c0.7-0.3,1.5-0.5,2.3-0.7c1.5-0.5,3.1-0.8,4.6-1.1c1.6-0.3,3.2-0.5,4.7-0.6
	c0.8-0.1,1.6-0.1,2.4-0.1c0.8,0,1.6,0,2.4,0c0.8,0.1,1.6,0.1,2.4,0.2c0.8,0.1,1.6,0.2,2.4,0.3c1.6,0.2,3.1,0.6,4.7,1l1.1,0.3
	c0.4,0.1,0.8,0.2,1.1,0.4l1.1,0.4l1.1,0.4c0.4,0.1,0.7,0.3,1.1,0.4l1.1,0.5c0.7,0.3,1.4,0.6,2.1,1c0.7,0.3,1.4,0.7,2.1,1.1
	c0.7,0.4,1.4,0.8,2,1.2c0.7,0.4,1.3,0.8,2,1.2c0.7,0.4,1.3,0.9,1.9,1.3c0.6,0.4,1.2,0.9,1.9,1.4c0.6,0.5,1.2,0.9,1.8,1.4
	c0.6,0.5,1.2,1,1.7,1.5l0.9,0.8l0.8,0.8c0.6,0.5,1.1,1,1.6,1.6c0.5,0.5,1.1,1.1,1.6,1.6c1,1.1,2.1,2.2,3,3.4
	c-0.6-0.5-1.2-0.9-1.8-1.4c-0.6-0.5-1.2-0.9-1.8-1.4c-0.6-0.5-1.2-0.9-1.8-1.3c-0.6-0.4-1.2-0.9-1.8-1.3l-0.9-0.6l-0.9-0.6
	c-0.6-0.4-1.2-0.8-1.9-1.2c-0.6-0.4-1.3-0.8-1.9-1.2c-0.6-0.4-1.3-0.8-1.9-1.1c-1.3-0.7-2.6-1.4-3.9-2c-1.3-0.6-2.7-1.2-4-1.7
	c-0.7-0.3-1.4-0.5-2.1-0.7l-1-0.4c-0.3-0.1-0.7-0.2-1-0.3l-1-0.3l-1.1-0.3c-0.4-0.1-0.7-0.2-1.1-0.3l-1.1-0.2
	c-1.4-0.3-2.8-0.5-4.3-0.6c-0.4,0-0.7-0.1-1.1-0.1l-1.1-0.1c-0.7,0-1.4,0-2.1,0c-0.7,0-1.4,0-2.1,0.1l-1.1,0.1c-0.4,0-0.7,0-1.1,0.1
	c-1.4,0.2-2.8,0.4-4.2,0.7c-0.7,0.2-1.4,0.3-2.1,0.5c-0.7,0.2-1.4,0.4-2.1,0.6c-0.7,0.2-1.4,0.4-2,0.7c-0.7,0.3-1.3,0.5-2,0.8
	c-1.3,0.6-2.6,1.2-3.9,1.8c-0.6,0.3-1.3,0.7-1.9,1l-1.9,1.1l-2.2,1.2l-1.4-2.1l-1.3-1.8c-0.4-0.6-0.9-1.2-1.3-1.8
	c-0.4-0.6-0.9-1.1-1.4-1.7c-0.2-0.3-0.5-0.6-0.7-0.8l-0.7-0.8c-1-1.1-2-2.1-3.1-3c-0.3-0.2-0.5-0.5-0.8-0.7l-0.8-0.7
	c-0.3-0.2-0.6-0.4-0.9-0.6l-0.9-0.6c-0.6-0.4-1.2-0.8-1.8-1.2c-0.6-0.4-1.2-0.7-1.9-1.1c-0.6-0.3-1.3-0.7-1.9-1l-1-0.4l-0.5-0.2
	l-0.5-0.2c-0.7-0.3-1.3-0.5-2-0.8l-1-0.3c-0.3-0.1-0.7-0.2-1.1-0.3l-1.1-0.3l-1.1-0.3c-0.4-0.1-0.7-0.2-1.1-0.2l-1.1-0.2
	c-0.7-0.2-1.5-0.2-2.2-0.4c-0.7-0.1-1.5-0.2-2.2-0.3c-1.5-0.2-3-0.2-4.5-0.3c-0.7,0-1.5,0-2.3,0c-0.8,0-1.5,0-2.3,0.1
	c-1.5,0.1-3,0.2-4.5,0.3c-1.5,0.1-3,0.3-4.5,0.5c-0.8,0.1-1.5,0.2-2.3,0.3c-0.8,0.1-1.5,0.2-2.3,0.4c-0.8,0.1-1.5,0.3-2.3,0.4
	c-0.8,0.1-1.5,0.3-2.3,0.5c-0.8,0.2-1.5,0.3-2.3,0.5C497.3,32.4,496.5,32.5,495.8,32.7z"/>
<path fill="#F2F2F2" d="M537.3,19.6c1.2-0.5,2.4-1,3.7-1.5c0.6-0.2,1.2-0.5,1.9-0.7c0.6-0.2,1.3-0.4,1.9-0.6l0.9-0.3
	c0.3-0.1,0.6-0.2,1-0.3c0.6-0.2,1.3-0.4,1.9-0.5c1.3-0.3,2.6-0.6,3.9-0.9c1.3-0.3,2.6-0.5,4-0.7c1.3-0.2,2.7-0.3,4-0.4
	c1.4-0.1,2.7-0.1,4.1-0.1c1.4,0,2.7,0.1,4.1,0.3l1,0.1c0.3,0,0.7,0.1,1,0.2l1,0.2l1,0.2c0.3,0.1,0.7,0.1,1,0.2l1,0.3
	c0.7,0.2,1.3,0.4,2,0.6l0.5,0.2l0.5,0.2l1,0.4c0.3,0.1,0.6,0.3,1,0.4l0.9,0.4c0.6,0.3,1.2,0.7,1.9,1c0.6,0.4,1.2,0.7,1.8,1.1
	c0.6,0.4,1.2,0.8,1.7,1.2l0.8,0.6c0.3,0.2,0.6,0.4,0.8,0.7c1.1,0.9,2.1,1.8,3.1,2.8l0.7,0.8c0.2,0.3,0.5,0.5,0.7,0.8
	c0.4,0.5,0.9,1,1.3,1.6c0.4,0.5,0.9,1.1,1.3,1.6l1.2,1.7l-3.1-0.7l1.8-1c0.6-0.3,1.2-0.6,1.8-0.9c1.2-0.6,2.4-1.2,3.7-1.7
	c0.6-0.3,1.3-0.5,1.9-0.7c0.6-0.2,1.3-0.4,1.9-0.6c1.3-0.4,2.6-0.7,4-1c1.3-0.3,2.7-0.4,4-0.5c0.7-0.1,1.4-0.1,2-0.1
	c0.7,0,1.4,0,2,0c0.7,0,1.4,0.1,2,0.1c0.7,0.1,1.4,0.1,2,0.2c1.3,0.2,2.7,0.5,4,0.8l1,0.3c0.3,0.1,0.6,0.2,1,0.3l1,0.3l0.9,0.4
	c0.3,0.1,0.6,0.2,0.9,0.4l0.9,0.4c0.6,0.3,1.2,0.6,1.8,0.8c0.6,0.3,1.2,0.6,1.8,0.9c0.6,0.3,1.2,0.7,1.7,1c0.6,0.3,1.1,0.7,1.7,1.1
	c0.6,0.4,1.1,0.7,1.6,1.1c0.5,0.4,1.1,0.8,1.6,1.2c0.5,0.4,1,0.8,1.5,1.2c0.5,0.4,1,0.8,1.5,1.3l0.7,0.6l0.7,0.7
	c0.5,0.4,1,0.9,1.4,1.4c0.5,0.5,0.9,0.9,1.4,1.4c0.9,0.9,1.8,1.9,2.6,2.9c-0.5-0.4-1-0.8-1.5-1.2c-0.5-0.4-1-0.8-1.5-1.2
	c-0.5-0.4-1-0.8-1.5-1.2c-0.5-0.4-1-0.8-1.6-1.1l-0.8-0.6L642,37c-0.5-0.4-1.1-0.7-1.6-1c-0.5-0.3-1.1-0.7-1.6-1
	c-0.5-0.3-1.1-0.7-1.6-1c-1.1-0.6-2.2-1.2-3.4-1.7c-1.1-0.5-2.3-1-3.4-1.5c-0.6-0.2-1.2-0.4-1.8-0.6l-0.9-0.3
	c-0.3-0.1-0.6-0.2-0.9-0.3l-0.9-0.3l-0.9-0.2c-0.3-0.1-0.6-0.2-0.9-0.2l-0.9-0.2c-1.2-0.2-2.4-0.4-3.6-0.5c-0.3,0-0.6,0-0.9-0.1
	l-0.9-0.1c-0.6,0-1.2,0-1.8,0c-0.6,0-1.2,0-1.8,0.1l-0.9,0.1c-0.3,0-0.6,0-0.9,0.1c-1.2,0.1-2.4,0.3-3.6,0.6
	c-0.6,0.1-1.2,0.3-1.8,0.4c-0.6,0.2-1.2,0.3-1.8,0.5c-0.6,0.2-1.2,0.4-1.7,0.6c-0.6,0.2-1.1,0.4-1.7,0.7c-1.1,0.5-2.2,1-3.3,1.5
	c-0.5,0.3-1.1,0.6-1.6,0.9l-1.6,0.9l-1.8,1.1l-1.2-1.8l-1.1-1.5c-0.4-0.5-0.8-1-1.1-1.5c-0.4-0.5-0.8-1-1.2-1.4
	c-0.2-0.2-0.4-0.5-0.6-0.7l-0.6-0.7c-0.8-0.9-1.7-1.8-2.7-2.6c-0.2-0.2-0.5-0.4-0.7-0.6l-0.7-0.6c-0.2-0.2-0.5-0.4-0.7-0.6l-0.7-0.5
	c-0.5-0.4-1-0.7-1.5-1c-0.5-0.3-1.1-0.6-1.6-0.9c-0.6-0.3-1.1-0.6-1.7-0.8l-0.8-0.4l-0.4-0.2l-0.4-0.2c-0.6-0.2-1.1-0.5-1.7-0.7
	l-0.9-0.3c-0.3-0.1-0.6-0.2-0.9-0.3l-0.9-0.3l-0.9-0.2c-0.3-0.1-0.6-0.2-0.9-0.2l-0.9-0.2c-0.6-0.1-1.2-0.2-1.9-0.3
	c-0.6-0.1-1.3-0.2-1.9-0.2c-1.3-0.1-2.5-0.2-3.8-0.2c-0.6,0-1.3,0-1.9,0c-0.6,0-1.3,0-1.9,0c-1.3,0.1-2.6,0.1-3.9,0.3
	c-1.3,0.1-2.6,0.3-3.9,0.5c-0.6,0.1-1.3,0.2-1.9,0.3c-0.6,0.1-1.3,0.2-1.9,0.3c-0.6,0.1-1.3,0.2-1.9,0.4c-0.6,0.1-1.3,0.2-1.9,0.4
	c-0.6,0.1-1.3,0.3-1.9,0.4C538.6,19.3,538,19.4,537.3,19.6z"/>
<path fill="#F2F2F2" d="M623.7,14.9c0.7-0.3,1.4-0.6,2.1-0.9c0.4-0.1,0.7-0.3,1.1-0.4c0.4-0.1,0.7-0.2,1.1-0.4l0.5-0.2
	c0.2-0.1,0.4-0.1,0.5-0.2c0.4-0.1,0.7-0.2,1.1-0.3c0.7-0.2,1.5-0.4,2.2-0.5c0.7-0.2,1.5-0.3,2.3-0.4c0.8-0.1,1.5-0.2,2.3-0.2
	c0.8,0,1.6-0.1,2.3,0c0.8,0,1.6,0.1,2.3,0.2l0.6,0.1c0.2,0,0.4,0.1,0.6,0.1l0.6,0.1L644,12c0.2,0,0.4,0.1,0.6,0.1l0.6,0.2
	c0.4,0.1,0.8,0.2,1.1,0.4l0.3,0.1l0.3,0.1l0.6,0.2c0.2,0.1,0.4,0.2,0.5,0.2l0.5,0.3c0.4,0.2,0.7,0.4,1.1,0.6c0.3,0.2,0.7,0.4,1,0.6
	c0.3,0.2,0.7,0.4,1,0.7l0.5,0.4c0.2,0.1,0.3,0.2,0.5,0.4c0.6,0.5,1.2,1.1,1.8,1.6l0.4,0.4c0.1,0.1,0.3,0.3,0.4,0.4
	c0.3,0.3,0.5,0.6,0.8,0.9c0.2,0.3,0.5,0.6,0.7,0.9l0.7,1l-1.8-0.4l1-0.6c0.3-0.2,0.7-0.4,1-0.5c0.7-0.3,1.4-0.7,2.1-0.9
	c0.4-0.2,0.7-0.3,1.1-0.4c0.4-0.1,0.7-0.2,1.1-0.4c0.7-0.2,1.5-0.4,2.3-0.5c0.8-0.1,1.5-0.2,2.3-0.3c0.4,0,0.8,0,1.2-0.1
	c0.4,0,0.8,0,1.2,0c0.4,0,0.8,0,1.2,0.1c0.4,0,0.8,0.1,1.2,0.1c0.8,0.1,1.5,0.3,2.3,0.5l0.6,0.2c0.2,0.1,0.4,0.1,0.6,0.2l0.5,0.2
	l0.5,0.2c0.2,0.1,0.4,0.1,0.5,0.2l0.5,0.2c0.4,0.1,0.7,0.3,1,0.5c0.3,0.2,0.7,0.3,1,0.5c0.3,0.2,0.7,0.4,1,0.6
	c0.3,0.2,0.6,0.4,1,0.6c0.3,0.2,0.6,0.4,0.9,0.6c0.3,0.2,0.6,0.4,0.9,0.7c0.3,0.2,0.6,0.5,0.9,0.7c0.3,0.2,0.6,0.5,0.9,0.7l0.4,0.4
	l0.4,0.4c0.3,0.3,0.5,0.5,0.8,0.8c0.3,0.3,0.5,0.5,0.8,0.8c0.5,0.5,1,1.1,1.5,1.7c-0.3-0.2-0.6-0.5-0.9-0.7
	c-0.3-0.2-0.6-0.4-0.9-0.7c-0.3-0.2-0.6-0.4-0.9-0.7c-0.3-0.2-0.6-0.4-0.9-0.6l-0.4-0.3l-0.5-0.3c-0.3-0.2-0.6-0.4-0.9-0.6
	c-0.3-0.2-0.6-0.4-0.9-0.6c-0.3-0.2-0.6-0.4-0.9-0.5c-0.6-0.4-1.3-0.7-1.9-1c-0.6-0.3-1.3-0.6-2-0.9c-0.3-0.1-0.7-0.3-1-0.4
	l-0.5-0.2c-0.2-0.1-0.3-0.1-0.5-0.2l-0.5-0.1l-0.5-0.1c-0.2,0-0.3-0.1-0.5-0.1l-0.5-0.1c-0.7-0.1-1.4-0.2-2.1-0.3
	c-0.2,0-0.3,0-0.5,0l-0.5,0c-0.3,0-0.7,0-1,0c-0.3,0-0.7,0-1,0l-0.5,0c-0.2,0-0.3,0-0.5,0c-0.7,0.1-1.4,0.2-2.1,0.3
	c-0.3,0.1-0.7,0.1-1,0.3c-0.3,0.1-0.7,0.2-1,0.3c-0.3,0.1-0.7,0.2-1,0.3c-0.3,0.1-0.7,0.2-1,0.4c-0.6,0.3-1.3,0.6-1.9,0.9
	c-0.3,0.2-0.6,0.3-0.9,0.5l-0.9,0.5l-1.1,0.6l-0.7-1l-0.6-0.9c-0.2-0.3-0.4-0.6-0.6-0.9c-0.2-0.3-0.5-0.5-0.7-0.8
	c-0.1-0.1-0.2-0.3-0.4-0.4l-0.4-0.4c-0.5-0.5-1-1-1.5-1.5c-0.1-0.1-0.3-0.2-0.4-0.3l-0.4-0.3c-0.1-0.1-0.3-0.2-0.4-0.3l-0.4-0.3
	c-0.3-0.2-0.6-0.4-0.9-0.6c-0.3-0.2-0.6-0.4-0.9-0.5c-0.3-0.2-0.6-0.3-0.9-0.5l-0.5-0.2l-0.2-0.1l-0.2-0.1c-0.3-0.1-0.7-0.3-1-0.4
	l-0.5-0.2c-0.2-0.1-0.3-0.1-0.5-0.1l-0.5-0.1l-0.5-0.1c-0.2,0-0.3-0.1-0.5-0.1l-0.5-0.1c-0.4-0.1-0.7-0.1-1.1-0.2
	c-0.4-0.1-0.7-0.1-1.1-0.1c-0.7-0.1-1.5-0.1-2.2-0.1c-0.4,0-0.7,0-1.1,0c-0.4,0-0.7,0-1.1,0c-0.7,0-1.5,0.1-2.2,0.2
	c-0.7,0.1-1.5,0.2-2.2,0.3c-0.4,0-0.7,0.1-1.1,0.2c-0.4,0.1-0.7,0.1-1.1,0.2c-0.4,0.1-0.7,0.1-1.1,0.2c-0.4,0.1-0.7,0.1-1.1,0.2
	c-0.4,0.1-0.7,0.1-1.1,0.2C624.5,14.7,624.1,14.8,623.7,14.9z"/>
<path fill="#F2F2F2" d="M676.5,4.9c0.4-0.2,0.7-0.3,1.1-0.4c0.2-0.1,0.4-0.1,0.5-0.2c0.2-0.1,0.4-0.1,0.5-0.2l0.3-0.1
	c0.1,0,0.2-0.1,0.3-0.1c0.2-0.1,0.4-0.1,0.6-0.2c0.4-0.1,0.8-0.2,1.1-0.3c0.4-0.1,0.8-0.1,1.2-0.2c0.4-0.1,0.8-0.1,1.2-0.1
	c0.4,0,0.8,0,1.2,0c0.4,0,0.8,0,1.2,0.1l0.3,0c0.1,0,0.2,0,0.3,0l0.3,0.1l0.3,0.1c0.1,0,0.2,0,0.3,0.1l0.3,0.1
	c0.2,0.1,0.4,0.1,0.6,0.2l0.1,0l0.1,0.1l0.3,0.1c0.1,0,0.2,0.1,0.3,0.1l0.3,0.1c0.2,0.1,0.4,0.2,0.5,0.3c0.2,0.1,0.4,0.2,0.5,0.3
	c0.2,0.1,0.3,0.2,0.5,0.3l0.2,0.2c0.1,0.1,0.2,0.1,0.2,0.2c0.3,0.3,0.6,0.5,0.9,0.8l0.2,0.2c0.1,0.1,0.1,0.1,0.2,0.2
	c0.1,0.2,0.3,0.3,0.4,0.5c0.1,0.2,0.2,0.3,0.4,0.5l0.3,0.5L692.7,8l0.5-0.3c0.2-0.1,0.3-0.2,0.5-0.3c0.4-0.2,0.7-0.3,1.1-0.5
	c0.2-0.1,0.4-0.1,0.6-0.2c0.2-0.1,0.4-0.1,0.6-0.2c0.4-0.1,0.8-0.2,1.2-0.3c0.4-0.1,0.8-0.1,1.2-0.2c0.2,0,0.4,0,0.6,0
	c0.2,0,0.4,0,0.6,0c0.2,0,0.4,0,0.6,0c0.2,0,0.4,0,0.6,0.1c0.4,0.1,0.8,0.1,1.2,0.2l0.3,0.1c0.1,0,0.2,0.1,0.3,0.1l0.3,0.1l0.3,0.1
	c0.1,0,0.2,0.1,0.3,0.1l0.3,0.1c0.2,0.1,0.4,0.2,0.5,0.2c0.2,0.1,0.3,0.2,0.5,0.3c0.2,0.1,0.3,0.2,0.5,0.3c0.2,0.1,0.3,0.2,0.5,0.3
	c0.2,0.1,0.3,0.2,0.5,0.3c0.2,0.1,0.3,0.2,0.5,0.3c0.2,0.1,0.3,0.2,0.4,0.4c0.1,0.1,0.3,0.2,0.4,0.4l0.2,0.2l0.2,0.2
	c0.1,0.1,0.3,0.3,0.4,0.4c0.1,0.1,0.3,0.3,0.4,0.4c0.3,0.3,0.5,0.6,0.8,0.8c-0.1-0.1-0.3-0.2-0.4-0.4c-0.1-0.1-0.3-0.2-0.4-0.3
	c-0.1-0.1-0.3-0.2-0.5-0.3c-0.1-0.1-0.3-0.2-0.5-0.3l-0.2-0.2L707,9.9c-0.2-0.1-0.3-0.2-0.5-0.3c-0.2-0.1-0.3-0.2-0.5-0.3
	c-0.2-0.1-0.3-0.2-0.5-0.3c-0.3-0.2-0.6-0.4-1-0.5c-0.3-0.2-0.7-0.3-1-0.4c-0.2-0.1-0.3-0.1-0.5-0.2l-0.3-0.1
	c-0.1,0-0.2-0.1-0.3-0.1l-0.3-0.1L702,7.6c-0.1,0-0.2,0-0.3-0.1l-0.3-0.1c-0.4-0.1-0.7-0.1-1.1-0.2c-0.1,0-0.2,0-0.3,0l-0.3,0
	c-0.2,0-0.4,0-0.5,0c-0.2,0-0.4,0-0.5,0l-0.3,0c-0.1,0-0.2,0-0.3,0c-0.4,0-0.7,0.1-1,0.2c-0.2,0-0.3,0.1-0.5,0.1
	c-0.2,0-0.3,0.1-0.5,0.1c-0.2,0.1-0.3,0.1-0.5,0.2c-0.2,0.1-0.3,0.1-0.5,0.2c-0.3,0.1-0.7,0.3-1,0.4c-0.2,0.1-0.3,0.2-0.5,0.3
	l-0.5,0.3l-0.5,0.3L692.4,9l-0.3-0.5c-0.1-0.1-0.2-0.3-0.3-0.4c-0.1-0.1-0.2-0.3-0.3-0.4c-0.1-0.1-0.1-0.1-0.2-0.2l-0.2-0.2
	c-0.2-0.3-0.5-0.5-0.8-0.8c-0.1-0.1-0.1-0.1-0.2-0.2l-0.2-0.2c-0.1-0.1-0.1-0.1-0.2-0.2l-0.2-0.2c-0.1-0.1-0.3-0.2-0.5-0.3
	c-0.2-0.1-0.3-0.2-0.5-0.3c-0.2-0.1-0.3-0.2-0.5-0.2l-0.2-0.1l-0.1-0.1l-0.1,0c-0.2-0.1-0.3-0.1-0.5-0.2l-0.3-0.1
	c-0.1,0-0.2-0.1-0.3-0.1l-0.3-0.1L686,4.3c-0.1,0-0.2,0-0.3-0.1l-0.3-0.1c-0.2,0-0.4-0.1-0.5-0.1c-0.2,0-0.4,0-0.6-0.1
	C684,4,683.6,4,683.2,4c-0.2,0-0.4,0-0.6,0c-0.2,0-0.4,0-0.6,0c-0.4,0-0.8,0-1.1,0.1c-0.4,0-0.8,0.1-1.1,0.1c-0.2,0-0.4,0.1-0.6,0.1
	c-0.2,0-0.4,0.1-0.6,0.1c-0.2,0-0.4,0.1-0.6,0.1c-0.2,0-0.4,0.1-0.6,0.1c-0.2,0-0.4,0.1-0.6,0.1C676.9,4.8,676.7,4.8,676.5,4.9z"/>
<path fill="#F2F2F2" d="M476.7,64c2.4-1,4.8-2,7.2-3c1.2-0.5,2.5-0.9,3.7-1.3c1.2-0.5,2.5-0.9,3.7-1.3l1.9-0.6
	c0.6-0.2,1.3-0.4,1.9-0.6c1.3-0.4,2.5-0.7,3.8-1.1c2.5-0.7,5.1-1.3,7.7-1.8c2.6-0.5,5.2-1,7.8-1.3c2.6-0.4,5.3-0.6,7.9-0.8
	c2.7-0.2,5.3-0.2,8-0.2c2.7,0.1,5.4,0.2,8.1,0.6l2,0.3c0.7,0.1,1.3,0.2,2,0.3l2,0.4l2,0.4c0.7,0.2,1.3,0.3,2,0.5l2,0.6
	c1.3,0.3,2.6,0.8,3.9,1.3l1,0.3l1,0.4l1.9,0.8c0.6,0.2,1.3,0.6,1.9,0.8l1.9,0.9c1.2,0.6,2.4,1.3,3.7,1.9c1.2,0.7,2.4,1.4,3.5,2.2
	c1.1,0.8,2.3,1.5,3.4,2.4l1.6,1.3c0.5,0.4,1.1,0.8,1.6,1.3c2.1,1.8,4.1,3.6,6.1,5.6l1.4,1.5c0.5,0.5,0.9,1,1.4,1.5
	c0.9,1,1.8,2.1,2.6,3.1c0.8,1.1,1.7,2.1,2.5,3.2l2.3,3.3l-6.1-1.4l3.5-1.9c1.2-0.6,2.4-1.2,3.5-1.8c2.4-1.2,4.8-2.3,7.3-3.3
	c1.2-0.5,2.5-0.9,3.8-1.4c1.2-0.5,2.5-0.8,3.8-1.2c2.6-0.8,5.2-1.4,7.8-1.9c2.6-0.5,5.3-0.8,8-1.1c1.3-0.1,2.7-0.1,4-0.2
	c1.3,0,2.7,0,4,0c1.3,0.1,2.7,0.1,4,0.3c1.3,0.2,2.7,0.3,4,0.5c2.6,0.4,5.3,0.9,7.8,1.6l1.9,0.5c0.6,0.2,1.3,0.4,1.9,0.6l1.9,0.6
	l1.9,0.7c0.6,0.2,1.2,0.5,1.9,0.7l1.8,0.8c1.2,0.5,2.4,1.1,3.6,1.7c1.2,0.6,2.3,1.2,3.5,1.8c1.2,0.6,2.3,1.3,3.4,2
	c1.1,0.6,2.2,1.4,3.3,2.1c1.1,0.7,2.2,1.5,3.2,2.2c1.1,0.7,2.1,1.5,3.1,2.3c1,0.8,2,1.6,3,2.4c1,0.8,2,1.7,2.9,2.5l1.4,1.3l1.4,1.3
	c0.9,0.9,1.9,1.7,2.8,2.7c0.9,0.9,1.8,1.8,2.7,2.7c1.8,1.9,3.5,3.8,5.1,5.7c-1-0.8-2-1.6-3-2.4c-1-0.8-2-1.5-3-2.3
	c-1-0.8-2-1.5-3-2.3c-1-0.8-2-1.5-3.1-2.2l-1.5-1.1l-1.6-1c-1-0.7-2.1-1.4-3.2-2.1c-1.1-0.7-2.1-1.4-3.2-2c-1.1-0.6-2.1-1.3-3.2-1.9
	c-2.2-1.2-4.4-2.4-6.6-3.4c-2.2-1.1-4.5-2.1-6.8-2.9c-1.1-0.4-2.3-0.9-3.5-1.3l-1.7-0.6c-0.6-0.2-1.2-0.3-1.8-0.5l-1.8-0.5l-1.8-0.4
	c-0.6-0.1-1.2-0.3-1.8-0.4L646,82c-2.4-0.5-4.8-0.8-7.2-1c-0.6-0.1-1.2-0.1-1.8-0.1l-1.8-0.1c-1.2,0-2.4,0-3.6-0.1
	c-1.2,0-2.4,0.1-3.6,0.1l-1.8,0.2c-0.6,0.1-1.2,0.1-1.8,0.2c-2.4,0.3-4.7,0.7-7.1,1.2c-1.2,0.3-2.3,0.5-3.5,0.9
	c-1.2,0.3-2.3,0.6-3.5,1c-1.1,0.4-2.3,0.7-3.4,1.2c-1.1,0.4-2.3,0.8-3.4,1.3c-2.2,0.9-4.4,1.9-6.6,3c-1.1,0.6-2.2,1.1-3.2,1.7
	l-3.2,1.8l-3.6,2.1l-2.4-3.5l-2.1-3c-0.7-1-1.5-2-2.2-3c-0.7-1-1.6-1.9-2.4-2.8c-0.4-0.5-0.8-0.9-1.2-1.4l-1.2-1.3
	c-1.7-1.8-3.4-3.5-5.3-5.1c-0.4-0.4-0.9-0.8-1.4-1.2l-1.4-1.1c-0.5-0.4-1-0.7-1.5-1.1l-1.5-1.1c-1-0.7-2-1.3-3-2
	c-1.1-0.6-2.1-1.2-3.2-1.8c-1.1-0.5-2.2-1.1-3.3-1.6l-1.7-0.8l-0.8-0.4l-0.9-0.3c-1.1-0.4-2.3-0.9-3.4-1.3l-1.7-0.6
	c-0.6-0.2-1.2-0.3-1.8-0.5l-1.8-0.5l-1.8-0.4c-0.6-0.1-1.2-0.3-1.8-0.4l-1.8-0.3c-1.2-0.3-2.5-0.4-3.7-0.6c-1.2-0.2-2.5-0.3-3.7-0.5
	c-2.5-0.3-5-0.4-7.5-0.5c-1.3-0.1-2.5,0-3.8,0c-1.3,0-2.5,0.1-3.8,0.1c-2.5,0.1-5.1,0.3-7.6,0.5c-2.5,0.2-5.1,0.5-7.6,0.9
	c-1.3,0.2-2.5,0.4-3.8,0.6c-1.3,0.2-2.5,0.4-3.8,0.6c-1.3,0.2-2.5,0.5-3.8,0.7c-1.3,0.2-2.5,0.5-3.8,0.8c-1.3,0.3-2.5,0.5-3.8,0.8
	C479.3,63.5,478,63.7,476.7,64z"/>
</svg>
