<?xml version="1.0" encoding="utf-8"?>
<!-- Generator: Adobe Illustrator 18.0.0, SVG Export Plug-In . SVG Version: 6.00 Build 0)  -->
<!DOCTYPE svg PUBLIC "-//W3C//DTD SVG 1.1//EN" "http://www.w3.org/Graphics/SVG/1.1/DTD/svg11.dtd">
<svg version="1.1" id="Layer_1" xmlns="http://www.w3.org/2000/svg" xmlns:xlink="http://www.w3.org/1999/xlink" x="0px" y="0px"
	 viewBox="0 0 1366 300" enable-background="new 0 0 1366 300" xml:space="preserve">
<polygon fill="#F2F2F2" points="1366,120 1366,296 1270,253 1079.8,213.2 1023.3,246 928.1,238 827,176 557.8,232.4 509.2,300
	389,285.9 313.6,217.2 35,194 0,300 0,120 35,14 313.6,37.2 389,105.9 509.2,120 557.8,52.4 827,0 928.1,62 1023.3,70 1079.8,37.2
	1270,77 "/>
<polygon fill="#bf4253" points="1366,142.5 1366,300 1270,257 1079.8,217.2 1023.3,250 928.1,242 827,180 557.8,232.4 509.2,300 
	389,285.9 313.6,217.2 35,194 0,300 0,142.5 35,36.5 313.6,59.7 389,128.4 509.2,142.5 557.8,74.9 827,22.5 928.1,84.5 1023.3,92.5
	1079.8,59.7 1270,99.5 "/>
<rect x="0.6" y="1982.1" fill="#FFC732" width="1366" height="22.5"/>
</svg>
