<?xml version="1.0" encoding="utf-8"?>
<!-- Generator: Adobe Illustrator 18.0.0, SVG Export Plug-In . SVG Version: 6.00 Build 0)  -->
<!DOCTYPE svg PUBLIC "-//W3C//DTD SVG 1.1//EN" "http://www.w3.org/Graphics/SVG/1.1/DTD/svg11.dtd">
<svg version="1.1" id="Layer_1" xmlns="http://www.w3.org/2000/svg" xmlns:xlink="http://www.w3.org/1999/xlink" x="0px" y="0px"
	 viewBox="0 0 1366 250" enable-background="new 0 0 1366 250" xml:space="preserve">
<polygon fill="#CD5257" points="1366,111 1366,250 0,250 0,111 99,0 170,29.4 242,73.9 348.9,26.4 428,93.8 533,32.4 602,81.4 
	744,13.4 926,84.5 1103,52.8 "/>
<polygon fill="#F2F2F2" points="27,100.4 95,26.4 140,63.4 187,130.4 136.6,108.2 93,116.4 70,91.4 "/>
<polygon fill="#BF4253" points="117,33.4 154.4,49.6 241.5,100.3 302.2,132.4 260,120.1 249.3,127.4 209.8,100.7 196.8,104.7 
	203.8,129.6 156,64.4 "/>
<polygon fill="#F2F2F2" points="410,143.4 493,112.4 492.7,133.4 529.3,152.4 535.3,123.8 524.7,86.1 532.7,81.4 529.8,53.4 "/>
<polygon fill="#BF4253" points="538,55.4 547.7,83.1 535.3,95.4 549.7,135.4 562.1,120.4 603.1,135.4 622,120.4 699.2,118.5 
	573.7,89.4 "/>
<polygon fill="#FFFFFF" points="251.3,84.8 337,45.6 329.8,63.5 337,78.4 317.1,78.4 300.8,89.4 "/>
<polygon fill="#BF4253" points="348.5,39.8 368.1,59.9 410.6,97.1 379.9,91.6 368.5,75.2 355,81.9 341,62.5 "/>
<polygon fill="#FFFFFF" points="888.7,99.8 941,98.1 1099.7,64.8 1111.2,83.6 1095,82.9 1121.1,120.4 1088,107.4 1073.4,120.4 
	1051.6,115.4 1042.6,102.9 1019,115.4 "/>
<polygon fill="#BF4253" points="1120,69.9 1337,120.4 1308,130.4 1297,120.4 1248,130.4 1188,102.9 1157,130.4 1117.6,87.7 
	1133.1,89.4 "/>
<polygon fill="#F2F2F2" points="635.5,80.4 739.5,26.4 735.5,50.9 746.5,47.4 734.5,75.4 719.5,64.8 "/>
<polygon fill="#BF4253" points="749.1,25.5 746.6,42.4 758.6,39.7 749.1,71.5 764.1,67 759.6,52.5 779.6,69 809.6,64.5 803.6,56 
	854.6,71.5 "/>
</svg>
