<?xml version="1.0" encoding="utf-8"?>
<!-- Generator: Adobe Illustrator 18.0.0, SVG Export Plug-In . SVG Version: 6.00 Build 0)  -->
<!DOCTYPE svg PUBLIC "-//W3C//DTD SVG 1.1//EN" "http://www.w3.org/Graphics/SVG/1.1/DTD/svg11.dtd">
<svg version="1.1" id="Layer_1" xmlns="http://www.w3.org/2000/svg" xmlns:xlink="http://www.w3.org/1999/xlink" x="0px" y="0px"
	 viewBox="0 0 1366 250" enable-background="new 0 0 1366 250" xml:space="preserve">
<polygon fill="#F2F2F2" points="1366,102.5 1366,130.9 1218.4,101.2 1040.4,126.3 850.5,69.2 725.5,138.3 542.5,69.2 336.5,138.3 
	234.5,81.3 0,130.9 0,102.5 237.6,18.4 346,88.5 548.3,0 728.1,93.2 847.8,7.7 1037.1,73 1233.6,46.6 "/>
<polyline fill="#CD5257" points="0,250 0,116.5 237.6,32.4 346,102.5 548.3,14 728.1,107.2 847.8,21.7 1037.1,87 1233.6,60.6 
	1366,116.5 1366,250 "/>
</svg>
