<?xml version="1.0" encoding="utf-8"?>
<!-- Generator: Adobe Illustrator 18.0.0, SVG Export Plug-In . SVG Version: 6.00 Build 0)  -->
<!DOCTYPE svg PUBLIC "-//W3C//DTD SVG 1.1//EN" "http://www.w3.org/Graphics/SVG/1.1/DTD/svg11.dtd">
<svg version="1.1" id="Layer_1" xmlns="http://www.w3.org/2000/svg" xmlns:xlink="http://www.w3.org/1999/xlink" x="0px" y="0px"
	 viewBox="0 0 990.7 571" enable-background="new 0 0 990.7 571" xml:space="preserve">
<polygon fill="#9A3E41" points="27.9,126.4 487.7,77.9 483.3,83.9 14.6,147 "/>
<polygon fill="#9A3E41" points="209.9,338.3 202.9,338.5 87.1,119.8 5,344.4 0,344.5 86.6,101.8 "/>
<polygon fill="#9A3E41" points="508.7,266 503.2,265.6 429.8,84.9 347.5,254.5 343.6,254.2 430.8,70.7 "/>
<polygon fill="#4D4D4D" points="323.9,72 208.7,171.4 273.3,523.4 276.7,253 "/>
<polygon fill="#9A3E41" points="273.3,523.4 879.3,571 990.7,541 "/>
<path fill="#FFFFFF" d="M11.9,347.5c57.4-75.9,117.6-56.5,179.1,0H11.9z"/>
<path fill="#FFFFFF" d="M376.8,259c38.2-43,73.7-28.4,108,8.6L376.8,259z"/>
<path fill="#FFC06B" d="M0,344.5c66.3,122.1,136.7,106.6,209.9-6.3L0,344.5z"/>
<path fill="#FFC06B" d="M343.6,254.2c42.3,101.1,98.7,94.5,165.1,11.8L343.6,254.2z"/>
<polygon fill="#F2F2F2" points="323.9,72 208.7,171.4 256,311.8 277.4,250.2 "/>
<polygon fill="#CCCCCC" points="273.3,112.2 239.5,179.4 318.2,168.3 323.9,87.5 310.7,83.4 "/>
<polygon fill="#999999" points="310.7,83.4 327.7,125.9 299.5,200.3 282.2,101.8 "/>
<polygon fill="#FFFFFF" points="341.1,70.7 339.1,100 327.6,112.4 318.8,103.6 310.7,88.9 "/>
<polygon fill="#FFD374" points="328.7,0 181.7,88 439.7,102 "/>
</svg>
